<svg width="29" height="18" viewBox="0 0 29 18" fill="none" xmlns="http://www.w3.org/2000/svg">
<path d="M5.94727 7.04199C5.94727 6.53418 6.25977 6.22168 6.78711 6.22168H8.59375V4.46387C8.59375 3.94629 8.88672 3.63379 9.39453 3.63379C9.89258 3.63379 10.1953 3.94629 10.1953 4.46387V6.22168H11.8848C12.4512 6.22168 12.793 6.53418 12.793 7.04199C12.793 7.56934 12.4512 7.8916 11.8848 7.8916H10.1953V9.64941C10.1953 10.167 9.89258 10.4893 9.39453 10.4893C8.88672 10.4893 8.59375 10.167 8.59375 9.64941V7.8916H6.78711C6.25977 7.8916 5.94727 7.56934 5.94727 7.04199ZM20.3613 6.94434C19.5605 6.94434 18.8867 6.29004 18.8867 5.47949C18.8867 4.65918 19.5605 4.00488 20.3613 4.00488C21.1816 4.00488 21.8359 4.65918 21.8359 5.47949C21.8359 6.29004 21.1816 6.94434 20.3613 6.94434ZM17.4023 9.92285C16.6016 9.92285 15.9277 9.26855 15.9277 8.45801C15.9277 7.64746 16.6016 6.9834 17.4023 6.9834C18.2129 6.9834 18.877 7.64746 18.877 8.45801C18.877 9.26855 18.2129 9.92285 17.4023 9.92285ZM3.7207 17.8526C5.05859 17.8526 5.97656 17.3643 6.79688 16.3487L8.56445 14.21C8.81836 13.9073 9.11133 13.7608 9.4043 13.7608H18.7891C19.082 13.7608 19.375 13.9073 19.6289 14.21L21.3965 16.3487C22.2168 17.3643 23.1348 17.8526 24.4727 17.8526C26.709 17.8526 28.1934 16.3682 28.1934 14.083C28.1934 13.1065 27.9688 11.9834 27.5879 10.7237C26.9922 8.72168 25.9473 5.99707 24.9512 3.88769C24.1113 2.12988 23.6816 1.3291 21.6113 0.860352C19.7754 0.44043 17.2266 0.157227 14.1016 0.157227C10.9766 0.157227 8.41797 0.44043 6.58203 0.860352C4.51172 1.3291 4.08203 2.12988 3.24219 3.88769C2.24609 5.99707 1.20117 8.72168 0.605469 10.7237C0.224609 11.9834 0 13.1065 0 14.083C0 16.3682 1.48438 17.8526 3.7207 17.8526Z" fill="#1E1E24"/>
</svg>
