<svg width="210" height="124" viewBox="0 0 210 124" fill="none" xmlns="http://www.w3.org/2000/svg">
<mask id="mask0_264_308" style="mask-type:alpha" maskUnits="userSpaceOnUse" x="0" y="0" width="103" height="124">
<path d="M56.1016 123.793H0V0H60.1328C75.306 0.223958 86.056 4.61914 92.3828 13.1855C96.1901 18.4486 98.0938 24.7474 98.0938 32.082C98.0938 39.6406 96.1901 45.7155 92.3828 50.3066C90.2552 52.8822 87.1198 55.2337 82.9766 57.3613C89.3034 59.6569 94.0625 63.2962 97.2539 68.2793C100.501 73.2624 102.125 79.3092 102.125 86.4199C102.125 93.7546 100.277 100.333 96.582 106.156C94.2305 110.02 91.291 113.267 87.7637 115.898C83.7884 118.922 79.0853 120.993 73.6543 122.113C68.2793 123.233 62.4284 123.793 56.1016 123.793ZM55.5137 69.2871H24.6914V102.293H55.0938C60.5247 102.293 64.752 101.565 67.7754 100.109C73.2624 97.4219 76.0059 92.2708 76.0059 84.6562C76.0059 78.2174 73.3464 73.7943 68.0273 71.3867C65.0599 70.043 60.8887 69.3431 55.5137 69.2871ZM68.3633 45.6875C71.7227 43.6719 73.4023 40.0605 73.4023 34.8535C73.4023 29.0866 71.1628 25.2793 66.6836 23.4316C62.8203 22.1439 57.8932 21.5 51.9023 21.5H24.6914V48.7949H55.0938C60.5247 48.7949 64.9479 47.7591 68.3633 45.6875Z" fill="#DB324D"/>
</mask>
<g mask="url(#mask0_264_308)">
<path d="M-8.0001 -10.5L139.5 -10.5C133.895 -3.06152 137.442 -7.72118 132.377 -0.999963C97.0802 45.841 73.0249 77.7634 33.961 129.603L1.49983 129.603L-8.00018 129.603L-8.0001 -10.5Z" fill="url(#paint0_linear_264_308)"/>
</g>
<mask id="mask1_264_308" style="mask-type:alpha" maskUnits="userSpaceOnUse" x="52" y="0" width="158" height="124">
<path d="M183.016 0H209.303L174.449 123.793H149.758L134.809 51.3984L130.441 27.4629L126.074 51.3984L111.125 123.793H87.1055L52 0H79.4629L95.8398 70.8828L99.3672 90.6191L102.979 71.3027L116.92 0H144.215L158.912 70.8828L162.691 90.6191L166.471 71.6387L183.016 0Z" fill="#DB324D"/>
</mask>
<g mask="url(#mask1_264_308)">
<path d="M208.704 111.104L218.788 -2.21267L169.768 -3.56943L150.686 -5.33737C150.686 -5.33737 143.821 -7.2726 140.464 -2.44238C112.34 38.0262 90.6064 69.3004 57.5135 116.919L62.3476 130.658L90.8265 129.563L135.294 127.853L204.166 131.013L208.704 111.104Z" fill="white"/>
</g>
<defs>
<linearGradient id="paint0_linear_264_308" x1="44" y1="48" x2="77.5" y2="72.5" gradientUnits="userSpaceOnUse">
<stop stop-color="white"/>
<stop offset="1" stop-color="#B5B5B5"/>
</linearGradient>
</defs>
</svg>
