<svg width="28" height="24" viewBox="0 0 28 24" fill="currentColor" xmlns="http://www.w3.org/2000/svg">
<path fill-rule="evenodd" clip-rule="evenodd" d="M0.643352 2.69513C0 3.77882 0 5.20255 0 8.05V15.95C0 18.7975 0 20.2212 0.643352 21.3049C1.1855 22.2181 2.03647 22.9627 3.08015 23.4371C4.31865 24 5.94577 24 9.2 24H10.2815C10.2835 23.8082 10.3035 21.7987 10.2965 20.7675C6.48185 21.4924 5.67699 19.1586 5.67699 19.1586C5.05313 17.7729 4.15397 17.4038 4.15397 17.4038C2.90879 16.6591 4.24827 16.6738 4.24827 16.6738C5.62479 16.7592 6.34883 17.9107 6.34883 17.9107C7.57213 19.7442 9.55903 19.2146 10.3403 18.9081C10.4649 18.1324 10.8185 17.6035 11.2109 17.3036C8.16567 17.0009 4.96389 15.971 4.96389 11.3727C4.96389 10.0629 5.4985 8.99179 6.37577 8.15272C6.23433 7.84922 5.7637 6.62929 6.50964 4.97693C6.50964 4.97693 7.66137 4.65427 10.2814 6.20717C11.375 5.94124 12.5487 5.8079 13.7147 5.80348C14.8791 5.8079 16.0527 5.94124 17.148 6.20717C19.7663 4.65427 20.9156 4.97693 20.9156 4.97693C21.664 6.62929 21.1934 7.84922 21.0519 8.15272C21.9309 8.99179 22.4621 10.0629 22.4621 11.3727C22.4621 15.9828 19.2553 16.9972 16.2 17.2941C16.6925 17.6646 17.1312 18.3969 17.1312 19.5166C17.1312 20.9548 17.1467 23.7716 17.1479 24H18.2286C21.4828 24 23.1099 24 24.3484 23.4371C25.3921 22.9627 26.2431 22.2181 26.7852 21.3049C27.4286 20.2212 27.4286 18.7975 27.4286 15.95V8.05C27.4286 5.20255 27.4286 3.77882 26.7852 2.69513C26.2431 1.78191 25.3921 1.03731 24.3484 0.562933C23.1099 0 21.4828 0 18.2286 0H9.2C5.94577 0 4.31865 0 3.08015 0.562933C2.03647 1.03731 1.1855 1.78191 0.643352 2.69513Z" fill="#currentColor"/>
</svg>
