<svg width="24" height="24" viewBox="0 0 24 24" fill="currentColor" xmlns="http://www.w3.org/2000/svg">
<g clip-path="url(#clip0_101_6660)">
<path fill-rule="evenodd" clip-rule="evenodd" d="M0.576635 2.69513C0.0137024 3.77882 0.0137024 5.20255 0.0137024 8.05V15.95C0.0137024 18.7975 0.0137024 20.2212 0.576635 21.3049C1.05101 22.2181 1.79561 22.9627 2.70883 23.4371C3.79252 24 5.21625 24 8.0637 24H15.9637C18.8112 24 20.2349 24 21.3186 23.4371C22.2318 22.9627 22.9764 22.2181 23.4508 21.3049C24.0137 20.2212 24.0137 18.7975 24.0137 15.95V8.05C24.0137 5.20255 24.0137 3.77882 23.4508 2.69513C22.9764 1.78191 22.2318 1.03731 21.3186 0.562933C20.2349 0 18.8112 0 15.9637 0H8.0637C5.21625 0 3.79252 0 2.70883 0.562933C1.79561 1.03731 1.05101 1.78191 0.576635 2.69513ZM8.40193 3.32546C9.33281 3.2831 9.63025 3.27274 12.0004 3.27274H11.9976C14.3685 3.27274 14.6648 3.2831 15.5957 3.32546C16.5248 3.36801 17.1593 3.5151 17.7156 3.73092C18.2902 3.95364 18.7756 4.25183 19.2611 4.73728C19.7465 5.22237 20.0447 5.70928 20.2683 6.28328C20.4828 6.83819 20.6301 7.47237 20.6737 8.40146C20.7156 9.33237 20.7265 9.62983 20.7265 12C20.7265 14.3702 20.7156 14.6669 20.6737 15.5978C20.6301 16.5266 20.4828 17.1609 20.2683 17.716C20.0447 18.2898 19.7465 18.7767 19.2611 19.2618C18.7762 19.7473 18.29 20.0462 17.7162 20.2691C17.1609 20.4849 16.526 20.632 15.597 20.6746C14.6661 20.7169 14.3696 20.7273 11.9993 20.7273C9.62935 20.7273 9.33208 20.7169 8.4012 20.6746C7.47232 20.632 6.83798 20.4849 6.28272 20.2691C5.7091 20.0462 5.22221 19.7473 4.73731 19.2618C4.25205 18.7767 3.95388 18.2898 3.7308 17.7158C3.51517 17.1609 3.36808 16.5267 3.32535 15.5976C3.28317 14.6667 3.27263 14.3702 3.27263 12C3.27263 9.62983 3.28354 9.33219 3.32517 8.40128C3.36699 7.47255 3.51426 6.83819 3.73061 6.2831C3.95424 5.70928 4.25242 5.22237 4.73786 4.73728C5.22293 4.25201 5.70983 3.95383 6.28381 3.73092C6.8387 3.5151 7.47287 3.36801 8.40193 3.32546ZM11.7095 4.84538C11.533 4.8453 11.3695 4.84522 11.2175 4.84546V4.84328C9.59098 4.8451 9.27899 4.85601 8.47393 4.89237C7.62304 4.93146 7.16106 5.07328 6.85343 5.19328C6.44617 5.35183 6.15527 5.54092 5.84982 5.84637C5.54438 6.15183 5.35493 6.44274 5.19675 6.85001C5.0773 7.15764 4.93512 7.61946 4.89622 8.47037C4.8544 9.39037 4.84604 9.66528 4.84604 11.9958C4.84604 14.3264 4.8544 14.6027 4.89622 15.5227C4.93494 16.3736 5.0773 16.8355 5.19675 17.1427C5.35529 17.5502 5.54438 17.8404 5.84982 18.1458C6.15527 18.4513 6.44617 18.6404 6.85343 18.7986C7.16124 18.918 7.62304 19.0602 8.47393 19.0995C9.3939 19.1413 9.67007 19.1504 12.0004 19.1504C14.3305 19.1504 14.6068 19.1413 15.5268 19.0995C16.3777 19.0606 16.8399 18.9187 17.1471 18.7987C17.5546 18.6406 17.8446 18.4515 18.15 18.146C18.4554 17.8407 18.6449 17.5507 18.8031 17.1435C18.9225 16.8362 19.0647 16.3744 19.1036 15.5235C19.1454 14.6035 19.1545 14.3271 19.1545 11.998C19.1545 9.66892 19.1454 9.39255 19.1036 8.47255C19.0649 7.62164 18.9225 7.15983 18.8031 6.85255C18.6445 6.44528 18.4554 6.15437 18.15 5.84892C17.8447 5.54346 17.5544 5.35437 17.1471 5.19619C16.8395 5.07674 16.3777 4.93455 15.5268 4.89564C14.6066 4.85383 14.3305 4.84546 12.0004 4.84546C11.8997 4.84546 11.8028 4.84542 11.7095 4.84538ZM15.6115 7.34146C15.6115 6.7631 16.0806 6.29455 16.6588 6.29455V6.29419C17.2369 6.29419 17.706 6.76328 17.706 7.34146C17.706 7.91964 17.2369 8.38874 16.6588 8.38874C16.0806 8.38874 15.6115 7.91964 15.6115 7.34146ZM7.51868 12C7.51868 9.52498 9.52525 7.51829 12.0002 7.51819C14.4752 7.51819 16.4813 9.52492 16.4813 12C16.4813 14.4751 14.4754 16.4809 12.0004 16.4809C9.52535 16.4809 7.51868 14.4751 7.51868 12ZM14.9094 12C14.9094 10.3933 13.6069 9.09092 12.0004 9.09092C10.3937 9.09092 9.09136 10.3933 9.09136 12C9.09136 13.6066 10.3937 14.9091 12.0004 14.9091C13.6069 14.9091 14.9094 13.6066 14.9094 12Z" fill="#currentColor"/>
</g>
<defs>
<clipPath id="clip0_101_6660">
<rect width="24" height="24" fill="currentColor"/>
</clipPath>
</defs>
</svg>
