<svg width="26" height="24" viewBox="0 0 26 24" fill="none" xmlns="http://www.w3.org/2000/svg">
<rect width="26" height="23.93" rx="5" fill="#D9D9D9"/>
<g clip-path="url(#clip0_101_6607)">
<path d="M13 20.9651C17.9236 20.9651 22 16.8906 22 11.9695C22 7.05718 17.9147 2.97388 12.9912 2.97388C8.07647 2.97388 4 7.05718 4 11.9695C4 16.8906 8.08529 20.9651 13 20.9651ZM8.98529 16.5555C7.76764 15.3472 7.76764 13.4864 9.02058 12.2341L14.0677 7.18946C15.0294 6.22817 16.3441 6.21936 17.2617 7.11009C18.1617 8.01847 18.1352 9.32372 17.1647 10.285L12.2412 15.2062C11.6676 15.7794 10.8294 15.8147 10.3 15.2591C9.7794 14.7211 9.79706 13.848 10.3529 13.3012L13.7676 9.87051C13.9794 9.66767 14.2706 9.65003 14.4824 9.86169C14.7029 10.0645 14.6765 10.3556 14.4647 10.5672L11.0412 13.9803C10.8735 14.1478 10.8647 14.3684 11.0323 14.5183C11.2 14.6682 11.3853 14.6682 11.5618 14.4918L16.4588 9.60594C17.0058 9.05032 17.05 8.31832 16.5559 7.83327C16.0794 7.35703 15.3206 7.38349 14.7823 7.93028L9.77058 12.9396C8.92352 13.7951 8.89705 14.9856 9.74411 15.8147C10.5647 16.6348 11.7647 16.6261 12.6118 15.7794L16.2824 12.1106C16.4765 11.9166 16.8206 11.9077 17.0235 12.1018C17.2176 12.2782 17.2 12.6398 17.0147 12.825L13.2912 16.5378C12.047 17.7725 10.2823 17.8166 8.98529 16.5555Z" fill="#1E1E24"/>
</g>
<defs>
<clipPath id="clip0_101_6607">
<rect width="18" height="18" fill="white" transform="translate(4 2.96509)"/>
</clipPath>
</defs>
</svg>
