<svg width="145" height="143" viewBox="0 0 145 143" fill="none" xmlns="http://www.w3.org/2000/svg">
<rect x="0.5" width="144" height="143" rx="71.5" fill="black"/>
<path d="M50.9609 68.5H45.7422V56.9844H51.3359C52.7474 57.0052 53.7474 57.4141 54.3359 58.2109C54.6901 58.7005 54.8672 59.2865 54.8672 59.9688C54.8672 60.6719 54.6901 61.237 54.3359 61.6641C54.138 61.9036 53.8464 62.1224 53.4609 62.3203C54.0495 62.5339 54.4922 62.8724 54.7891 63.3359C55.0911 63.7995 55.2422 64.362 55.2422 65.0234C55.2422 65.7057 55.0703 66.3177 54.7266 66.8594C54.5078 67.2188 54.2344 67.5208 53.9062 67.7656C53.5365 68.0469 53.099 68.2396 52.5938 68.3438C52.0938 68.4479 51.5495 68.5 50.9609 68.5ZM50.9062 63.4297H48.0391V66.5H50.8672C51.3724 66.5 51.7656 66.4323 52.0469 66.2969C52.5573 66.0469 52.8125 65.5677 52.8125 64.8594C52.8125 64.2604 52.5651 63.849 52.0703 63.625C51.7943 63.5 51.4062 63.4349 50.9062 63.4297ZM52.1016 61.2344C52.4141 61.0469 52.5703 60.7109 52.5703 60.2266C52.5703 59.6901 52.362 59.3359 51.9453 59.1641C51.5859 59.0443 51.1276 58.9844 50.5703 58.9844H48.0391V61.5234H50.8672C51.3724 61.5234 51.7839 61.4271 52.1016 61.2344ZM57.2656 56.9844H59.6719V66.4297H65.375V68.5H57.2656V56.9844ZM73.7891 66.1328H69.5469L68.75 68.5H66.2344L70.3438 56.9844H73.0625L77.1406 68.5H74.5312L73.7891 66.1328ZM73.1172 64.1484L71.6797 59.6172L70.1953 64.1484H73.1172ZM86.7344 67.6406C85.875 68.4271 84.776 68.8203 83.4375 68.8203C81.7812 68.8203 80.4792 68.2891 79.5312 67.2266C78.5833 66.1589 78.1094 64.6953 78.1094 62.8359C78.1094 60.8255 78.6484 59.276 79.7266 58.1875C80.6641 57.2396 81.8568 56.7656 83.3047 56.7656C85.2422 56.7656 86.6589 57.401 87.5547 58.6719C88.0495 59.3854 88.3151 60.1016 88.3516 60.8203H85.9453C85.7891 60.2682 85.5885 59.8516 85.3438 59.5703C84.9062 59.0703 84.2578 58.8203 83.3984 58.8203C82.5234 58.8203 81.8333 59.1745 81.3281 59.8828C80.8229 60.5859 80.5703 61.5833 80.5703 62.875C80.5703 64.1667 80.8359 65.1354 81.3672 65.7812C81.9036 66.4219 82.5833 66.7422 83.4062 66.7422C84.25 66.7422 84.8932 66.4661 85.3359 65.9141C85.5807 65.6172 85.7839 65.1719 85.9453 64.5781H88.3281C88.1198 65.8333 87.5885 66.8542 86.7344 67.6406ZM100.375 68.5H97.2812L93.7266 63.4688L92.5781 64.6484V68.5H90.2109V56.9844H92.5781V61.7266L97.0234 56.9844H100.133L95.4141 61.7266L100.375 68.5ZM49.4468 82.852H47.6708L47.1588 86.5H46.2148L46.7108 82.852H44.5188L43.9748 86.5H43.0308L43.5748 82.852H41.8148V81.908H43.7188L44.0548 79.668H42.2628V78.724H44.1828L44.6948 75.332H45.6548L45.1428 78.724H47.3188L47.8148 75.332H48.7588L48.2628 78.724H49.8628V79.668H48.1348L47.8148 81.908H49.4468V82.852ZM45.0148 79.668L44.6628 81.908H46.8708L47.1908 79.668H45.0148ZM57.5054 80.948C57.5054 80.34 57.4681 79.748 57.3934 79.172C57.3294 78.5853 57.1961 78.0627 56.9934 77.604C56.7908 77.1453 56.5028 76.7773 56.1294 76.5C55.7668 76.2227 55.2868 76.084 54.6894 76.084C54.1241 76.084 53.6601 76.228 53.2974 76.516C52.9454 76.7933 52.6681 77.1667 52.4654 77.636C52.2628 78.1053 52.1188 78.6387 52.0334 79.236C51.9588 79.8333 51.9214 80.4413 51.9214 81.06C51.9214 81.7853 51.9641 82.4467 52.0494 83.044C52.1454 83.6307 52.3001 84.132 52.5134 84.548C52.7268 84.964 53.0094 85.2893 53.3614 85.524C53.7241 85.748 54.1774 85.86 54.7214 85.86C55.3294 85.86 55.8148 85.7107 56.1774 85.412C56.5508 85.1133 56.8334 84.7293 57.0254 84.26C57.2174 83.7907 57.3454 83.2627 57.4094 82.676C57.4734 82.0893 57.5054 81.5133 57.5054 80.948ZM54.7214 75.22C55.2761 75.22 55.7561 75.3053 56.1614 75.476C56.5668 75.636 56.9081 75.86 57.1854 76.148C57.4734 76.436 57.7028 76.772 57.8734 77.156C58.0548 77.54 58.1934 77.9507 58.2894 78.388C58.3854 78.8147 58.4494 79.2573 58.4814 79.716C58.5134 80.1747 58.5294 80.6227 58.5294 81.06C58.5294 81.8067 58.4761 82.5213 58.3694 83.204C58.2628 83.8867 58.0654 84.4893 57.7774 85.012C57.5001 85.5347 57.1161 85.9507 56.6254 86.26C56.1348 86.5693 55.5001 86.724 54.7214 86.724C53.9428 86.724 53.3028 86.5693 52.8014 86.26C52.3108 85.9507 51.9214 85.5347 51.6334 85.012C51.3561 84.4787 51.1641 83.8653 51.0574 83.172C50.9508 82.468 50.8974 81.7267 50.8974 80.948C50.8974 80.2333 50.9454 79.5347 51.0414 78.852C51.1374 78.1693 51.3188 77.5613 51.5854 77.028C51.8628 76.484 52.2521 76.0467 52.7534 75.716C53.2548 75.3853 53.9108 75.22 54.7214 75.22ZM66.3961 80.948C66.3961 80.34 66.3587 79.748 66.2841 79.172C66.2201 78.5853 66.0867 78.0627 65.8841 77.604C65.6814 77.1453 65.3934 76.7773 65.0201 76.5C64.6574 76.2227 64.1774 76.084 63.5801 76.084C63.0147 76.084 62.5507 76.228 62.1881 76.516C61.8361 76.7933 61.5587 77.1667 61.3561 77.636C61.1534 78.1053 61.0094 78.6387 60.9241 79.236C60.8494 79.8333 60.8121 80.4413 60.8121 81.06C60.8121 81.7853 60.8547 82.4467 60.9401 83.044C61.0361 83.6307 61.1907 84.132 61.4041 84.548C61.6174 84.964 61.9001 85.2893 62.2521 85.524C62.6147 85.748 63.0681 85.86 63.6121 85.86C64.2201 85.86 64.7054 85.7107 65.0681 85.412C65.4414 85.1133 65.7241 84.7293 65.9161 84.26C66.1081 83.7907 66.2361 83.2627 66.3001 82.676C66.3641 82.0893 66.3961 81.5133 66.3961 80.948ZM63.6121 75.22C64.1667 75.22 64.6467 75.3053 65.0521 75.476C65.4574 75.636 65.7987 75.86 66.0761 76.148C66.3641 76.436 66.5934 76.772 66.7641 77.156C66.9454 77.54 67.0841 77.9507 67.1801 78.388C67.2761 78.8147 67.3401 79.2573 67.3721 79.716C67.4041 80.1747 67.4201 80.6227 67.4201 81.06C67.4201 81.8067 67.3667 82.5213 67.2601 83.204C67.1534 83.8867 66.9561 84.4893 66.6681 85.012C66.3907 85.5347 66.0067 85.9507 65.5161 86.26C65.0254 86.5693 64.3907 86.724 63.6121 86.724C62.8334 86.724 62.1934 86.5693 61.6921 86.26C61.2014 85.9507 60.8121 85.5347 60.5241 85.012C60.2467 84.4787 60.0547 83.8653 59.9481 83.172C59.8414 82.468 59.7881 81.7267 59.7881 80.948C59.7881 80.2333 59.8361 79.5347 59.9321 78.852C60.0281 78.1693 60.2094 77.5613 60.4761 77.028C60.7534 76.484 61.1427 76.0467 61.6441 75.716C62.1454 75.3853 62.8014 75.22 63.6121 75.22ZM75.2867 80.948C75.2867 80.34 75.2494 79.748 75.1747 79.172C75.1107 78.5853 74.9774 78.0627 74.7747 77.604C74.572 77.1453 74.284 76.7773 73.9107 76.5C73.548 76.2227 73.068 76.084 72.4707 76.084C71.9054 76.084 71.4414 76.228 71.0787 76.516C70.7267 76.7933 70.4494 77.1667 70.2467 77.636C70.044 78.1053 69.9 78.6387 69.8147 79.236C69.74 79.8333 69.7027 80.4413 69.7027 81.06C69.7027 81.7853 69.7454 82.4467 69.8307 83.044C69.9267 83.6307 70.0814 84.132 70.2947 84.548C70.508 84.964 70.7907 85.2893 71.1427 85.524C71.5054 85.748 71.9587 85.86 72.5027 85.86C73.1107 85.86 73.596 85.7107 73.9587 85.412C74.332 85.1133 74.6147 84.7293 74.8067 84.26C74.9987 83.7907 75.1267 83.2627 75.1907 82.676C75.2547 82.0893 75.2867 81.5133 75.2867 80.948ZM72.5027 75.22C73.0574 75.22 73.5374 75.3053 73.9427 75.476C74.348 75.636 74.6894 75.86 74.9667 76.148C75.2547 76.436 75.484 76.772 75.6547 77.156C75.836 77.54 75.9747 77.9507 76.0707 78.388C76.1667 78.8147 76.2307 79.2573 76.2627 79.716C76.2947 80.1747 76.3107 80.6227 76.3107 81.06C76.3107 81.8067 76.2574 82.5213 76.1507 83.204C76.044 83.8867 75.8467 84.4893 75.5587 85.012C75.2814 85.5347 74.8974 85.9507 74.4067 86.26C73.916 86.5693 73.2814 86.724 72.5027 86.724C71.724 86.724 71.084 86.5693 70.5827 86.26C70.092 85.9507 69.7027 85.5347 69.4147 85.012C69.1374 84.4787 68.9454 83.8653 68.8387 83.172C68.732 82.468 68.6787 81.7267 68.6787 80.948C68.6787 80.2333 68.7267 79.5347 68.8227 78.852C68.9187 78.1693 69.1 77.5613 69.3667 77.028C69.644 76.484 70.0334 76.0467 70.5347 75.716C71.036 75.3853 71.692 75.22 72.5027 75.22ZM84.1773 80.948C84.1773 80.34 84.14 79.748 84.0653 79.172C84.0013 78.5853 83.868 78.0627 83.6653 77.604C83.4626 77.1453 83.1746 76.7773 82.8013 76.5C82.4386 76.2227 81.9586 76.084 81.3613 76.084C80.796 76.084 80.332 76.228 79.9693 76.516C79.6173 76.7933 79.34 77.1667 79.1373 77.636C78.9346 78.1053 78.7906 78.6387 78.7053 79.236C78.6306 79.8333 78.5933 80.4413 78.5933 81.06C78.5933 81.7853 78.636 82.4467 78.7213 83.044C78.8173 83.6307 78.972 84.132 79.1853 84.548C79.3986 84.964 79.6813 85.2893 80.0333 85.524C80.396 85.748 80.8493 85.86 81.3933 85.86C82.0013 85.86 82.4866 85.7107 82.8493 85.412C83.2226 85.1133 83.5053 84.7293 83.6973 84.26C83.8893 83.7907 84.0173 83.2627 84.0813 82.676C84.1453 82.0893 84.1773 81.5133 84.1773 80.948ZM81.3933 75.22C81.948 75.22 82.428 75.3053 82.8333 75.476C83.2386 75.636 83.58 75.86 83.8573 76.148C84.1453 76.436 84.3746 76.772 84.5453 77.156C84.7266 77.54 84.8653 77.9507 84.9613 78.388C85.0573 78.8147 85.1213 79.2573 85.1533 79.716C85.1853 80.1747 85.2013 80.6227 85.2013 81.06C85.2013 81.8067 85.148 82.5213 85.0413 83.204C84.9346 83.8867 84.7373 84.4893 84.4493 85.012C84.172 85.5347 83.788 85.9507 83.2973 86.26C82.8066 86.5693 82.172 86.724 81.3933 86.724C80.6146 86.724 79.9746 86.5693 79.4733 86.26C78.9826 85.9507 78.5933 85.5347 78.3053 85.012C78.028 84.4787 77.836 83.8653 77.7293 83.172C77.6226 82.468 77.5693 81.7267 77.5693 80.948C77.5693 80.2333 77.6173 79.5347 77.7133 78.852C77.8093 78.1693 77.9906 77.5613 78.2573 77.028C78.5346 76.484 78.924 76.0467 79.4253 75.716C79.9266 75.3853 80.5826 75.22 81.3933 75.22ZM93.0679 80.948C93.0679 80.34 93.0306 79.748 92.9559 79.172C92.8919 78.5853 92.7586 78.0627 92.5559 77.604C92.3533 77.1453 92.0653 76.7773 91.6919 76.5C91.3293 76.2227 90.8493 76.084 90.2519 76.084C89.6866 76.084 89.2226 76.228 88.8599 76.516C88.5079 76.7933 88.2306 77.1667 88.0279 77.636C87.8253 78.1053 87.6813 78.6387 87.5959 79.236C87.5213 79.8333 87.4839 80.4413 87.4839 81.06C87.4839 81.7853 87.5266 82.4467 87.6119 83.044C87.7079 83.6307 87.8626 84.132 88.0759 84.548C88.2893 84.964 88.5719 85.2893 88.9239 85.524C89.2866 85.748 89.7399 85.86 90.2839 85.86C90.8919 85.86 91.3773 85.7107 91.7399 85.412C92.1133 85.1133 92.3959 84.7293 92.5879 84.26C92.7799 83.7907 92.9079 83.2627 92.9719 82.676C93.0359 82.0893 93.0679 81.5133 93.0679 80.948ZM90.2839 75.22C90.8386 75.22 91.3186 75.3053 91.7239 75.476C92.1293 75.636 92.4706 75.86 92.7479 76.148C93.0359 76.436 93.2653 76.772 93.4359 77.156C93.6173 77.54 93.7559 77.9507 93.8519 78.388C93.9479 78.8147 94.0119 79.2573 94.0439 79.716C94.0759 80.1747 94.0919 80.6227 94.0919 81.06C94.0919 81.8067 94.0386 82.5213 93.9319 83.204C93.8253 83.8867 93.6279 84.4893 93.3399 85.012C93.0626 85.5347 92.6786 85.9507 92.1879 86.26C91.6973 86.5693 91.0626 86.724 90.2839 86.724C89.5053 86.724 88.8653 86.5693 88.3639 86.26C87.8733 85.9507 87.4839 85.5347 87.1959 85.012C86.9186 84.4787 86.7266 83.8653 86.6199 83.172C86.5133 82.468 86.4599 81.7267 86.4599 80.948C86.4599 80.2333 86.5079 79.5347 86.6039 78.852C86.6999 78.1693 86.8813 77.5613 87.1479 77.028C87.4253 76.484 87.8146 76.0467 88.3159 75.716C88.8173 75.3853 89.4733 75.22 90.2839 75.22ZM101.959 80.948C101.959 80.34 101.921 79.748 101.847 79.172C101.783 78.5853 101.649 78.0627 101.447 77.604C101.244 77.1453 100.956 76.7773 100.583 76.5C100.22 76.2227 99.7399 76.084 99.1426 76.084C98.5772 76.084 98.1132 76.228 97.7506 76.516C97.3986 76.7933 97.1212 77.1667 96.9186 77.636C96.7159 78.1053 96.5719 78.6387 96.4866 79.236C96.4119 79.8333 96.3746 80.4413 96.3746 81.06C96.3746 81.7853 96.4172 82.4467 96.5026 83.044C96.5986 83.6307 96.7532 84.132 96.9666 84.548C97.1799 84.964 97.4626 85.2893 97.8146 85.524C98.1772 85.748 98.6306 85.86 99.1746 85.86C99.7826 85.86 100.268 85.7107 100.631 85.412C101.004 85.1133 101.287 84.7293 101.479 84.26C101.671 83.7907 101.799 83.2627 101.863 82.676C101.927 82.0893 101.959 81.5133 101.959 80.948ZM99.1746 75.22C99.7292 75.22 100.209 75.3053 100.615 75.476C101.02 75.636 101.361 75.86 101.639 76.148C101.927 76.436 102.156 76.772 102.327 77.156C102.508 77.54 102.647 77.9507 102.743 78.388C102.839 78.8147 102.903 79.2573 102.935 79.716C102.967 80.1747 102.983 80.6227 102.983 81.06C102.983 81.8067 102.929 82.5213 102.823 83.204C102.716 83.8867 102.519 84.4893 102.231 85.012C101.953 85.5347 101.569 85.9507 101.079 86.26C100.588 86.5693 99.9532 86.724 99.1746 86.724C98.3959 86.724 97.7559 86.5693 97.2546 86.26C96.7639 85.9507 96.3746 85.5347 96.0866 85.012C95.8092 84.4787 95.6172 83.8653 95.5106 83.172C95.4039 82.468 95.3506 81.7267 95.3506 80.948C95.3506 80.2333 95.3986 79.5347 95.4946 78.852C95.5906 78.1693 95.7719 77.5613 96.0386 77.028C96.3159 76.484 96.7052 76.0467 97.2066 75.716C97.7079 75.3853 98.3639 75.22 99.1746 75.22Z" fill="white"/>
</svg>
