<svg width="145" height="143" viewBox="0 0 145 143" fill="none" xmlns="http://www.w3.org/2000/svg">
<rect x="0.5" width="144" height="143" rx="71.5" fill="#07EEFD"/>
<path d="M27.125 57.8359C27.6927 57.8359 28.1536 57.7734 28.5078 57.6484C29.1797 57.4089 29.5156 56.9635 29.5156 56.3125C29.5156 55.9323 29.349 55.638 29.0156 55.4297C28.6823 55.2266 28.1589 55.0469 27.4453 54.8906L26.2266 54.6172C25.0286 54.3464 24.2005 54.0521 23.7422 53.7344C22.9661 53.2031 22.5781 52.3724 22.5781 51.2422C22.5781 50.2109 22.9531 49.3542 23.7031 48.6719C24.4531 47.9896 25.5547 47.6484 27.0078 47.6484C28.2214 47.6484 29.2552 47.9714 30.1094 48.6172C30.9688 49.2578 31.4193 50.1901 31.4609 51.4141H29.1484C29.1068 50.7214 28.8047 50.2292 28.2422 49.9375C27.8672 49.7448 27.401 49.6484 26.8438 49.6484C26.224 49.6484 25.7292 49.7734 25.3594 50.0234C24.9896 50.2734 24.8047 50.6224 24.8047 51.0703C24.8047 51.4818 24.987 51.7891 25.3516 51.9922C25.5859 52.1276 26.0859 52.2865 26.8516 52.4688L28.8359 52.9453C29.7057 53.1536 30.362 53.4323 30.8047 53.7812C31.4922 54.3229 31.8359 55.1068 31.8359 56.1328C31.8359 57.1849 31.4323 58.0599 30.625 58.7578C29.8229 59.4505 28.6875 59.7969 27.2188 59.7969C25.7188 59.7969 24.5391 59.4557 23.6797 58.7734C22.8203 58.0859 22.3906 57.1432 22.3906 55.9453H24.6875C24.7604 56.4714 24.9036 56.8646 25.1172 57.125C25.5078 57.599 26.1771 57.8359 27.125 57.8359ZM41.6328 54.4688H36.0391V57.4297H42.4141V59.5H33.6875V47.9844H42.1328V50.0234H36.0391V52.4688H41.6328V54.4688ZM52.4141 58.6406C51.5547 59.4271 50.4557 59.8203 49.1172 59.8203C47.4609 59.8203 46.1589 59.2891 45.2109 58.2266C44.263 57.1589 43.7891 55.6953 43.7891 53.8359C43.7891 51.8255 44.3281 50.276 45.4062 49.1875C46.3438 48.2396 47.5365 47.7656 48.9844 47.7656C50.9219 47.7656 52.3385 48.401 53.2344 49.6719C53.7292 50.3854 53.9948 51.1016 54.0312 51.8203H51.625C51.4688 51.2682 51.2682 50.8516 51.0234 50.5703C50.5859 50.0703 49.9375 49.8203 49.0781 49.8203C48.2031 49.8203 47.513 50.1745 47.0078 50.8828C46.5026 51.5859 46.25 52.5833 46.25 53.875C46.25 55.1667 46.5156 56.1354 47.0469 56.7812C47.5833 57.4219 48.263 57.7422 49.0859 57.7422C49.9297 57.7422 50.5729 57.4661 51.0156 56.9141C51.2604 56.6172 51.4635 56.1719 51.625 55.5781H54.0078C53.7995 56.8333 53.2682 57.8542 52.4141 58.6406ZM60.9453 59.8203C59.2995 59.8203 58.0417 59.3724 57.1719 58.4766C56.0052 57.3776 55.4219 55.7943 55.4219 53.7266C55.4219 51.6172 56.0052 50.0339 57.1719 48.9766C58.0417 48.0807 59.2995 47.6328 60.9453 47.6328C62.5911 47.6328 63.849 48.0807 64.7188 48.9766C65.8802 50.0339 66.4609 51.6172 66.4609 53.7266C66.4609 55.7943 65.8802 57.3776 64.7188 58.4766C63.849 59.3724 62.5911 59.8203 60.9453 59.8203ZM63.2188 56.7266C63.776 56.0234 64.0547 55.0234 64.0547 53.7266C64.0547 52.4349 63.7734 51.4375 63.2109 50.7344C62.6536 50.026 61.8984 49.6719 60.9453 49.6719C59.9922 49.6719 59.2318 50.0234 58.6641 50.7266C58.0964 51.4297 57.8125 52.4297 57.8125 53.7266C57.8125 55.0234 58.0964 56.0234 58.6641 56.7266C59.2318 57.4297 59.9922 57.7812 60.9453 57.7812C61.8984 57.7812 62.6562 57.4297 63.2188 56.7266ZM77.6172 59.5H75.2109L70.5078 51.3203V59.5H68.2656V47.9844H70.7891L75.375 56.0234V47.9844H77.6172V59.5ZM84.8281 59.5H79.8672V47.9844H84.8281C85.5417 47.9948 86.1354 48.0781 86.6094 48.2344C87.4167 48.5 88.0703 48.987 88.5703 49.6953C88.9714 50.2682 89.2448 50.888 89.3906 51.5547C89.5365 52.2214 89.6094 52.8568 89.6094 53.4609C89.6094 54.9922 89.3021 56.2891 88.6875 57.3516C87.8542 58.7839 86.5677 59.5 84.8281 59.5ZM86.6172 50.9219C86.2474 50.2969 85.5156 49.9844 84.4219 49.9844H82.2031V57.5H84.4219C85.5573 57.5 86.349 56.9401 86.7969 55.8203C87.0417 55.2057 87.1641 54.474 87.1641 53.625C87.1641 52.4531 86.9818 51.5521 86.6172 50.9219ZM98.1719 57.1328H93.9297L93.1328 59.5H90.6172L94.7266 47.9844H97.4453L101.523 59.5H98.9141L98.1719 57.1328ZM97.5 55.1484L96.0625 50.6172L94.5781 55.1484H97.5ZM107.883 54.9844H105.398V59.5H103.047V47.9844H108.695C109.503 48 110.122 48.099 110.555 48.2812C110.992 48.4635 111.362 48.7318 111.664 49.0859C111.914 49.3776 112.112 49.7005 112.258 50.0547C112.404 50.4089 112.477 50.8125 112.477 51.2656C112.477 51.8125 112.339 52.3516 112.062 52.8828C111.786 53.4089 111.331 53.7812 110.695 54C111.227 54.2135 111.602 54.5182 111.82 54.9141C112.044 55.3047 112.156 55.9036 112.156 56.7109V57.4844C112.156 58.0104 112.177 58.3672 112.219 58.5547C112.281 58.8516 112.427 59.0703 112.656 59.2109V59.5H110.008C109.935 59.2448 109.883 59.0391 109.852 58.8828C109.789 58.5599 109.755 58.2292 109.75 57.8906L109.734 56.8203C109.724 56.0859 109.589 55.5964 109.328 55.3516C109.073 55.1068 108.591 54.9844 107.883 54.9844ZM109.344 52.8906C109.823 52.6719 110.062 52.2396 110.062 51.5938C110.062 50.8958 109.831 50.4271 109.367 50.1875C109.107 50.0521 108.716 49.9844 108.195 49.9844H105.398V53.0781H108.125C108.667 53.0781 109.073 53.0156 109.344 52.8906ZM123.258 47.9844L119.406 55.1719V59.5H117V55.1719L113.016 47.9844H115.852L118.242 53L120.531 47.9844H123.258ZM46.9609 75.1328H42.7188L41.9219 77.5H39.4062L43.5156 65.9844H46.2344L50.3125 77.5H47.7031L46.9609 75.1328ZM46.2891 73.1484L44.8516 68.6172L43.3672 73.1484H46.2891ZM59.9062 76.6406C59.0469 77.4271 57.9479 77.8203 56.6094 77.8203C54.9531 77.8203 53.651 77.2891 52.7031 76.2266C51.7552 75.1589 51.2812 73.6953 51.2812 71.8359C51.2812 69.8255 51.8203 68.276 52.8984 67.1875C53.8359 66.2396 55.0286 65.7656 56.4766 65.7656C58.4141 65.7656 59.8307 66.401 60.7266 67.6719C61.2214 68.3854 61.487 69.1016 61.5234 69.8203H59.1172C58.9609 69.2682 58.7604 68.8516 58.5156 68.5703C58.0781 68.0703 57.4297 67.8203 56.5703 67.8203C55.6953 67.8203 55.0052 68.1745 54.5 68.8828C53.9948 69.5859 53.7422 70.5833 53.7422 71.875C53.7422 73.1667 54.0078 74.1354 54.5391 74.7812C55.0755 75.4219 55.7552 75.7422 56.5781 75.7422C57.4219 75.7422 58.0651 75.4661 58.5078 74.9141C58.7526 74.6172 58.9557 74.1719 59.1172 73.5781H61.5C61.2917 74.8333 60.7604 75.8542 59.9062 76.6406ZM71.4688 76.6406C70.6094 77.4271 69.5104 77.8203 68.1719 77.8203C66.5156 77.8203 65.2135 77.2891 64.2656 76.2266C63.3177 75.1589 62.8438 73.6953 62.8438 71.8359C62.8438 69.8255 63.3828 68.276 64.4609 67.1875C65.3984 66.2396 66.5911 65.7656 68.0391 65.7656C69.9766 65.7656 71.3932 66.401 72.2891 67.6719C72.7839 68.3854 73.0495 69.1016 73.0859 69.8203H70.6797C70.5234 69.2682 70.3229 68.8516 70.0781 68.5703C69.6406 68.0703 68.9922 67.8203 68.1328 67.8203C67.2578 67.8203 66.5677 68.1745 66.0625 68.8828C65.5573 69.5859 65.3047 70.5833 65.3047 71.875C65.3047 73.1667 65.5703 74.1354 66.1016 74.7812C66.638 75.4219 67.3177 75.7422 68.1406 75.7422C68.9844 75.7422 69.6276 75.4661 70.0703 74.9141C70.3151 74.6172 70.5182 74.1719 70.6797 73.5781H73.0625C72.8542 74.8333 72.3229 75.8542 71.4688 76.6406ZM82.9219 72.4688H77.3281V75.4297H83.7031V77.5H74.9766V65.9844H83.4219V68.0234H77.3281V70.4688H82.9219V72.4688ZM94.8906 77.5H92.4844L87.7812 69.3203V77.5H85.5391V65.9844H88.0625L92.6484 74.0234V65.9844H94.8906V77.5ZM105.508 65.9844V68.0234H102.062V77.5H99.6406V68.0234H96.1797V65.9844H105.508ZM38.0312 91.1172H39.8516L40.5859 88.4297H38.7734L39.0156 87.5234H40.8281L41.7578 84.0234H42.9219L41.9766 87.5234H43.7031L44.6641 84.0234H45.8125L44.8672 87.5234H46.6797L46.4375 88.4297H44.625L43.8828 91.1172H45.7031L45.4609 92.0234H43.6641L42.7031 95.5H41.5547L42.5 92.0234H40.7578L39.8281 95.5H38.6641L39.6094 92.0234H37.7969L38.0312 91.1172ZM42.7188 91.1172L43.4609 88.4297H41.7344L41.0156 91.1172H42.7188ZM51.0312 84.3125C52.4792 84.3125 53.526 84.9089 54.1719 86.1016C54.6719 87.0234 54.9219 88.2865 54.9219 89.8906C54.9219 91.4115 54.6953 92.6693 54.2422 93.6641C53.5859 95.0911 52.513 95.8047 51.0234 95.8047C49.6797 95.8047 48.6797 95.2214 48.0234 94.0547C47.4766 93.0807 47.2031 91.7734 47.2031 90.1328C47.2031 88.862 47.3672 87.7708 47.6953 86.8594C48.3099 85.1615 49.4219 84.3125 51.0312 84.3125ZM51.0156 94.5234C51.7448 94.5234 52.3255 94.2005 52.7578 93.5547C53.1901 92.9089 53.4062 91.7057 53.4062 89.9453C53.4062 88.6745 53.25 87.6302 52.9375 86.8125C52.625 85.9896 52.0182 85.5781 51.1172 85.5781C50.2891 85.5781 49.6823 85.9688 49.2969 86.75C48.9167 87.526 48.7266 88.6719 48.7266 90.1875C48.7266 91.3281 48.849 92.2448 49.0938 92.9375C49.4688 93.9948 50.1094 94.5234 51.0156 94.5234ZM63.9766 84.5V85.7266C63.6172 86.0755 63.138 86.6823 62.5391 87.5469C61.9453 88.4115 61.4193 89.3438 60.9609 90.3438C60.5078 91.3177 60.1641 92.2057 59.9297 93.0078C59.7786 93.5234 59.5833 94.3542 59.3438 95.5H57.7891C58.1432 93.3646 58.9245 91.2396 60.1328 89.125C60.8464 87.8854 61.5964 86.8151 62.3828 85.9141H56.1953V84.5H63.9766ZM65.8828 84.0234H74.25V85.4297H67.3984V88.9141H73.7344V90.2422H67.3984V94.1328H74.3672V95.5H65.8828V84.0234ZM76.5547 84.0234H84.9219V85.4297H78.0703V88.9141H84.4062V90.2422H78.0703V94.1328H85.0391V95.5H76.5547V84.0234ZM87.2266 84.0234H95.1875V85.4297H88.7812V88.9141H94.4141V90.2812H88.7812V95.5H87.2266V84.0234ZM101.266 94.1719C101.792 94.1719 102.224 94.1172 102.562 94.0078C103.167 93.8047 103.661 93.4141 104.047 92.8359C104.354 92.3724 104.576 91.7786 104.711 91.0547C104.789 90.6224 104.828 90.2214 104.828 89.8516C104.828 88.4297 104.544 87.3255 103.977 86.5391C103.414 85.7526 102.505 85.3594 101.25 85.3594H98.4922V94.1719H101.266ZM96.9297 84.0234H101.578C103.156 84.0234 104.38 84.5833 105.25 85.7031C106.026 86.7135 106.414 88.0078 106.414 89.5859C106.414 90.8047 106.185 91.9062 105.727 92.8906C104.919 94.6302 103.531 95.5 101.562 95.5H96.9297V84.0234Z" fill="#333333"/>
</svg>
