<svg width="145" height="143" viewBox="0 0 145 143" fill="none" xmlns="http://www.w3.org/2000/svg">
<rect x="0.5" width="144" height="143" rx="71.5" fill="#2CFA0A"/>
<path d="M39.1016 66.1328H34.8594L34.0625 68.5H31.5469L35.6562 56.9844H38.375L42.4531 68.5H39.8438L39.1016 66.1328ZM38.4297 64.1484L36.9922 59.6172L35.5078 64.1484H38.4297ZM48.1016 66.8359C48.6693 66.8359 49.1302 66.7734 49.4844 66.6484C50.1562 66.4089 50.4922 65.9635 50.4922 65.3125C50.4922 64.9323 50.3255 64.638 49.9922 64.4297C49.6589 64.2266 49.1354 64.0469 48.4219 63.8906L47.2031 63.6172C46.0052 63.3464 45.1771 63.0521 44.7188 62.7344C43.9427 62.2031 43.5547 61.3724 43.5547 60.2422C43.5547 59.2109 43.9297 58.3542 44.6797 57.6719C45.4297 56.9896 46.5312 56.6484 47.9844 56.6484C49.1979 56.6484 50.2318 56.9714 51.0859 57.6172C51.9453 58.2578 52.3958 59.1901 52.4375 60.4141H50.125C50.0833 59.7214 49.7812 59.2292 49.2188 58.9375C48.8438 58.7448 48.3776 58.6484 47.8203 58.6484C47.2005 58.6484 46.7057 58.7734 46.3359 59.0234C45.9661 59.2734 45.7812 59.6224 45.7812 60.0703C45.7812 60.4818 45.9635 60.7891 46.3281 60.9922C46.5625 61.1276 47.0625 61.2865 47.8281 61.4688L49.8125 61.9453C50.6823 62.1536 51.3385 62.4323 51.7812 62.7812C52.4688 63.3229 52.8125 64.1068 52.8125 65.1328C52.8125 66.1849 52.4089 67.0599 51.6016 67.7578C50.7995 68.4505 49.6641 68.7969 48.1953 68.7969C46.6953 68.7969 45.5156 68.4557 44.6562 67.7734C43.7969 67.0859 43.3672 66.1432 43.3672 64.9453H45.6641C45.737 65.4714 45.8802 65.8646 46.0938 66.125C46.4844 66.599 47.1536 66.8359 48.1016 66.8359ZM62.9609 56.9844V59.0234H59.5156V68.5H57.0938V59.0234H53.6328V56.9844H62.9609ZM72.3906 63.4688H66.7969V66.4297H73.1719V68.5H64.4453V56.9844H72.8906V59.0234H66.7969V61.4688H72.3906V63.4688ZM79.9375 63.9844H77.4531V68.5H75.1016V56.9844H80.75C81.5573 57 82.1771 57.099 82.6094 57.2812C83.0469 57.4635 83.4167 57.7318 83.7188 58.0859C83.9688 58.3776 84.1667 58.7005 84.3125 59.0547C84.4583 59.4089 84.5312 59.8125 84.5312 60.2656C84.5312 60.8125 84.3932 61.3516 84.1172 61.8828C83.8411 62.4089 83.3854 62.7812 82.75 63C83.2812 63.2135 83.6562 63.5182 83.875 63.9141C84.099 64.3047 84.2109 64.9036 84.2109 65.7109V66.4844C84.2109 67.0104 84.2318 67.3672 84.2734 67.5547C84.3359 67.8516 84.4818 68.0703 84.7109 68.2109V68.5H82.0625C81.9896 68.2448 81.9375 68.0391 81.9062 67.8828C81.8438 67.5599 81.8099 67.2292 81.8047 66.8906L81.7891 65.8203C81.7786 65.0859 81.6432 64.5964 81.3828 64.3516C81.1276 64.1068 80.6458 63.9844 79.9375 63.9844ZM81.3984 61.8906C81.8776 61.6719 82.1172 61.2396 82.1172 60.5938C82.1172 59.8958 81.8854 59.4271 81.4219 59.1875C81.1615 59.0521 80.7708 58.9844 80.25 58.9844H77.4531V62.0781H80.1797C80.7214 62.0781 81.1276 62.0156 81.3984 61.8906ZM91.7031 68.8203C90.0573 68.8203 88.7995 68.3724 87.9297 67.4766C86.763 66.3776 86.1797 64.7943 86.1797 62.7266C86.1797 60.6172 86.763 59.0339 87.9297 57.9766C88.7995 57.0807 90.0573 56.6328 91.7031 56.6328C93.349 56.6328 94.6068 57.0807 95.4766 57.9766C96.638 59.0339 97.2188 60.6172 97.2188 62.7266C97.2188 64.7943 96.638 66.3776 95.4766 67.4766C94.6068 68.3724 93.349 68.8203 91.7031 68.8203ZM93.9766 65.7266C94.5339 65.0234 94.8125 64.0234 94.8125 62.7266C94.8125 61.4349 94.5312 60.4375 93.9688 59.7344C93.4115 59.026 92.6562 58.6719 91.7031 58.6719C90.75 58.6719 89.9896 59.0234 89.4219 59.7266C88.8542 60.4297 88.5703 61.4297 88.5703 62.7266C88.5703 64.0234 88.8542 65.0234 89.4219 65.7266C89.9896 66.4297 90.75 66.7812 91.7031 66.7812C92.6562 66.7812 93.4141 66.4297 93.9766 65.7266ZM98.875 56.9844H101.266V68.5H98.875V56.9844ZM108.477 68.5H103.516V56.9844H108.477C109.19 56.9948 109.784 57.0781 110.258 57.2344C111.065 57.5 111.719 57.987 112.219 58.6953C112.62 59.2682 112.893 59.888 113.039 60.5547C113.185 61.2214 113.258 61.8568 113.258 62.4609C113.258 63.9922 112.951 65.2891 112.336 66.3516C111.503 67.7839 110.216 68.5 108.477 68.5ZM110.266 59.9219C109.896 59.2969 109.164 58.9844 108.07 58.9844H105.852V66.5H108.07C109.206 66.5 109.997 65.9401 110.445 64.8203C110.69 64.2057 110.812 63.474 110.812 62.625C110.812 61.4531 110.63 60.5521 110.266 59.9219ZM46.7749 82.852H44.9989L44.4869 86.5H43.5429L44.0389 82.852H41.8469L41.3029 86.5H40.3589L40.9029 82.852H39.1429V81.908H41.0469L41.3829 79.668H39.5909V78.724H41.5109L42.0229 75.332H42.9829L42.4709 78.724H44.6469L45.1429 75.332H46.0869L45.5909 78.724H47.1909V79.668H45.4629L45.1429 81.908H46.7749V82.852ZM42.3429 79.668L41.9909 81.908H44.1989L44.5189 79.668H42.3429ZM48.7056 78.916C48.7056 78.3613 48.7909 77.86 48.9616 77.412C49.1322 76.9533 49.3776 76.564 49.6976 76.244C50.0176 75.9133 50.4016 75.6627 50.8496 75.492C51.3082 75.3107 51.8149 75.22 52.3696 75.22C52.9349 75.22 53.4309 75.3053 53.8576 75.476C54.2949 75.636 54.6576 75.8547 54.9456 76.132C55.2442 76.4093 55.4682 76.74 55.6176 77.124C55.7669 77.508 55.8416 77.9133 55.8416 78.34C55.8416 78.8413 55.7562 79.284 55.5856 79.668C55.4256 80.052 55.2069 80.3933 54.9296 80.692C54.6629 80.9907 54.3536 81.2573 54.0016 81.492C53.6602 81.7267 53.3082 81.9507 52.9456 82.164C52.5829 82.3667 52.2256 82.564 51.8736 82.756C51.5216 82.948 51.2069 83.1507 50.9296 83.364C50.7482 83.5027 50.5722 83.652 50.4016 83.812C50.2309 83.9613 50.0762 84.1267 49.9376 84.308C49.7989 84.4893 49.6869 84.692 49.6016 84.916C49.5162 85.1293 49.4682 85.3693 49.4576 85.636H55.7456V86.5H48.3696C48.3802 85.956 48.4389 85.4653 48.5456 85.028C48.6522 84.5907 48.8869 84.164 49.2496 83.748C49.6442 83.3 50.0496 82.916 50.4656 82.596C50.8922 82.276 51.3082 81.9933 51.7136 81.748C52.1189 81.492 52.5029 81.2627 52.8656 81.06C53.2282 80.8467 53.5482 80.6173 53.8256 80.372C54.1029 80.1267 54.3216 79.8493 54.4816 79.54C54.6416 79.2307 54.7216 78.852 54.7216 78.404C54.7216 78.0413 54.6576 77.716 54.5296 77.428C54.4016 77.14 54.2256 76.8947 54.0016 76.692C53.7776 76.4893 53.5162 76.34 53.2176 76.244C52.9189 76.1373 52.5936 76.084 52.2416 76.084C51.8682 76.084 51.5269 76.164 51.2176 76.324C50.9189 76.4733 50.6576 76.676 50.4336 76.932C50.2202 77.188 50.0549 77.4867 49.9376 77.828C49.8202 78.1693 49.7722 78.532 49.7936 78.916H48.7056ZM65.9642 78.324C65.7402 77.3427 65.3242 76.644 64.7162 76.228C64.1082 75.812 63.3135 75.604 62.3322 75.604C61.6389 75.604 61.0415 75.7427 60.5402 76.02C60.0389 76.2973 59.6229 76.6707 59.2922 77.14C58.9722 77.6093 58.7322 78.1533 58.5722 78.772C58.4229 79.38 58.3482 80.0253 58.3482 80.708C58.3482 81.348 58.4122 81.9773 58.5402 82.596C58.6789 83.2147 58.9029 83.7693 59.2122 84.26C59.5215 84.74 59.9375 85.1293 60.4602 85.428C60.9829 85.7267 61.6389 85.876 62.4282 85.876C62.9189 85.876 63.3669 85.796 63.7722 85.636C64.1775 85.476 64.5295 85.2573 64.8282 84.98C65.1375 84.692 65.3935 84.356 65.5962 83.972C65.8095 83.588 65.9695 83.1667 66.0762 82.708H67.2122C67.0842 83.2627 66.8975 83.7907 66.6522 84.292C66.4069 84.7827 66.0815 85.2147 65.6762 85.588C65.2815 85.9613 64.7962 86.26 64.2202 86.484C63.6549 86.6973 62.9882 86.804 62.2202 86.804C61.3349 86.804 60.5775 86.644 59.9482 86.324C59.3189 85.9933 58.8015 85.5507 58.3962 84.996C58.0015 84.4413 57.7135 83.8013 57.5322 83.076C57.3509 82.34 57.2602 81.5613 57.2602 80.74C57.2602 79.6413 57.3935 78.708 57.6602 77.94C57.9375 77.172 58.3162 76.548 58.7962 76.068C59.2762 75.5773 59.8415 75.2253 60.4922 75.012C61.1429 74.788 61.8522 74.676 62.6202 74.676C63.2069 74.676 63.7509 74.756 64.2522 74.916C64.7642 75.0653 65.2122 75.2947 65.5962 75.604C65.9909 75.9133 66.3109 76.2973 66.5562 76.756C66.8122 77.204 66.9882 77.7267 67.0842 78.324H65.9642ZM69.2231 86.5V74.98H76.6471V75.908H70.3111V80.068H76.0711V80.996H70.3111V86.5H69.2231ZM76.2947 86.5L80.8227 74.98H82.0547L86.4707 86.5H85.3507L84.0227 82.884H78.7747L77.4147 86.5H76.2947ZM79.1427 81.956H83.6547L81.3987 75.908L79.1427 81.956ZM93.9586 80.948C93.9586 80.34 93.9212 79.748 93.8466 79.172C93.7826 78.5853 93.6492 78.0627 93.4466 77.604C93.2439 77.1453 92.9559 76.7773 92.5826 76.5C92.2199 76.2227 91.7399 76.084 91.1426 76.084C90.5772 76.084 90.1132 76.228 89.7506 76.516C89.3986 76.7933 89.1212 77.1667 88.9186 77.636C88.7159 78.1053 88.5719 78.6387 88.4866 79.236C88.4119 79.8333 88.3746 80.4413 88.3746 81.06C88.3746 81.7853 88.4172 82.4467 88.5026 83.044C88.5986 83.6307 88.7532 84.132 88.9666 84.548C89.1799 84.964 89.4626 85.2893 89.8146 85.524C90.1772 85.748 90.6306 85.86 91.1746 85.86C91.7826 85.86 92.2679 85.7107 92.6306 85.412C93.0039 85.1133 93.2866 84.7293 93.4786 84.26C93.6706 83.7907 93.7986 83.2627 93.8626 82.676C93.9266 82.0893 93.9586 81.5133 93.9586 80.948ZM91.1746 75.22C91.7292 75.22 92.2092 75.3053 92.6146 75.476C93.0199 75.636 93.3612 75.86 93.6386 76.148C93.9266 76.436 94.1559 76.772 94.3266 77.156C94.5079 77.54 94.6466 77.9507 94.7426 78.388C94.8386 78.8147 94.9026 79.2573 94.9346 79.716C94.9666 80.1747 94.9826 80.6227 94.9826 81.06C94.9826 81.8067 94.9292 82.5213 94.8226 83.204C94.7159 83.8867 94.5186 84.4893 94.2306 85.012C93.9532 85.5347 93.5692 85.9507 93.0786 86.26C92.5879 86.5693 91.9532 86.724 91.1746 86.724C90.3959 86.724 89.7559 86.5693 89.2546 86.26C88.7639 85.9507 88.3746 85.5347 88.0866 85.012C87.8092 84.4787 87.6172 83.8653 87.5106 83.172C87.4039 82.468 87.3506 81.7267 87.3506 80.948C87.3506 80.2333 87.3986 79.5347 87.4946 78.852C87.5906 78.1693 87.7719 77.5613 88.0386 77.028C88.3159 76.484 88.7052 76.0467 89.2066 75.716C89.7079 75.3853 90.3639 75.22 91.1746 75.22ZM95.8572 86.5L100.385 74.98H101.617L106.033 86.5H104.913L103.585 82.884H98.3372L96.9772 86.5H95.8572ZM98.7052 81.956H103.217L100.961 75.908L98.7052 81.956Z" fill="#1E1E24"/>
</svg>
