<svg width="145" height="143" viewBox="0 0 145 143" fill="none" xmlns="http://www.w3.org/2000/svg">
<rect x="0.5" width="144" height="143" rx="71.5" fill="#FD9B07"/>
<path d="M41.1797 68.5H35.9609V56.9844H41.5547C42.9661 57.0052 43.9661 57.4141 44.5547 58.2109C44.9089 58.7005 45.0859 59.2865 45.0859 59.9688C45.0859 60.6719 44.9089 61.237 44.5547 61.6641C44.3568 61.9036 44.0651 62.1224 43.6797 62.3203C44.2682 62.5339 44.7109 62.8724 45.0078 63.3359C45.3099 63.7995 45.4609 64.362 45.4609 65.0234C45.4609 65.7057 45.2891 66.3177 44.9453 66.8594C44.7266 67.2188 44.4531 67.5208 44.125 67.7656C43.7552 68.0469 43.3177 68.2396 42.8125 68.3438C42.3125 68.4479 41.7682 68.5 41.1797 68.5ZM41.125 63.4297H38.2578V66.5H41.0859C41.5911 66.5 41.9844 66.4323 42.2656 66.2969C42.776 66.0469 43.0312 65.5677 43.0312 64.8594C43.0312 64.2604 42.7839 63.849 42.2891 63.625C42.013 63.5 41.625 63.4349 41.125 63.4297ZM42.3203 61.2344C42.6328 61.0469 42.7891 60.7109 42.7891 60.2266C42.7891 59.6901 42.5807 59.3359 42.1641 59.1641C41.8047 59.0443 41.3464 58.9844 40.7891 58.9844H38.2578V61.5234H41.0859C41.5911 61.5234 42.0026 61.4271 42.3203 61.2344ZM47.4844 56.9844H49.8906V66.4297H55.5938V68.5H47.4844V56.9844ZM64.0078 66.1328H59.7656L58.9688 68.5H56.4531L60.5625 56.9844H63.2812L67.3594 68.5H64.75L64.0078 66.1328ZM63.3359 64.1484L61.8984 59.6172L60.4141 64.1484H63.3359ZM73.0078 66.8359C73.5755 66.8359 74.0365 66.7734 74.3906 66.6484C75.0625 66.4089 75.3984 65.9635 75.3984 65.3125C75.3984 64.9323 75.2318 64.638 74.8984 64.4297C74.5651 64.2266 74.0417 64.0469 73.3281 63.8906L72.1094 63.6172C70.9115 63.3464 70.0833 63.0521 69.625 62.7344C68.849 62.2031 68.4609 61.3724 68.4609 60.2422C68.4609 59.2109 68.8359 58.3542 69.5859 57.6719C70.3359 56.9896 71.4375 56.6484 72.8906 56.6484C74.1042 56.6484 75.138 56.9714 75.9922 57.6172C76.8516 58.2578 77.3021 59.1901 77.3438 60.4141H75.0312C74.9896 59.7214 74.6875 59.2292 74.125 58.9375C73.75 58.7448 73.2839 58.6484 72.7266 58.6484C72.1068 58.6484 71.612 58.7734 71.2422 59.0234C70.8724 59.2734 70.6875 59.6224 70.6875 60.0703C70.6875 60.4818 70.8698 60.7891 71.2344 60.9922C71.4688 61.1276 71.9688 61.2865 72.7344 61.4688L74.7188 61.9453C75.5885 62.1536 76.2448 62.4323 76.6875 62.7812C77.375 63.3229 77.7188 64.1068 77.7188 65.1328C77.7188 66.1849 77.3151 67.0599 76.5078 67.7578C75.7057 68.4505 74.5703 68.7969 73.1016 68.7969C71.6016 68.7969 70.4219 68.4557 69.5625 67.7734C68.7031 67.0859 68.2734 66.1432 68.2734 64.9453H70.5703C70.6432 65.4714 70.7865 65.8646 71 66.125C71.3906 66.599 72.0599 66.8359 73.0078 66.8359ZM87.8672 56.9844V59.0234H84.4219V68.5H82V59.0234H78.5391V56.9844H87.8672ZM97.2969 63.4688H91.7031V66.4297H98.0781V68.5H89.3516V56.9844H97.7969V59.0234H91.7031V61.4688H97.2969V63.4688ZM104.844 63.9844H102.359V68.5H100.008V56.9844H105.656C106.464 57 107.083 57.099 107.516 57.2812C107.953 57.4635 108.323 57.7318 108.625 58.0859C108.875 58.3776 109.073 58.7005 109.219 59.0547C109.365 59.4089 109.438 59.8125 109.438 60.2656C109.438 60.8125 109.299 61.3516 109.023 61.8828C108.747 62.4089 108.292 62.7812 107.656 63C108.188 63.2135 108.562 63.5182 108.781 63.9141C109.005 64.3047 109.117 64.9036 109.117 65.7109V66.4844C109.117 67.0104 109.138 67.3672 109.18 67.5547C109.242 67.8516 109.388 68.0703 109.617 68.2109V68.5H106.969C106.896 68.2448 106.844 68.0391 106.812 67.8828C106.75 67.5599 106.716 67.2292 106.711 66.8906L106.695 65.8203C106.685 65.0859 106.549 64.5964 106.289 64.3516C106.034 64.1068 105.552 63.9844 104.844 63.9844ZM106.305 61.8906C106.784 61.6719 107.023 61.2396 107.023 60.5938C107.023 59.8958 106.792 59.4271 106.328 59.1875C106.068 59.0521 105.677 58.9844 105.156 58.9844H102.359V62.0781H105.086C105.628 62.0781 106.034 62.0156 106.305 61.8906ZM47.2281 82.852H45.4521L44.9401 86.5H43.9961L44.4921 82.852H42.3001L41.7561 86.5H40.8121L41.3561 82.852H39.5961V81.908H41.5001L41.8361 79.668H40.0441V78.724H41.9641L42.4761 75.332H43.4361L42.9241 78.724H45.1001L45.5961 75.332H46.5401L46.0441 78.724H47.6441V79.668H45.9161L45.5961 81.908H47.2281V82.852ZM42.7961 79.668L42.4441 81.908H44.6521L44.9721 79.668H42.7961ZM49.2387 86.5V74.98H56.6627V75.908H50.3267V80.068H56.0867V80.996H50.3267V86.5H49.2387ZM58.2413 86.5V74.98H62.1773C62.4973 74.98 62.812 74.9907 63.1213 75.012C63.4306 75.0227 63.7346 75.06 64.0333 75.124C64.332 75.1773 64.62 75.2627 64.8973 75.38C65.1853 75.4973 65.4626 75.652 65.7293 75.844C66.1133 76.1213 66.428 76.4627 66.6733 76.868C66.9186 77.2627 67.1106 77.684 67.2493 78.132C67.3986 78.5693 67.5 79.0173 67.5533 79.476C67.6173 79.924 67.6493 80.34 67.6493 80.724C67.6493 81.108 67.6226 81.4973 67.5693 81.892C67.5266 82.2867 67.452 82.676 67.3453 83.06C67.2386 83.4333 67.0946 83.796 66.9133 84.148C66.7426 84.4893 66.524 84.804 66.2573 85.092C65.9906 85.3907 65.6973 85.6307 65.3773 85.812C65.068 85.9933 64.7373 86.1373 64.3853 86.244C64.044 86.34 63.6866 86.4093 63.3133 86.452C62.94 86.484 62.5613 86.5 62.1773 86.5H58.2413ZM59.3293 85.572H61.9373C62.428 85.572 62.8866 85.5453 63.3133 85.492C63.7506 85.428 64.1933 85.2787 64.6413 85.044C65.0253 84.852 65.34 84.5907 65.5853 84.26C65.8306 83.9293 66.0226 83.572 66.1613 83.188C66.3106 82.7933 66.412 82.3827 66.4653 81.956C66.5293 81.5293 66.5613 81.1187 66.5613 80.724C66.5613 80.308 66.5346 79.8867 66.4813 79.46C66.428 79.0227 66.3266 78.612 66.1773 78.228C66.028 77.8333 65.8253 77.476 65.5693 77.156C65.3133 76.8253 64.9826 76.5533 64.5773 76.34C64.236 76.1587 63.8306 76.0413 63.3613 75.988C62.892 75.9347 62.4173 75.908 61.9373 75.908H59.3293V85.572ZM70.3802 84.02C70.4975 84.628 70.7322 85.0867 71.0842 85.396C71.4469 85.7053 71.9429 85.86 72.5722 85.86C73.2442 85.86 73.7775 85.6947 74.1722 85.364C74.5775 85.0333 74.8869 84.6173 75.1002 84.116C75.3242 83.6147 75.4735 83.076 75.5482 82.5C75.6335 81.9133 75.6869 81.364 75.7082 80.852L75.6762 80.82C75.3349 81.396 74.9082 81.8333 74.3962 82.132C73.8949 82.4307 73.3082 82.58 72.6362 82.58C72.1029 82.58 71.6229 82.4947 71.1962 82.324C70.7695 82.1533 70.4015 81.908 70.0922 81.588C69.7935 81.268 69.5589 80.884 69.3882 80.436C69.2282 79.988 69.1482 79.492 69.1482 78.948C69.1482 78.4147 69.2229 77.924 69.3722 77.476C69.5215 77.0173 69.7455 76.6227 70.0442 76.292C70.3429 75.9507 70.7162 75.6893 71.1642 75.508C71.6229 75.316 72.1615 75.22 72.7802 75.22C73.5375 75.22 74.1669 75.3693 74.6682 75.668C75.1802 75.9667 75.5855 76.372 75.8842 76.884C76.1935 77.396 76.4122 77.9987 76.5402 78.692C76.6682 79.3853 76.7322 80.1267 76.7322 80.916C76.7322 81.876 76.6309 82.7187 76.4282 83.444C76.2255 84.1587 75.9375 84.7613 75.5642 85.252C75.2015 85.7427 74.7695 86.1107 74.2682 86.356C73.7669 86.6013 73.2175 86.724 72.6202 86.724C72.1829 86.724 71.7722 86.6707 71.3882 86.564C71.0042 86.4573 70.6682 86.292 70.3802 86.068C70.0922 85.844 69.8575 85.5613 69.6762 85.22C69.4949 84.8787 69.3829 84.4787 69.3402 84.02H70.3802ZM72.7802 76.084C71.9162 76.1053 71.2655 76.372 70.8282 76.884C70.3909 77.396 70.1722 78.0947 70.1722 78.98C70.1722 79.844 70.3962 80.516 70.8442 80.996C71.3029 81.476 71.9482 81.716 72.7802 81.716C73.1749 81.716 73.5269 81.6413 73.8362 81.492C74.1562 81.3427 74.4229 81.14 74.6362 80.884C74.8602 80.628 75.0255 80.3347 75.1322 80.004C75.2495 79.6627 75.3082 79.3 75.3082 78.916C75.3082 78.084 75.0842 77.412 74.6362 76.9C74.1882 76.3773 73.5695 76.1053 72.7802 76.084ZM79.7668 85.572H82.5348C83.1321 85.572 83.6495 85.5453 84.0868 85.492C84.5348 85.4387 84.9028 85.332 85.1908 85.172C85.4788 85.0013 85.6921 84.7667 85.8308 84.468C85.9801 84.1587 86.0548 83.7533 86.0548 83.252C86.0548 82.772 85.9748 82.388 85.8148 82.1C85.6548 81.8013 85.4255 81.572 85.1268 81.412C84.8281 81.252 84.4708 81.1453 84.0548 81.092C83.6388 81.028 83.1748 80.996 82.6628 80.996H79.7668V85.572ZM79.7668 80.068H82.5188C83.0841 80.068 83.5588 80.02 83.9428 79.924C84.3268 79.828 84.6361 79.6893 84.8708 79.508C85.1055 79.316 85.2708 79.0867 85.3668 78.82C85.4735 78.5427 85.5268 78.228 85.5268 77.876C85.5268 77.5133 85.4681 77.2093 85.3508 76.964C85.2335 76.708 85.0468 76.5053 84.7908 76.356C84.5348 76.196 84.1988 76.084 83.7828 76.02C83.3775 75.9453 82.8761 75.908 82.2788 75.908H79.7668V80.068ZM78.6788 86.5V74.98H82.8388C83.5108 74.98 84.0868 75.0493 84.5668 75.188C85.0468 75.3267 85.4361 75.524 85.7348 75.78C86.0441 76.036 86.2681 76.3453 86.4068 76.708C86.5455 77.06 86.6148 77.4493 86.6148 77.876C86.6148 78.2813 86.5615 78.6333 86.4548 78.932C86.3481 79.22 86.2095 79.4653 86.0388 79.668C85.8681 79.86 85.6708 80.0147 85.4468 80.132C85.2335 80.2387 85.0095 80.3133 84.7748 80.356V80.388C85.5748 80.5053 86.1668 80.82 86.5508 81.332C86.9455 81.844 87.1428 82.484 87.1428 83.252C87.1428 83.8493 87.0468 84.356 86.8548 84.772C86.6735 85.188 86.4175 85.524 86.0868 85.78C85.7561 86.036 85.3561 86.2227 84.8868 86.34C84.4281 86.4467 83.9268 86.5 83.3828 86.5H78.6788ZM95.2867 80.948C95.2867 80.34 95.2494 79.748 95.1747 79.172C95.1107 78.5853 94.9774 78.0627 94.7747 77.604C94.572 77.1453 94.284 76.7773 93.9107 76.5C93.548 76.2227 93.068 76.084 92.4707 76.084C91.9054 76.084 91.4414 76.228 91.0787 76.516C90.7267 76.7933 90.4494 77.1667 90.2467 77.636C90.044 78.1053 89.9 78.6387 89.8147 79.236C89.74 79.8333 89.7027 80.4413 89.7027 81.06C89.7027 81.7853 89.7454 82.4467 89.8307 83.044C89.9267 83.6307 90.0814 84.132 90.2947 84.548C90.508 84.964 90.7907 85.2893 91.1427 85.524C91.5054 85.748 91.9587 85.86 92.5027 85.86C93.1107 85.86 93.596 85.7107 93.9587 85.412C94.332 85.1133 94.6147 84.7293 94.8067 84.26C94.9987 83.7907 95.1267 83.2627 95.1907 82.676C95.2547 82.0893 95.2867 81.5133 95.2867 80.948ZM92.5027 75.22C93.0574 75.22 93.5374 75.3053 93.9427 75.476C94.348 75.636 94.6894 75.86 94.9667 76.148C95.2547 76.436 95.484 76.772 95.6547 77.156C95.836 77.54 95.9747 77.9507 96.0707 78.388C96.1667 78.8147 96.2307 79.2573 96.2627 79.716C96.2947 80.1747 96.3107 80.6227 96.3107 81.06C96.3107 81.8067 96.2574 82.5213 96.1507 83.204C96.044 83.8867 95.8467 84.4893 95.5587 85.012C95.2814 85.5347 94.8974 85.9507 94.4067 86.26C93.916 86.5693 93.2814 86.724 92.5027 86.724C91.724 86.724 91.084 86.5693 90.5827 86.26C90.092 85.9507 89.7027 85.5347 89.4147 85.012C89.1374 84.4787 88.9454 83.8653 88.8387 83.172C88.732 82.468 88.6787 81.7267 88.6787 80.948C88.6787 80.2333 88.7267 79.5347 88.8227 78.852C88.9187 78.1693 89.1 77.5613 89.3667 77.028C89.644 76.484 90.0334 76.0467 90.5347 75.716C91.036 75.3853 91.692 75.22 92.5027 75.22ZM97.8893 75.332H105.073V76.292C104.263 77.2093 103.575 78.1533 103.009 79.124C102.444 80.084 101.98 81.0227 101.617 81.94C101.255 82.8467 100.983 83.6947 100.801 84.484C100.631 85.2733 100.529 85.9453 100.497 86.5H99.3773C99.4306 85.6893 99.5906 84.8307 99.8573 83.924C100.135 83.0067 100.476 82.1 100.881 81.204C101.287 80.308 101.745 79.444 102.257 78.612C102.769 77.7693 103.297 77.0173 103.841 76.356H97.8893V75.332Z" fill="#1E1E24"/>
</svg>
