<svg width="145" height="143" viewBox="0 0 145 143" fill="none" xmlns="http://www.w3.org/2000/svg">
<rect x="0.5" width="144" height="143" rx="71.5" fill="#FA0AA8"/>
<path d="M39.1016 66.1328H34.8594L34.0625 68.5H31.5469L35.6562 56.9844H38.375L42.4531 68.5H39.8438L39.1016 66.1328ZM38.4297 64.1484L36.9922 59.6172L35.5078 64.1484H38.4297ZM48.1016 66.8359C48.6693 66.8359 49.1302 66.7734 49.4844 66.6484C50.1562 66.4089 50.4922 65.9635 50.4922 65.3125C50.4922 64.9323 50.3255 64.638 49.9922 64.4297C49.6589 64.2266 49.1354 64.0469 48.4219 63.8906L47.2031 63.6172C46.0052 63.3464 45.1771 63.0521 44.7188 62.7344C43.9427 62.2031 43.5547 61.3724 43.5547 60.2422C43.5547 59.2109 43.9297 58.3542 44.6797 57.6719C45.4297 56.9896 46.5312 56.6484 47.9844 56.6484C49.1979 56.6484 50.2318 56.9714 51.0859 57.6172C51.9453 58.2578 52.3958 59.1901 52.4375 60.4141H50.125C50.0833 59.7214 49.7812 59.2292 49.2188 58.9375C48.8438 58.7448 48.3776 58.6484 47.8203 58.6484C47.2005 58.6484 46.7057 58.7734 46.3359 59.0234C45.9661 59.2734 45.7812 59.6224 45.7812 60.0703C45.7812 60.4818 45.9635 60.7891 46.3281 60.9922C46.5625 61.1276 47.0625 61.2865 47.8281 61.4688L49.8125 61.9453C50.6823 62.1536 51.3385 62.4323 51.7812 62.7812C52.4688 63.3229 52.8125 64.1068 52.8125 65.1328C52.8125 66.1849 52.4089 67.0599 51.6016 67.7578C50.7995 68.4505 49.6641 68.7969 48.1953 68.7969C46.6953 68.7969 45.5156 68.4557 44.6562 67.7734C43.7969 67.0859 43.3672 66.1432 43.3672 64.9453H45.6641C45.737 65.4714 45.8802 65.8646 46.0938 66.125C46.4844 66.599 47.1536 66.8359 48.1016 66.8359ZM62.9609 56.9844V59.0234H59.5156V68.5H57.0938V59.0234H53.6328V56.9844H62.9609ZM72.3906 63.4688H66.7969V66.4297H73.1719V68.5H64.4453V56.9844H72.8906V59.0234H66.7969V61.4688H72.3906V63.4688ZM79.9375 63.9844H77.4531V68.5H75.1016V56.9844H80.75C81.5573 57 82.1771 57.099 82.6094 57.2812C83.0469 57.4635 83.4167 57.7318 83.7188 58.0859C83.9688 58.3776 84.1667 58.7005 84.3125 59.0547C84.4583 59.4089 84.5312 59.8125 84.5312 60.2656C84.5312 60.8125 84.3932 61.3516 84.1172 61.8828C83.8411 62.4089 83.3854 62.7812 82.75 63C83.2812 63.2135 83.6562 63.5182 83.875 63.9141C84.099 64.3047 84.2109 64.9036 84.2109 65.7109V66.4844C84.2109 67.0104 84.2318 67.3672 84.2734 67.5547C84.3359 67.8516 84.4818 68.0703 84.7109 68.2109V68.5H82.0625C81.9896 68.2448 81.9375 68.0391 81.9062 67.8828C81.8438 67.5599 81.8099 67.2292 81.8047 66.8906L81.7891 65.8203C81.7786 65.0859 81.6432 64.5964 81.3828 64.3516C81.1276 64.1068 80.6458 63.9844 79.9375 63.9844ZM81.3984 61.8906C81.8776 61.6719 82.1172 61.2396 82.1172 60.5938C82.1172 59.8958 81.8854 59.4271 81.4219 59.1875C81.1615 59.0521 80.7708 58.9844 80.25 58.9844H77.4531V62.0781H80.1797C80.7214 62.0781 81.1276 62.0156 81.3984 61.8906ZM91.7031 68.8203C90.0573 68.8203 88.7995 68.3724 87.9297 67.4766C86.763 66.3776 86.1797 64.7943 86.1797 62.7266C86.1797 60.6172 86.763 59.0339 87.9297 57.9766C88.7995 57.0807 90.0573 56.6328 91.7031 56.6328C93.349 56.6328 94.6068 57.0807 95.4766 57.9766C96.638 59.0339 97.2188 60.6172 97.2188 62.7266C97.2188 64.7943 96.638 66.3776 95.4766 67.4766C94.6068 68.3724 93.349 68.8203 91.7031 68.8203ZM93.9766 65.7266C94.5339 65.0234 94.8125 64.0234 94.8125 62.7266C94.8125 61.4349 94.5312 60.4375 93.9688 59.7344C93.4115 59.026 92.6562 58.6719 91.7031 58.6719C90.75 58.6719 89.9896 59.0234 89.4219 59.7266C88.8542 60.4297 88.5703 61.4297 88.5703 62.7266C88.5703 64.0234 88.8542 65.0234 89.4219 65.7266C89.9896 66.4297 90.75 66.7812 91.7031 66.7812C92.6562 66.7812 93.4141 66.4297 93.9766 65.7266ZM98.875 56.9844H101.266V68.5H98.875V56.9844ZM108.477 68.5H103.516V56.9844H108.477C109.19 56.9948 109.784 57.0781 110.258 57.2344C111.065 57.5 111.719 57.987 112.219 58.6953C112.62 59.2682 112.893 59.888 113.039 60.5547C113.185 61.2214 113.258 61.8568 113.258 62.4609C113.258 63.9922 112.951 65.2891 112.336 66.3516C111.503 67.7839 110.216 68.5 108.477 68.5ZM110.266 59.9219C109.896 59.2969 109.164 58.9844 108.07 58.9844H105.852V66.5H108.07C109.206 66.5 109.997 65.9401 110.445 64.8203C110.69 64.2057 110.812 63.474 110.812 62.625C110.812 61.4531 110.63 60.5521 110.266 59.9219ZM47.2124 82.852H45.4364L44.9244 86.5H43.9804L44.4764 82.852H42.2844L41.7404 86.5H40.7964L41.3404 82.852H39.5804V81.908H41.4844L41.8204 79.668H40.0284V78.724H41.9484L42.4604 75.332H43.4204L42.9084 78.724H45.0844L45.5804 75.332H46.5244L46.0284 78.724H47.6284V79.668H45.9004L45.5804 81.908H47.2124V82.852ZM42.7804 79.668L42.4284 81.908H44.6364L44.9564 79.668H42.7804ZM49.2231 86.5V74.98H56.6471V75.908H50.3111V80.068H56.0711V80.996H50.3111V86.5H49.2231ZM56.2947 86.5L60.8227 74.98H62.0547L66.4707 86.5H65.3507L64.0227 82.884H58.7747L57.4147 86.5H56.2947ZM59.1427 81.956H63.6547L61.3987 75.908L59.1427 81.956ZM73.9586 80.948C73.9586 80.34 73.9212 79.748 73.8466 79.172C73.7826 78.5853 73.6492 78.0627 73.4466 77.604C73.2439 77.1453 72.9559 76.7773 72.5826 76.5C72.2199 76.2227 71.7399 76.084 71.1426 76.084C70.5772 76.084 70.1132 76.228 69.7506 76.516C69.3986 76.7933 69.1212 77.1667 68.9186 77.636C68.7159 78.1053 68.5719 78.6387 68.4866 79.236C68.4119 79.8333 68.3746 80.4413 68.3746 81.06C68.3746 81.7853 68.4172 82.4467 68.5026 83.044C68.5986 83.6307 68.7532 84.132 68.9666 84.548C69.1799 84.964 69.4626 85.2893 69.8146 85.524C70.1772 85.748 70.6306 85.86 71.1746 85.86C71.7826 85.86 72.2679 85.7107 72.6306 85.412C73.0039 85.1133 73.2866 84.7293 73.4786 84.26C73.6706 83.7907 73.7986 83.2627 73.8626 82.676C73.9266 82.0893 73.9586 81.5133 73.9586 80.948ZM71.1746 75.22C71.7292 75.22 72.2092 75.3053 72.6146 75.476C73.0199 75.636 73.3612 75.86 73.6386 76.148C73.9266 76.436 74.1559 76.772 74.3266 77.156C74.5079 77.54 74.6466 77.9507 74.7426 78.388C74.8386 78.8147 74.9026 79.2573 74.9346 79.716C74.9666 80.1747 74.9826 80.6227 74.9826 81.06C74.9826 81.8067 74.9292 82.5213 74.8226 83.204C74.7159 83.8867 74.5186 84.4893 74.2306 85.012C73.9532 85.5347 73.5692 85.9507 73.0786 86.26C72.5879 86.5693 71.9532 86.724 71.1746 86.724C70.3959 86.724 69.7559 86.5693 69.2546 86.26C68.7639 85.9507 68.3746 85.5347 68.0866 85.012C67.8092 84.4787 67.6172 83.8653 67.5106 83.172C67.4039 82.468 67.3506 81.7267 67.3506 80.948C67.3506 80.2333 67.3986 79.5347 67.4946 78.852C67.5906 78.1693 67.7719 77.5613 68.0386 77.028C68.3159 76.484 68.7052 76.0467 69.2066 75.716C69.7079 75.3853 70.3639 75.22 71.1746 75.22ZM75.8572 86.5L80.3852 74.98H81.6172L86.0332 86.5H84.9132L83.5852 82.884H78.3372L76.9772 86.5H75.8572ZM78.7052 81.956H83.2172L80.9612 75.908L78.7052 81.956ZM86.5291 86.5L91.0571 74.98H92.2891L96.7051 86.5H95.5851L94.2571 82.884H89.0091L87.6491 86.5H86.5291ZM89.3771 81.956H93.8891L91.6331 75.908L89.3771 81.956ZM101.425 80.98C101.03 80.98 100.668 81.028 100.337 81.124C100.006 81.22 99.7183 81.3693 99.4729 81.572C99.2276 81.764 99.0356 82.0147 98.8969 82.324C98.7583 82.6227 98.6889 82.98 98.6889 83.396C98.6889 83.748 98.7529 84.0733 98.8809 84.372C99.0196 84.6707 99.2063 84.932 99.4409 85.156C99.6863 85.3693 99.9796 85.54 100.321 85.668C100.673 85.796 101.062 85.86 101.489 85.86C101.862 85.86 102.209 85.8013 102.529 85.684C102.849 85.556 103.126 85.38 103.361 85.156C103.606 84.932 103.793 84.6653 103.921 84.356C104.06 84.0467 104.129 83.7053 104.129 83.332C104.129 82.9373 104.06 82.596 103.921 82.308C103.782 82.0093 103.59 81.764 103.345 81.572C103.1 81.3693 102.812 81.22 102.481 81.124C102.15 81.028 101.798 80.98 101.425 80.98ZM101.377 76.084C101.057 76.084 100.758 76.1267 100.481 76.212C100.204 76.2973 99.9583 76.4253 99.7449 76.596C99.5423 76.7667 99.3823 76.98 99.2649 77.236C99.1476 77.492 99.0889 77.7853 99.0889 78.116C99.0889 78.468 99.1529 78.772 99.2809 79.028C99.4196 79.2733 99.6009 79.476 99.8249 79.636C100.049 79.796 100.305 79.9187 100.593 80.004C100.881 80.0787 101.18 80.116 101.489 80.116C101.798 80.116 102.086 80.0787 102.353 80.004C102.62 79.9187 102.849 79.7853 103.041 79.604C103.233 79.4227 103.382 79.1933 103.489 78.916C103.606 78.6387 103.665 78.2973 103.665 77.892C103.665 77.316 103.478 76.8733 103.105 76.564C102.732 76.244 102.156 76.084 101.377 76.084ZM99.6329 80.436C99.3556 80.2653 99.1156 80.1053 98.9129 79.956C98.7209 79.796 98.5609 79.6253 98.4329 79.444C98.3049 79.2627 98.2089 79.06 98.1449 78.836C98.0916 78.6013 98.0649 78.3133 98.0649 77.972C98.0649 77.588 98.1503 77.2253 98.3209 76.884C98.4916 76.5427 98.7209 76.2493 99.0089 76.004C99.2969 75.748 99.6329 75.5507 100.017 75.412C100.412 75.2733 100.833 75.2093 101.281 75.22C101.708 75.22 102.124 75.2733 102.529 75.38C102.945 75.4867 103.313 75.652 103.633 75.876C103.953 76.1 104.209 76.388 104.401 76.74C104.593 77.0813 104.689 77.492 104.689 77.972C104.689 78.5587 104.566 79.06 104.321 79.476C104.086 79.892 103.697 80.2333 103.153 80.5C103.772 80.724 104.257 81.0813 104.609 81.572C104.972 82.0627 105.153 82.6387 105.153 83.3C105.153 83.8547 105.057 84.3453 104.865 84.772C104.684 85.1987 104.417 85.556 104.065 85.844C103.724 86.132 103.308 86.3507 102.817 86.5C102.326 86.6493 101.782 86.724 101.185 86.724C100.78 86.724 100.364 86.6547 99.9369 86.516C99.5209 86.3773 99.1423 86.1693 98.8009 85.892C98.4703 85.6147 98.1983 85.268 97.9849 84.852C97.7716 84.436 97.6649 83.9507 97.6649 83.396C97.6649 82.724 97.8303 82.1267 98.1609 81.604C98.5023 81.0707 98.9929 80.6813 99.6329 80.436Z" fill="#1E1E24"/>
</svg>
