<svg width="145" height="143" viewBox="0 0 145 143" fill="none" xmlns="http://www.w3.org/2000/svg">
<rect x="0.5" width="144" height="143" rx="71.5" fill="#FD0707"/>
<path d="M41.1797 68.5H35.9609V56.9844H41.5547C42.9661 57.0052 43.9661 57.4141 44.5547 58.2109C44.9089 58.7005 45.0859 59.2865 45.0859 59.9688C45.0859 60.6719 44.9089 61.237 44.5547 61.6641C44.3568 61.9036 44.0651 62.1224 43.6797 62.3203C44.2682 62.5339 44.7109 62.8724 45.0078 63.3359C45.3099 63.7995 45.4609 64.362 45.4609 65.0234C45.4609 65.7057 45.2891 66.3177 44.9453 66.8594C44.7266 67.2188 44.4531 67.5208 44.125 67.7656C43.7552 68.0469 43.3177 68.2396 42.8125 68.3438C42.3125 68.4479 41.7682 68.5 41.1797 68.5ZM41.125 63.4297H38.2578V66.5H41.0859C41.5911 66.5 41.9844 66.4323 42.2656 66.2969C42.776 66.0469 43.0312 65.5677 43.0312 64.8594C43.0312 64.2604 42.7839 63.849 42.2891 63.625C42.013 63.5 41.625 63.4349 41.125 63.4297ZM42.3203 61.2344C42.6328 61.0469 42.7891 60.7109 42.7891 60.2266C42.7891 59.6901 42.5807 59.3359 42.1641 59.1641C41.8047 59.0443 41.3464 58.9844 40.7891 58.9844H38.2578V61.5234H41.0859C41.5911 61.5234 42.0026 61.4271 42.3203 61.2344ZM47.4844 56.9844H49.8906V66.4297H55.5938V68.5H47.4844V56.9844ZM64.0078 66.1328H59.7656L58.9688 68.5H56.4531L60.5625 56.9844H63.2812L67.3594 68.5H64.75L64.0078 66.1328ZM63.3359 64.1484L61.8984 59.6172L60.4141 64.1484H63.3359ZM73.0078 66.8359C73.5755 66.8359 74.0365 66.7734 74.3906 66.6484C75.0625 66.4089 75.3984 65.9635 75.3984 65.3125C75.3984 64.9323 75.2318 64.638 74.8984 64.4297C74.5651 64.2266 74.0417 64.0469 73.3281 63.8906L72.1094 63.6172C70.9115 63.3464 70.0833 63.0521 69.625 62.7344C68.849 62.2031 68.4609 61.3724 68.4609 60.2422C68.4609 59.2109 68.8359 58.3542 69.5859 57.6719C70.3359 56.9896 71.4375 56.6484 72.8906 56.6484C74.1042 56.6484 75.138 56.9714 75.9922 57.6172C76.8516 58.2578 77.3021 59.1901 77.3438 60.4141H75.0312C74.9896 59.7214 74.6875 59.2292 74.125 58.9375C73.75 58.7448 73.2839 58.6484 72.7266 58.6484C72.1068 58.6484 71.612 58.7734 71.2422 59.0234C70.8724 59.2734 70.6875 59.6224 70.6875 60.0703C70.6875 60.4818 70.8698 60.7891 71.2344 60.9922C71.4688 61.1276 71.9688 61.2865 72.7344 61.4688L74.7188 61.9453C75.5885 62.1536 76.2448 62.4323 76.6875 62.7812C77.375 63.3229 77.7188 64.1068 77.7188 65.1328C77.7188 66.1849 77.3151 67.0599 76.5078 67.7578C75.7057 68.4505 74.5703 68.7969 73.1016 68.7969C71.6016 68.7969 70.4219 68.4557 69.5625 67.7734C68.7031 67.0859 68.2734 66.1432 68.2734 64.9453H70.5703C70.6432 65.4714 70.7865 65.8646 71 66.125C71.3906 66.599 72.0599 66.8359 73.0078 66.8359ZM87.8672 56.9844V59.0234H84.4219V68.5H82V59.0234H78.5391V56.9844H87.8672ZM97.2969 63.4688H91.7031V66.4297H98.0781V68.5H89.3516V56.9844H97.7969V59.0234H91.7031V61.4688H97.2969V63.4688ZM104.844 63.9844H102.359V68.5H100.008V56.9844H105.656C106.464 57 107.083 57.099 107.516 57.2812C107.953 57.4635 108.323 57.7318 108.625 58.0859C108.875 58.3776 109.073 58.7005 109.219 59.0547C109.365 59.4089 109.438 59.8125 109.438 60.2656C109.438 60.8125 109.299 61.3516 109.023 61.8828C108.747 62.4089 108.292 62.7812 107.656 63C108.188 63.2135 108.562 63.5182 108.781 63.9141C109.005 64.3047 109.117 64.9036 109.117 65.7109V66.4844C109.117 67.0104 109.138 67.3672 109.18 67.5547C109.242 67.8516 109.388 68.0703 109.617 68.2109V68.5H106.969C106.896 68.2448 106.844 68.0391 106.812 67.8828C106.75 67.5599 106.716 67.2292 106.711 66.8906L106.695 65.8203C106.685 65.0859 106.549 64.5964 106.289 64.3516C106.034 64.1068 105.552 63.9844 104.844 63.9844ZM106.305 61.8906C106.784 61.6719 107.023 61.2396 107.023 60.5938C107.023 59.8958 106.792 59.4271 106.328 59.1875C106.068 59.0521 105.677 58.9844 105.156 58.9844H102.359V62.0781H105.086C105.628 62.0781 106.034 62.0156 106.305 61.8906ZM48.1187 82.852H46.3427L45.8307 86.5H44.8867L45.3827 82.852H43.1907L42.6467 86.5H41.7027L42.2467 82.852H40.4867V81.908H42.3907L42.7267 79.668H40.9347V78.724H42.8547L43.3667 75.332H44.3267L43.8147 78.724H45.9907L46.4867 75.332H47.4307L46.9347 78.724H48.5347V79.668H46.8067L46.4867 81.908H48.1187V82.852ZM43.6867 79.668L43.3347 81.908H45.5427L45.8627 79.668H43.6867ZM50.1293 86.5V74.98H57.5533V75.908H51.2173V80.068H56.9773V80.996H51.2173V86.5H50.1293ZM59.1319 86.5V74.98H63.0679C63.3879 74.98 63.7026 74.9907 64.0119 75.012C64.3213 75.0227 64.6253 75.06 64.9239 75.124C65.2226 75.1773 65.5106 75.2627 65.7879 75.38C66.0759 75.4973 66.3533 75.652 66.6199 75.844C67.0039 76.1213 67.3186 76.4627 67.5639 76.868C67.8093 77.2627 68.0013 77.684 68.1399 78.132C68.2893 78.5693 68.3906 79.0173 68.4439 79.476C68.5079 79.924 68.5399 80.34 68.5399 80.724C68.5399 81.108 68.5133 81.4973 68.4599 81.892C68.4173 82.2867 68.3426 82.676 68.2359 83.06C68.1293 83.4333 67.9853 83.796 67.8039 84.148C67.6333 84.4893 67.4146 84.804 67.1479 85.092C66.8813 85.3907 66.5879 85.6307 66.2679 85.812C65.9586 85.9933 65.6279 86.1373 65.2759 86.244C64.9346 86.34 64.5773 86.4093 64.2039 86.452C63.8306 86.484 63.4519 86.5 63.0679 86.5H59.1319ZM60.2199 85.572H62.8279C63.3186 85.572 63.7773 85.5453 64.2039 85.492C64.6413 85.428 65.0839 85.2787 65.5319 85.044C65.9159 84.852 66.2306 84.5907 66.4759 84.26C66.7213 83.9293 66.9133 83.572 67.0519 83.188C67.2013 82.7933 67.3026 82.3827 67.3559 81.956C67.4199 81.5293 67.4519 81.1187 67.4519 80.724C67.4519 80.308 67.4253 79.8867 67.3719 79.46C67.3186 79.0227 67.2173 78.612 67.0679 78.228C66.9186 77.8333 66.7159 77.476 66.4599 77.156C66.2039 76.8253 65.8733 76.5533 65.4679 76.34C65.1266 76.1587 64.7213 76.0413 64.2519 75.988C63.7826 75.9347 63.3079 75.908 62.8279 75.908H60.2199V85.572ZM76.6148 80.948C76.6148 80.34 76.5775 79.748 76.5028 79.172C76.4388 78.5853 76.3055 78.0627 76.1028 77.604C75.9001 77.1453 75.6121 76.7773 75.2388 76.5C74.8761 76.2227 74.3961 76.084 73.7988 76.084C73.2335 76.084 72.7695 76.228 72.4068 76.516C72.0548 76.7933 71.7775 77.1667 71.5748 77.636C71.3721 78.1053 71.2281 78.6387 71.1428 79.236C71.0681 79.8333 71.0308 80.4413 71.0308 81.06C71.0308 81.7853 71.0735 82.4467 71.1588 83.044C71.2548 83.6307 71.4095 84.132 71.6228 84.548C71.8361 84.964 72.1188 85.2893 72.4708 85.524C72.8335 85.748 73.2868 85.86 73.8308 85.86C74.4388 85.86 74.9241 85.7107 75.2868 85.412C75.6601 85.1133 75.9428 84.7293 76.1348 84.26C76.3268 83.7907 76.4548 83.2627 76.5188 82.676C76.5828 82.0893 76.6148 81.5133 76.6148 80.948ZM73.8308 75.22C74.3855 75.22 74.8655 75.3053 75.2708 75.476C75.6761 75.636 76.0175 75.86 76.2948 76.148C76.5828 76.436 76.8121 76.772 76.9828 77.156C77.1641 77.54 77.3028 77.9507 77.3988 78.388C77.4948 78.8147 77.5588 79.2573 77.5908 79.716C77.6228 80.1747 77.6388 80.6227 77.6388 81.06C77.6388 81.8067 77.5855 82.5213 77.4788 83.204C77.3721 83.8867 77.1748 84.4893 76.8868 85.012C76.6095 85.5347 76.2255 85.9507 75.7348 86.26C75.2441 86.5693 74.6095 86.724 73.8308 86.724C73.0521 86.724 72.4121 86.5693 71.9108 86.26C71.4201 85.9507 71.0308 85.5347 70.7428 85.012C70.4655 84.4787 70.2735 83.8653 70.1668 83.172C70.0601 82.468 70.0068 81.7267 70.0068 80.948C70.0068 80.2333 70.0548 79.5347 70.1508 78.852C70.2468 78.1693 70.4281 77.5613 70.6948 77.028C70.9721 76.484 71.3615 76.0467 71.8628 75.716C72.3641 75.3853 73.0201 75.22 73.8308 75.22ZM79.2174 75.332H86.4014V76.292C85.5908 77.2093 84.9028 78.1533 84.3374 79.124C83.7721 80.084 83.3081 81.0227 82.9454 81.94C82.5828 82.8467 82.3108 83.6947 82.1294 84.484C81.9588 85.2733 81.8574 85.9453 81.8254 86.5H80.7054C80.7588 85.6893 80.9188 84.8307 81.1854 83.924C81.4628 83.0067 81.8041 82.1 82.2094 81.204C82.6148 80.308 83.0734 79.444 83.5854 78.612C84.0974 77.7693 84.6254 77.0173 85.1694 76.356H79.2174V75.332ZM94.3961 80.948C94.3961 80.34 94.3587 79.748 94.2841 79.172C94.2201 78.5853 94.0867 78.0627 93.8841 77.604C93.6814 77.1453 93.3934 76.7773 93.0201 76.5C92.6574 76.2227 92.1774 76.084 91.5801 76.084C91.0147 76.084 90.5507 76.228 90.1881 76.516C89.8361 76.7933 89.5587 77.1667 89.3561 77.636C89.1534 78.1053 89.0094 78.6387 88.9241 79.236C88.8494 79.8333 88.8121 80.4413 88.8121 81.06C88.8121 81.7853 88.8547 82.4467 88.9401 83.044C89.0361 83.6307 89.1907 84.132 89.4041 84.548C89.6174 84.964 89.9001 85.2893 90.2521 85.524C90.6147 85.748 91.0681 85.86 91.6121 85.86C92.2201 85.86 92.7054 85.7107 93.0681 85.412C93.4414 85.1133 93.7241 84.7293 93.9161 84.26C94.1081 83.7907 94.2361 83.2627 94.3001 82.676C94.3641 82.0893 94.3961 81.5133 94.3961 80.948ZM91.6121 75.22C92.1667 75.22 92.6467 75.3053 93.0521 75.476C93.4574 75.636 93.7987 75.86 94.0761 76.148C94.3641 76.436 94.5934 76.772 94.7641 77.156C94.9454 77.54 95.0841 77.9507 95.1801 78.388C95.2761 78.8147 95.3401 79.2573 95.3721 79.716C95.4041 80.1747 95.4201 80.6227 95.4201 81.06C95.4201 81.8067 95.3667 82.5213 95.2601 83.204C95.1534 83.8867 94.9561 84.4893 94.6681 85.012C94.3907 85.5347 94.0067 85.9507 93.5161 86.26C93.0254 86.5693 92.3907 86.724 91.6121 86.724C90.8334 86.724 90.1934 86.5693 89.6921 86.26C89.2014 85.9507 88.8121 85.5347 88.5241 85.012C88.2467 84.4787 88.0547 83.8653 87.9481 83.172C87.8414 82.468 87.7881 81.7267 87.7881 80.948C87.7881 80.2333 87.8361 79.5347 87.9321 78.852C88.0281 78.1693 88.2094 77.5613 88.4761 77.028C88.7534 76.484 89.1427 76.0467 89.6441 75.716C90.1454 75.3853 90.8014 75.22 91.6121 75.22ZM96.9987 75.332H104.183V76.292C103.372 77.2093 102.684 78.1533 102.119 79.124C101.553 80.084 101.089 81.0227 100.727 81.94C100.364 82.8467 100.092 83.6947 99.9107 84.484C99.74 85.2733 99.6387 85.9453 99.6067 86.5H98.4867C98.54 85.6893 98.7 84.8307 98.9667 83.924C99.244 83.0067 99.5854 82.1 99.9907 81.204C100.396 80.308 100.855 79.444 101.367 78.612C101.879 77.7693 102.407 77.0173 102.951 76.356H96.9987V75.332Z" fill="#1E1E24"/>
</svg>
