<svg width="145" height="143" viewBox="0 0 145 143" fill="none" xmlns="http://www.w3.org/2000/svg">
<rect x="0.5" width="144" height="143" rx="71.5" fill="#1E1E1E"/>
<path d="M27.125 57.8359C27.6927 57.8359 28.1536 57.7734 28.5078 57.6484C29.1797 57.4089 29.5156 56.9635 29.5156 56.3125C29.5156 55.9323 29.349 55.638 29.0156 55.4297C28.6823 55.2266 28.1589 55.0469 27.4453 54.8906L26.2266 54.6172C25.0286 54.3464 24.2005 54.0521 23.7422 53.7344C22.9661 53.2031 22.5781 52.3724 22.5781 51.2422C22.5781 50.2109 22.9531 49.3542 23.7031 48.6719C24.4531 47.9896 25.5547 47.6484 27.0078 47.6484C28.2214 47.6484 29.2552 47.9714 30.1094 48.6172C30.9688 49.2578 31.4193 50.1901 31.4609 51.4141H29.1484C29.1068 50.7214 28.8047 50.2292 28.2422 49.9375C27.8672 49.7448 27.401 49.6484 26.8438 49.6484C26.224 49.6484 25.7292 49.7734 25.3594 50.0234C24.9896 50.2734 24.8047 50.6224 24.8047 51.0703C24.8047 51.4818 24.987 51.7891 25.3516 51.9922C25.5859 52.1276 26.0859 52.2865 26.8516 52.4688L28.8359 52.9453C29.7057 53.1536 30.362 53.4323 30.8047 53.7812C31.4922 54.3229 31.8359 55.1068 31.8359 56.1328C31.8359 57.1849 31.4323 58.0599 30.625 58.7578C29.8229 59.4505 28.6875 59.7969 27.2188 59.7969C25.7188 59.7969 24.5391 59.4557 23.6797 58.7734C22.8203 58.0859 22.3906 57.1432 22.3906 55.9453H24.6875C24.7604 56.4714 24.9036 56.8646 25.1172 57.125C25.5078 57.599 26.1771 57.8359 27.125 57.8359ZM41.6328 54.4688H36.0391V57.4297H42.4141V59.5H33.6875V47.9844H42.1328V50.0234H36.0391V52.4688H41.6328V54.4688ZM52.4141 58.6406C51.5547 59.4271 50.4557 59.8203 49.1172 59.8203C47.4609 59.8203 46.1589 59.2891 45.2109 58.2266C44.263 57.1589 43.7891 55.6953 43.7891 53.8359C43.7891 51.8255 44.3281 50.276 45.4062 49.1875C46.3438 48.2396 47.5365 47.7656 48.9844 47.7656C50.9219 47.7656 52.3385 48.401 53.2344 49.6719C53.7292 50.3854 53.9948 51.1016 54.0312 51.8203H51.625C51.4688 51.2682 51.2682 50.8516 51.0234 50.5703C50.5859 50.0703 49.9375 49.8203 49.0781 49.8203C48.2031 49.8203 47.513 50.1745 47.0078 50.8828C46.5026 51.5859 46.25 52.5833 46.25 53.875C46.25 55.1667 46.5156 56.1354 47.0469 56.7812C47.5833 57.4219 48.263 57.7422 49.0859 57.7422C49.9297 57.7422 50.5729 57.4661 51.0156 56.9141C51.2604 56.6172 51.4635 56.1719 51.625 55.5781H54.0078C53.7995 56.8333 53.2682 57.8542 52.4141 58.6406ZM60.9453 59.8203C59.2995 59.8203 58.0417 59.3724 57.1719 58.4766C56.0052 57.3776 55.4219 55.7943 55.4219 53.7266C55.4219 51.6172 56.0052 50.0339 57.1719 48.9766C58.0417 48.0807 59.2995 47.6328 60.9453 47.6328C62.5911 47.6328 63.849 48.0807 64.7188 48.9766C65.8802 50.0339 66.4609 51.6172 66.4609 53.7266C66.4609 55.7943 65.8802 57.3776 64.7188 58.4766C63.849 59.3724 62.5911 59.8203 60.9453 59.8203ZM63.2188 56.7266C63.776 56.0234 64.0547 55.0234 64.0547 53.7266C64.0547 52.4349 63.7734 51.4375 63.2109 50.7344C62.6536 50.026 61.8984 49.6719 60.9453 49.6719C59.9922 49.6719 59.2318 50.0234 58.6641 50.7266C58.0964 51.4297 57.8125 52.4297 57.8125 53.7266C57.8125 55.0234 58.0964 56.0234 58.6641 56.7266C59.2318 57.4297 59.9922 57.7812 60.9453 57.7812C61.8984 57.7812 62.6562 57.4297 63.2188 56.7266ZM77.6172 59.5H75.2109L70.5078 51.3203V59.5H68.2656V47.9844H70.7891L75.375 56.0234V47.9844H77.6172V59.5ZM84.8281 59.5H79.8672V47.9844H84.8281C85.5417 47.9948 86.1354 48.0781 86.6094 48.2344C87.4167 48.5 88.0703 48.987 88.5703 49.6953C88.9714 50.2682 89.2448 50.888 89.3906 51.5547C89.5365 52.2214 89.6094 52.8568 89.6094 53.4609C89.6094 54.9922 89.3021 56.2891 88.6875 57.3516C87.8542 58.7839 86.5677 59.5 84.8281 59.5ZM86.6172 50.9219C86.2474 50.2969 85.5156 49.9844 84.4219 49.9844H82.2031V57.5H84.4219C85.5573 57.5 86.349 56.9401 86.7969 55.8203C87.0417 55.2057 87.1641 54.474 87.1641 53.625C87.1641 52.4531 86.9818 51.5521 86.6172 50.9219ZM98.1719 57.1328H93.9297L93.1328 59.5H90.6172L94.7266 47.9844H97.4453L101.523 59.5H98.9141L98.1719 57.1328ZM97.5 55.1484L96.0625 50.6172L94.5781 55.1484H97.5ZM107.883 54.9844H105.398V59.5H103.047V47.9844H108.695C109.503 48 110.122 48.099 110.555 48.2812C110.992 48.4635 111.362 48.7318 111.664 49.0859C111.914 49.3776 112.112 49.7005 112.258 50.0547C112.404 50.4089 112.477 50.8125 112.477 51.2656C112.477 51.8125 112.339 52.3516 112.062 52.8828C111.786 53.4089 111.331 53.7812 110.695 54C111.227 54.2135 111.602 54.5182 111.82 54.9141C112.044 55.3047 112.156 55.9036 112.156 56.7109V57.4844C112.156 58.0104 112.177 58.3672 112.219 58.5547C112.281 58.8516 112.427 59.0703 112.656 59.2109V59.5H110.008C109.935 59.2448 109.883 59.0391 109.852 58.8828C109.789 58.5599 109.755 58.2292 109.75 57.8906L109.734 56.8203C109.724 56.0859 109.589 55.5964 109.328 55.3516C109.073 55.1068 108.591 54.9844 107.883 54.9844ZM109.344 52.8906C109.823 52.6719 110.062 52.2396 110.062 51.5938C110.062 50.8958 109.831 50.4271 109.367 50.1875C109.107 50.0521 108.716 49.9844 108.195 49.9844H105.398V53.0781H108.125C108.667 53.0781 109.073 53.0156 109.344 52.8906ZM123.258 47.9844L119.406 55.1719V59.5H117V55.1719L113.016 47.9844H115.852L118.242 53L120.531 47.9844H123.258ZM55.5547 77.5H50.5938V65.9844H55.5547C56.2682 65.9948 56.862 66.0781 57.3359 66.2344C58.1432 66.5 58.7969 66.987 59.2969 67.6953C59.6979 68.2682 59.9714 68.888 60.1172 69.5547C60.263 70.2214 60.3359 70.8568 60.3359 71.4609C60.3359 72.9922 60.0286 74.2891 59.4141 75.3516C58.5807 76.7839 57.2943 77.5 55.5547 77.5ZM57.3438 68.9219C56.974 68.2969 56.2422 67.9844 55.1484 67.9844H52.9297V75.5H55.1484C56.2839 75.5 57.0755 74.9401 57.5234 73.8203C57.7682 73.2057 57.8906 72.474 57.8906 71.625C57.8906 70.4531 57.7083 69.5521 57.3438 68.9219ZM68.8984 75.1328H64.6562L63.8594 77.5H61.3438L65.4531 65.9844H68.1719L72.25 77.5H69.6406L68.8984 75.1328ZM68.2266 73.1484L66.7891 68.6172L65.3047 73.1484H68.2266ZM78.6094 72.9844H76.125V77.5H73.7734V65.9844H79.4219C80.2292 66 80.849 66.099 81.2812 66.2812C81.7188 66.4635 82.0885 66.7318 82.3906 67.0859C82.6406 67.3776 82.8385 67.7005 82.9844 68.0547C83.1302 68.4089 83.2031 68.8125 83.2031 69.2656C83.2031 69.8125 83.0651 70.3516 82.7891 70.8828C82.513 71.4089 82.0573 71.7812 81.4219 72C81.9531 72.2135 82.3281 72.5182 82.5469 72.9141C82.7708 73.3047 82.8828 73.9036 82.8828 74.7109V75.4844C82.8828 76.0104 82.9036 76.3672 82.9453 76.5547C83.0078 76.8516 83.1536 77.0703 83.3828 77.2109V77.5H80.7344C80.6615 77.2448 80.6094 77.0391 80.5781 76.8828C80.5156 76.5599 80.4818 76.2292 80.4766 75.8906L80.4609 74.8203C80.4505 74.0859 80.3151 73.5964 80.0547 73.3516C79.7995 73.1068 79.3177 72.9844 78.6094 72.9844ZM80.0703 70.8906C80.5495 70.6719 80.7891 70.2396 80.7891 69.5938C80.7891 68.8958 80.5573 68.4271 80.0938 68.1875C79.8333 68.0521 79.4427 67.9844 78.9219 67.9844H76.125V71.0781H78.8516C79.3932 71.0781 79.7995 71.0156 80.0703 70.8906ZM95.4844 77.5H92.3906L88.8359 72.4688L87.6875 73.6484V77.5H85.3203V65.9844H87.6875V70.7266L92.1328 65.9844H95.2422L90.5234 70.7266L95.4844 77.5ZM48.1109 91.852H46.3349L45.8229 95.5H44.8789L45.3749 91.852H43.1829L42.6389 95.5H41.6949L42.2389 91.852H40.4789V90.908H42.3829L42.7189 88.668H40.9269V87.724H42.8469L43.3589 84.332H44.3189L43.8069 87.724H45.9829L46.4789 84.332H47.4229L46.9269 87.724H48.5269V88.668H46.7989L46.4789 90.908H48.1109V91.852ZM43.6789 88.668L43.3269 90.908H45.5349L45.8549 88.668H43.6789ZM53.7695 87.116H50.8575V86.444C51.2842 86.412 51.6682 86.3693 52.0095 86.316C52.3615 86.2627 52.6655 86.1613 52.9215 86.012C53.1882 85.8627 53.4068 85.6493 53.5775 85.372C53.7588 85.084 53.8922 84.7 53.9775 84.22H54.7935V95.5H53.7695V87.116ZM59.1241 95.5V83.98H66.7881V84.908H60.2121V89.068H66.1481V89.996H60.2121V94.572H66.9481V95.5H59.1241ZM72.4414 87.116H69.5294V86.444C69.956 86.412 70.34 86.3693 70.6814 86.316C71.0334 86.2627 71.3374 86.1613 71.5934 86.012C71.86 85.8627 72.0787 85.6493 72.2494 85.372C72.4307 85.084 72.564 84.7 72.6494 84.22H73.4654V95.5H72.4414V87.116ZM77.796 95.5V83.98H85.46V84.908H78.884V89.068H84.82V89.996H78.884V94.572H85.62V95.5H77.796ZM91.1133 87.116H88.2013V86.444C88.6279 86.412 89.0119 86.3693 89.3533 86.316C89.7053 86.2627 90.0093 86.1613 90.2653 86.012C90.5319 85.8627 90.7506 85.6493 90.9213 85.372C91.1026 85.084 91.2359 84.7 91.3213 84.22H92.1373V95.5H91.1133V87.116ZM96.4679 95.5V83.98H104.132V84.908H97.5559V89.068H103.492V89.996H97.5559V94.572H104.292V95.5H96.4679Z" fill="white"/>
</svg>
