<svg width="145" height="143" viewBox="0 0 145 143" fill="none" xmlns="http://www.w3.org/2000/svg">
<rect x="0.5" width="144" height="143" rx="71.5" fill="#FDD608"/>
<path d="M42.0703 55.3594H39.625V59.5H37.2344V47.9844H42.25C43.4062 47.9844 44.3281 48.2812 45.0156 48.875C45.7031 49.4688 46.0469 50.388 46.0469 51.6328C46.0469 52.9922 45.7031 53.9531 45.0156 54.5156C44.3281 55.0781 43.3464 55.3594 42.0703 55.3594ZM43.1953 52.9609C43.5078 52.6849 43.6641 52.2474 43.6641 51.6484C43.6641 51.0495 43.5052 50.6224 43.1875 50.3672C42.875 50.112 42.4349 49.9844 41.8672 49.9844H39.625V53.375H41.8672C42.4349 53.375 42.8776 53.237 43.1953 52.9609ZM52.7422 54.9844H50.2578V59.5H47.9062V47.9844H53.5547C54.362 48 54.9818 48.099 55.4141 48.2812C55.8516 48.4635 56.2214 48.7318 56.5234 49.0859C56.7734 49.3776 56.9714 49.7005 57.1172 50.0547C57.263 50.4089 57.3359 50.8125 57.3359 51.2656C57.3359 51.8125 57.1979 52.3516 56.9219 52.8828C56.6458 53.4089 56.1901 53.7812 55.5547 54C56.0859 54.2135 56.4609 54.5182 56.6797 54.9141C56.9036 55.3047 57.0156 55.9036 57.0156 56.7109V57.4844C57.0156 58.0104 57.0365 58.3672 57.0781 58.5547C57.1406 58.8516 57.2865 59.0703 57.5156 59.2109V59.5H54.8672C54.7943 59.2448 54.7422 59.0391 54.7109 58.8828C54.6484 58.5599 54.6146 58.2292 54.6094 57.8906L54.5938 56.8203C54.5833 56.0859 54.4479 55.5964 54.1875 55.3516C53.9323 55.1068 53.4505 54.9844 52.7422 54.9844ZM54.2031 52.8906C54.6823 52.6719 54.9219 52.2396 54.9219 51.5938C54.9219 50.8958 54.6901 50.4271 54.2266 50.1875C53.9661 50.0521 53.5755 49.9844 53.0547 49.9844H50.2578V53.0781H52.9844C53.526 53.0781 53.9323 53.0156 54.2031 52.8906ZM59.2266 47.9844H61.6172V59.5H59.2266V47.9844ZM66.0703 59.5H63.8281V47.9844H67.3281L69.4219 57.0391L71.5 47.9844H74.9609V59.5H72.7188V51.7109C72.7188 51.487 72.7214 51.1745 72.7266 50.7734C72.7318 50.3672 72.7344 50.0547 72.7344 49.8359L70.5547 59.5H68.2188L66.0547 49.8359C66.0547 50.0547 66.0573 50.3672 66.0625 50.7734C66.0677 51.1745 66.0703 51.487 66.0703 51.7109V59.5ZM83.9375 57.1328H79.6953L78.8984 59.5H76.3828L80.4922 47.9844H83.2109L87.2891 59.5H84.6797L83.9375 57.1328ZM83.2656 55.1484L81.8281 50.6172L80.3438 55.1484H83.2656ZM93.6484 54.9844H91.1641V59.5H88.8125V47.9844H94.4609C95.2682 48 95.888 48.099 96.3203 48.2812C96.7578 48.4635 97.1276 48.7318 97.4297 49.0859C97.6797 49.3776 97.8776 49.7005 98.0234 50.0547C98.1693 50.4089 98.2422 50.8125 98.2422 51.2656C98.2422 51.8125 98.1042 52.3516 97.8281 52.8828C97.5521 53.4089 97.0964 53.7812 96.4609 54C96.9922 54.2135 97.3672 54.5182 97.5859 54.9141C97.8099 55.3047 97.9219 55.9036 97.9219 56.7109V57.4844C97.9219 58.0104 97.9427 58.3672 97.9844 58.5547C98.0469 58.8516 98.1927 59.0703 98.4219 59.2109V59.5H95.7734C95.7005 59.2448 95.6484 59.0391 95.6172 58.8828C95.5547 58.5599 95.5208 58.2292 95.5156 57.8906L95.5 56.8203C95.4896 56.0859 95.3542 55.5964 95.0938 55.3516C94.8385 55.1068 94.3568 54.9844 93.6484 54.9844ZM95.1094 52.8906C95.5885 52.6719 95.8281 52.2396 95.8281 51.5938C95.8281 50.8958 95.5964 50.4271 95.1328 50.1875C94.8724 50.0521 94.4818 49.9844 93.9609 49.9844H91.1641V53.0781H93.8906C94.4323 53.0781 94.8385 53.0156 95.1094 52.8906ZM109.023 47.9844L105.172 55.1719V59.5H102.766V55.1719L98.7812 47.9844H101.617L104.008 53L106.297 47.9844H109.023ZM46.9609 75.1328H42.7188L41.9219 77.5H39.4062L43.5156 65.9844H46.2344L50.3125 77.5H47.7031L46.9609 75.1328ZM46.2891 73.1484L44.8516 68.6172L43.3672 73.1484H46.2891ZM59.9062 76.6406C59.0469 77.4271 57.9479 77.8203 56.6094 77.8203C54.9531 77.8203 53.651 77.2891 52.7031 76.2266C51.7552 75.1589 51.2812 73.6953 51.2812 71.8359C51.2812 69.8255 51.8203 68.276 52.8984 67.1875C53.8359 66.2396 55.0286 65.7656 56.4766 65.7656C58.4141 65.7656 59.8307 66.401 60.7266 67.6719C61.2214 68.3854 61.487 69.1016 61.5234 69.8203H59.1172C58.9609 69.2682 58.7604 68.8516 58.5156 68.5703C58.0781 68.0703 57.4297 67.8203 56.5703 67.8203C55.6953 67.8203 55.0052 68.1745 54.5 68.8828C53.9948 69.5859 53.7422 70.5833 53.7422 71.875C53.7422 73.1667 54.0078 74.1354 54.5391 74.7812C55.0755 75.4219 55.7552 75.7422 56.5781 75.7422C57.4219 75.7422 58.0651 75.4661 58.5078 74.9141C58.7526 74.6172 58.9557 74.1719 59.1172 73.5781H61.5C61.2917 74.8333 60.7604 75.8542 59.9062 76.6406ZM71.4688 76.6406C70.6094 77.4271 69.5104 77.8203 68.1719 77.8203C66.5156 77.8203 65.2135 77.2891 64.2656 76.2266C63.3177 75.1589 62.8438 73.6953 62.8438 71.8359C62.8438 69.8255 63.3828 68.276 64.4609 67.1875C65.3984 66.2396 66.5911 65.7656 68.0391 65.7656C69.9766 65.7656 71.3932 66.401 72.2891 67.6719C72.7839 68.3854 73.0495 69.1016 73.0859 69.8203H70.6797C70.5234 69.2682 70.3229 68.8516 70.0781 68.5703C69.6406 68.0703 68.9922 67.8203 68.1328 67.8203C67.2578 67.8203 66.5677 68.1745 66.0625 68.8828C65.5573 69.5859 65.3047 70.5833 65.3047 71.875C65.3047 73.1667 65.5703 74.1354 66.1016 74.7812C66.638 75.4219 67.3177 75.7422 68.1406 75.7422C68.9844 75.7422 69.6276 75.4661 70.0703 74.9141C70.3151 74.6172 70.5182 74.1719 70.6797 73.5781H73.0625C72.8542 74.8333 72.3229 75.8542 71.4688 76.6406ZM82.9219 72.4688H77.3281V75.4297H83.7031V77.5H74.9766V65.9844H83.4219V68.0234H77.3281V70.4688H82.9219V72.4688ZM94.8906 77.5H92.4844L87.7812 69.3203V77.5H85.5391V65.9844H88.0625L92.6484 74.0234V65.9844H94.8906V77.5ZM105.508 65.9844V68.0234H102.062V77.5H99.6406V68.0234H96.1797V65.9844H105.508ZM38.4688 91.1172H40.2891L41.0234 88.4297H39.2109L39.4531 87.5234H41.2656L42.1953 84.0234H43.3594L42.4141 87.5234H44.1406L45.1016 84.0234H46.25L45.3047 87.5234H47.1172L46.875 88.4297H45.0625L44.3203 91.1172H46.1406L45.8984 92.0234H44.1016L43.1406 95.5H41.9922L42.9375 92.0234H41.1953L40.2656 95.5H39.1016L40.0469 92.0234H38.2344L38.4688 91.1172ZM43.1562 91.1172L43.8984 88.4297H42.1719L41.4531 91.1172H43.1562ZM48.5078 84.0234H56.4688V85.4297H50.0625V88.9141H55.6953V90.2812H50.0625V95.5H48.5078V84.0234ZM62.5469 94.1719C63.0729 94.1719 63.5052 94.1172 63.8438 94.0078C64.4479 93.8047 64.9427 93.4141 65.3281 92.8359C65.6354 92.3724 65.8568 91.7786 65.9922 91.0547C66.0703 90.6224 66.1094 90.2214 66.1094 89.8516C66.1094 88.4297 65.8255 87.3255 65.2578 86.5391C64.6953 85.7526 63.7865 85.3594 62.5312 85.3594H59.7734V94.1719H62.5469ZM58.2109 84.0234H62.8594C64.4375 84.0234 65.6615 84.5833 66.5312 85.7031C67.3073 86.7135 67.6953 88.0078 67.6953 89.5859C67.6953 90.8047 67.4661 91.9062 67.0078 92.8906C66.2005 94.6302 64.8125 95.5 62.8438 95.5H58.2109V84.0234ZM74.1094 94.1719C74.6354 94.1719 75.0677 94.1172 75.4062 94.0078C76.0104 93.8047 76.5052 93.4141 76.8906 92.8359C77.1979 92.3724 77.4193 91.7786 77.5547 91.0547C77.6328 90.6224 77.6719 90.2214 77.6719 89.8516C77.6719 88.4297 77.388 87.3255 76.8203 86.5391C76.2578 85.7526 75.349 85.3594 74.0938 85.3594H71.3359V94.1719H74.1094ZM69.7734 84.0234H74.4219C76 84.0234 77.224 84.5833 78.0938 85.7031C78.8698 86.7135 79.2578 88.0078 79.2578 89.5859C79.2578 90.8047 79.0286 91.9062 78.5703 92.8906C77.763 94.6302 76.375 95.5 74.4062 95.5H69.7734V84.0234ZM84.7266 84.2656C85.9766 84.2656 86.8464 84.5911 87.3359 85.2422C87.8307 85.888 88.0781 86.5547 88.0781 87.2422H86.6875C86.6042 86.7995 86.4714 86.4531 86.2891 86.2031C85.9505 85.7344 85.4375 85.5 84.75 85.5C83.9635 85.5 83.3385 85.8646 82.875 86.5938C82.4115 87.3177 82.1536 88.3568 82.1016 89.7109C82.4245 89.237 82.8307 88.8828 83.3203 88.6484C83.7682 88.4401 84.2682 88.3359 84.8203 88.3359C85.7578 88.3359 86.5755 88.6354 87.2734 89.2344C87.9714 89.8333 88.3203 90.7266 88.3203 91.9141C88.3203 92.9297 87.9896 93.8307 87.3281 94.6172C86.6667 95.3984 85.724 95.7891 84.5 95.7891C83.4531 95.7891 82.5495 95.3932 81.7891 94.6016C81.0286 93.8047 80.6484 92.4661 80.6484 90.5859C80.6484 89.1953 80.8177 88.0156 81.1562 87.0469C81.8073 85.1927 82.9974 84.2656 84.7266 84.2656ZM84.625 94.5391C85.3646 94.5391 85.9167 94.2917 86.2812 93.7969C86.651 93.2969 86.8359 92.7083 86.8359 92.0312C86.8359 91.4583 86.6719 90.9141 86.3438 90.3984C86.0156 89.8776 85.4193 89.6172 84.5547 89.6172C83.9505 89.6172 83.4193 89.8177 82.9609 90.2188C82.5078 90.6198 82.2812 91.224 82.2812 92.0312C82.2812 92.7396 82.487 93.3359 82.8984 93.8203C83.3151 94.2995 83.8906 94.5391 84.625 94.5391ZM93.2812 84.3125C94.7292 84.3125 95.776 84.9089 96.4219 86.1016C96.9219 87.0234 97.1719 88.2865 97.1719 89.8906C97.1719 91.4115 96.9453 92.6693 96.4922 93.6641C95.8359 95.0911 94.763 95.8047 93.2734 95.8047C91.9297 95.8047 90.9297 95.2214 90.2734 94.0547C89.7266 93.0807 89.4531 91.7734 89.4531 90.1328C89.4531 88.862 89.6172 87.7708 89.9453 86.8594C90.5599 85.1615 91.6719 84.3125 93.2812 84.3125ZM93.2656 94.5234C93.9948 94.5234 94.5755 94.2005 95.0078 93.5547C95.4401 92.9089 95.6562 91.7057 95.6562 89.9453C95.6562 88.6745 95.5 87.6302 95.1875 86.8125C94.875 85.9896 94.2682 85.5781 93.3672 85.5781C92.5391 85.5781 91.9323 85.9688 91.5469 86.75C91.1667 87.526 90.9766 88.6719 90.9766 90.1875C90.9766 91.3281 91.099 92.2448 91.3438 92.9375C91.7188 93.9948 92.3594 94.5234 93.2656 94.5234ZM102.211 89C102.831 89 103.315 88.8281 103.664 88.4844C104.013 88.1354 104.188 87.7214 104.188 87.2422C104.188 86.8255 104.021 86.4427 103.688 86.0938C103.354 85.7448 102.846 85.5703 102.164 85.5703C101.487 85.5703 100.997 85.7448 100.695 86.0938C100.393 86.4427 100.242 86.8516 100.242 87.3203C100.242 87.8464 100.438 88.2578 100.828 88.5547C101.219 88.8516 101.68 89 102.211 89ZM102.297 94.5391C102.948 94.5391 103.487 94.3646 103.914 94.0156C104.346 93.6615 104.562 93.1354 104.562 92.4375C104.562 91.7135 104.341 91.1641 103.898 90.7891C103.456 90.4141 102.888 90.2266 102.195 90.2266C101.523 90.2266 100.974 90.4193 100.547 90.8047C100.125 91.1849 99.9141 91.7135 99.9141 92.3906C99.9141 92.974 100.107 93.4792 100.492 93.9062C100.883 94.3281 101.484 94.5391 102.297 94.5391ZM100.297 89.5391C99.9062 89.3724 99.6016 89.1771 99.3828 88.9531C98.9714 88.5365 98.7656 87.9948 98.7656 87.3281C98.7656 86.4948 99.0677 85.7786 99.6719 85.1797C100.276 84.5807 101.133 84.2812 102.242 84.2812C103.315 84.2812 104.156 84.5651 104.766 85.1328C105.375 85.6953 105.68 86.3542 105.68 87.1094C105.68 87.8073 105.503 88.3724 105.148 88.8047C104.951 89.0495 104.643 89.2891 104.227 89.5234C104.69 89.737 105.055 89.9818 105.32 90.2578C105.815 90.7786 106.062 91.4557 106.062 92.2891C106.062 93.2734 105.732 94.1094 105.07 94.7969C104.409 95.4792 103.474 95.8203 102.266 95.8203C101.177 95.8203 100.255 95.526 99.5 94.9375C98.75 94.3438 98.375 93.4844 98.375 92.3594C98.375 91.6979 98.5365 91.1276 98.8594 90.6484C99.1823 90.1641 99.6615 89.7943 100.297 89.5391Z" fill="#333333"/>
</svg>
