<svg width="461" height="321" viewBox="0 0 461 321" fill="none" xmlns="http://www.w3.org/2000/svg">
<g filter="url(#filter0_d_205_4529)">
<g clip-path="url(#clip0_205_4529)">
<path d="M307.13 170.073H81.5094C79.5593 170.073 77.9785 171.659 77.9785 173.616V180.702C77.9785 182.659 79.5593 184.245 81.5094 184.245H307.13C309.08 184.245 310.661 182.659 310.661 180.702V173.616C310.661 171.659 309.08 170.073 307.13 170.073Z" fill="#62626C"/>
<path d="M315.428 0H74.0944C70.1943 0 67.0327 3.17267 67.0327 7.08636V169.187C67.0327 173.1 70.1943 176.273 74.0944 176.273H315.428C319.328 176.273 322.489 173.1 322.489 169.187V7.08636C322.489 3.17267 319.328 0 315.428 0Z" fill="#1E1E24"/>
<path d="M80.8032 14.3499C82.3632 14.3499 83.6279 13.0808 83.6279 11.5153C83.6279 9.94985 82.3632 8.68079 80.8032 8.68079C79.2432 8.68079 77.9785 9.94985 77.9785 11.5153C77.9785 13.0808 79.2432 14.3499 80.8032 14.3499Z" fill="#DB324D"/>
<path d="M88.7475 14.3499C90.3076 14.3499 91.5722 13.0808 91.5722 11.5153C91.5722 9.94985 90.3076 8.68079 88.7475 8.68079C87.1875 8.68079 85.9229 9.94985 85.9229 11.5153C85.9229 13.0808 87.1875 14.3499 88.7475 14.3499Z" fill="#FFA400"/>
<path d="M96.6919 14.3499C98.2519 14.3499 99.5165 13.0808 99.5165 11.5153C99.5165 9.94985 98.2519 8.68079 96.6919 8.68079C95.1318 8.68079 93.8672 9.94985 93.8672 11.5153C93.8672 13.0808 95.1318 14.3499 96.6919 14.3499Z" fill="#287F78"/>
<path d="M86.4522 25.1566H81.3325V29.4084H86.4522V25.1566Z" fill="#D9D9D9"/>
<path d="M86.4522 33.6602H81.3325V37.912H86.4522V33.6602Z" fill="#D9D9D9"/>
<path d="M86.4522 42.1638H81.3325V46.4156H86.4522V42.1638Z" fill="#D9D9D9"/>
<path d="M86.4522 50.6674H81.3325V54.9192H86.4522V50.6674Z" fill="#D9D9D9"/>
<path d="M86.4522 59.1711H81.3325V63.4229H86.4522V59.1711Z" fill="#D9D9D9"/>
<path d="M86.4522 67.6747H81.3325V71.9265H86.4522V67.6747Z" fill="#D9D9D9"/>
<path d="M86.4522 76.1783H81.3325V80.4302H86.4522V76.1783Z" fill="#D9D9D9"/>
<path d="M86.4522 84.6819H81.3325V88.9338H86.4522V84.6819Z" fill="#D9D9D9"/>
<path d="M86.4522 93.1855H81.3325V97.4374H86.4522V93.1855Z" fill="#D9D9D9"/>
<path d="M86.4522 101.689H81.3325V105.941H86.4522V101.689Z" fill="#D9D9D9"/>
<path d="M86.4522 110.193H81.3325V114.445H86.4522V110.193Z" fill="#D9D9D9"/>
<path d="M86.4522 118.696H81.3325V122.948H86.4522V118.696Z" fill="#D9D9D9"/>
<path d="M86.4522 127.2H81.3325V131.452H86.4522V127.2Z" fill="#D9D9D9"/>
<path d="M86.4522 135.704H81.3325V139.956H86.4522V135.704Z" fill="#D9D9D9"/>
<path d="M86.4522 144.207H81.3325V148.459H86.4522V144.207Z" fill="#D9D9D9"/>
<path d="M86.4522 152.711H81.3325V156.963H86.4522V152.711Z" fill="#D9D9D9"/>
<path d="M86.4522 161.215H81.3325V165.466H86.4522V161.215Z" fill="#D9D9D9"/>
<path d="M92.6753 18.7789V170.073" stroke="url(#paint0_linear_205_4529)" stroke-width="2.5"/>
<path d="M117.347 25.1566H98.9867C98.6942 25.1566 98.457 25.3945 98.457 25.688V28.8769C98.457 29.1704 98.6942 29.4084 98.9867 29.4084H117.347C117.64 29.4084 117.877 29.1704 117.877 28.8769V25.688C117.877 25.3945 117.64 25.1566 117.347 25.1566Z" fill="white"/>
<path d="M124.938 25.1566H120.172C119.879 25.1566 119.642 25.3945 119.642 25.688V28.8769C119.642 29.1704 119.879 29.4084 120.172 29.4084H124.938C125.231 29.4084 125.468 29.1704 125.468 28.8769V25.688C125.468 25.3945 125.231 25.1566 124.938 25.1566Z" fill="white"/>
<path d="M129.175 33.6602H98.9867C98.6942 33.6602 98.457 33.8981 98.457 34.1916V37.3805C98.457 37.674 98.6942 37.912 98.9867 37.912H129.175C129.468 37.912 129.705 37.674 129.705 37.3805V34.1916C129.705 33.8981 129.468 33.6602 129.175 33.6602Z" fill="#D9D9D9"/>
<path d="M173.135 33.6602H132C131.708 33.6602 131.471 33.8981 131.471 34.1916V37.3805C131.471 37.674 131.708 37.912 132 37.912H173.135C173.427 37.912 173.664 37.674 173.664 37.3805V34.1916C173.664 33.8981 173.427 33.6602 173.135 33.6602Z" fill="#34343F"/>
<path d="M202.088 33.6602H175.959C175.667 33.6602 175.43 33.8981 175.43 34.1916V37.3805C175.43 37.674 175.667 37.912 175.959 37.912H202.088C202.38 37.912 202.617 37.674 202.617 37.3805V34.1916C202.617 33.8981 202.38 33.6602 202.088 33.6602Z" fill="#D9D9D9"/>
<path d="M108.167 42.1638H98.9867C98.6942 42.1638 98.457 42.4018 98.457 42.6953V45.8842C98.457 46.1777 98.6942 46.4156 98.9867 46.4156H108.167C108.459 46.4156 108.696 46.1777 108.696 45.8842V42.6953C108.696 42.4018 108.459 42.1638 108.167 42.1638Z" fill="#DB324D"/>
<path d="M120.172 42.1638H110.992C110.699 42.1638 110.462 42.4018 110.462 42.6953V45.8842C110.462 46.1777 110.699 46.4156 110.992 46.4156H120.172C120.464 46.4156 120.701 46.1777 120.701 45.8842V42.6953C120.701 42.4018 120.464 42.1638 120.172 42.1638Z" fill="#FFA400"/>
<path d="M103.753 50.6674H98.9867C98.6942 50.6674 98.457 50.9054 98.457 51.1989V54.3878C98.457 54.6813 98.6942 54.9192 98.9867 54.9192H103.753C104.046 54.9192 104.283 54.6813 104.283 54.3878V51.1989C104.283 50.9054 104.046 50.6674 103.753 50.6674Z" fill="#1E1E24"/>
<path d="M118.406 50.6674H106.578C106.285 50.6674 106.048 50.9054 106.048 51.1989V54.3878C106.048 54.6813 106.285 54.9192 106.578 54.9192H118.406C118.699 54.9192 118.936 54.6813 118.936 54.3878V51.1989C118.936 50.9054 118.699 50.6674 118.406 50.6674Z" fill="#D9D9D9"/>
<path d="M142.769 50.6674H121.231C120.939 50.6674 120.702 50.9054 120.702 51.1989V54.3878C120.702 54.6813 120.939 54.9192 121.231 54.9192H142.769C143.062 54.9192 143.299 54.6813 143.299 54.3878V51.1989C143.299 50.9054 143.062 50.6674 142.769 50.6674Z" fill="#34343F"/>
<path d="M156.716 50.6674H145.594C145.302 50.6674 145.064 50.9054 145.064 51.1989V54.3878C145.064 54.6813 145.302 54.9192 145.594 54.9192H156.716C157.009 54.9192 157.246 54.6813 157.246 54.3878V51.1989C157.246 50.9054 157.009 50.6674 156.716 50.6674Z" fill="#34343F"/>
<path d="M167.838 50.6674H159.541C159.248 50.6674 159.011 50.9054 159.011 51.1989V54.3878C159.011 54.6813 159.248 54.9192 159.541 54.9192H167.838C168.131 54.9192 168.368 54.6813 168.368 54.3878V51.1989C168.368 50.9054 168.131 50.6674 167.838 50.6674Z" fill="white"/>
<path d="M211.797 50.6674H170.663C170.37 50.6674 170.133 50.9054 170.133 51.1989V54.3878C170.133 54.6813 170.37 54.9192 170.663 54.9192H211.797C212.09 54.9192 212.327 54.6813 212.327 54.3878V51.1989C212.327 50.9054 212.09 50.6674 211.797 50.6674Z" fill="#D9D9D9"/>
<path d="M222.919 50.6674H214.622C214.329 50.6674 214.092 50.9054 214.092 51.1989V54.3878C214.092 54.6813 214.329 54.9192 214.622 54.9192H222.919C223.212 54.9192 223.449 54.6813 223.449 54.3878V51.1989C223.449 50.9054 223.212 50.6674 222.919 50.6674Z" fill="white"/>
<path d="M255.933 50.6674H225.744C225.451 50.6674 225.214 50.9054 225.214 51.1989V54.3878C225.214 54.6813 225.451 54.9192 225.744 54.9192H255.933C256.225 54.9192 256.462 54.6813 256.462 54.3878V51.1989C256.462 50.9054 256.225 50.6674 255.933 50.6674Z" fill="white"/>
<path d="M103.753 59.1711H98.9867C98.6942 59.1711 98.457 59.409 98.457 59.7026V62.8914C98.457 63.1849 98.6942 63.4229 98.9867 63.4229H103.753C104.046 63.4229 104.283 63.1849 104.283 62.8914V59.7026C104.283 59.409 104.046 59.1711 103.753 59.1711Z" fill="#1E1E24"/>
<path d="M118.406 59.1711H106.578C106.285 59.1711 106.048 59.409 106.048 59.7026V62.8914C106.048 63.1849 106.285 63.4229 106.578 63.4229H118.406C118.699 63.4229 118.936 63.1849 118.936 62.8914V59.7026C118.936 59.409 118.699 59.1711 118.406 59.1711Z" fill="#D9D9D9"/>
<path d="M123.526 59.1711H121.231C120.939 59.1711 120.702 59.409 120.702 59.7026V62.8914C120.702 63.1849 120.939 63.4229 121.231 63.4229H123.526C123.819 63.4229 124.056 63.1849 124.056 62.8914V59.7026C124.056 59.409 123.819 59.1711 123.526 59.1711Z" fill="#34343F"/>
<path d="M198.557 59.1711H126.351C126.058 59.1711 125.821 59.409 125.821 59.7026V62.8914C125.821 63.1849 126.058 63.4229 126.351 63.4229H198.557C198.849 63.4229 199.086 63.1849 199.086 62.8914V59.7026C199.086 59.409 198.849 59.1711 198.557 59.1711Z" fill="#D9D9D9"/>
<path d="M113.64 67.6747H98.9867C98.6942 67.6747 98.457 67.9126 98.457 68.2062V71.395C98.457 71.6885 98.6942 71.9265 98.9867 71.9265H113.64C113.932 71.9265 114.169 71.6885 114.169 71.395V68.2062C114.169 67.9126 113.932 67.6747 113.64 67.6747Z" fill="#FFA400"/>
<path d="M122.643 67.6747H116.994C116.701 67.6747 116.464 67.9126 116.464 68.2062V71.395C116.464 71.6885 116.701 71.9265 116.994 71.9265H122.643C122.936 71.9265 123.173 71.6885 123.173 71.395V68.2062C123.173 67.9126 122.936 67.6747 122.643 67.6747Z" fill="#DB324D"/>
<path d="M103.753 76.1783H98.9867C98.6942 76.1783 98.457 76.4163 98.457 76.7098V79.8987C98.457 80.1922 98.6942 80.4302 98.9867 80.4302H103.753C104.046 80.4302 104.283 80.1922 104.283 79.8987V76.7098C104.283 76.4163 104.046 76.1783 103.753 76.1783Z" fill="#1E1E24"/>
<path d="M116.994 76.1783H106.578C106.285 76.1783 106.048 76.4163 106.048 76.7098V79.8987C106.048 80.1922 106.285 80.4302 106.578 80.4302H116.994C117.286 80.4302 117.524 80.1922 117.524 79.8987V76.7098C117.524 76.4163 117.286 76.1783 116.994 76.1783Z" fill="white"/>
<path d="M135.707 76.1783H119.819C119.526 76.1783 119.289 76.4163 119.289 76.7098V79.8987C119.289 80.1922 119.526 80.4302 119.819 80.4302H135.707C136 80.4302 136.237 80.1922 136.237 79.8987V76.7098C136.237 76.4163 136 76.1783 135.707 76.1783Z" fill="#34343F"/>
<path d="M158.835 76.1783H138.533C138.24 76.1783 138.003 76.4163 138.003 76.7098V79.8987C138.003 80.1922 138.24 80.4302 138.533 80.4302H158.835C159.127 80.4302 159.365 80.1922 159.365 79.8987V76.7098C159.365 76.4163 159.127 76.1783 158.835 76.1783Z" fill="#D9D9D9"/>
<path d="M169.427 76.1783H161.66C161.367 76.1783 161.13 76.4163 161.13 76.7098V79.8987C161.13 80.1922 161.367 80.4302 161.66 80.4302H169.427C169.72 80.4302 169.957 80.1922 169.957 79.8987V76.7098C169.957 76.4163 169.72 76.1783 169.427 76.1783Z" fill="#34343F"/>
<path d="M103.753 84.6819H98.9867C98.6942 84.6819 98.457 84.9199 98.457 85.2134V88.4023C98.457 88.6958 98.6942 88.9338 98.9867 88.9338H103.753C104.046 88.9338 104.283 88.6958 104.283 88.4023V85.2134C104.283 84.9199 104.046 84.6819 103.753 84.6819Z" fill="#1E1E24"/>
<path d="M135.884 84.6819H106.578C106.285 84.6819 106.048 84.9199 106.048 85.2134V88.4023C106.048 88.6958 106.285 88.9338 106.578 88.9338H135.884C136.176 88.9338 136.414 88.6958 136.414 88.4023V85.2134C136.414 84.9199 136.176 84.6819 135.884 84.6819Z" fill="white"/>
<path d="M158.305 84.6819H138.709C138.416 84.6819 138.179 84.9199 138.179 85.2134V88.4023C138.179 88.6958 138.416 88.9338 138.709 88.9338H158.305C158.598 88.9338 158.835 88.6958 158.835 88.4023V85.2134C158.835 84.9199 158.598 84.6819 158.305 84.6819Z" fill="#34343F"/>
<path d="M168.368 84.6819H161.13C160.837 84.6819 160.6 84.9199 160.6 85.2134V88.4023C160.6 88.6958 160.837 88.9338 161.13 88.9338H168.368C168.66 88.9338 168.898 88.6958 168.898 88.4023V85.2134C168.898 84.9199 168.66 84.6819 168.368 84.6819Z" fill="white"/>
<path d="M206.854 84.6819H171.193C170.9 84.6819 170.663 84.9199 170.663 85.2134V88.4023C170.663 88.6958 170.9 88.9338 171.193 88.9338H206.854C207.147 88.9338 207.384 88.6958 207.384 88.4023V85.2134C207.384 84.9199 207.147 84.6819 206.854 84.6819Z" fill="white"/>
<path d="M103.753 93.1855H98.9867C98.6942 93.1855 98.457 93.4235 98.457 93.717V96.9059C98.457 97.1994 98.6942 97.4374 98.9867 97.4374H103.753C104.046 97.4374 104.283 97.1994 104.283 96.9059V93.717C104.283 93.4235 104.046 93.1855 103.753 93.1855Z" fill="#1E1E24"/>
<path d="M110.638 93.1855H106.578C106.285 93.1855 106.048 93.4235 106.048 93.717V96.9059C106.048 97.1994 106.285 97.4374 106.578 97.4374H110.638C110.931 97.4374 111.168 97.1994 111.168 96.9059V93.717C111.168 93.4235 110.931 93.1855 110.638 93.1855Z" fill="#D9D9D9"/>
<path d="M126.527 93.1855H113.463C113.171 93.1855 112.934 93.4235 112.934 93.717V96.9059C112.934 97.1994 113.171 97.4374 113.463 97.4374H126.527C126.82 97.4374 127.057 97.1994 127.057 96.9059V93.717C127.057 93.4235 126.82 93.1855 126.527 93.1855Z" fill="#34343F"/>
<path d="M142.416 93.1855H129.352C129.059 93.1855 128.822 93.4235 128.822 93.717V96.9059C128.822 97.1994 129.059 97.4374 129.352 97.4374H142.416C142.709 97.4374 142.946 97.1994 142.946 96.9059V93.717C142.946 93.4235 142.709 93.1855 142.416 93.1855Z" fill="#34343F"/>
<path d="M188.317 93.1855H145.241C144.949 93.1855 144.711 93.4235 144.711 93.717V96.9059C144.711 97.1994 144.949 97.4374 145.241 97.4374H188.317C188.61 97.4374 188.847 97.1994 188.847 96.9059V93.717C188.847 93.4235 188.61 93.1855 188.317 93.1855Z" fill="#34343F"/>
<path d="M203.323 93.1855H191.142C190.849 93.1855 190.612 93.4235 190.612 93.717V96.9059C190.612 97.1994 190.849 97.4374 191.142 97.4374H203.323C203.616 97.4374 203.853 97.1994 203.853 96.9059V93.717C203.853 93.4235 203.616 93.1855 203.323 93.1855Z" fill="#D9D9D9"/>
<path d="M235.277 93.1855H206.148C205.855 93.1855 205.618 93.4235 205.618 93.717V96.9059C205.618 97.1994 205.855 97.4374 206.148 97.4374H235.277C235.57 97.4374 235.807 97.1994 235.807 96.9059V93.717C235.807 93.4235 235.57 93.1855 235.277 93.1855Z" fill="white"/>
<path d="M103.753 101.689H98.9867C98.6942 101.689 98.457 101.927 98.457 102.221V105.41C98.457 105.703 98.6942 105.941 98.9867 105.941H103.753C104.046 105.941 104.283 105.703 104.283 105.41V102.221C104.283 101.927 104.046 101.689 103.753 101.689Z" fill="#1E1E24"/>
<path d="M137.826 101.689H106.578C106.285 101.689 106.048 101.927 106.048 102.221V105.41C106.048 105.703 106.285 105.941 106.578 105.941H137.826C138.118 105.941 138.356 105.703 138.356 105.41V102.221C138.356 101.927 138.118 101.689 137.826 101.689Z" fill="white"/>
<path d="M154.421 101.689H140.651C140.358 101.689 140.121 101.927 140.121 102.221V105.41C140.121 105.703 140.358 105.941 140.651 105.941H154.421C154.714 105.941 154.951 105.703 154.951 105.41V102.221C154.951 101.927 154.714 101.689 154.421 101.689Z" fill="#34343F"/>
<path d="M188.494 101.689H157.246C156.953 101.689 156.716 101.927 156.716 102.221V105.41C156.716 105.703 156.953 105.941 157.246 105.941H188.494C188.786 105.941 189.024 105.703 189.024 105.41V102.221C189.024 101.927 188.786 101.689 188.494 101.689Z" fill="#34343F"/>
<path d="M120.878 110.193H98.9867C98.6942 110.193 98.457 110.431 98.457 110.724V113.913C98.457 114.207 98.6942 114.445 98.9867 114.445H120.878C121.17 114.445 121.408 114.207 121.408 113.913V110.724C121.408 110.431 121.17 110.193 120.878 110.193Z" fill="#1E1E24"/>
<path d="M127.763 110.193H123.703C123.41 110.193 123.173 110.431 123.173 110.724V113.913C123.173 114.207 123.41 114.445 123.703 114.445H127.763C128.056 114.445 128.293 114.207 128.293 113.913V110.724C128.293 110.431 128.056 110.193 127.763 110.193Z" fill="#D9D9D9"/>
<path d="M134.648 110.193H130.588C130.295 110.193 130.058 110.431 130.058 110.724V113.913C130.058 114.207 130.295 114.445 130.588 114.445H134.648C134.941 114.445 135.178 114.207 135.178 113.913V110.724C135.178 110.431 134.941 110.193 134.648 110.193Z" fill="#34343F"/>
<path d="M174.9 110.193H137.473C137.18 110.193 136.943 110.431 136.943 110.724V113.913C136.943 114.207 137.18 114.445 137.473 114.445H174.9C175.192 114.445 175.43 114.207 175.43 113.913V110.724C175.43 110.431 175.192 110.193 174.9 110.193Z" fill="#34343F"/>
<path d="M181.785 110.193H177.724C177.432 110.193 177.195 110.431 177.195 110.724V113.913C177.195 114.207 177.432 114.445 177.724 114.445H181.785C182.077 114.445 182.315 114.207 182.315 113.913V110.724C182.315 110.431 182.077 110.193 181.785 110.193Z" fill="white"/>
<path d="M120.878 118.696H98.9867C98.6942 118.696 98.457 118.934 98.457 119.228V122.417C98.457 122.71 98.6942 122.948 98.9867 122.948H120.878C121.17 122.948 121.408 122.71 121.408 122.417V119.228C121.408 118.934 121.17 118.696 120.878 118.696Z" fill="#1E1E24"/>
<path d="M127.763 118.696H123.703C123.41 118.696 123.173 118.934 123.173 119.228V122.417C123.173 122.71 123.41 122.948 123.703 122.948H127.763C128.056 122.948 128.293 122.71 128.293 122.417V119.228C128.293 118.934 128.056 118.696 127.763 118.696Z" fill="#D9D9D9"/>
<path d="M149.478 118.696H130.588C130.295 118.696 130.058 118.934 130.058 119.228V122.417C130.058 122.71 130.295 122.948 130.588 122.948H149.478C149.77 122.948 150.007 122.71 150.007 122.417V119.228C150.007 118.934 149.77 118.696 149.478 118.696Z" fill="#D9D9D9"/>
<path d="M183.727 118.696H152.303C152.01 118.696 151.773 118.934 151.773 119.228V122.417C151.773 122.71 152.01 122.948 152.303 122.948H183.727C184.02 122.948 184.257 122.71 184.257 122.417V119.228C184.257 118.934 184.02 118.696 183.727 118.696Z" fill="#34343F"/>
<path d="M200.675 118.696H186.552C186.259 118.696 186.022 118.934 186.022 119.228V122.417C186.022 122.71 186.259 122.948 186.552 122.948H200.675C200.967 122.948 201.205 122.71 201.205 122.417V119.228C201.205 118.934 200.967 118.696 200.675 118.696Z" fill="white"/>
<path d="M212.327 118.696H203.5C203.207 118.696 202.97 118.934 202.97 119.228V122.417C202.97 122.71 203.207 122.948 203.5 122.948H212.327C212.619 122.948 212.857 122.71 212.857 122.417V119.228C212.857 118.934 212.619 118.696 212.327 118.696Z" fill="#34343F"/>
<path d="M229.275 118.696H215.152C214.859 118.696 214.622 118.934 214.622 119.228V122.417C214.622 122.71 214.859 122.948 215.152 122.948H229.275C229.568 122.948 229.805 122.71 229.805 122.417V119.228C229.805 118.934 229.568 118.696 229.275 118.696Z" fill="#D9D9D9"/>
<path d="M120.878 127.2H98.9867C98.6942 127.2 98.457 127.438 98.457 127.732V130.92C98.457 131.214 98.6942 131.452 98.9867 131.452H120.878C121.17 131.452 121.408 131.214 121.408 130.92V127.732C121.408 127.438 121.17 127.2 120.878 127.2Z" fill="#1E1E24"/>
<path d="M132.354 127.2H123.703C123.41 127.2 123.173 127.438 123.173 127.732V130.92C123.173 131.214 123.41 131.452 123.703 131.452H132.354C132.646 131.452 132.883 131.214 132.883 130.92V127.732C132.883 127.438 132.646 127.2 132.354 127.2Z" fill="#D9D9D9"/>
<path d="M138.003 127.2H135.178C134.886 127.2 134.648 127.438 134.648 127.732V130.92C134.648 131.214 134.886 131.452 135.178 131.452H138.003C138.295 131.452 138.532 131.214 138.532 130.92V127.732C138.532 127.438 138.295 127.2 138.003 127.2Z" fill="#34343F"/>
<path d="M167.309 127.2H140.827C140.535 127.2 140.298 127.438 140.298 127.732V130.92C140.298 131.214 140.535 131.452 140.827 131.452H167.309C167.601 131.452 167.838 131.214 167.838 130.92V127.732C167.838 127.438 167.601 127.2 167.309 127.2Z" fill="#34343F"/>
<path d="M189.376 127.2H170.133C169.841 127.2 169.604 127.438 169.604 127.732V130.92C169.604 131.214 169.841 131.452 170.133 131.452H189.376C189.669 131.452 189.906 131.214 189.906 130.92V127.732C189.906 127.438 189.669 127.2 189.376 127.2Z" fill="#D9D9D9"/>
<path d="M196.968 127.2H192.201C191.909 127.2 191.671 127.438 191.671 127.732V130.92C191.671 131.214 191.909 131.452 192.201 131.452H196.968C197.26 131.452 197.497 131.214 197.497 130.92V127.732C197.497 127.438 197.26 127.2 196.968 127.2Z" fill="white"/>
<path d="M103.753 135.704H98.9867C98.6942 135.704 98.457 135.942 98.457 136.235V139.424C98.457 139.718 98.6942 139.956 98.9867 139.956H103.753C104.046 139.956 104.283 139.718 104.283 139.424V136.235C104.283 135.942 104.046 135.704 103.753 135.704Z" fill="#1E1E24"/>
<path d="M136.061 135.704H106.578C106.285 135.704 106.048 135.942 106.048 136.235V139.424C106.048 139.718 106.285 139.956 106.578 139.956H136.061C136.353 139.956 136.59 139.718 136.59 139.424V136.235C136.59 135.942 136.353 135.704 136.061 135.704Z" fill="#D9D9D9"/>
<path d="M141.71 135.704H138.886C138.593 135.704 138.356 135.942 138.356 136.235V139.424C138.356 139.718 138.593 139.956 138.886 139.956H141.71C142.003 139.956 142.24 139.718 142.24 139.424V136.235C142.24 135.942 142.003 135.704 141.71 135.704Z" fill="#34343F"/>
<path d="M154.95 135.704H144.535C144.242 135.704 144.005 135.942 144.005 136.235V139.424C144.005 139.718 144.242 139.956 144.535 139.956H154.95C155.243 139.956 155.48 139.718 155.48 139.424V136.235C155.48 135.942 155.243 135.704 154.95 135.704Z" fill="#D9D9D9"/>
<path d="M171.546 135.704H157.775C157.483 135.704 157.246 135.942 157.246 136.235V139.424C157.246 139.718 157.483 139.956 157.775 139.956H171.546C171.838 139.956 172.075 139.718 172.075 139.424V136.235C172.075 135.942 171.838 135.704 171.546 135.704Z" fill="white"/>
<path d="M193.614 135.704H174.37C174.078 135.704 173.841 135.942 173.841 136.235V139.424C173.841 139.718 174.078 139.956 174.37 139.956H193.614C193.906 139.956 194.143 139.718 194.143 139.424V136.235C194.143 135.942 193.906 135.704 193.614 135.704Z" fill="#34343F"/>
<path d="M201.205 135.704H196.438C196.146 135.704 195.909 135.942 195.909 136.235V139.424C195.909 139.718 196.146 139.956 196.438 139.956H201.205C201.497 139.956 201.735 139.718 201.735 139.424V136.235C201.735 135.942 201.497 135.704 201.205 135.704Z" fill="#D9D9D9"/>
<path d="M103.753 144.207H98.9867C98.6942 144.207 98.457 144.445 98.457 144.739V147.928C98.457 148.221 98.6942 148.459 98.9867 148.459H103.753C104.046 148.459 104.283 148.221 104.283 147.928V144.739C104.283 144.445 104.046 144.207 103.753 144.207Z" fill="#1E1E24"/>
<path d="M136.061 144.207H106.578C106.285 144.207 106.048 144.445 106.048 144.739V147.928C106.048 148.221 106.285 148.459 106.578 148.459H136.061C136.353 148.459 136.59 148.221 136.59 147.928V144.739C136.59 144.445 136.353 144.207 136.061 144.207Z" fill="#34343F"/>
<path d="M184.787 144.207H138.886C138.593 144.207 138.356 144.445 138.356 144.739V147.928C138.356 148.221 138.593 148.459 138.886 148.459H184.787C185.079 148.459 185.316 148.221 185.316 147.928V144.739C185.316 144.445 185.079 144.207 184.787 144.207Z" fill="white"/>
<path d="M192.201 144.207H187.611C187.319 144.207 187.082 144.445 187.082 144.739V147.928C187.082 148.221 187.319 148.459 187.611 148.459H192.201C192.494 148.459 192.731 148.221 192.731 147.928V144.739C192.731 144.445 192.494 144.207 192.201 144.207Z" fill="#34343F"/>
<path d="M232.629 144.207H195.026C194.733 144.207 194.496 144.445 194.496 144.739V147.928C194.496 148.221 194.733 148.459 195.026 148.459H232.629C232.922 148.459 233.159 148.221 233.159 147.928V144.739C233.159 144.445 232.922 144.207 232.629 144.207Z" fill="#D9D9D9"/>
<path d="M264.23 144.207H235.454C235.161 144.207 234.924 144.445 234.924 144.739V147.928C234.924 148.221 235.161 148.459 235.454 148.459H264.23C264.523 148.459 264.76 148.221 264.76 147.928V144.739C264.76 144.445 264.523 144.207 264.23 144.207Z" fill="white"/>
<path d="M116.817 152.711H98.9867C98.6942 152.711 98.457 152.949 98.457 153.242V156.431C98.457 156.725 98.6942 156.963 98.9867 156.963H116.817C117.11 156.963 117.347 156.725 117.347 156.431V153.242C117.347 152.949 117.11 152.711 116.817 152.711Z" fill="#FFA400"/>
<path d="M128.116 152.711H119.642C119.35 152.711 119.113 152.949 119.113 153.242V156.431C119.113 156.725 119.35 156.963 119.642 156.963H128.116C128.409 156.963 128.646 156.725 128.646 156.431V153.242C128.646 152.949 128.409 152.711 128.116 152.711Z" fill="#DB324D"/>
<path d="M103.753 161.215H98.9867C98.6942 161.215 98.457 161.453 98.457 161.746V164.935C98.457 165.228 98.6942 165.466 98.9867 165.466H103.753C104.046 165.466 104.283 165.228 104.283 164.935V161.746C104.283 161.453 104.046 161.215 103.753 161.215Z" fill="#1E1E24"/>
<path d="M111.698 161.215H106.578C106.285 161.215 106.048 161.453 106.048 161.746V164.935C106.048 165.228 106.285 165.466 106.578 165.466H111.698C111.99 165.466 112.227 165.228 112.227 164.935V161.746C112.227 161.453 111.99 161.215 111.698 161.215Z" fill="#D9D9D9"/>
<path d="M136.061 161.215H114.523C114.23 161.215 113.993 161.453 113.993 161.746V164.935C113.993 165.228 114.23 165.466 114.523 165.466H136.061C136.353 165.466 136.591 165.228 136.591 164.935V161.746C136.591 161.453 136.353 161.215 136.061 161.215Z" fill="#34343F"/>
<path d="M147.183 161.215H138.886C138.593 161.215 138.356 161.453 138.356 161.746V164.935C138.356 165.228 138.593 165.466 138.886 165.466H147.183C147.476 165.466 147.713 165.228 147.713 164.935V161.746C147.713 161.453 147.476 161.215 147.183 161.215Z" fill="white"/>
<path d="M167.132 161.215H150.008C149.715 161.215 149.478 161.453 149.478 161.746V164.935C149.478 165.228 149.715 165.466 150.008 165.466H167.132C167.425 165.466 167.662 165.228 167.662 164.935V161.746C167.662 161.453 167.425 161.215 167.132 161.215Z" fill="white"/>
<path d="M173.488 161.215H169.957C169.664 161.215 169.427 161.453 169.427 161.746V164.935C169.427 165.228 169.664 165.466 169.957 165.466H173.488C173.78 165.466 174.017 165.228 174.017 164.935V161.746C174.017 161.453 173.78 161.215 173.488 161.215Z" fill="white"/>
<path d="M197.144 161.215H176.312C176.02 161.215 175.783 161.453 175.783 161.746V164.935C175.783 165.228 176.02 165.466 176.312 165.466H197.144C197.437 165.466 197.674 165.228 197.674 164.935V161.746C197.674 161.453 197.437 161.215 197.144 161.215Z" fill="#D9D9D9"/>
</g>
<g clip-path="url(#clip1_205_4529)">
<path d="M389.973 178.535H400.82C403.885 178.535 406.125 176.708 406.774 173.703L409.839 160.74C412.138 159.974 414.378 159.09 416.324 158.147L427.701 165.1C430.236 166.692 433.125 166.456 435.247 164.334L442.851 156.792C444.974 154.671 445.268 151.607 443.559 149.073L436.602 137.819C437.605 135.757 438.489 133.636 439.138 131.515L452.224 128.392C455.231 127.744 457 125.504 457 122.441V111.775C457 108.77 455.231 106.531 452.224 105.883L439.256 102.76C438.489 100.344 437.546 98.1643 436.721 96.3378L443.677 84.9068C445.328 82.3731 445.151 79.4859 442.969 77.3647L435.247 69.7637C433.066 67.7603 430.472 67.4068 427.878 68.8799L416.324 76.0095C414.437 75.0078 412.256 74.124 409.839 73.358L406.774 60.2182C406.125 57.2132 403.885 55.3866 400.82 55.3866H389.973C386.907 55.3866 384.667 57.2132 383.96 60.2182L380.894 73.2401C378.595 74.0061 376.355 74.89 374.351 75.9505L362.915 68.8799C360.321 67.4068 357.668 67.7014 355.487 69.7637L347.823 77.3647C345.642 79.4859 345.406 82.3731 347.116 84.9068L354.013 96.3378C353.247 98.1643 352.303 100.344 351.537 102.76L338.568 105.883C335.561 106.531 333.793 108.77 333.793 111.775V122.441C333.793 125.504 335.561 127.744 338.568 128.392L351.655 131.515C352.303 133.636 353.188 135.757 354.131 137.819L347.234 149.073C345.465 151.607 345.819 154.671 347.941 156.792L355.487 164.334C357.609 166.456 360.557 166.692 363.091 165.1L374.41 158.147C376.414 159.09 378.595 159.974 380.894 160.74L383.96 173.703C384.667 176.708 386.907 178.535 389.973 178.535ZM395.396 137.76C383.96 137.76 374.587 128.332 374.587 116.902C374.587 105.53 383.96 96.161 395.396 96.161C406.833 96.161 416.206 105.53 416.206 116.902C416.206 128.332 406.833 137.76 395.396 137.76Z" fill="#FFA400"/>
</g>
<g clip-path="url(#clip2_205_4529)">
<path d="M86.2993 279.109H102.022C106.466 279.109 109.713 276.461 110.653 272.105L115.097 253.314C118.429 252.204 121.676 250.923 124.496 249.556L140.988 259.635C144.663 261.941 148.85 261.599 151.926 258.524L162.949 247.592C166.026 244.517 166.453 240.076 163.975 236.403L153.891 220.09C155.344 217.1 156.626 214.026 157.566 210.951L176.536 206.424C180.894 205.485 183.458 202.239 183.458 197.798V182.338C183.458 177.982 180.894 174.737 176.536 173.797L157.737 169.27C156.626 165.768 155.259 162.608 154.062 159.961L164.145 143.391C166.538 139.718 166.282 135.533 163.12 132.458L151.926 121.44C148.764 118.536 145.004 118.024 141.244 120.159L124.496 130.494C121.762 129.042 118.599 127.761 115.097 126.65L110.653 107.604C109.713 103.248 106.466 100.6 102.022 100.6H86.2993C81.8559 100.6 78.6087 103.248 77.5833 107.604L73.1398 126.48C69.8073 127.59 66.5601 128.871 63.6547 130.408L47.0772 120.159C43.3173 118.024 39.472 118.451 36.3103 121.44L25.2017 132.458C22.04 135.533 21.6982 139.718 24.1762 143.391L34.1741 159.961C33.0632 162.608 31.696 165.768 30.5851 169.27L11.7858 173.797C7.4278 174.737 4.86426 177.982 4.86426 182.338V197.798C4.86426 202.239 7.4278 205.485 11.7858 206.424L30.756 210.951C31.696 214.026 32.9777 217.1 34.3449 220.09L24.3471 236.403C21.7836 240.076 22.2963 244.517 25.3726 247.592L36.3103 258.524C39.3866 261.599 43.6591 261.941 47.3336 259.635L63.7402 249.556C66.6456 250.923 69.8073 252.204 73.1398 253.314L77.5833 272.105C78.6087 276.461 81.8559 279.109 86.2993 279.109ZM94.161 220.004C77.5833 220.004 63.9965 206.338 63.9965 189.769C63.9965 173.285 77.5833 159.704 94.161 159.704C110.738 159.704 124.325 173.285 124.325 189.769C124.325 206.338 110.738 220.004 94.161 220.004Z" fill="#DB324D"/>
</g>
<path fill-rule="evenodd" clip-rule="evenodd" d="M110.735 109.643H354.692C359.724 109.643 363.708 113.732 363.708 118.659V287.762C363.708 292.794 359.619 296.778 354.692 296.778H110.735C105.703 296.778 101.719 292.689 101.719 287.762V118.764C101.614 113.732 105.703 109.643 110.735 109.643Z" fill="#4A4B55"/>
<path d="M272.29 287.657H192.928V292.794H272.29V287.657Z" fill="#7F7F8B"/>
<path d="M377.442 287.657V289.754C377.442 294.157 374.402 297.722 370.627 297.722H95.3237C91.5496 297.722 88.5093 294.157 88.5093 289.754V287.657H198.065C199.008 289.544 200.686 290.802 202.678 290.802H263.274C264.742 290.802 266.104 290.068 267.048 289.02C267.362 288.601 267.677 288.181 267.887 287.762H377.442V287.657Z" fill="#C1C5D5"/>
<path fill-rule="evenodd" clip-rule="evenodd" d="M355.426 120.022V279.899C355.426 280.948 354.587 281.681 353.644 281.681H111.783C110.735 281.681 110.001 280.843 110.001 279.899V120.022C110.001 118.974 110.84 118.24 111.783 118.24H353.644C354.587 118.24 355.426 118.974 355.426 120.022Z" fill="#171924"/>
<path d="M232.661 115.619C233.587 115.619 234.338 114.868 234.338 113.941C234.338 113.015 233.587 112.264 232.661 112.264C231.734 112.264 230.983 113.015 230.983 113.941C230.983 114.868 231.734 115.619 232.661 115.619Z" fill="#171924"/>
<path d="M355.426 120.022V279.899C355.426 280.948 354.588 281.681 353.644 281.681H111.784C110.736 281.681 110.001 280.843 110.001 279.899V120.022C110.001 118.974 110.84 118.24 111.784 118.24H353.644C354.588 118.24 355.426 118.974 355.426 120.022Z" fill="#F1F3F9"/>
<path fill-rule="evenodd" clip-rule="evenodd" d="M179.509 118.24V281.681H111.679C110.63 281.681 109.896 280.843 109.896 279.899V120.022C109.896 118.974 110.735 118.24 111.679 118.24H179.509Z" fill="#4ECDC4"/>
<path opacity="0.3" d="M143.969 175.376C153.348 175.376 160.952 168.007 160.952 158.917C160.952 149.826 153.348 142.457 143.969 142.457C134.589 142.457 126.985 149.826 126.985 158.917C126.985 168.007 134.589 175.376 143.969 175.376Z" fill="white"/>
<path opacity="0.2" d="M164.831 189.844H123.106C121.324 189.844 119.856 188.166 119.856 186.174C119.856 184.182 121.324 182.505 123.106 182.505H164.831C166.613 182.505 168.081 184.182 168.081 186.174C168.081 188.166 166.613 189.844 164.831 189.844Z" fill="white"/>
<path opacity="0.1" d="M160.847 199.489H127.089C125.936 199.489 124.993 198.44 124.993 197.182C124.993 195.924 125.936 194.876 127.089 194.876H160.847C162 194.876 162.944 195.924 162.944 197.182C162.944 198.44 162 199.489 160.847 199.489Z" fill="white"/>
<path d="M340.329 261.762L195.863 261.238C194.815 261.238 193.976 260.295 193.976 259.141V149.901C193.976 148.747 194.815 147.804 195.863 147.804L340.329 148.328C341.378 148.328 342.216 149.272 342.216 150.425V259.561C342.216 260.819 341.378 261.762 340.329 261.762Z" fill="white"/>
<path d="M325.338 162.9C325.338 164.368 324.185 165.626 322.717 165.626L216.621 165.102C215.154 165.102 213.896 163.844 213.896 162.376C213.896 160.908 215.154 159.65 216.621 159.65L322.612 160.175C324.08 160.175 325.338 161.328 325.338 162.9Z" fill="#B9B9BE"/>
<path d="M308.669 174.118L215.363 173.594C214.524 173.594 213.896 172.86 213.896 171.916C213.896 170.973 214.524 170.239 215.363 170.239L308.669 170.763C309.507 170.763 310.136 171.497 310.136 172.441C310.136 173.384 309.507 174.118 308.669 174.118Z" fill="#B9B9BE"/>
<path d="M297.136 189.739L238.217 189.215C237.484 189.215 236.959 188.586 236.959 187.852C236.959 187.118 237.484 186.489 238.217 186.489L297.136 187.013C297.87 187.013 298.394 187.642 298.394 188.376C298.29 189.11 297.765 189.739 297.136 189.739Z" fill="#D5D5DD"/>
<path d="M264.427 196.868L238.217 196.343C237.484 196.343 236.959 195.714 236.959 194.981C236.959 194.247 237.484 193.618 238.217 193.618L264.427 194.142C265.161 194.142 265.685 194.771 265.685 195.505C265.685 196.239 265.056 196.868 264.427 196.868Z" fill="#D5D5DD"/>
<path d="M227.105 198.65H215.573C214.629 198.65 213.896 197.811 213.896 196.763V186.174C213.896 185.126 214.629 184.287 215.573 184.287H227.105C228.049 184.287 228.782 185.126 228.782 186.174V196.763C228.782 197.811 228.049 198.65 227.105 198.65Z" fill="#D5D5DD"/>
<path d="M297.136 215.319L238.217 214.795C237.484 214.795 236.959 214.166 236.959 213.432C236.959 212.698 237.484 212.069 238.217 212.069L297.136 212.593C297.87 212.593 298.394 213.222 298.394 213.956C298.29 214.69 297.765 215.319 297.136 215.319Z" fill="#D5D5DD"/>
<path d="M264.427 222.448L238.217 221.924C237.484 221.924 236.959 221.295 236.959 220.561C236.959 219.827 237.484 219.198 238.217 219.198L264.427 219.722C265.161 219.722 265.685 220.351 265.685 221.085C265.685 221.819 265.056 222.448 264.427 222.448Z" fill="#D5D5DD"/>
<path d="M227.105 224.23H215.573C214.629 224.23 213.896 223.392 213.896 222.343V211.755C213.896 210.706 214.629 209.868 215.573 209.868H227.105C228.049 209.868 228.782 210.706 228.782 211.755V222.343C228.782 223.392 228.049 224.23 227.105 224.23Z" fill="#D5D5DD"/>
<path d="M297.136 241.319L238.217 240.795C237.484 240.795 236.959 240.166 236.959 239.432C236.959 238.698 237.484 238.069 238.217 238.069L297.136 238.593C297.87 238.593 298.394 239.222 298.394 239.956C298.29 240.69 297.765 241.319 297.136 241.319Z" fill="#D5D5DD"/>
<path d="M264.427 248.448L238.217 247.924C237.484 247.924 236.959 247.295 236.959 246.561C236.959 245.827 237.484 245.198 238.217 245.198L264.427 245.722C265.161 245.722 265.685 246.351 265.685 247.085C265.685 247.819 265.056 248.448 264.427 248.448Z" fill="#D5D5DD"/>
<path d="M227.105 250.125H215.573C214.629 250.125 213.896 249.287 213.896 248.238V237.65C213.896 236.601 214.629 235.763 215.573 235.763H227.105C228.049 235.763 228.782 236.601 228.782 237.65V248.238C228.782 249.287 228.049 250.125 227.105 250.125Z" fill="#D5D5DD"/>
<path fill-rule="evenodd" clip-rule="evenodd" d="M394.418 309.2H337.535C333.644 309.2 330.402 306.05 330.402 302.067V178.945C330.402 175.054 333.552 171.812 337.535 171.812H394.418C398.309 171.812 401.551 174.961 401.551 178.945V302.067C401.551 305.958 398.401 309.2 394.418 309.2Z" fill="#50515C"/>
<path fill-rule="evenodd" clip-rule="evenodd" d="M335.59 289.282V184.04C335.59 182.651 336.702 181.539 338.091 181.539H393.955C395.344 181.539 396.456 182.651 396.456 184.04V289.282C396.456 290.672 395.344 291.783 393.955 291.783H338.091C336.702 291.783 335.59 290.672 335.59 289.282Z" fill="#171924"/>
<path fill-rule="evenodd" clip-rule="evenodd" d="M372.739 178.204H359.306C358.936 178.204 358.658 177.926 358.658 177.555V177.185C358.658 176.814 358.936 176.536 359.306 176.536H372.739C373.11 176.536 373.388 176.814 373.388 177.185V177.555C373.388 177.926 373.11 178.204 372.739 178.204Z" fill="#1F2131"/>
<path d="M365.976 305.031C368.79 305.031 371.072 302.75 371.072 299.936C371.072 297.122 368.79 294.841 365.976 294.841C363.162 294.841 360.881 297.122 360.881 299.936C360.881 302.75 363.162 305.031 365.976 305.031Z" fill="#1F2131"/>
<path fill-rule="evenodd" clip-rule="evenodd" d="M396.456 183.67V289.56C396.456 290.672 395.622 291.691 394.511 291.876C394.418 291.876 337.906 291.876 337.906 291.876C336.424 291.691 335.59 290.857 335.59 289.56V183.67C335.59 182.373 336.609 181.354 337.906 181.354H394.14C395.437 181.354 396.456 182.373 396.456 183.67Z" fill="#F1F3F9"/>
<path d="M394.511 200.531V291.783C394.418 291.783 338.277 291.783 338.277 291.783V201.086L394.511 200.531Z" fill="white"/>
<path d="M385.617 225.915H366.44C365.792 225.915 365.236 225.359 365.236 224.618C365.236 223.877 365.792 223.321 366.44 223.321H385.617C386.266 223.321 386.822 223.877 386.822 224.618C386.822 225.359 386.266 225.915 385.617 225.915Z" fill="#D5D5DD"/>
<path d="M379.502 232.585H366.533C365.884 232.585 365.328 232.029 365.328 231.288C365.328 230.547 365.884 229.991 366.533 229.991H379.502C380.151 229.991 380.707 230.547 380.707 231.288C380.707 231.936 380.151 232.585 379.502 232.585Z" fill="#D5D5DD"/>
<path d="M354.397 234.623H343.743C342.909 234.623 342.168 233.882 342.168 232.863V223.043C342.168 222.116 342.816 221.283 343.743 221.283H354.397C355.231 221.283 355.972 222.024 355.972 223.043V232.863C355.972 233.789 355.231 234.623 354.397 234.623Z" fill="#D5D5DD"/>
<path d="M385.617 248.149H366.44C365.792 248.149 365.236 247.593 365.236 246.852C365.236 246.111 365.792 245.555 366.44 245.555H385.617C386.266 245.555 386.822 246.111 386.822 246.852C386.822 247.593 386.266 248.149 385.617 248.149Z" fill="#D5D5DD"/>
<path d="M379.502 254.819H366.533C365.884 254.819 365.328 254.263 365.328 253.522C365.328 252.781 365.884 252.225 366.533 252.225H379.502C380.151 252.225 380.707 252.781 380.707 253.522C380.707 254.171 380.151 254.819 379.502 254.819Z" fill="#D5D5DD"/>
<path d="M354.397 256.857H343.743C342.909 256.857 342.168 256.116 342.168 255.097V245.277C342.168 244.35 342.816 243.517 343.743 243.517H354.397C355.231 243.517 355.972 244.258 355.972 245.277V255.097C355.972 256.116 355.231 256.857 354.397 256.857Z" fill="#D5D5DD"/>
<path d="M385.617 270.939H366.44C365.792 270.939 365.236 270.383 365.236 269.642C365.236 268.901 365.792 268.345 366.44 268.345H385.617C386.266 268.345 386.822 268.901 386.822 269.642C386.822 270.29 386.266 270.939 385.617 270.939Z" fill="#D5D5DD"/>
<path d="M379.502 277.517H366.533C365.884 277.517 365.328 276.961 365.328 276.22C365.328 275.478 365.884 274.923 366.533 274.923H379.502C380.151 274.923 380.707 275.478 380.707 276.22C380.707 276.961 380.151 277.517 379.502 277.517Z" fill="#D5D5DD"/>
<path d="M380.707 291.413C380.707 291.598 380.707 291.691 380.614 291.876H365.236C365.143 291.691 365.143 291.598 365.143 291.413C365.143 291.042 365.328 290.764 365.514 290.486C365.699 290.209 366.07 290.116 366.347 290.116H379.317C380.151 290.116 380.707 290.672 380.707 291.413Z" fill="#D5D5DD"/>
<path d="M354.397 279.555H343.743C342.909 279.555 342.168 278.813 342.168 277.794V267.974C342.168 267.048 342.816 266.214 343.743 266.214H354.397C355.231 266.214 355.972 266.955 355.972 267.974V277.794C355.972 278.813 355.231 279.555 354.397 279.555Z" fill="#D5D5DD"/>
<path d="M355.971 291.228V291.876H342.26V291.228C342.26 290.301 342.909 289.467 343.835 289.467H354.489C355.23 289.467 355.971 290.209 355.971 291.228Z" fill="#D5D5DD"/>
<path d="M394.511 186.449V201.642H338.277V186.264C338.277 185.059 339.018 184.133 340.037 184.133L392.843 184.318C393.77 184.318 394.511 185.245 394.511 186.449Z" fill="#4ECDC4"/>
<path opacity="0.3" d="M358.843 197.937C361.657 197.937 363.939 195.738 363.939 193.027C363.939 190.315 361.657 188.117 358.843 188.117C356.029 188.117 353.748 190.315 353.748 193.027C353.748 195.738 356.029 197.937 358.843 197.937Z" fill="white"/>
<path opacity="0.2" d="M379.78 193.397H367.274C366.718 193.397 366.254 192.934 366.254 192.285C366.254 191.637 366.718 191.174 367.274 191.174H379.78C380.336 191.174 380.799 191.637 380.799 192.285C380.799 192.841 380.336 193.397 379.78 193.397Z" fill="white"/>
<path opacity="0.1" d="M377.094 196.269H366.996C366.626 196.269 366.348 195.991 366.348 195.528C366.348 195.157 366.626 194.787 366.996 194.787H377.094C377.465 194.787 377.742 195.065 377.742 195.528C377.742 195.991 377.465 196.269 377.094 196.269Z" fill="white"/>
<path d="M388.86 210.721H344.021C343.187 210.721 342.539 209.888 342.539 208.961C342.539 207.942 343.187 207.201 344.021 207.201H388.86C389.694 207.201 390.342 208.035 390.342 208.961C390.342 209.888 389.694 210.721 388.86 210.721Z" fill="#B9B9BE"/>
<path d="M371.721 215.539H343.465C342.909 215.539 342.539 215.076 342.539 214.427C342.539 213.779 343.002 213.315 343.465 213.315H371.721C372.277 213.315 372.647 213.779 372.647 214.427C372.647 215.076 372.184 215.539 371.721 215.539Z" fill="#B9B9BE"/>
<path d="M182.78 242.009V304.743C182.78 308.134 173.059 310.96 159.608 311.864C156.556 312.09 153.278 312.203 149.887 312.203C131.688 312.203 116.881 309.038 116.881 304.856V242.122H182.78V242.009Z" fill="#E6DBD0"/>
<path d="M182.779 242.009C182.779 246.191 167.972 250.26 149.773 250.26C131.575 250.26 116.768 246.191 116.768 242.009C116.768 237.827 131.575 235.114 149.773 235.114C168.085 235.001 182.779 237.714 182.779 242.009Z" fill="white"/>
<path d="M180.971 242.009C180.971 242.348 179.501 244.27 172.606 245.965C172.38 246.078 172.154 246.078 171.928 246.191C165.824 247.661 157.912 248.565 149.773 248.565C141.522 248.565 133.723 247.774 127.619 246.191C127.393 246.078 127.167 246.078 126.941 245.965C120.159 244.157 118.576 242.348 118.576 242.009C118.576 242.009 119.254 240.2 127.054 238.618C132.931 237.488 140.957 236.809 149.773 236.809C158.477 236.809 166.616 237.488 172.493 238.618C180.406 240.2 180.971 241.896 180.971 242.009Z" fill="#E6D6C4"/>
<path d="M172.041 246.078C165.937 247.548 158.025 248.452 149.887 248.452C141.635 248.452 133.836 247.661 127.732 246.078C133.61 244.948 141.409 244.383 149.887 244.383C158.364 244.383 166.164 245.061 172.041 246.078Z" fill="#BD8979"/>
<path d="M196.117 264.616V284.284C196.117 289.709 191.935 294.231 186.735 294.231H177.806V285.301H186.735C187.188 285.301 187.64 284.849 187.64 284.397V264.729C187.64 264.164 187.301 263.824 186.735 263.824H177.806V254.895H186.735C191.935 254.782 196.117 259.19 196.117 264.616Z" fill="#CFC2B5"/>
<path d="M182.779 242.009V304.743C182.779 308.134 173.058 310.96 159.607 311.864V254.782C159.607 252.069 161.642 249.695 164.355 249.356C175.319 247.887 182.779 244.948 182.779 242.009Z" fill="#CFC2B5"/>
<g clip-path="url(#clip3_205_4529)">
<path d="M349.56 111.821H306.5C301.597 111.821 297.622 115.771 297.622 120.643V126.818C297.622 131.691 301.597 135.641 306.5 135.641H349.56C354.463 135.641 358.438 131.691 358.438 126.818V120.643C358.438 115.771 354.463 111.821 349.56 111.821Z" fill="#932F3A"/>
<path d="M349.603 72.4985H306.5C301.597 72.4985 297.622 76.4483 297.622 81.3206V122.481C297.622 127.353 301.597 131.303 306.5 131.303H349.603C354.507 131.303 358.482 127.353 358.482 122.481V81.3206C358.482 76.4483 354.507 72.4985 349.603 72.4985Z" fill="#DB324D"/>
<path d="M341.44 89.2468C341.44 87.6529 341.18 86.5688 340.66 85.9945C340.154 85.4201 339.273 85.0037 338.016 84.7452V81.3206C339.461 81.335 340.573 81.4211 341.354 81.5791C342.64 81.8232 343.767 82.3186 344.735 83.0652C345.703 83.8119 346.375 84.7309 346.751 85.8222C347.127 86.9134 347.315 87.8683 347.315 88.6868V94.459C347.315 96.5124 347.784 98.0201 348.723 98.9822C349.301 99.5565 350.335 100.088 351.823 100.576V103.182C350.595 103.527 349.663 103.972 349.027 104.518C347.885 105.494 347.315 106.901 347.315 108.739V115.481C347.315 117.663 346.556 119.35 345.039 120.542C343.521 121.748 341.693 122.38 339.555 122.438L338.016 122.481V119.056C339.099 118.74 339.858 118.367 340.292 117.936C341.028 117.218 341.412 116.077 341.44 114.511V109.062C341.44 107.023 341.838 105.508 342.633 104.518C343.427 103.541 344.692 102.687 346.426 101.955C344.533 101.036 343.225 99.9945 342.502 98.8313C341.794 97.654 341.44 96.1247 341.44 94.2437V89.2468Z" fill="white"/>
<path d="M311.13 120.607C309.57 119.429 308.789 117.721 308.789 115.481V108.739C308.789 106.93 308.24 105.544 307.142 104.582C306.477 103.993 305.524 103.527 304.281 103.182V100.576C305.682 100.102 306.672 99.5781 307.25 99.0038C308.276 98.013 308.789 96.4981 308.789 94.459V88.6868C308.789 87.9545 308.912 87.1863 309.158 86.3822C309.591 84.9894 310.328 83.8837 311.369 83.0652C312.322 82.3186 313.442 81.8232 314.728 81.5791C315.509 81.4211 316.629 81.335 318.088 81.3206V84.7452C316.889 85.0037 316.072 85.3483 315.639 85.7791C314.974 86.4396 314.642 87.5955 314.642 89.2468V94.2437C314.642 95.8518 314.425 97.1299 313.991 98.0777C313.254 99.6714 311.809 100.964 309.656 101.955C311.607 102.744 312.915 103.663 313.58 104.711C314.259 105.76 314.613 107.21 314.642 109.062V114.511C314.642 116.105 315.032 117.254 315.812 117.958C316.246 118.374 317.004 118.74 318.088 119.056V122.481L316.549 122.438C314.483 122.38 312.676 121.77 311.13 120.607Z" fill="white"/>
</g>
<g clip-path="url(#clip4_205_4529)">
<path d="M123.617 231.665H69.2266C65.5181 231.665 62.5117 234.673 62.5117 238.383V243.086C62.5117 246.797 65.5181 249.805 69.2266 249.805H123.617C127.326 249.805 130.332 246.797 130.332 243.086V238.383C130.332 234.673 127.326 231.665 123.617 231.665Z" fill="#BF822D"/>
<path d="M123.575 207.982H69.2681C65.5596 207.982 62.5532 210.99 62.5532 214.701V239.616C62.5532 243.327 65.5596 246.335 69.2681 246.335H123.575C127.283 246.335 130.29 243.327 130.29 239.616V214.701C130.29 210.99 127.283 207.982 123.575 207.982Z" fill="#FFA400"/>
<path d="M89.5156 239.616L98.8765 214.701H102.762L93.3683 239.616H89.5156Z" fill="white"/>
<path d="M119.745 227.172L105.941 222.3V217.724L125.253 225.105V229.272L105.941 236.62V232.06L119.745 227.172Z" fill="white"/>
<path d="M86.9012 217.724V222.3L73.114 227.172L86.9012 232.06V236.62L67.5894 229.272V225.073L86.9012 217.724Z" fill="white"/>
</g>
</g>
<defs>
<filter id="filter0_d_205_4529" x="0.864258" y="0" width="460.136" height="320.203" filterUnits="userSpaceOnUse" color-interpolation-filters="sRGB">
<feFlood flood-opacity="0" result="BackgroundImageFix"/>
<feColorMatrix in="SourceAlpha" type="matrix" values="0 0 0 0 0 0 0 0 0 0 0 0 0 0 0 0 0 0 127 0" result="hardAlpha"/>
<feOffset dy="4"/>
<feGaussianBlur stdDeviation="2"/>
<feComposite in2="hardAlpha" operator="out"/>
<feColorMatrix type="matrix" values="0 0 0 0 0 0 0 0 0 0 0 0 0 0 0 0 0 0 0.25 0"/>
<feBlend mode="normal" in2="BackgroundImageFix" result="effect1_dropShadow_205_4529"/>
<feBlend mode="normal" in="SourceGraphic" in2="effect1_dropShadow_205_4529" result="shape"/>
</filter>
<linearGradient id="paint0_linear_205_4529" x1="-nan" y1="-nan" x2="-nan" y2="-nan" gradientUnits="userSpaceOnUse">
<stop stop-color="#3F3F4B" stop-opacity="0"/>
<stop offset="0.5" stop-color="#3F3F4B"/>
<stop offset="1" stop-color="#3F3F4B" stop-opacity="0"/>
</linearGradient>
<clipPath id="clip0_205_4529">
<rect width="255.457" height="184.245" fill="white" transform="translate(67.0327)"/>
</clipPath>
<clipPath id="clip1_205_4529">
<rect width="123.207" height="123.207" fill="white" transform="translate(333.793 55.3866)"/>
</clipPath>
<clipPath id="clip2_205_4529">
<rect width="178.594" height="178.594" fill="white" transform="translate(4.86426 100.6)"/>
</clipPath>
<clipPath id="clip3_205_4529">
<rect width="61.0383" height="63.299" fill="white" transform="translate(297.622 72.3417)"/>
</clipPath>
<clipPath id="clip4_205_4529">
<rect width="67.8203" height="41.8225" fill="white" transform="translate(62.5117 207.982)"/>
</clipPath>
</defs>
</svg>
