<svg width="617" height="418" viewBox="0 0 617 418" fill="none" xmlns="http://www.w3.org/2000/svg">
<path d="M216.022 70.6084C218.772 69.4284 221.712 71.9384 223.212 74.5284C224.712 77.1184 225.922 80.2484 228.662 81.4484C230.792 82.3784 233.242 81.8484 235.572 81.9384C242.722 82.2184 248.262 88.3884 251.472 94.7884C253.472 98.7884 254.932 103.378 253.602 107.628C252.432 111.368 249.282 114.148 246.002 116.288C239.411 120.698 231.597 122.917 223.672 122.628C219.733 122.449 215.873 121.464 212.33 119.733C208.787 118.003 205.636 115.564 203.072 112.568C199.222 107.848 197.172 101.878 196.282 95.8584C195.392 89.8384 195.592 83.7184 195.792 77.6384" fill="#263238"/>
<path d="M246.962 102.129C246.912 102.129 246.962 101.479 246.842 100.349C246.675 98.7422 246.225 97.1782 245.512 95.7286C244.466 93.5805 242.919 91.7149 241.002 90.2886C238.634 88.5578 235.895 87.4039 233.002 86.9186C229.952 86.3686 226.912 86.6486 224.182 86.0686C221.776 85.5421 219.551 84.39 217.732 82.7286C216.513 81.6334 215.42 80.4058 214.472 79.0686C214.142 78.5986 213.892 78.2286 213.732 77.9586C213.646 77.8292 213.572 77.6919 213.512 77.5486C213.911 77.9941 214.285 78.4615 214.632 78.9486C215.631 80.2194 216.75 81.3914 217.972 82.4486C219.765 84.0309 221.94 85.1168 224.282 85.5986C226.912 86.1386 229.942 85.8486 233.092 86.4086C236.06 86.9039 238.865 88.1042 241.272 89.9086C243.233 91.3929 244.799 93.3366 245.832 95.5686C246.526 97.0666 246.933 98.681 247.032 100.329C247.065 100.771 247.065 101.216 247.032 101.659C247.032 101.818 247.009 101.976 246.962 102.129Z" fill="#455A64"/>
<path d="M274.792 89.0586L264.262 128.479L242.882 105.479C233.043 99.0484 221.422 95.8979 209.682 96.4786L176.422 94.9286L158.062 101.539C153.641 103.145 149.398 105.206 145.402 107.689L109.622 132.379C102.052 137.849 95.8323 142.029 94.3723 150.379C92.4523 161.379 98.0223 173.709 109.612 175.749L160.222 176.359L161.782 208.359L241.332 200.959L239.202 152.669C255.442 165.179 263.072 170.049 275.292 167.669C279.362 166.879 285.182 162.599 287.072 156.259C293.822 133.659 294.972 98.1086 294.972 98.1086L274.792 89.0586ZM150.032 145.629L154.652 144.319L154.942 145.989L150.032 145.629Z" fill="#FFA400"/>
<path d="M108.862 175.768H109.292H110.542H115.372L133.152 175.718H192.022L191.762 175.968C191.762 175.388 191.822 174.768 191.852 174.148C192.222 166.198 192.582 158.508 192.912 151.358L193.142 151.628C175.232 149.958 159.882 147.378 148.932 145.988C143.452 145.268 139.072 144.788 136.072 144.438L132.632 144.058L131.742 143.948L131.442 143.898H131.752L132.642 143.968L136.092 144.268C139.092 144.558 143.482 144.998 148.972 145.678C159.972 146.978 175.292 149.488 193.182 151.128H193.422V151.368C193.092 158.508 192.742 166.208 192.422 174.158C192.422 174.778 192.362 175.398 192.332 175.968V176.218H192.082L133.212 176.018L115.332 175.888L110.502 175.828H109.252C109.121 175.819 108.99 175.799 108.862 175.768Z" fill="#263238"/>
<path d="M109.882 141.578C110.131 141.405 110.404 141.27 110.692 141.178C111.454 140.868 112.235 140.61 113.032 140.408C118.358 139.046 123.994 139.613 128.942 142.008C129.685 142.362 130.4 142.77 131.082 143.228C131.347 143.377 131.589 143.562 131.802 143.778C131.742 143.858 130.672 143.158 128.802 142.338C123.87 140.182 118.384 139.633 113.122 140.768C111.112 141.198 109.912 141.668 109.882 141.578Z" fill="#263238"/>
<path d="M120.892 132.388C121.665 132.682 122.397 133.072 123.072 133.548C124.753 134.603 126.354 135.779 127.862 137.068C129.602 138.578 131.202 140.068 131.862 141.498C132.14 142.057 132.281 142.674 132.272 143.298C132.281 143.528 132.229 143.755 132.122 143.958C132.108 143.161 131.91 142.377 131.542 141.668C130.448 140.059 129.096 138.64 127.542 137.468C125.792 135.968 124.112 134.728 122.882 133.858C122.178 133.426 121.512 132.934 120.892 132.388Z" fill="#263238"/>
<path d="M155.332 146.178C154.949 145.161 154.648 144.114 154.432 143.048C153.932 141.108 153.272 138.419 152.432 135.479C151.592 132.539 150.772 129.898 150.082 128.018C149.392 126.138 148.932 125.018 149.002 124.958C149.19 125.187 149.342 125.444 149.452 125.718C149.712 126.218 150.042 126.958 150.452 127.888C151.43 130.321 152.265 132.809 152.952 135.339C153.762 138.339 154.362 141.008 154.772 142.968C155.046 144.021 155.234 145.095 155.332 146.178Z" fill="#263238"/>
<path d="M240.232 175.068C240.092 175.068 239.522 163.068 238.952 148.238C238.382 133.408 238.042 121.378 238.192 121.378C238.342 121.378 238.912 133.378 239.472 148.218C240.032 163.058 240.382 175.068 240.232 175.068Z" fill="#263238"/>
<g opacity="0.3">
<path d="M238.622 126.888C239.452 132.048 241.622 136.888 243.412 141.798C245.202 146.708 246.412 152.058 245.352 157.168L239.352 152.358" fill="black"/>
</g>
<path d="M269.482 149.658C269.295 149.431 269.141 149.178 269.022 148.908C268.752 148.408 268.412 147.668 268.022 146.738C265.955 141.877 264.708 136.707 264.332 131.438C264.262 130.438 264.242 129.608 264.252 129.048C264.237 128.74 264.264 128.43 264.332 128.128C264.525 129.2 264.655 130.282 264.722 131.368C265.278 136.577 266.491 141.694 268.332 146.598C269.052 148.478 269.552 149.618 269.482 149.658Z" fill="#263238"/>
<path opacity="0.3" d="M150.412 128.229L151.702 145.159L154.652 144.319L150.412 128.229Z" fill="black"/>
<path d="M236.802 128.129C236.71 128.106 236.622 128.069 236.542 128.019L235.792 127.659C234.838 127.202 233.852 126.814 232.842 126.498C229.126 125.32 225.168 125.121 221.352 125.918C218.736 126.501 216.236 127.515 213.952 128.918C211.462 130.378 208.952 132.239 206.232 134.049C203.411 136.039 200.264 137.521 196.932 138.429C193.335 139.327 189.591 139.48 185.932 138.879C184.081 138.553 182.263 138.057 180.502 137.399C178.801 136.73 177.17 135.896 175.632 134.909C174.157 133.939 172.784 132.823 171.532 131.579C170.351 130.381 169.252 129.104 168.242 127.759C166.242 125.139 164.572 122.529 162.852 120.189C161.316 117.981 159.52 115.967 157.502 114.189C155.823 112.754 153.93 111.59 151.892 110.739C150.35 110.099 148.71 109.731 147.042 109.649C145.619 109.617 144.2 109.82 142.842 110.248L143.102 110.138L143.882 109.869C144.232 109.759 144.682 109.679 145.202 109.569C145.815 109.483 146.434 109.443 147.052 109.449C148.746 109.48 150.42 109.819 151.992 110.449C154.079 111.284 156.019 112.445 157.742 113.888C159.801 115.655 161.632 117.67 163.192 119.888C164.942 122.218 166.632 124.829 168.622 127.409C169.625 128.735 170.714 129.994 171.882 131.179C173.105 132.391 174.445 133.48 175.882 134.429C177.394 135.394 178.994 136.211 180.662 136.869C182.392 137.519 184.18 138.001 186.002 138.308C189.597 138.906 193.276 138.76 196.812 137.879C200.095 136.991 203.198 135.54 205.982 133.589C208.712 131.809 211.212 129.959 213.752 128.489C216.08 127.074 218.629 126.06 221.292 125.489C225.167 124.708 229.18 124.967 232.922 126.239C233.93 126.578 234.91 126.996 235.852 127.489L236.572 127.899L236.802 128.129Z" fill="#FAFAFA"/>
<path d="M256.332 119.958C256.427 120.361 256.464 120.775 256.442 121.188C256.46 122.322 256.366 123.454 256.162 124.568C255.861 126.226 255.326 127.832 254.572 129.339C253.649 131.171 252.543 132.907 251.272 134.518C248.949 137.466 245.979 139.84 242.592 141.458C241.576 141.944 240.522 142.349 239.442 142.668C239.051 142.807 238.645 142.898 238.232 142.938C238.232 142.838 239.912 142.408 242.432 141.128C245.705 139.447 248.579 137.084 250.862 134.199C252.114 132.612 253.212 130.912 254.142 129.118C254.898 127.659 255.456 126.105 255.802 124.498C256.064 122.996 256.241 121.481 256.332 119.958Z" fill="#FAFAFA"/>
<path d="M268.432 167.689C268.432 167.689 268.292 167.639 268.052 167.479C267.704 167.264 267.37 167.027 267.052 166.769C265.832 165.822 264.751 164.707 263.842 163.459C260.891 159.265 259.315 154.257 259.332 149.129C259.437 144.053 260.31 139.022 261.922 134.209C262.492 132.349 263.002 130.869 263.362 129.849C263.531 129.311 263.738 128.786 263.982 128.279C263.882 128.831 263.742 129.376 263.562 129.909C263.232 131.039 262.792 132.519 262.272 134.309C260.778 139.111 259.963 144.1 259.852 149.129C259.829 154.165 261.312 159.093 264.112 163.279C265.343 164.94 266.797 166.424 268.432 167.689Z" fill="#FAFAFA"/>
<path d="M292.012 122.898C291.701 123.113 291.365 123.291 291.012 123.428C290.372 123.728 289.442 124.138 288.262 124.578C285.172 125.758 281.879 126.315 278.572 126.218C275.233 126.089 272.015 124.937 269.352 122.918C268.561 122.304 267.855 121.588 267.252 120.788C267.012 120.51 266.817 120.196 266.672 119.858C267.549 120.875 268.524 121.803 269.582 122.628C272.224 124.498 275.349 125.564 278.582 125.698C281.828 125.784 285.063 125.287 288.132 124.228C290.552 123.448 291.972 122.818 292.012 122.898Z" fill="#FAFAFA"/>
<path d="M143.222 144.978C143.132 144.978 142.732 143.418 141.802 140.978C139.376 134.55 135.514 128.76 130.512 124.048C128.602 122.248 127.302 121.258 127.352 121.188C127.711 121.351 128.047 121.559 128.352 121.808C129.202 122.43 130.016 123.098 130.792 123.808C135.99 128.425 139.91 134.305 142.172 140.878C142.518 141.862 142.812 142.864 143.052 143.878C143.152 144.237 143.209 144.606 143.222 144.978Z" fill="#FAFAFA"/>
<path d="M154.902 146.699C154.842 146.887 154.755 147.066 154.642 147.229C154.361 147.725 154.044 148.199 153.692 148.649C152.361 150.299 150.707 151.66 148.832 152.649C146.062 154.085 143.076 155.061 139.992 155.539C136.542 156.129 132.692 156.369 128.742 157.009C126.819 157.305 124.925 157.77 123.082 158.399C121.378 159.004 119.751 159.806 118.232 160.789C115.66 162.465 113.422 164.604 111.632 167.099C110.439 168.796 109.458 170.633 108.712 172.569C108.172 173.939 108.002 174.739 107.942 174.719C107.954 174.521 107.991 174.326 108.052 174.139C108.17 173.582 108.327 173.034 108.522 172.499C109.204 170.512 110.149 168.625 111.332 166.889C113.108 164.316 115.363 162.11 117.972 160.389C119.515 159.372 121.173 158.543 122.912 157.919C124.78 157.276 126.701 156.797 128.652 156.489C132.652 155.849 136.492 155.629 139.912 155.069C142.954 154.617 145.906 153.693 148.662 152.329C150.512 151.395 152.165 150.116 153.532 148.559C154.472 147.399 154.852 146.669 154.902 146.699Z" fill="#FAFAFA"/>
<path d="M176.252 149.448C176.412 149.765 176.529 150.101 176.602 150.448C176.864 151.36 177.061 152.289 177.192 153.228C177.387 154.626 177.471 156.037 177.442 157.448C177.373 160.914 176.622 164.333 175.232 167.508C174.671 168.802 174.002 170.047 173.232 171.228C172.72 172.027 172.152 172.789 171.532 173.508C171.082 174.008 170.832 174.278 170.802 174.248C170.772 174.218 171.692 173.068 172.922 171.038C173.629 169.842 174.254 168.6 174.792 167.318C175.432 165.749 175.944 164.131 176.322 162.478C176.675 160.816 176.89 159.127 176.962 157.428C177.017 156.044 176.971 154.657 176.822 153.278C176.562 150.898 176.152 149.468 176.252 149.448Z" fill="#FAFAFA"/>
<path d="M238.572 164.609C236.421 163.69 234.164 163.045 231.852 162.689C229.516 162.497 227.166 162.591 224.852 162.969C225.477 162.644 226.154 162.434 226.852 162.349C230.201 161.706 233.667 162.118 236.772 163.529C237.432 163.777 238.042 164.143 238.572 164.609Z" fill="#FAFAFA"/>
<path d="M285.212 64.2485L275.152 89.2285L294.082 97.7085L298.942 76.4685L285.212 64.2485Z" fill="#FFBE9D"/>
<path d="M306.932 88.9084L289.932 67.8084C286.502 63.0684 281.042 55.4384 280.792 54.8084C280.442 53.8084 280.312 46.9884 280.472 45.2584C280.464 43.0384 280.321 40.8209 280.042 38.6184L266.042 43.9284L263.052 33.1284L261.132 33.7284C261.132 33.7284 256.062 42.4984 257.632 47.4884C259.202 52.4784 265.832 54.7384 267.472 55.7484C269.112 56.7584 275.342 59.4384 282.372 70.0484L283.502 71.6884L286.352 75.8084L299.352 94.5084C299.709 95.0388 300.17 95.4912 300.707 95.8385C301.244 96.1857 301.846 96.4205 302.476 96.5287C303.106 96.6369 303.751 96.6162 304.373 96.4679C304.995 96.3196 305.58 96.0467 306.094 95.6658C306.607 95.285 307.038 94.8039 307.361 94.2518C307.683 93.6997 307.89 93.0879 307.969 92.4535C308.049 91.8191 307.999 91.1753 307.822 90.5608C307.646 89.9463 307.346 89.374 306.942 88.8784L306.932 88.9084Z" fill="#455A64"/>
<path d="M273.542 41.0386L269.882 30.7186L271.202 30.2886C271.202 30.2886 277.662 34.2886 279.052 38.9486L273.542 41.0386Z" fill="#455A64"/>
<path d="M269.632 54.6685L269.792 54.5985L270.232 54.3985L271.882 53.6585L277.882 50.9385L277.732 50.8485C277.697 51.458 277.697 52.0691 277.732 52.6786C277.744 53.3679 277.893 54.0481 278.172 54.6786C278.862 55.8586 279.702 57.0185 280.562 58.2585C282.292 60.7085 284.212 63.3685 286.242 66.1285C286.534 66.4575 286.734 66.8576 286.822 67.2886C286.869 67.5989 286.84 67.916 286.738 68.2128C286.636 68.5095 286.463 68.7773 286.236 68.9932C286.008 69.2092 285.732 69.367 285.43 69.4532C285.128 69.5395 284.81 69.5516 284.502 69.4885C284.116 69.4004 283.766 69.1942 283.502 68.8985C283.252 68.5885 283.002 68.2185 282.752 67.8985L281.282 65.8985L276.212 59.0585C275.857 58.5931 275.436 58.1821 274.962 57.8385C274.522 57.5085 274.092 57.2285 273.692 56.9585C272.882 56.4385 272.162 56.0185 271.572 55.6885C270.982 55.3585 270.512 55.1085 270.202 54.9385L269.832 54.7585H269.702C269.702 54.7585 269.702 54.7585 269.822 54.8285L270.172 55.0386L271.512 55.8285C272.102 56.1785 272.802 56.6086 273.602 57.1385C274.002 57.4085 274.432 57.6985 274.852 58.0285C275.316 58.3633 275.724 58.7681 276.062 59.2285L281.062 66.0985L282.522 68.0985C282.772 68.4385 283.002 68.7685 283.282 69.0985C283.598 69.4375 284.01 69.6714 284.462 69.7685C284.813 69.8418 285.175 69.8292 285.52 69.732C285.864 69.6348 286.18 69.4559 286.44 69.2103C286.7 68.9648 286.897 68.66 287.014 68.3219C287.131 67.9838 287.165 67.6224 287.112 67.2685C287.016 66.7948 286.799 66.3539 286.482 65.9885C284.482 63.2285 282.482 60.5785 280.782 58.1285C279.932 56.8985 279.072 55.7285 278.402 54.5885C278.142 54.005 277.996 53.377 277.972 52.7385C277.933 52.1359 277.933 51.5312 277.972 50.9286V50.7585L277.822 50.8285L271.822 53.6885L270.222 54.4685L269.812 54.6685H269.632Z" fill="#263238"/>
<g opacity="0.3">
<path d="M268.332 49.6386L274.622 47.3086L274.582 43.7886L268.232 46.2086L268.332 49.6386Z" fill="black"/>
</g>
<path d="M273.242 43.5786C272.984 44.4194 272.899 45.304 272.992 46.1786C272.917 47.0533 273.019 47.9342 273.292 48.7686C273.558 47.9292 273.643 47.0432 273.542 46.1686C273.617 45.2939 273.515 44.413 273.242 43.5786Z" fill="#263238"/>
<path d="M271.332 44.2786C271.075 45.1197 270.994 46.0046 271.092 46.8786C271.011 47.7534 271.113 48.6355 271.392 49.4686C271.651 48.6278 271.733 47.7425 271.632 46.8686C271.713 45.9938 271.611 45.1117 271.332 44.2786Z" fill="#263238"/>
<path d="M269.512 44.7285C269.253 45.5691 269.168 46.4539 269.262 47.3285C269.187 48.2032 269.289 49.0841 269.562 49.9185C269.821 49.0777 269.906 48.1932 269.812 47.3185C269.887 46.4438 269.785 45.5629 269.512 44.7285Z" fill="#263238"/>
<path d="M275.802 87.6184L276.482 82.7284L276.942 69.7284L276.442 60.6384C276.442 60.6384 279.442 60.8684 281.112 64.7884C282.782 68.7084 282.812 74.6984 282.812 74.6984C282.812 74.6984 295.512 79.6984 291.032 91.6984" fill="#FFBE9D"/>
<path d="M292.992 67.7886C293.107 66.7755 292.904 65.7518 292.412 64.8586C292.085 64.3885 291.665 63.99 291.178 63.6874C290.692 63.3848 290.149 63.1845 289.582 63.0986C288.559 62.8988 287.506 62.8988 286.482 63.0986L288.872 66.4286C288.389 68.4338 288.035 70.468 287.812 72.5186C287.682 73.5686 287.692 74.8786 288.602 75.4186C288.997 75.5952 289.439 75.639 289.861 75.5435C290.282 75.4479 290.662 75.2181 290.942 74.8886C291.478 74.1986 291.847 73.3945 292.022 72.5386C292.522 70.9966 292.848 69.4033 292.992 67.7886Z" fill="#FFBE9D"/>
<path d="M296.582 71.6385C296.687 70.6257 296.485 69.6049 296.002 68.7085C295.674 68.2372 295.252 67.8381 294.764 67.5354C294.276 67.2328 293.731 67.0331 293.162 66.9485C292.142 66.7476 291.092 66.7476 290.072 66.9485L292.452 70.2785C291.974 72.2847 291.62 74.3185 291.392 76.3685C291.272 77.3685 291.272 78.7285 292.192 79.2685C292.587 79.4451 293.029 79.4889 293.451 79.3933C293.872 79.2978 294.252 79.068 294.532 78.7385C295.065 78.0478 295.431 77.2437 295.602 76.3885C296.106 74.8468 296.434 73.2535 296.582 71.6385Z" fill="#FFBE9D"/>
<path d="M300.332 75.4385C300.444 74.4222 300.242 73.3961 299.752 72.4985C299.425 72.0284 299.005 71.6299 298.518 71.3273C298.032 71.0247 297.489 70.8243 296.922 70.7385C295.898 70.5484 294.847 70.5484 293.822 70.7385L296.212 74.0685C295.729 76.0737 295.375 78.1079 295.152 80.1585C295.022 81.2185 295.032 82.5185 295.942 83.0685C296.338 83.2439 296.78 83.2861 297.202 83.1888C297.624 83.0914 298.003 82.8597 298.282 82.5285C298.812 81.8199 299.172 80.9986 299.332 80.1285C299.838 78.6069 300.173 77.0339 300.332 75.4385Z" fill="#FFBE9D"/>
<path d="M292.732 65.4385C293.155 66.8812 293.22 68.405 292.922 69.8785C292.794 71.3741 292.311 72.8175 291.512 74.0885C291.362 74.0285 292.082 72.1885 292.412 69.7985C292.742 67.4085 292.582 65.4585 292.732 65.4385Z" fill="#EB996E"/>
<path d="M296.572 70.6584C296.852 71.9483 296.855 73.2829 296.581 74.5741C296.307 75.8652 295.762 77.0835 294.982 78.1484C294.842 78.0684 295.652 76.5284 296.072 74.4684C296.492 72.4084 296.412 70.6684 296.572 70.6584Z" fill="#EB996E"/>
<path d="M281.332 65.4385C281.583 66.2962 281.767 67.1722 281.882 68.0585C282.172 69.7085 282.562 72.0585 283.002 74.8285L282.842 74.6285C284.721 75.2795 286.436 76.3325 287.866 77.7143C289.296 79.096 290.407 80.773 291.122 82.6285C291.732 84.1547 292.071 85.7757 292.122 87.4185C292.151 88.5203 292.047 89.6216 291.812 90.6985C291.757 91.0998 291.642 91.4907 291.472 91.8585C291.686 90.3953 291.78 88.917 291.752 87.4385C291.652 85.8459 291.287 84.2811 290.672 82.8085C289.941 80.9998 288.829 79.3695 287.412 78.0285C286.055 76.7331 284.44 75.7382 282.672 75.1085H282.532V74.9685C282.132 72.1985 281.812 69.8385 281.602 68.1685C281.447 67.2661 281.357 66.3538 281.332 65.4385Z" fill="#EB996E"/>
<path d="M280.012 38.5886L279.792 38.6786L279.152 38.9186L276.792 39.7986L269.032 42.7986L261.282 45.7986L258.922 46.6786L258.272 46.9086C258.132 46.9686 258.052 46.9886 258.052 46.9786L258.262 46.8786L258.892 46.6086L261.222 45.6086C263.222 44.8186 265.932 43.7386 268.952 42.6086C271.972 41.4786 274.732 40.4186 276.742 39.7086C277.742 39.3586 278.552 39.0786 279.122 38.8986L279.772 38.6886C279.846 38.6423 279.927 38.6085 280.012 38.5886Z" fill="#263238"/>
<path d="M193.162 154.948C193.162 154.948 205.622 151.538 207.752 151.458C209.382 151.408 218.832 153.008 223.182 153.758C223.997 153.88 224.732 154.315 225.231 154.971C225.73 155.626 225.953 156.451 225.852 157.268C225.832 157.37 225.805 157.47 225.772 157.568C225.583 158.068 225.258 158.505 224.834 158.83C224.41 159.155 223.904 159.356 223.372 159.408C224.001 159.721 224.515 160.223 224.841 160.844C225.168 161.465 225.291 162.174 225.192 162.868C224.852 165.328 221.802 165.398 221.802 165.398C221.802 165.398 221.952 165.558 222.162 165.838C222.464 166.269 222.648 166.772 222.694 167.296C222.74 167.821 222.648 168.348 222.426 168.825C222.204 169.302 221.861 169.713 221.43 170.015C220.999 170.318 220.497 170.502 219.972 170.548L218.582 170.648C219.047 170.927 219.425 171.329 219.675 171.808C219.926 172.288 220.039 172.828 220.002 173.368C219.462 176.598 212.082 176.108 212.082 176.108L192.262 175.728L193.162 154.948Z" fill="#FFBE9D"/>
<path d="M222.092 149.678C221.852 150.678 221.252 152.968 219.282 153.678L209.282 151.758C209.282 151.758 217.152 150.318 218.402 149.198C218.905 148.743 219.459 148.347 220.052 148.018C220.301 147.893 220.58 147.842 220.857 147.872C221.133 147.902 221.395 148.011 221.611 148.187C221.827 148.362 221.987 148.596 222.072 148.861C222.158 149.126 222.165 149.41 222.092 149.678Z" fill="#FFBE9D"/>
<path d="M214.042 152.418C214.042 152.588 216.042 153.098 218.572 153.418C221.102 153.738 223.162 153.978 223.192 153.788C223.222 153.598 221.192 153.108 218.662 152.788C216.132 152.468 214.072 152.238 214.042 152.418Z" fill="#EB996E"/>
<path d="M215.442 158.358C215.442 158.528 217.122 159.108 219.332 159.358C221.542 159.608 223.332 159.449 223.332 159.269C223.332 159.089 221.562 158.959 219.392 158.709C217.222 158.459 215.482 158.178 215.442 158.358Z" fill="#EB996E"/>
<path d="M210.442 156.868C210.282 156.938 210.392 157.518 210.902 157.968C211.412 158.418 211.992 158.458 212.042 158.288C212.092 158.118 211.732 157.829 211.342 157.479C210.952 157.129 210.612 156.788 210.442 156.868Z" fill="#EB996E"/>
<path d="M213.332 164.549C213.332 164.729 215.242 165.109 217.622 165.389C220.002 165.669 221.972 165.759 222.002 165.579C222.032 165.399 220.102 165.029 217.702 164.739C215.302 164.449 213.382 164.369 213.332 164.549Z" fill="#EB996E"/>
<path d="M208.042 160.999C207.962 160.999 207.782 161.139 207.672 161.529C207.543 162.047 207.619 162.594 207.882 163.059C208.143 163.534 208.576 163.892 209.092 164.059C209.472 164.159 209.722 164.059 209.732 164.009C209.742 163.959 208.912 163.589 208.452 162.759C207.992 161.929 208.212 161.059 208.042 160.999Z" fill="#EB996E"/>
<path d="M210.902 170.539C210.902 170.719 212.662 170.919 214.832 170.979C217.002 171.039 218.772 170.979 218.772 170.769C218.772 170.559 217.022 170.389 214.852 170.329C212.682 170.269 210.912 170.359 210.902 170.539Z" fill="#EB996E"/>
<path d="M205.792 166.529C205.712 166.529 205.552 166.699 205.502 167.089C205.465 167.594 205.579 168.099 205.832 168.539C206.432 169.539 207.212 169.989 207.322 169.879C207.432 169.769 206.902 169.059 206.402 168.219C205.902 167.379 205.952 166.579 205.792 166.529Z" fill="#EB996E"/>
<path d="M154.202 56.4186C153.802 53.2086 150.282 50.9586 147.092 51.4186C145.507 51.7415 144.043 52.5032 142.869 53.617C141.696 54.7309 140.858 56.152 140.452 57.7186C139.676 60.879 140.03 64.2116 141.452 67.1386C142.452 69.4586 144.212 71.7486 146.702 72.2586C147.859 72.4118 149.036 72.2651 150.12 71.8325C151.204 71.4 152.159 70.6962 152.892 69.7886C154.341 67.9569 155.458 65.8856 156.192 63.6686L154.202 56.4186Z" fill="#263238"/>
<path d="M158.262 55.7185C157.731 55.4378 157.118 55.3551 156.532 55.4852C155.945 55.6153 155.425 55.9496 155.062 56.4285C154.365 57.4102 154.013 58.5954 154.062 59.7985C154.006 61.7938 154.388 63.7772 155.182 65.6085C155.267 65.8961 155.412 66.162 155.609 66.3882C155.806 66.6143 156.049 66.7952 156.322 66.9185C156.603 66.9817 156.895 66.9625 157.165 66.8631C157.435 66.7637 157.67 66.5885 157.842 66.3585C158.186 65.8949 158.415 65.3571 158.512 64.7885C159.313 61.4471 159.143 57.9466 158.022 54.6985" fill="#FFA400"/>
<path d="M214.922 40.2786C220.542 37.5286 223.772 34.6786 223.302 32.3486C222.832 30.0186 211.522 26.4086 208.872 25.4286C202.622 23.1086 196.712 28.6286 186.872 30.6086C167.702 34.4586 152.942 41.4786 153.872 46.2886C154.332 48.6086 158.372 49.9886 164.572 50.3686" fill="#FFA400"/>
<g opacity="0.4">
<path d="M211.572 40.7786C216.572 38.3386 219.572 35.7786 219.002 33.7786C217.482 28.1186 203.682 28.7786 186.682 32.2386C169.682 35.6986 156.612 41.8386 157.472 46.1286C157.882 48.1886 161.472 49.4086 166.952 49.7486" fill="black"/>
</g>
<path d="M166.982 47.9484C166.42 44.7919 166.496 41.5548 167.206 38.4282C167.916 35.3016 169.245 32.3489 171.115 29.7445C172.985 27.14 175.358 24.9367 178.093 23.2645C180.829 21.5923 183.872 20.4851 187.042 20.0084C199.732 18.1184 211.562 27.0084 214.152 39.5584C216.422 50.5584 218.462 61.7084 218.632 65.7784C219.132 78.0584 212.202 83.2184 209.372 84.7784C208.347 85.2228 207.278 85.558 206.182 85.7784C206.172 85.7807 206.162 85.7852 206.153 85.7916C206.144 85.798 206.136 85.8061 206.131 85.8155C206.125 85.8248 206.121 85.8352 206.12 85.8461C206.119 85.8569 206.119 85.8679 206.122 85.8784L209.602 99.8184C211.332 108.988 206.602 117.488 197.472 119.328C188.342 121.168 180.692 114.468 178.782 105.328L166.982 47.9484Z" fill="#FFBE9D"/>
<path d="M210.402 47.2085C210.497 47.7069 210.399 48.2228 210.128 48.6517C209.857 49.0806 209.433 49.3904 208.942 49.5185C208.703 49.5864 208.452 49.6057 208.205 49.5753C207.957 49.545 207.719 49.4655 207.502 49.3416C207.286 49.2177 207.097 49.0519 206.946 48.8539C206.795 48.6558 206.685 48.4296 206.622 48.1885C206.527 47.69 206.625 47.1741 206.896 46.7452C207.167 46.3163 207.591 46.0065 208.082 45.8785C208.322 45.8105 208.573 45.7912 208.82 45.8216C209.067 45.8519 209.306 45.9314 209.522 46.0553C209.738 46.1792 209.927 46.345 210.079 46.5431C210.23 46.7411 210.34 46.9673 210.402 47.2085Z" fill="#263238"/>
<path d="M211.502 43.0486C211.312 43.3386 209.642 42.5586 207.582 42.9786C205.522 43.3986 204.222 44.7286 203.952 44.5286C203.682 44.3286 203.952 43.9386 204.532 43.3286C205.297 42.5267 206.294 41.9847 207.382 41.7786C208.454 41.5586 209.567 41.6846 210.562 42.1386C211.332 42.4986 211.592 42.9086 211.502 43.0486Z" fill="#263238"/>
<path d="M190.142 51.2786C190.237 51.777 190.139 52.2929 189.868 52.7218C189.597 53.1508 189.173 53.4606 188.682 53.5886C188.441 53.6597 188.187 53.6815 187.937 53.6527C187.687 53.624 187.445 53.5452 187.226 53.4212C187.006 53.2971 186.814 53.1303 186.661 52.9306C186.508 52.7309 186.396 52.5024 186.332 52.2586C186.237 51.7602 186.335 51.2443 186.606 50.8154C186.877 50.3865 187.301 50.0766 187.792 49.9486C188.034 49.8761 188.288 49.8532 188.538 49.8813C188.789 49.9094 189.032 49.9879 189.251 50.1122C189.471 50.2364 189.663 50.4038 189.816 50.6043C189.969 50.8047 190.08 51.0341 190.142 51.2786Z" fill="#263238"/>
<path d="M191.332 47.4986C191.152 47.7986 189.482 47.0186 187.422 47.4286C185.362 47.8386 184.062 49.1886 183.782 48.9786C183.652 48.8886 183.782 48.3886 184.362 47.7786C185.133 46.9846 186.127 46.444 187.212 46.2286C188.285 46.011 189.399 46.1406 190.392 46.5986C191.102 46.9586 191.412 47.3586 191.332 47.4986Z" fill="#263238"/>
<path d="M201.872 61.2784C202.889 60.7235 203.971 60.2969 205.092 60.0084C205.612 59.8484 206.092 59.6384 206.092 59.2684C206.028 58.7165 205.798 58.197 205.432 57.7784L203.062 54.0784C199.762 48.8084 197.252 44.4284 197.462 44.2984C197.672 44.1684 200.532 48.2984 203.842 53.6084L206.142 57.3384C206.599 57.9039 206.843 58.6116 206.832 59.3384C206.795 59.5394 206.711 59.7289 206.588 59.892C206.465 60.0551 206.305 60.1874 206.122 60.2784C205.848 60.4208 205.555 60.5251 205.252 60.5884C204.16 60.9636 203.024 61.1955 201.872 61.2784Z" fill="#263238"/>
<path d="M206.102 85.8086C206.102 85.8086 198.272 88.0586 187.102 84.0686C187.102 84.0686 192.362 93.9586 207.022 89.5586L206.102 85.8086Z" fill="#EB996E"/>
<path d="M201.992 66.4286C201.5 66.0134 200.911 65.7304 200.279 65.6062C199.648 65.4819 198.995 65.5206 198.382 65.7186C197.937 65.8497 197.524 66.0698 197.166 66.3654C196.809 66.661 196.515 67.0261 196.302 67.4386C196.092 67.8366 196.011 68.2901 196.07 68.7362C196.13 69.1823 196.326 69.599 196.632 69.9286C197.036 70.2329 197.521 70.409 198.026 70.434C198.53 70.459 199.031 70.3317 199.462 70.0686C200.371 69.5341 201.16 68.8194 201.782 67.9686C201.986 67.7592 202.146 67.511 202.252 67.2386C202.304 67.1103 202.316 66.9696 202.287 66.8344C202.259 66.6991 202.191 66.5753 202.092 66.4786" fill="#EB996E"/>
<path d="M196.092 63.9284C196.422 63.8384 196.872 66.0784 199.092 67.2784C201.312 68.4784 203.662 67.7584 203.742 68.0684C203.802 68.1984 203.302 68.6084 202.302 68.8384C200.993 69.1215 199.626 68.9338 198.442 68.3084C197.311 67.7035 196.455 66.6867 196.052 65.4684C195.792 64.5484 195.932 63.9484 196.092 63.9284Z" fill="#263238"/>
<path d="M190.782 40.8486C190.692 41.4486 188.582 41.5986 186.222 42.3786C183.862 43.1586 182.032 44.2086 181.612 43.7686C181.422 43.5586 181.662 42.9586 182.342 42.2586C183.261 41.377 184.37 40.7183 185.584 40.3334C186.797 39.9485 188.083 39.8476 189.342 40.0386C190.332 40.2186 190.812 40.5686 190.782 40.8486Z" fill="#263238"/>
<path d="M209.682 37.8886C209.412 38.4286 207.892 38.2286 206.182 38.5486C204.472 38.8686 203.092 39.5486 202.652 39.0686C202.462 38.8586 202.592 38.3486 203.142 37.7786C203.878 37.069 204.808 36.5949 205.815 36.4168C206.821 36.2387 207.858 36.3646 208.792 36.7786C209.492 37.1786 209.792 37.6286 209.682 37.8886Z" fill="#263238"/>
<path d="M195.962 28.2285C195.182 30.0437 194.01 31.6637 192.53 32.9725C191.05 34.2813 189.299 35.2464 187.402 35.7985C184.912 36.5085 181.952 36.6385 180.402 38.6885C179.252 40.1885 179.252 42.2285 178.992 44.0985C178.582 46.9485 179.302 50.2285 177.132 52.0985C175.432 53.5685 173.832 53.5285 172.792 55.5185C171.752 57.5085 171.952 60.3185 172.382 62.6485C172.812 64.9785 173.382 68.6485 171.472 70.1285C169.692 61.6885 165.132 52.6585 163.362 44.2185C163.018 42.9764 162.909 41.6806 163.042 40.3985C163.542 37.5385 166.282 35.6785 168.872 34.3985C176.222 30.7185 184.322 28.8285 192.322 26.9685" fill="#263238"/>
<path d="M218.072 31.0485C218.072 31.0485 209.012 11.6385 208.382 10.7285C207.752 9.81846 200.152 2.05846 185.742 2.28846L174.252 4.59846C174.252 4.59846 158.992 13.1285 156.812 17.6885C154.632 22.2485 157.232 41.8085 157.232 41.8085L188.042 28.3385L211.042 29.2785L218.072 31.0485Z" fill="#FFA400"/>
<path d="M181.512 0.70851L184.682 0.0685071C185.316 -0.0626671 185.974 -0.00462747 186.575 0.235404C187.176 0.475435 187.693 0.886866 188.062 1.41851C188.692 2.3643 189.158 3.40873 189.442 4.50851C190.392 8.03851 196.122 32.3785 196.122 32.3785L181.582 34.6085L175.972 4.25851L171.332 6.31851L171.242 5.41851C171.183 4.87257 171.291 4.32139 171.552 3.83851C171.735 3.50673 171.986 3.21804 172.29 2.99201C172.593 2.76599 172.942 2.60791 173.312 2.52851L181.512 0.70851Z" fill="#FFA400"/>
<path d="M214.442 33.8984L211.502 27.1284L187.572 24.6284L162.102 38.0384L163.702 46.0384C163.702 46.0384 184.652 32.3284 214.442 33.8984Z" fill="#455A64"/>
<path d="M208.872 25.4285L210.012 26.1585L218.752 30.3085C218.752 30.3085 202.962 28.3085 187.492 31.5685C172.022 34.8285 155.332 43.6485 155.332 43.6485L164.332 35.4085C165.603 33.356 167.272 31.5785 169.24 30.1805C171.208 28.7826 173.436 27.7925 175.792 27.2685L195.182 22.9785C197.513 22.4585 199.923 22.4073 202.273 22.8279C204.624 23.2485 206.867 24.1325 208.872 25.4285Z" fill="#FFA400"/>
<path d="M216.592 31.0386C216.592 31.0386 216.412 30.8986 216.022 30.7086C215.46 30.425 214.871 30.2004 214.262 30.0386C212.029 29.4483 209.732 29.1326 207.422 29.0986C199.822 28.9835 192.249 30.0426 184.972 32.2386C180.712 33.4186 176.622 34.4586 172.972 35.7486C169.771 36.9078 166.636 38.2432 163.582 39.7486C162.282 40.3986 161.132 41.0586 160.152 41.6786C159.253 42.159 158.479 42.8441 157.892 43.6786C157.54 44.2376 157.405 44.9065 157.512 45.5586C157.612 45.9986 157.782 46.1786 157.802 46.1686C157.685 45.78 157.659 45.3699 157.725 44.9695C157.79 44.5691 157.947 44.1891 158.182 43.8586C158.788 43.1234 159.55 42.5324 160.412 42.1286C161.412 41.5486 162.562 40.9485 163.862 40.3285C166.472 39.1285 169.672 37.7586 173.242 36.4986C176.812 35.2386 180.932 34.2486 185.242 33.0686C192.451 30.9113 199.928 29.7802 207.452 29.7086C209.722 29.6886 211.988 29.9064 214.212 30.3586C215.752 30.6986 216.542 31.1286 216.592 31.0386Z" fill="#263238"/>
<path d="M214.332 33.6785C217.102 39.8685 226.762 48.6785 217.502 57.2285C217.502 57.2285 214.582 43.2285 212.342 37.9985C211.773 36.4132 210.858 34.975 209.662 33.7885" fill="#263238"/>
<path d="M166.842 45.2585C163.686 45.8681 160.886 47.6701 159.024 50.2903C157.161 52.9105 156.38 56.1474 156.842 59.3285C157.152 60.9785 157.842 62.6085 157.632 64.3285C157.422 66.0485 156.552 67.3985 156.142 68.9885C155.332 72.1285 155.142 77.2985 156.252 80.3685C158.792 87.6685 168.052 96.6685 176.442 94.9885" fill="#263238"/>
<path d="M173.052 88.9384C173.925 89.1061 174.826 89.06 175.678 88.804C176.529 88.548 177.306 88.0898 177.942 87.4684C179.191 86.1982 180.084 84.6223 180.532 82.8984C181.319 80.1516 181.434 77.2558 180.867 74.4554C180.299 71.6549 179.067 69.0321 177.272 66.8084C179.359 63.0373 180.481 58.8084 180.537 54.4986C180.593 50.1889 179.581 45.9323 177.592 42.1084L165.832 45.5884L173.052 88.9384Z" fill="#263238"/>
<path d="M154.332 63.6085C153.858 64.3089 153.22 64.8823 152.472 65.2785C150.711 66.3713 148.629 66.8267 146.572 66.5685C144.511 66.3352 142.597 65.3869 141.162 63.8885C140.53 63.3023 140.123 62.5133 140.012 61.6584C140.39 62.3858 140.864 63.0586 141.422 63.6584C142.86 64.9941 144.684 65.8411 146.632 66.0784C148.584 66.3089 150.559 65.9244 152.282 64.9784C153.602 64.2384 154.262 63.5385 154.332 63.6085Z" fill="#455A64"/>
<path d="M153.432 62.0286C152.806 62.4257 152.099 62.6785 151.362 62.7686C149.593 63.1189 147.764 63.0126 146.048 62.4597C144.331 61.9068 142.784 60.9256 141.552 59.6086C141.011 59.0999 140.588 58.4786 140.312 57.7886C140.382 57.7886 140.852 58.4386 141.812 59.3486C143.063 60.5381 144.566 61.4309 146.208 61.9606C147.851 62.4903 149.592 62.6434 151.302 62.4086C152.612 62.2286 153.402 61.9486 153.432 62.0286Z" fill="#455A64"/>
<path d="M178.962 45.3486C178.994 45.7433 178.971 46.1405 178.892 46.5286C178.749 47.6013 178.498 48.6567 178.142 49.6786C176.983 53.0952 174.808 56.0757 171.907 58.2206C169.006 60.3654 165.518 61.5721 161.912 61.6786C160.831 61.7208 159.749 61.6504 158.682 61.4686C158.287 61.4285 157.899 61.3308 157.532 61.1786C158.981 61.3169 160.438 61.3603 161.892 61.3086C165.398 61.108 168.769 59.891 171.594 57.8062C174.42 55.7214 176.577 52.8591 177.802 49.5686C178.271 48.1858 178.658 46.7767 178.962 45.3486Z" fill="#455A64"/>
<path d="M179.332 62.9785C179.332 62.9785 179.162 63.2585 178.752 63.6685C178.151 64.2502 177.479 64.7541 176.752 65.1685C174.353 66.5214 171.637 67.2116 168.882 67.1685C166.173 67.1032 163.484 66.6864 160.882 65.9285C159.882 65.6485 159.082 65.4085 158.532 65.2185C158.238 65.1484 157.955 65.0373 157.692 64.8885C158.799 65.0435 159.895 65.2707 160.972 65.5685C163.572 66.2161 166.234 66.5783 168.912 66.6485C171.583 66.6834 174.222 66.0691 176.602 64.8585C177.551 64.2907 178.463 63.6628 179.332 62.9785Z" fill="#455A64"/>
<path d="M218.582 29.0284C218.342 28.9887 218.107 28.9215 217.882 28.8284L215.942 28.1284L208.812 25.5684L206.972 23.9184C206.351 23.2999 205.66 22.7562 204.912 22.2984C204.101 21.849 203.206 21.5732 202.282 21.4884C201.274 21.4527 200.266 21.5468 199.282 21.7684C195.202 22.4484 190.732 23.3984 186.072 24.4784C181.742 25.4784 177.602 26.4784 173.822 27.4784C172.902 27.6633 172.02 28.0013 171.212 28.4784C170.474 28.9213 169.835 29.5099 169.332 30.2084C168.402 31.6584 167.582 33.1184 166.802 34.4084L159.872 39.5284L157.962 40.9084C157.749 41.0772 157.521 41.2277 157.282 41.3584C157.471 41.1585 157.678 40.9776 157.902 40.8184L159.742 39.3584L166.462 34.1284V34.1884C167.242 32.8684 168.012 31.4384 168.972 29.9184C169.503 29.156 170.184 28.5095 170.972 28.0184C171.821 27.5368 172.743 27.1989 173.702 27.0184C177.482 26.0184 181.612 25.0184 185.962 24.0184C190.622 22.9384 195.102 22.0184 199.212 21.3284C200.22 21.1105 201.252 21.0264 202.282 21.0784C203.267 21.1706 204.222 21.4705 205.082 21.9584C205.854 22.4383 206.566 23.009 207.202 23.6584L209.012 25.3284H208.952L216.032 28.0384L217.942 28.7984C218.161 28.8601 218.374 28.937 218.582 29.0284Z" fill="#263238"/>
<path d="M179.912 25.6685C179.782 25.3466 179.688 25.0112 179.632 24.6685C179.482 24.0185 179.282 23.0885 179.042 21.9285C178.572 19.6185 177.952 16.4185 177.292 12.9285C176.982 11.1585 176.672 9.47851 176.392 7.92851C176.262 7.16851 176.142 6.43851 176.022 5.74851C176.003 5.61684 175.956 5.49079 175.884 5.37886C175.812 5.26693 175.717 5.17173 175.605 5.09969C175.494 5.02765 175.368 4.98045 175.236 4.96127C175.104 4.94209 174.97 4.95138 174.842 4.98851L172.272 5.98851C171.958 6.14723 171.62 6.25523 171.272 6.30851C171.551 6.10632 171.853 5.93845 172.172 5.80851C172.772 5.50851 173.602 5.09851 174.712 4.59851C174.89 4.53967 175.079 4.51937 175.265 4.53899C175.451 4.5586 175.631 4.61768 175.793 4.71228C175.955 4.80688 176.095 4.93484 176.203 5.08764C176.312 5.24045 176.386 5.4146 176.422 5.59851C176.562 6.28851 176.702 7.01851 176.852 7.77851C177.142 9.31851 177.452 10.9985 177.792 12.7785C178.442 16.3185 179.002 19.5285 179.382 21.8585C179.572 23.0185 179.722 23.9685 179.812 24.6185C179.899 24.9614 179.933 25.3155 179.912 25.6685Z" fill="#263238"/>
<path d="M193.802 22.5786C193.345 21.6576 192.993 20.6882 192.752 19.6886C192.202 17.8686 191.572 15.3286 190.902 12.5186C190.232 9.70859 189.662 7.14858 189.272 5.29858C189.011 4.31578 188.837 3.3119 188.752 2.29858C189.13 3.27173 189.425 4.27537 189.632 5.29858C190.112 7.12858 190.742 9.66858 191.412 12.4786C192.082 15.2886 192.642 17.6786 193.112 19.6786C193.4 20.6307 193.63 21.5991 193.802 22.5786Z" fill="#263238"/>
<path d="M218.332 62.7686C220.385 62.6788 222.401 62.1968 224.272 61.3486C226.3 60.4816 228.067 59.1034 229.402 57.3486C230.135 56.2266 230.626 54.964 230.843 53.6415C231.06 52.3191 230.998 50.9659 230.662 49.6686C230.372 48.3577 229.822 47.1181 229.046 46.0225C228.27 44.9269 227.283 43.9974 226.142 43.2886C224.151 42.2915 222.108 41.4002 220.022 40.6186C218.609 40.009 217.349 39.0937 216.332 37.9386C216.067 37.6309 215.836 37.2956 215.642 36.9386C215.522 36.6886 215.462 36.5486 215.482 36.5386C215.791 36.9934 216.125 37.4307 216.482 37.8486C217.54 38.9057 218.803 39.7359 220.192 40.2886C222.315 41.031 224.392 41.8992 226.412 42.8886C227.618 43.6195 228.662 44.5876 229.482 45.7341C230.302 46.8807 230.88 48.1818 231.182 49.5586C231.538 50.9257 231.599 52.3527 231.363 53.7454C231.127 55.1381 230.598 56.4649 229.812 57.6386C228.419 59.4568 226.565 60.869 224.442 61.7286C223.04 62.3409 221.547 62.7193 220.022 62.8486C219.61 62.8782 219.195 62.8782 218.782 62.8486C218.628 62.8523 218.475 62.8251 218.332 62.7686Z" fill="#263238"/>
<path d="M143.482 58.7885C143.482 58.7885 143.392 58.7885 143.252 58.6185C143.051 58.4359 142.867 58.2351 142.702 58.0185C142.11 57.2062 141.722 56.2628 141.572 55.2685C141.329 53.7708 141.607 52.2348 142.362 50.9185C142.865 50.1394 143.527 49.4762 144.306 48.9729C145.084 48.4697 145.961 48.138 146.878 47.9999C147.794 47.8618 148.73 47.9204 149.622 48.1719C150.514 48.4234 151.343 48.862 152.052 49.4585C153.164 50.4883 153.887 51.8687 154.102 53.3685C154.254 54.3757 154.162 55.4046 153.832 56.3685C153.744 56.6243 153.626 56.8692 153.482 57.0985C153.392 57.2585 153.332 57.3385 153.322 57.3285C153.312 57.3185 153.462 56.9685 153.632 56.3285C153.872 55.3972 153.91 54.4254 153.742 53.4785C153.495 52.0865 152.791 50.8165 151.742 49.8685C151.078 49.327 150.308 48.9303 149.482 48.7038C148.656 48.4773 147.791 48.4259 146.944 48.553C146.096 48.6801 145.285 48.9829 144.561 49.4419C143.838 49.9009 143.218 50.506 142.742 51.2185C142.035 52.425 141.74 53.8293 141.902 55.2185C142.021 56.1686 142.341 57.0824 142.842 57.8985C143.242 58.4785 143.512 58.7485 143.482 58.7885Z" fill="#263238"/>
<path d="M174.602 93.3286C174.471 93.4012 174.33 93.4519 174.182 93.4786C173.902 93.5686 173.492 93.6686 172.952 93.7986C171.428 94.1606 169.876 94.3914 168.312 94.4886C165.971 94.6718 163.619 94.3089 161.442 93.4286C158.8 92.2182 156.629 90.1734 155.262 87.6086C153.891 85.0751 153.172 82.2396 153.172 79.3586C153.175 77.0259 153.511 74.7057 154.172 72.4686C154.612 70.9708 155.16 69.507 155.812 68.0886C156.042 67.5886 156.232 67.1986 156.372 66.9486C156.432 66.8126 156.51 66.6849 156.602 66.5686C156.435 67.1138 156.235 67.6482 156.002 68.1686C155.425 69.6048 154.934 71.074 154.532 72.5686C153.918 74.7759 153.612 77.0575 153.622 79.3486C153.644 82.1449 154.355 84.8928 155.692 87.3486C156.998 89.8177 159.073 91.7941 161.602 92.9786C163.73 93.8643 166.031 94.2574 168.332 94.1286C169.879 94.0653 171.42 93.8915 172.942 93.6086C173.489 93.4793 174.043 93.3857 174.602 93.3286Z" fill="#263238"/>
<path d="M153.262 68.6386C153.25 68.801 153.209 68.96 153.142 69.1086C152.985 69.5578 152.77 69.9847 152.502 70.3786C151.502 71.8402 150.018 72.9025 148.312 73.3786C147.144 73.7261 145.907 73.7811 144.712 73.5386C143.338 73.2562 142.05 72.6531 140.952 71.7786C139.74 70.822 138.761 69.6009 138.092 68.2086C137.394 66.7048 137.032 65.0667 137.032 63.4086C137.019 60.205 138.122 57.0968 140.152 54.6186C140.947 53.5794 141.966 52.7324 143.133 52.1404C144.299 51.5484 145.584 51.2265 146.892 51.1986C148.665 51.1893 150.373 51.8625 151.662 53.0786C152.141 53.5034 152.508 54.039 152.732 54.6386C152.38 54.1297 151.978 53.6573 151.532 53.2286C150.243 52.123 148.591 51.5319 146.892 51.5686C145.649 51.6194 144.432 51.9464 143.33 52.5259C142.228 53.1053 141.269 53.9226 140.522 54.9186C138.578 57.3207 137.519 60.3182 137.522 63.4086C137.523 64.9894 137.864 66.5515 138.522 67.9886C139.156 69.3155 140.079 70.484 141.222 71.4086C142.257 72.2403 143.468 72.8251 144.762 73.1186C145.897 73.3586 147.073 73.3244 148.192 73.0186C149.834 72.5918 151.284 71.6271 152.312 70.2786C152.673 69.7584 152.99 69.2099 153.262 68.6386Z" fill="#263238"/>
<path fill-rule="evenodd" clip-rule="evenodd" d="M153.736 176.643H397.693C402.725 176.643 406.708 180.732 406.708 185.659V354.762C406.708 359.794 402.62 363.778 397.693 363.778H153.736C148.703 363.778 144.719 359.689 144.719 354.762V185.764C144.615 180.732 148.703 176.643 153.736 176.643Z" fill="#4A4B55"/>
<path d="M315.29 354.657H235.928V359.794H315.29V354.657Z" fill="#7F7F8B"/>
<path d="M420.442 354.657V356.754C420.442 361.157 417.402 364.721 413.628 364.721H138.324C134.55 364.721 131.51 361.157 131.51 356.754V354.657H241.065C242.009 356.544 243.686 357.802 245.678 357.802H306.274C307.742 357.802 309.105 357.068 310.048 356.02C310.363 355.601 310.677 355.181 310.887 354.762H420.442V354.657Z" fill="#C1C5D5"/>
<path fill-rule="evenodd" clip-rule="evenodd" d="M398.426 187.022V346.899C398.426 347.947 397.588 348.681 396.644 348.681H154.784C153.736 348.681 153.001 347.843 153.001 346.899V187.022C153.001 185.973 153.84 185.24 154.784 185.24H396.644C397.588 185.24 398.426 185.973 398.426 187.022Z" fill="#171924"/>
<path d="M275.661 182.618C276.588 182.618 277.339 181.868 277.339 180.941C277.339 180.015 276.588 179.264 275.661 179.264C274.735 179.264 273.984 180.015 273.984 180.941C273.984 181.868 274.735 182.618 275.661 182.618Z" fill="#171924"/>
<path d="M398.427 187.022V346.899C398.427 347.947 397.588 348.681 396.645 348.681H154.784C153.736 348.681 153.002 347.843 153.002 346.899V187.022C153.002 185.973 153.841 185.24 154.784 185.24H396.645C397.588 185.24 398.427 185.973 398.427 187.022Z" fill="#F1F3F9"/>
<path fill-rule="evenodd" clip-rule="evenodd" d="M222.509 185.24V348.681H154.679C153.631 348.681 152.897 347.843 152.897 346.899V187.022C152.897 185.973 153.736 185.24 154.679 185.24H222.509Z" fill="#DB324D"/>
<path opacity="0.3" d="M186.969 242.376C196.349 242.376 203.953 235.007 203.953 225.917C203.953 216.826 196.349 209.457 186.969 209.457C177.589 209.457 169.985 216.826 169.985 225.917C169.985 235.007 177.589 242.376 186.969 242.376Z" fill="white"/>
<path opacity="0.2" d="M207.832 256.844H166.106C164.324 256.844 162.856 255.166 162.856 253.174C162.856 251.182 164.324 249.505 166.106 249.505H207.832C209.614 249.505 211.082 251.182 211.082 253.174C211.082 255.166 209.614 256.844 207.832 256.844Z" fill="white"/>
<path opacity="0.1" d="M203.848 266.489H170.09C168.937 266.489 167.993 265.44 167.993 264.182C167.993 262.924 168.937 261.876 170.09 261.876H203.848C205.001 261.876 205.944 262.924 205.944 264.182C205.944 265.44 205.001 266.489 203.848 266.489Z" fill="white"/>
<path d="M383.33 328.762L238.864 328.238C237.815 328.238 236.976 327.294 236.976 326.141V216.9C236.976 215.747 237.815 214.804 238.864 214.804L383.33 215.328C384.378 215.328 385.217 216.271 385.217 217.425V326.561C385.217 327.819 384.378 328.762 383.33 328.762Z" fill="white"/>
<path d="M368.338 229.9C368.338 231.368 367.185 232.626 365.717 232.626L259.622 232.102C258.154 232.102 256.896 230.844 256.896 229.376C256.896 227.908 258.154 226.65 259.622 226.65L365.612 227.174C367.08 227.174 368.338 228.328 368.338 229.9Z" fill="#B9B9BE"/>
<path d="M351.669 241.118L258.363 240.594C257.525 240.594 256.896 239.86 256.896 238.916C256.896 237.973 257.525 237.239 258.363 237.239L351.669 237.763C352.507 237.763 353.137 238.497 353.137 239.44C353.137 240.384 352.507 241.118 351.669 241.118Z" fill="#B9B9BE"/>
<path d="M340.136 256.739L281.218 256.215C280.484 256.215 279.96 255.586 279.96 254.852C279.96 254.118 280.484 253.489 281.218 253.489L340.136 254.013C340.87 254.013 341.395 254.642 341.395 255.376C341.29 256.11 340.765 256.739 340.136 256.739Z" fill="#D5D5DD"/>
<path d="M307.427 263.868L281.218 263.343C280.484 263.343 279.96 262.714 279.96 261.981C279.96 261.247 280.484 260.618 281.218 260.618L307.427 261.142C308.161 261.142 308.685 261.771 308.685 262.505C308.685 263.239 308.056 263.868 307.427 263.868Z" fill="#D5D5DD"/>
<path d="M270.105 265.65H258.573C257.63 265.65 256.896 264.811 256.896 263.763V253.174C256.896 252.126 257.63 251.287 258.573 251.287H270.105C271.049 251.287 271.783 252.126 271.783 253.174V263.763C271.783 264.811 271.049 265.65 270.105 265.65Z" fill="#D5D5DD"/>
<path d="M340.136 282.319L281.218 281.795C280.484 281.795 279.96 281.166 279.96 280.432C279.96 279.698 280.484 279.069 281.218 279.069L340.136 279.593C340.87 279.593 341.395 280.222 341.395 280.956C341.29 281.69 340.765 282.319 340.136 282.319Z" fill="#D5D5DD"/>
<path d="M307.427 289.448L281.218 288.924C280.484 288.924 279.96 288.295 279.96 287.561C279.96 286.827 280.484 286.198 281.218 286.198L307.427 286.722C308.161 286.722 308.685 287.351 308.685 288.085C308.685 288.819 308.056 289.448 307.427 289.448Z" fill="#D5D5DD"/>
<path d="M270.105 291.23H258.573C257.63 291.23 256.896 290.391 256.896 289.343V278.754C256.896 277.706 257.63 276.867 258.573 276.867H270.105C271.049 276.867 271.783 277.706 271.783 278.754V289.343C271.783 290.391 271.049 291.23 270.105 291.23Z" fill="#D5D5DD"/>
<path d="M340.136 308.319L281.218 307.795C280.484 307.795 279.96 307.166 279.96 306.432C279.96 305.698 280.484 305.069 281.218 305.069L340.136 305.593C340.87 305.593 341.395 306.222 341.395 306.956C341.29 307.69 340.765 308.319 340.136 308.319Z" fill="#D5D5DD"/>
<path d="M307.427 315.448L281.218 314.924C280.484 314.924 279.96 314.295 279.96 313.561C279.96 312.827 280.484 312.198 281.218 312.198L307.427 312.722C308.161 312.722 308.685 313.351 308.685 314.085C308.685 314.819 308.056 315.448 307.427 315.448Z" fill="#D5D5DD"/>
<path d="M270.105 317.125H258.573C257.63 317.125 256.896 316.287 256.896 315.238V304.65C256.896 303.601 257.63 302.762 258.573 302.762H270.105C271.049 302.762 271.783 303.601 271.783 304.65V315.238C271.783 316.287 271.049 317.125 270.105 317.125Z" fill="#D5D5DD"/>
<path d="M388.853 198H159.627C158.313 198 157.247 199.066 157.247 200.38V334.409C157.247 335.723 158.313 336.789 159.627 336.789H388.853C390.168 336.789 391.233 335.723 391.233 334.409V200.38C391.233 199.066 390.168 198 388.853 198Z" fill="#EBEBEB"/>
<path d="M176.434 203.379C176.434 203.749 176.324 204.111 176.118 204.419C175.912 204.727 175.62 204.966 175.278 205.108C174.935 205.249 174.559 205.286 174.196 205.213C173.833 205.14 173.5 204.961 173.238 204.699C172.977 204.437 172.799 204.103 172.728 203.739C172.657 203.376 172.695 203 172.837 202.658C172.98 202.316 173.221 202.025 173.53 201.82C173.838 201.615 174.2 201.507 174.571 201.508C174.816 201.508 175.059 201.557 175.286 201.651C175.512 201.745 175.718 201.883 175.891 202.057C176.064 202.23 176.201 202.437 176.294 202.664C176.388 202.891 176.435 203.134 176.434 203.379Z" fill="#263238"/>
<path d="M165.145 203.379C165.145 203.749 165.035 204.111 164.829 204.419C164.623 204.727 164.33 204.966 163.988 205.108C163.646 205.249 163.269 205.286 162.906 205.213C162.543 205.14 162.21 204.961 161.949 204.699C161.687 204.437 161.51 204.103 161.438 203.739C161.367 203.376 161.405 203 161.548 202.658C161.691 202.316 161.931 202.025 162.24 201.82C162.549 201.615 162.911 201.507 163.281 201.508C163.527 201.508 163.769 201.557 163.996 201.651C164.222 201.745 164.428 201.883 164.601 202.057C164.774 202.23 164.912 202.437 165.005 202.664C165.098 202.891 165.145 203.134 165.145 203.379Z" fill="#263238"/>
<path d="M170.545 203.379C170.545 203.749 170.435 204.111 170.23 204.419C170.024 204.727 169.731 204.966 169.389 205.108C169.047 205.249 168.67 205.286 168.307 205.213C167.944 205.14 167.611 204.961 167.349 204.699C167.088 204.437 166.91 204.103 166.839 203.739C166.768 203.376 166.806 203 166.949 202.658C167.091 202.316 167.332 202.025 167.641 201.82C167.949 201.615 168.312 201.507 168.682 201.508C169.177 201.51 169.651 201.708 170 202.059C170.349 202.409 170.545 202.884 170.545 203.379Z" fill="#263238"/>
<path d="M390.979 337H157L157.247 208.379H390.979V337Z" fill="#FAFAFA"/>
<path d="M304.108 311.896C304.108 311.998 290.075 312.085 272.766 312.085C255.458 312.085 241.425 311.998 241.425 311.896C241.425 311.794 255.458 311.707 272.766 311.707C290.075 311.707 304.108 311.83 304.108 311.896Z" fill="#E0E0E0"/>
<path d="M232.479 278.931H162.656V331.41H232.479V278.931Z" fill="#F5F5F5"/>
<path d="M162.685 331.446L187.039 298.802L202.164 319.196L212.405 308.279L232.509 331.381L162.685 331.446Z" fill="#E0E0E0"/>
<path d="M208.554 294.784C208.556 295.871 208.235 296.934 207.632 297.838C207.03 298.743 206.172 299.448 205.169 299.865C204.165 300.283 203.06 300.393 201.994 300.182C200.928 299.972 199.948 299.45 199.178 298.682C198.409 297.914 197.884 296.936 197.671 295.87C197.457 294.805 197.565 293.699 197.979 292.695C198.394 291.69 199.097 290.831 200 290.226C200.903 289.621 201.965 289.297 203.052 289.296C203.774 289.294 204.489 289.434 205.156 289.709C205.824 289.984 206.431 290.388 206.942 290.898C207.453 291.408 207.859 292.013 208.135 292.68C208.412 293.347 208.554 294.062 208.554 294.784Z" fill="#E0E0E0"/>
<path d="M383.14 279.011H313.316V331.49H383.14V279.011Z" fill="#F5F5F5"/>
<path d="M313.338 331.526L337.699 298.882L352.824 319.277L363.058 308.359L383.162 331.461L313.338 331.526Z" fill="#E0E0E0"/>
<path d="M359.215 294.864C359.216 295.953 358.895 297.017 358.291 297.923C357.687 298.829 356.828 299.536 355.823 299.953C354.818 300.371 353.711 300.481 352.643 300.269C351.575 300.058 350.594 299.534 349.824 298.765C349.054 297.996 348.529 297.015 348.316 295.948C348.103 294.88 348.212 293.773 348.628 292.767C349.044 291.762 349.749 290.902 350.654 290.297C351.559 289.692 352.624 289.369 353.712 289.369C355.17 289.369 356.569 289.948 357.601 290.978C358.632 292.008 359.213 293.406 359.215 294.864Z" fill="#E0E0E0"/>
<path d="M304.108 329.59C304.108 329.7 290.075 329.78 272.766 329.78C255.458 329.78 241.425 329.7 241.425 329.59C241.425 329.481 255.458 329.401 272.766 329.401C290.075 329.401 304.108 329.488 304.108 329.59Z" fill="#E0E0E0"/>
<path d="M304.108 321.496C304.108 321.598 290.075 321.686 272.766 321.686C255.458 321.686 241.425 321.598 241.425 321.496C241.425 321.394 255.458 321.307 272.766 321.307C290.075 321.307 304.108 321.394 304.108 321.496Z" fill="#E0E0E0"/>
<path d="M95.71 250.26H90.53V389.99H95.71V250.26Z" fill="#263238"/>
<path d="M93.12 255.24C109.755 255.24 123.24 241.755 123.24 225.12C123.24 208.485 109.755 195 93.12 195C76.4852 195 63 208.485 63 225.12C63 241.755 76.4852 255.24 93.12 255.24Z" fill="#DB324D"/>
<path d="M120.24 224.73C120.209 224.585 120.192 224.438 120.19 224.29C120.19 223.98 120.19 223.55 120.1 223.01C120.1 222.72 120.1 222.41 120.04 222.06C119.98 221.71 119.92 221.34 119.86 220.93C119.741 219.987 119.551 219.054 119.29 218.14C118.659 215.609 117.647 213.188 116.29 210.96C114.51 208.003 112.182 205.413 109.43 203.33C105.85 200.607 101.643 198.829 97.1958 198.158C92.7485 197.487 88.2039 197.945 83.9801 199.49C82.7794 199.922 81.6099 200.437 80.4801 201.03C79.9101 201.34 79.3601 201.7 78.8001 202.03C78.2355 202.366 77.6943 202.741 77.18 203.15C76.1256 203.948 75.1235 204.813 74.18 205.74C73.2287 206.717 72.3466 207.76 71.54 208.86C69.8739 211.105 68.5806 213.603 67.7101 216.26C66.805 218.994 66.3194 221.85 66.2701 224.73C66.3057 227.606 66.7708 230.461 67.65 233.2C68.524 235.86 69.8206 238.362 71.4901 240.61C72.2984 241.706 73.1769 242.748 74.1201 243.73C75.0799 244.658 76.0987 245.523 77.1701 246.32C77.6843 246.729 78.2255 247.103 78.79 247.44C79.35 247.77 79.9001 248.13 80.47 248.44C81.5979 249.037 82.7677 249.552 83.97 249.98C89.8497 252.117 96.2897 252.141 102.185 250.048C108.081 247.955 113.064 243.876 116.28 238.51C117.639 236.286 118.65 233.869 119.28 231.34C119.541 230.422 119.731 229.486 119.85 228.54C119.92 228.14 119.99 227.76 120.03 227.41C120.07 227.06 120.03 226.75 120.09 226.47C120.13 225.917 120.16 225.487 120.18 225.18C120.182 225.032 120.199 224.885 120.23 224.74C120.243 224.886 120.243 225.034 120.23 225.18C120.23 225.5 120.23 225.93 120.23 226.47C120.23 226.763 120.23 227.097 120.23 227.47C120.23 227.82 120.13 228.19 120.08 228.61C119.971 229.561 119.794 230.504 119.55 231.43C118.927 233.992 117.915 236.444 116.55 238.7C114.582 242.034 111.927 244.912 108.762 247.141C105.596 249.37 101.992 250.9 98.1901 251.63C93.3857 252.534 88.427 252.133 83.83 250.47C82.602 250.034 81.4058 249.512 80.25 248.91C79.68 248.6 79.1201 248.24 78.5501 247.91C77.9658 247.557 77.4077 247.163 76.8801 246.73C75.7843 245.926 74.7452 245.047 73.7701 244.1C72.8045 243.104 71.9059 242.045 71.0801 240.93C69.3802 238.641 68.0569 236.096 67.1601 233.39C65.2803 227.783 65.2803 221.717 67.1601 216.11C68.0569 213.404 69.3802 210.859 71.0801 208.57C71.9064 207.459 72.805 206.403 73.7701 205.41C74.7438 204.446 75.7829 203.551 76.8801 202.73C77.4002 202.311 77.9519 201.934 78.5301 201.6C79.1001 201.26 79.6601 200.89 80.2301 200.6C81.3878 200.002 82.5837 199.481 83.8101 199.04C88.4077 197.379 93.3667 196.982 98.1701 197.89C101.978 198.615 105.587 200.144 108.757 202.376C111.927 204.607 114.583 207.49 116.55 210.83C117.917 213.089 118.929 215.544 119.55 218.11C119.795 219.036 119.972 219.978 120.08 220.93C120.13 221.34 120.2 221.72 120.23 222.07C120.26 222.42 120.23 222.73 120.23 223.07C120.23 223.62 120.23 224.07 120.23 224.36C120.243 224.483 120.246 224.607 120.24 224.73Z" fill="white"/>
<path d="M108.81 221.36H77.4399V227.9H108.81V221.36Z" fill="#FAFAFA"/>
<path d="M20.06 293.42H14.92V387.91H20.06V293.42Z" fill="#E0E0E0"/>
<path d="M22.69 290.18C22.69 291.204 22.3862 292.206 21.817 293.058C21.2478 293.91 20.4388 294.574 19.4923 294.966C18.5457 295.358 17.5042 295.46 16.4994 295.26C15.4946 295.061 14.5716 294.567 13.8471 293.843C13.1227 293.118 12.6294 292.195 12.4295 291.191C12.2296 290.186 12.3322 289.144 12.7243 288.198C13.1163 287.251 13.7803 286.442 14.6321 285.873C15.484 285.304 16.4855 285 17.51 285C18.8838 285 20.2013 285.546 21.1728 286.517C22.1442 287.489 22.69 288.806 22.69 290.18Z" fill="#DB324D"/>
<path d="M122.2 293.42H117.06V387.91H122.2V293.42Z" fill="#E0E0E0"/>
<path d="M124.83 290.18C124.83 291.204 124.526 292.206 123.957 293.058C123.388 293.91 122.579 294.574 121.632 294.966C120.686 295.358 119.644 295.46 118.639 295.26C117.635 295.061 116.712 294.567 115.987 293.843C115.263 293.118 114.769 292.195 114.57 291.191C114.37 290.186 114.472 289.144 114.864 288.198C115.256 287.251 115.92 286.442 116.772 285.873C117.624 285.304 118.625 285 119.65 285C121.024 285 122.341 285.546 123.313 286.517C124.284 287.489 124.83 288.806 124.83 290.18Z" fill="#DB324D"/>
<path d="M131.94 302.54H0.25V326.1H131.94V302.54Z" fill="#DB324D"/>
<path d="M15.15 302.53L14.92 302.93L1.39 326.1H0.25V302.53H15.15Z" fill="#F5F5F5"/>
<path d="M48.44 302.53L34.66 326.1H16.67L22.14 316.74L30.44 302.53H48.44Z" fill="#F5F5F5"/>
<path d="M81.7099 302.53L67.9399 326.1H49.9399L63.7099 302.53H81.7099Z" fill="#F5F5F5"/>
<path d="M114.97 302.54L101.2 326.1H83.21L96.98 302.54H114.97Z" fill="#F5F5F5"/>
<path d="M131.94 302.54V326.1H116.48L130.26 302.54H131.94Z" fill="#F5F5F5"/>
<path d="M131.94 338.93H0.25V362.49H131.94V338.93Z" fill="#DB324D"/>
<path d="M15.15 338.94L14.92 339.33L1.39 362.5H0.25V338.94H15.15Z" fill="#F5F5F5"/>
<path d="M48.44 338.94L34.66 362.5H16.67L22.14 353.14L30.44 338.94H48.44Z" fill="#F5F5F5"/>
<path d="M81.7099 338.94L67.9399 362.5H49.9399L63.7099 338.94H81.7099Z" fill="#F5F5F5"/>
<path d="M114.97 338.94L101.2 362.5H83.21L96.98 338.94H114.97Z" fill="#F5F5F5"/>
<path d="M131.94 338.94V362.5H116.48L130.26 338.94H131.94Z" fill="#F5F5F5"/>
<path d="M131.94 326.1C131.94 326.1 131.94 325.96 131.94 325.69C131.94 325.42 131.94 325.02 131.94 324.51C131.94 323.46 131.94 321.93 131.94 319.93C131.94 315.93 131.89 310.05 131.86 302.54L132 302.67L0.259998 302.83L0.52 302.57V326.13L0.259998 325.87L94.01 325.98L121.81 326.06H129.32H131.27H131.95H131.3H129.38H121.93L94.19 326.13L0.259998 326.24H0V302.27H0.27L131.95 302.4H132.08V302.54C132.08 310.08 132.02 315.98 132.01 320.01C132.01 322.01 132.01 323.52 132.01 324.56C132.01 325.06 132.01 325.44 132.01 325.72C132.01 326 131.94 326.1 131.94 326.1Z" fill="#263238"/>
<path d="M131.94 362.5C131.94 362.5 131.94 362.35 131.94 362.09C131.94 361.83 131.94 361.42 131.94 360.91C131.94 359.86 131.94 358.33 131.94 356.33C131.94 352.33 131.89 346.45 131.86 338.93L132 339.07L0.320057 339.19L0.580055 338.93V362.5L0.320057 362.24L94.0701 362.35L121.87 362.43H129.38H131.33C131.77 362.43 132.01 362.43 132.01 362.43H131.36H129.44H121.99L94.2501 362.51L0.320057 362.62H0.0600586V338.67H0.330055L132.01 338.8H132.14V338.93C132.14 346.48 132.08 352.38 132.07 356.41C132.07 358.41 132.07 359.92 132.07 360.96C132.07 361.46 132.07 361.84 132.07 362.12C132.07 362.4 131.94 362.5 131.94 362.5Z" fill="#263238"/>
<path d="M425.612 194.254L132.216 217.809L139.054 302.985L432.45 279.43L425.612 194.254Z" fill="white"/>
<path d="M432.47 279.392C432.37 278.162 429.88 247.902 425.47 194.232L425.64 194.382L132.27 218.052L132.5 217.772C134.86 247.172 137.16 275.772 139.34 302.942L139.07 302.712L348.77 285.982L432.47 279.392L431.04 279.522L426.8 279.882L410.35 281.232L348.96 286.232L139.1 303.232H138.85V302.972C136.66 275.822 134.36 247.202 132 217.802V217.542H132.26L425.61 194.052H425.78V194.212C430 247.892 432.38 278.162 432.47 279.392Z" fill="#263238"/>
<path d="M232.917 219.99L140.267 226.475L145.142 296.115L237.792 289.63L232.917 219.99Z" fill="#DB324D"/>
<path d="M348.03 279.362C346.055 279.786 344.048 280.04 342.03 280.122L341.75 279.882V279.592V279.292C341.75 279.082 341.75 278.892 341.75 278.692C341.75 278.312 341.69 277.942 341.67 277.572C341.67 276.912 341.6 276.282 341.56 275.662C341.475 275.079 341.475 274.486 341.56 273.902C341.755 274.46 341.866 275.043 341.89 275.632C341.96 276.242 342.03 276.872 342.11 277.532C342.11 277.892 342.18 278.272 342.21 278.652L342.27 279.242V279.552V279.832L341.99 279.592C343.993 279.346 346.014 279.269 348.03 279.362Z" fill="#E0E0E0"/>
<path d="M375.21 277.072C372.98 277.515 370.721 277.792 368.45 277.902C366.192 278.186 363.915 278.289 361.64 278.212C363.87 277.77 366.129 277.492 368.4 277.382C370.658 277.099 372.935 276.995 375.21 277.072Z" fill="#E0E0E0"/>
<path d="M402.31 274.782C400.08 275.225 397.821 275.503 395.55 275.612C393.291 275.89 391.015 275.994 388.74 275.922C390.97 275.48 393.229 275.202 395.5 275.092C397.758 274.809 400.035 274.705 402.31 274.782Z" fill="#E0E0E0"/>
<path d="M421.35 267.152C421.784 269.109 422.042 271.1 422.12 273.102C421.64 273.672 421.98 273.262 421.88 273.392H421.57H421.27H420.67L419.55 273.472L417.65 273.582C417.063 273.667 416.467 273.667 415.88 273.582C416.441 273.389 417.027 273.278 417.62 273.252L419.51 273.032L420.63 272.922L421.23 272.872H421.53H421.83C421.73 272.992 422.07 272.592 421.6 273.152C421.347 271.163 421.263 269.156 421.35 267.152Z" fill="#E0E0E0"/>
<path d="M419.46 244.762C420.145 248.453 420.48 252.199 420.46 255.952C420.047 254.122 419.802 252.258 419.73 250.382C419.472 248.521 419.382 246.64 419.46 244.762Z" fill="#E0E0E0"/>
<path d="M417.57 222.382C417.99 224.212 418.238 226.077 418.31 227.952C418.551 229.815 418.621 231.697 418.52 233.572C418.101 231.739 417.857 229.871 417.79 227.992C417.549 226.133 417.475 224.255 417.57 222.382Z" fill="#E0E0E0"/>
<path d="M410.14 205.712C412.115 205.29 414.122 205.036 416.14 204.952L416.42 205.192V205.482V205.782C416.42 205.992 416.42 206.182 416.42 206.382C416.42 206.762 416.47 207.132 416.5 207.502C416.5 208.162 416.57 208.792 416.6 209.412C416.688 209.996 416.688 210.589 416.6 211.172C416.406 210.615 416.294 210.032 416.27 209.442C416.2 208.832 416.13 208.202 416.05 207.542C416.05 207.182 415.98 206.802 415.94 206.422L415.89 205.832V205.522V205.242L416.18 205.482C414.177 205.728 412.156 205.805 410.14 205.712Z" fill="#E0E0E0"/>
<path d="M383.01 208.002C385.24 207.558 387.499 207.28 389.77 207.172C392.025 206.889 394.299 206.785 396.57 206.862C394.34 207.307 392.081 207.584 389.81 207.692C387.555 207.976 385.281 208.08 383.01 208.002Z" fill="#E0E0E0"/>
<path d="M355.87 210.292C358.1 209.848 360.359 209.57 362.63 209.462C364.889 209.185 367.165 209.081 369.44 209.152C367.207 209.595 364.944 209.873 362.67 209.982C360.415 210.266 358.141 210.37 355.87 210.292Z" fill="#E0E0E0"/>
<path d="M336.82 217.922C336.399 215.964 336.144 213.974 336.06 211.972C336.53 211.402 336.19 211.812 336.3 211.692H336.6H336.91L337.5 211.642L338.62 211.562L340.53 211.452C341.117 211.367 341.713 211.367 342.3 211.452C341.738 211.644 341.153 211.755 340.56 211.782L338.66 212.002L337.54 212.112L336.95 212.162H336.65H336.34L336.58 211.882C336.842 213.884 336.922 215.906 336.82 217.922Z" fill="#E0E0E0"/>
<path d="M338.71 240.312C338.298 238.478 338.054 236.611 337.98 234.732C337.733 232.873 337.662 230.995 337.77 229.122C338.183 230.953 338.428 232.817 338.5 234.692C338.747 236.555 338.818 238.437 338.71 240.312Z" fill="#E0E0E0"/>
<path d="M340.6 262.692C340.187 260.862 339.942 258.998 339.87 257.122C339.623 255.26 339.552 253.378 339.66 251.502C340.073 253.336 340.317 255.204 340.39 257.082C340.637 258.942 340.708 260.82 340.6 262.692Z" fill="#E0E0E0"/>
<path d="M144.89 294.992L174.1 249.522L196.02 275.112L208.55 259.702L237.31 288.422L144.89 294.992Z" fill="#DB324D"/>
<path d="M202.21 242.202C202.313 243.643 201.987 245.081 201.272 246.336C200.558 247.591 199.487 248.605 198.196 249.252C196.905 249.898 195.451 250.147 194.019 249.967C192.586 249.787 191.239 249.186 190.148 248.24C189.056 247.295 188.27 246.047 187.889 244.654C187.507 243.262 187.546 241.787 188.003 240.417C188.459 239.047 189.311 237.843 190.452 236.958C191.592 236.072 192.97 235.545 194.41 235.442C196.34 235.308 198.245 235.943 199.707 237.211C201.169 238.478 202.069 240.273 202.21 242.202Z" fill="#DB324D"/>
<g opacity="0.2">
<path d="M144.89 294.992L174.1 249.522L196.02 275.112L208.55 259.702L237.31 288.422L144.89 294.992Z" fill="black"/>
</g>
<g opacity="0.2">
<path d="M202.21 242.202C202.313 243.643 201.987 245.081 201.272 246.336C200.558 247.591 199.487 248.605 198.196 249.252C196.905 249.898 195.451 250.147 194.019 249.967C192.586 249.787 191.239 249.186 190.148 248.24C189.056 247.295 188.27 246.047 187.889 244.654C187.507 243.262 187.546 241.787 188.003 240.417C188.459 239.047 189.311 237.843 190.452 236.958C191.592 236.072 192.97 235.545 194.41 235.442C196.34 235.308 198.245 235.943 199.707 237.211C201.169 238.478 202.069 240.273 202.21 242.202Z" fill="black"/>
</g>
<path d="M328.72 230.922C328.72 231.072 310.77 232.842 288.6 234.922C266.43 237.002 248.44 238.512 248.42 238.362C248.4 238.212 266.42 236.452 288.55 234.362C310.68 232.272 328.71 230.782 328.72 230.922Z" fill="#263238"/>
<path d="M331.05 244.282C331.05 244.432 312.89 246.222 290.48 248.282C268.07 250.342 249.87 251.912 249.85 251.772C249.83 251.632 268 249.832 290.43 247.772C312.86 245.712 331.03 244.142 331.05 244.282Z" fill="#263238"/>
<path d="M333.37 257.652C333.37 257.792 315.02 259.602 292.37 261.652C269.72 263.702 251.37 265.322 251.37 265.182C251.37 265.042 269.71 263.232 292.37 261.132C315.03 259.032 333.36 257.482 333.37 257.652Z" fill="#263238"/>
<path d="M333.85 270.892C333.85 271.042 315.48 272.892 292.8 274.952C270.12 277.012 251.7 278.622 251.69 278.482C251.68 278.342 270.06 276.482 292.75 274.432C315.44 272.382 333.84 270.752 333.85 270.892Z" fill="#263238"/>
<path d="M288.886 222.103L246.612 225.497L246.88 228.846L289.154 225.452L288.886 222.103Z" fill="#DB324D"/>
<path d="M380.03 252.992C379.89 252.992 379.34 248.072 378.81 241.992C378.28 235.912 377.97 230.942 378.12 230.932C378.27 230.922 378.8 235.852 379.33 241.932C379.86 248.012 380.21 252.982 380.03 252.992Z" fill="#E0E0E0"/>
<path d="M389.27 241.422C389.27 241.562 384.53 241.982 378.67 242.352C372.81 242.722 368.04 242.913 368.04 242.773C371.555 242.279 375.093 241.965 378.64 241.833C384.5 241.483 389.26 241.282 389.27 241.422Z" fill="#E0E0E0"/>
<path d="M425.63 194.212C425.63 194.212 425.39 194.142 424.92 193.962L422.92 193.182L415.04 190.122L385.91 178.712L288.63 140.372H288.84L276.53 146.482L174.53 197.012L143.61 212.262L135.21 216.382L133.01 217.442C132.52 217.682 132.26 217.792 132.26 217.792L132.99 217.392L135.16 216.292L143.54 212.082L174.4 196.672L276.32 146.002L288.63 139.892H288.73H288.84L386.06 178.382L415.06 189.942L422.9 193.092L424.9 193.922L425.63 194.212Z" fill="#263238"/>
<path d="M365.89 54.4824C365.362 53.3181 364.512 52.3294 363.44 51.6332C362.368 50.937 361.119 50.5625 359.841 50.5541C358.562 50.5457 357.308 50.9037 356.227 51.5857C355.146 52.2677 354.283 53.2452 353.74 54.4024L343.29 55.2624L353.85 76.0924L360.47 63.9124C361.198 63.8441 361.908 63.6513 362.57 63.3424C363.37 62.9787 364.09 62.461 364.69 61.8189C365.29 61.1768 365.757 60.4228 366.065 59.6001C366.373 58.7773 366.517 57.9019 366.487 57.0238C366.457 56.1457 366.254 55.2822 365.89 54.4824Z" fill="#263238"/>
<path d="M305.57 24.3224L312.39 21.4124L295.94 17.2724C295.213 16.1377 294.16 15.2491 292.919 14.723C291.678 14.197 290.307 14.058 288.986 14.3242C287.665 14.5905 286.455 15.2496 285.514 16.2152C284.574 17.1809 283.948 18.408 283.717 19.7358C283.486 21.0636 283.661 22.4303 284.22 23.6567C284.779 24.8831 285.695 25.9121 286.849 26.6089C288.002 27.3057 289.34 27.6378 290.685 27.5617C292.031 27.4856 293.322 27.0048 294.39 26.1824L310.01 35.7424L305.57 24.3224Z" fill="#263238"/>
<path d="M437.21 228.782V228.642L324.32 18.2025L323.68 17.0125L305.9 25.1225L391.03 249.482L391.08 249.622L441.78 330.212L442.78 330.062L443.95 329.892L444.87 329.752L434.38 313.082L440.51 297.292L456.74 303.292L463.89 326.942L464.74 326.822L465.82 326.662L466.82 326.522L437.21 228.782ZM444.51 262.872L424.25 257.672L436 234.722L444.51 262.872ZM422.46 257.212L397.54 250.812L434.32 234.052L422.46 257.212ZM431.87 224.852L405.98 217.692L416.6 196.382L431.87 224.852ZM404.21 217.212L381.42 210.912L414.97 195.622L404.21 217.212ZM413.44 190.482L389.58 182.162L398.09 161.862L413.44 190.482ZM387.88 181.572L366.88 174.262L396.57 160.742L387.88 181.572ZM394.71 155.572L373 146.192L379.43 127.072L394.71 155.572ZM371.34 145.482L352.74 137.482L377.89 126.022L371.34 145.482ZM376.34 121.272L376.22 121.332L356.69 110.772L361.03 92.7225L376.34 121.272ZM357.08 85.3824L340.08 73.9425L342.33 57.8224L357.08 85.3824ZM338.38 72.8224L324.69 63.6225L340.69 56.3325L338.38 72.8224ZM323.87 23.4825L338.33 50.4825L323.46 37.9525L323.87 23.4825ZM321.11 57.1124L310.61 29.4825L321.61 38.7625L321.11 57.1124ZM321.7 36.4324L309.89 26.4825L322.14 20.9025L321.7 36.4324ZM323.39 40.2225L337.7 52.2225L322.85 58.9925L323.39 40.2225ZM324.32 65.5625L338.11 74.8224L335.33 94.6125L324.32 65.5625ZM339.77 75.9425L356.34 87.0724L336.97 95.8925L339.77 75.9425ZM359.54 91.0525L355.02 109.862L338.21 100.752L359.54 91.0525ZM338.54 102.992L354.6 111.672L349.65 132.272L338.54 102.992ZM356.24 112.562L374.15 122.242L351.4 132.582L356.24 112.562ZM352.24 139.182L370.75 147.182L363.48 168.812L352.24 139.182ZM372.41 147.892L393.16 156.892L365.09 169.672L372.41 147.892ZM366.17 175.892L387.17 183.212L377.61 206.042L366.17 175.892ZM388.88 183.812L411.6 191.732L379.42 206.382L388.88 183.812ZM380.02 212.402L403.4 218.862L391.52 242.702L380.02 212.402ZM405.21 219.342L430.62 226.342L393.22 243.342L405.21 219.342ZM396.21 252.342L421.69 258.882L412.1 277.602L396.21 252.342ZM423.48 259.342L444.21 264.662L413.49 278.662L423.48 259.342ZM433.26 311.242L419.65 289.602L438.89 296.732L433.26 311.242ZM439.54 295.052L418.08 287.052L417.55 286.222L447.55 272.572L447.86 273.572L439.54 295.052ZM441.23 295.672L448.63 276.482L456.11 301.222L441.23 295.672Z" fill="#263238"/>
<path d="M288.56 117.772C288.56 117.772 288.56 117.172 288.56 115.992C288.56 114.812 288.56 113.072 288.56 110.792C288.56 106.222 288.56 99.5023 288.5 90.8923C288.5 73.6623 288.45 48.8922 288.41 18.5922V18.4022H288.6L320.21 15.0522H320.32L320.4 15.1423L402.85 107.292L522.85 241.612L559.21 282.342L569.07 293.442L571.62 296.332C572.19 296.982 572.48 297.332 572.48 297.332C572.48 297.332 572.17 297.012 571.58 296.332C570.99 295.652 570.12 294.732 568.99 293.472C566.71 290.952 563.37 287.232 559.06 282.472L522.62 241.832L402.47 107.632L320.07 15.4822L320.26 15.5622L288.58 18.8422L288.76 18.6423C288.76 48.9222 288.7 73.7123 288.67 90.9423C288.67 99.5523 288.67 106.272 288.67 110.842C288.67 113.122 288.67 114.842 288.67 116.042C288.67 117.242 288.56 117.772 288.56 117.772Z" fill="#263238"/>
<path d="M290.38 89.5225H286.08C285.87 89.5225 285.7 89.6926 285.7 89.9025V99.9925C285.7 100.202 285.87 100.372 286.08 100.372H290.38C290.59 100.372 290.76 100.202 290.76 99.9925V89.9025C290.76 89.6926 290.59 89.5225 290.38 89.5225Z" fill="#263238"/>
<path d="M296.82 102.052H280.21C279.719 102.052 279.249 101.857 278.902 101.51C278.555 101.164 278.36 100.693 278.36 100.202C278.36 99.7117 278.555 99.2411 278.902 98.8941C279.249 98.5472 279.719 98.3523 280.21 98.3523H296.83C297.321 98.3523 297.791 98.5472 298.138 98.8941C298.485 99.2411 298.68 99.7117 298.68 100.202C298.68 100.446 298.632 100.687 298.538 100.913C298.445 101.138 298.307 101.342 298.135 101.514C297.962 101.686 297.757 101.822 297.531 101.914C297.305 102.007 297.064 102.054 296.82 102.052Z" fill="#263238"/>
<path d="M289.72 131.772L289.66 129.402L287.21 130.482C287.125 131.357 287.125 132.238 287.21 133.112C287.214 133.253 287.244 133.393 287.3 133.522C287.452 133.719 287.662 133.862 287.9 133.932C288.973 134.341 289.864 135.122 290.41 136.132C290.59 136.5 290.689 136.901 290.702 137.31C290.715 137.719 290.641 138.126 290.485 138.504C290.329 138.882 290.095 139.222 289.798 139.503C289.5 139.784 289.146 139.998 288.76 140.132C287.999 140.363 287.177 140.282 286.476 139.907C285.775 139.532 285.251 138.893 285.02 138.132C285.02 137.722 285.02 137.132 284.46 137.132C283.65 137.052 283.3 138.232 283.32 138.852C283.45 142.442 286.83 143.582 288.26 143.632C289.231 143.698 290.201 143.49 291.06 143.032C291.739 142.64 292.325 142.106 292.777 141.465C293.23 140.824 293.538 140.093 293.68 139.322C294.46 134.602 289.47 132.072 289.72 131.772Z" fill="#263238"/>
<path d="M291.81 130.592L302.43 105.042C302.65 104.509 302.736 103.931 302.679 103.357C302.622 102.783 302.425 102.232 302.105 101.753C301.784 101.273 301.351 100.88 300.842 100.608C300.334 100.336 299.767 100.193 299.19 100.192H277.96C277.383 100.191 276.814 100.332 276.304 100.603C275.794 100.875 275.36 101.268 275.039 101.748C274.718 102.228 274.521 102.78 274.465 103.355C274.41 103.93 274.497 104.51 274.72 105.042L285.33 130.592C285.597 131.232 286.046 131.779 286.623 132.163C287.2 132.547 287.877 132.752 288.57 132.752C289.263 132.752 289.94 132.547 290.517 132.163C291.094 131.779 291.544 131.232 291.81 130.592Z" fill="#E0E0E0"/>
<path d="M279.04 102.002L276.29 104.742C276.29 104.842 276.29 104.952 276.34 105.052L277.24 107.212L282.45 102.002H279.04Z" fill="#DB324D"/>
<path d="M289.29 102.002H285.87L278.24 109.632L279.25 112.042L289.29 102.002Z" fill="#DB324D"/>
<path d="M296.59 115.202L299.01 109.362L284.26 124.112L285.26 126.522L296.59 115.202Z" fill="#DB324D"/>
<path d="M294.21 121.052L286.32 128.942L286.58 129.582C286.694 129.868 286.868 130.126 287.091 130.338C287.313 130.55 287.579 130.712 287.87 130.812L291.78 126.892L294.21 121.052Z" fill="#DB324D"/>
<path d="M296.12 102.002H292.71L280.25 114.452L281.25 116.872L296.12 102.002Z" fill="#DB324D"/>
<path d="M300.96 103.992C300.926 103.559 300.755 103.148 300.473 102.818C300.191 102.487 299.812 102.254 299.39 102.152L282.21 119.282L283.21 121.702L300.96 103.992Z" fill="#DB324D"/>
<path d="M561.98 291.822H579.82C580.52 291.822 581.192 292.1 581.687 292.596C582.182 293.091 582.46 293.762 582.46 294.462V302.602H559.34V294.482C559.337 294.134 559.404 293.788 559.535 293.466C559.667 293.143 559.861 292.85 560.106 292.603C560.352 292.355 560.643 292.159 560.965 292.025C561.287 291.891 561.632 291.822 561.98 291.822Z" fill="#263238"/>
<path d="M518.94 299.922H515.15V277.382C515.152 276.385 515.307 275.393 515.61 274.442L517.52 268.542C517.532 268.519 517.55 268.5 517.572 268.486C517.594 268.472 517.619 268.465 517.645 268.465C517.671 268.465 517.696 268.472 517.718 268.486C517.741 268.5 517.758 268.519 517.77 268.542L520 272.542L519.41 274.372C519.1 275.342 518.942 276.354 518.94 277.372V299.922Z" fill="#263238"/>
<path d="M612.35 304.022C611.824 302.735 610.98 301.601 609.898 300.727C608.815 299.853 607.53 299.266 606.16 299.022L511.36 298.972V283.222C511.36 282.719 511.261 282.22 511.068 281.754C510.874 281.289 510.591 280.866 510.235 280.511C509.878 280.155 509.455 279.873 508.989 279.681C508.523 279.489 508.024 279.391 507.52 279.392H461.71C460.898 279.392 460.107 279.649 459.451 280.127C458.795 280.605 458.308 281.279 458.06 282.052L456.69 286.392H461.79C462.373 286.392 462.949 286.519 463.477 286.764C464.006 287.009 464.474 287.367 464.85 287.812C465.218 288.25 465.481 288.765 465.62 289.32C465.758 289.874 465.769 290.453 465.65 291.012L460.75 314.262C460.542 315.133 460.047 315.909 459.346 316.466C458.644 317.023 457.776 317.328 456.88 317.332H447.15C447.021 318.814 447.109 320.306 447.41 321.762L447.95 324.092L422.87 329.022C422.671 329.062 422.487 329.159 422.341 329.301C422.196 329.443 422.095 329.624 422.05 329.822L419.69 336.162C419.539 336.45 419.425 336.756 419.35 337.072C418.85 339.162 419.22 342.662 420.48 342.662H447.35L446.21 344.022L444.69 348.742H615.38C615.42 333.482 615.02 310.482 612.35 304.022ZM494.04 289.602L491.52 312.482C491.52 312.772 491.44 313.062 491.39 313.342C490.884 315.604 489.612 317.621 487.79 319.053C485.968 320.485 483.707 321.245 481.39 321.202H470.13C469.613 321.202 469.102 321.086 468.635 320.863C468.168 320.639 467.757 320.314 467.432 319.912C467.107 319.509 466.876 319.039 466.757 318.535C466.637 318.032 466.631 317.508 466.74 317.002L472.04 289.542C472.219 288.674 472.692 287.894 473.378 287.333C474.065 286.772 474.923 286.465 475.81 286.462H491.21C491.616 286.463 492.018 286.549 492.389 286.715C492.76 286.881 493.091 287.123 493.362 287.426C493.633 287.729 493.837 288.086 493.961 288.473C494.084 288.86 494.125 289.269 494.08 289.672L494.04 289.602Z" fill="#FFA400"/>
<path d="M536.02 360.122L463.37 361.122C462.9 361.122 462.06 359.722 462.06 359.252V351.142C462.06 350.914 462.151 350.695 462.312 350.534C462.473 350.373 462.692 350.282 462.92 350.282H536.02C536.133 350.282 536.244 350.305 536.348 350.348C536.451 350.391 536.546 350.455 536.625 350.535C536.704 350.615 536.766 350.71 536.808 350.814C536.85 350.918 536.871 351.03 536.87 351.142V359.252C536.873 359.366 536.853 359.478 536.811 359.584C536.77 359.689 536.707 359.785 536.628 359.866C536.549 359.947 536.454 360.012 536.35 360.056C536.246 360.1 536.133 360.122 536.02 360.122Z" fill="#455A64"/>
<path d="M494.04 289.602L491.52 312.482C491.52 312.772 491.44 313.052 491.39 313.342C490.892 315.607 489.622 317.629 487.798 319.061C485.974 320.493 483.709 321.246 481.39 321.192H470.15C469.632 321.191 469.121 321.073 468.654 320.849C468.188 320.624 467.777 320.298 467.452 319.895C467.127 319.492 466.897 319.021 466.777 318.517C466.657 318.013 466.651 317.489 466.76 316.982L472.06 289.522C472.241 288.655 472.714 287.876 473.4 287.315C474.086 286.755 474.944 286.447 475.83 286.442H491.21C491.617 286.444 492.019 286.531 492.39 286.699C492.76 286.866 493.092 287.109 493.363 287.413C493.633 287.716 493.837 288.074 493.961 288.461C494.084 288.849 494.125 289.258 494.08 289.662L494.04 289.602Z" fill="#DB324D"/>
<mask id="mask0_231_1135" style="mask-type:luminance" maskUnits="userSpaceOnUse" x="466" y="286" width="29" height="36">
<path d="M494.04 289.602L491.52 312.482C491.52 312.772 491.44 313.052 491.39 313.342C490.892 315.607 489.622 317.629 487.798 319.061C485.974 320.493 483.709 321.246 481.39 321.192H470.15C469.632 321.191 469.121 321.073 468.654 320.849C468.188 320.624 467.777 320.298 467.452 319.895C467.127 319.492 466.897 319.021 466.777 318.517C466.657 318.013 466.651 317.489 466.76 316.982L472.06 289.522C472.241 288.655 472.714 287.876 473.4 287.315C474.086 286.755 474.944 286.447 475.83 286.442H491.21C491.617 286.444 492.019 286.531 492.39 286.699C492.76 286.866 493.092 287.109 493.363 287.413C493.633 287.716 493.837 288.074 493.961 288.461C494.084 288.849 494.125 289.258 494.08 289.662L494.04 289.602Z" fill="white"/>
</mask>
<g mask="url(#mask0_231_1135)">
<path d="M458.06 282.042L447.81 313.892C446.989 316.435 446.851 319.149 447.41 321.762L451.8 342.122H511.36V283.222C511.36 282.204 510.956 281.227 510.235 280.507C509.515 279.787 508.539 279.382 507.52 279.382H461.71C460.899 279.385 460.11 279.643 459.454 280.121C458.799 280.599 458.311 281.271 458.06 282.042Z" fill="#DB324D"/>
</g>
<path d="M470.15 321.132C469.633 321.132 469.122 321.016 468.655 320.793C468.188 320.569 467.777 320.244 467.452 319.842C467.127 319.439 466.896 318.969 466.777 318.465C466.657 317.962 466.651 317.438 466.76 316.932L472.06 289.472C472.239 288.604 472.712 287.824 473.398 287.263C474.085 286.702 474.943 286.395 475.83 286.392H491.21C491.619 286.397 492.022 286.488 492.393 286.661C492.763 286.833 493.093 287.083 493.36 287.392C493.631 287.696 493.835 288.053 493.959 288.441C494.083 288.829 494.124 289.238 494.08 289.642L491.52 312.482C491.52 312.772 491.44 313.062 491.39 313.342C490.884 315.604 489.612 317.621 487.79 319.053C485.968 320.485 483.707 321.245 481.39 321.202L470.15 321.132Z" fill="#455A64"/>
<path d="M447.15 317.382C447.246 316.26 447.474 315.152 447.83 314.082L456.73 286.442H461.82C462.402 286.441 462.977 286.566 463.506 286.81C464.034 287.053 464.503 287.409 464.88 287.852C465.25 288.291 465.515 288.808 465.655 289.364C465.795 289.92 465.807 290.501 465.69 291.062L460.78 314.302C460.574 315.174 460.082 315.951 459.382 316.509C458.682 317.068 457.815 317.375 456.92 317.382H447.15Z" fill="#455A64"/>
<path d="M615.52 353.252H444.88C443.58 353.252 443.58 348.532 444.88 348.532H615.52C616.83 348.532 616.83 353.252 615.52 353.252Z" fill="#263238"/>
<path d="M511.51 300.222C511.51 300.222 511.51 300.312 511.51 300.482V301.222C511.51 301.912 511.51 302.862 511.45 304.062C511.37 306.572 511.26 310.132 511.13 314.512C511 318.892 510.79 324.192 510.59 330.012C510.53 331.472 510.48 333.012 510.42 334.492C510.445 336.095 510.103 337.682 509.42 339.132C508.998 339.869 508.433 340.515 507.758 341.03C507.083 341.545 506.312 341.92 505.49 342.132C503.861 342.571 502.177 342.773 500.49 342.732L465.98 342.082L455.53 341.822L452.69 341.722H451.95C451.867 341.736 451.783 341.736 451.7 341.722C451.783 341.707 451.867 341.707 451.95 341.722H455.53L465.99 341.822L500.49 342.312C502.129 342.361 503.765 342.172 505.35 341.752C506.104 341.566 506.813 341.231 507.437 340.768C508.06 340.304 508.584 339.721 508.98 339.052C509.647 337.675 509.989 336.163 509.98 334.632C510.05 333.112 510.11 331.632 510.17 330.152C510.41 324.332 510.63 319.082 510.82 314.662C511.01 310.242 511.19 306.722 511.31 304.212C511.37 303.012 511.43 302.062 511.46 301.372C511.46 301.072 511.46 300.832 511.52 300.642C511.474 300.507 511.47 300.36 511.51 300.222Z" fill="#263238"/>
<path d="M462.88 342.362C462.73 342.362 462.62 337.362 462.62 331.192C462.62 325.022 462.73 320.012 462.88 320.012C463.03 320.012 463.14 325.012 463.14 331.192C463.14 337.372 463.02 342.362 462.88 342.362Z" fill="#263238"/>
<path d="M471.81 279.572C471.784 280.113 471.721 280.651 471.62 281.182C471.47 282.182 471.22 283.712 470.89 285.552C470.24 289.232 469.25 294.302 468.01 299.862C466.77 305.422 465.49 310.442 464.51 314.042C464.02 315.852 463.61 317.302 463.3 318.302C463.174 318.83 463 319.346 462.78 319.842C462.851 319.305 462.961 318.773 463.11 318.252C463.38 317.152 463.73 315.702 464.16 313.952C465.04 310.322 466.25 305.312 467.5 299.752C468.75 294.192 469.79 289.142 470.5 285.482L471.39 281.152C471.476 280.613 471.617 280.083 471.81 279.572Z" fill="#263238"/>
<path d="M491.56 330.222C491.888 330.145 492.202 330.017 492.49 329.842C492.799 329.61 493.023 329.284 493.13 328.912C493.252 328.427 493.188 327.913 492.95 327.472C492.799 327.219 492.581 327.011 492.32 326.874C492.059 326.736 491.765 326.673 491.47 326.692H489.2H484.01C483.624 326.699 483.255 326.849 482.973 327.113C482.692 327.378 482.52 327.738 482.49 328.122C482.432 328.482 482.5 328.85 482.682 329.166C482.864 329.481 483.15 329.723 483.49 329.852C483.65 329.912 483.819 329.943 483.99 329.942H485.66H487.66C488.87 329.942 489.85 329.992 490.52 330.022C490.873 330.007 491.226 330.041 491.57 330.122C491.226 330.204 490.873 330.237 490.52 330.222C489.85 330.222 488.87 330.282 487.66 330.302H485.66H484.01C483.786 330.304 483.563 330.271 483.35 330.202C482.902 330.042 482.522 329.734 482.273 329.328C482.024 328.923 481.92 328.445 481.98 327.972C482.003 327.458 482.224 326.972 482.597 326.616C482.969 326.26 483.465 326.062 483.98 326.062H489.17H491.44C491.803 326.05 492.162 326.137 492.479 326.313C492.796 326.489 493.059 326.748 493.24 327.062C493.389 327.343 493.471 327.655 493.48 327.972C493.498 328.246 493.464 328.521 493.38 328.782C493.235 329.2 492.948 329.553 492.57 329.782C492.342 329.93 492.081 330.016 491.81 330.032C491.65 330.262 491.56 330.232 491.56 330.222Z" fill="#DB324D"/>
<path d="M604.3 305.682C604.3 305.832 597.3 305.942 588.72 305.942C580.14 305.942 573.14 305.832 573.14 305.682C573.14 305.532 580.14 305.422 588.72 305.422C597.3 305.422 604.3 305.542 604.3 305.682Z" fill="#263238"/>
<path d="M604.3 308.782C604.3 308.932 597.3 309.052 588.72 309.052C580.14 309.052 573.14 308.932 573.14 308.782C573.14 308.632 580.14 308.522 588.72 308.522C597.3 308.522 604.3 308.642 604.3 308.782Z" fill="#263238"/>
<path d="M604.3 311.892C604.3 312.032 597.3 312.152 588.72 312.152C580.14 312.152 573.14 312.032 573.14 311.892C573.14 311.752 580.14 311.632 588.72 311.632C597.3 311.632 604.3 311.742 604.3 311.892Z" fill="#263238"/>
<path d="M604.3 314.992C604.3 315.132 597.3 315.252 588.72 315.252C580.14 315.252 573.14 315.132 573.14 314.992C573.14 314.852 580.14 314.732 588.72 314.732C597.3 314.732 604.3 314.842 604.3 314.992Z" fill="#263238"/>
<path d="M604.3 318.092C604.3 318.232 597.3 318.352 588.72 318.352C580.14 318.352 573.14 318.232 573.14 318.092C573.14 317.952 580.14 317.832 588.72 317.832C597.3 317.832 604.3 317.942 604.3 318.092Z" fill="#263238"/>
<path d="M604.3 321.192C604.3 321.332 597.3 321.452 588.72 321.452C580.14 321.452 573.14 321.332 573.14 321.192C573.14 321.052 580.14 320.932 588.72 320.932C597.3 320.932 604.3 321.042 604.3 321.192Z" fill="#263238"/>
<path d="M604.3 324.292C604.3 324.432 597.3 324.552 588.72 324.552C580.14 324.552 573.14 324.432 573.14 324.292C573.14 324.152 580.14 324.032 588.72 324.032C597.3 324.032 604.3 324.142 604.3 324.292Z" fill="#263238"/>
<path d="M427.41 397.942C418.06 397.942 410.19 388.942 410.19 379.562C410.19 370.182 418.42 362.322 427.77 362.322L578.4 355.482C582.223 355.272 586.027 356.151 589.371 358.017C592.715 359.883 595.461 362.659 597.29 366.022C599.519 370.316 600.116 375.272 598.97 379.972C594.97 398.172 579.86 397.972 573.97 397.562C568.08 397.152 427.41 397.942 427.41 397.942Z" fill="#263238"/>
<path d="M427.41 393.522C435.181 393.522 441.48 387.223 441.48 379.452C441.48 371.682 435.181 365.382 427.41 365.382C419.639 365.382 413.34 371.682 413.34 379.452C413.34 387.223 419.639 393.522 427.41 393.522Z" fill="#455A64"/>
<path d="M577.45 394.792C587.502 394.792 595.65 386.644 595.65 376.592C595.65 366.541 587.502 358.392 577.45 358.392C567.398 358.392 559.25 366.541 559.25 376.592C559.25 386.644 567.398 394.792 577.45 394.792Z" fill="#455A64"/>
<path d="M579.48 358.972L579.09 359.032L577.94 359.162L573.52 359.602C569.67 359.982 564.11 360.482 557.22 361.042C543.46 362.172 524.42 363.482 503.37 364.412C482.32 365.342 463.22 365.712 449.37 365.792C442.46 365.792 436.88 365.792 433.01 365.792L428.57 365.732H427.41C427.28 365.748 427.15 365.748 427.02 365.732H427.41H428.57H433.01L449.37 365.572C463.17 365.392 482.25 364.962 503.3 364.042C524.35 363.122 543.39 361.862 557.15 360.822L573.46 359.552L577.89 359.202L579.05 359.132C579.185 359.059 579.33 359.005 579.48 358.972Z" fill="#455A64"/>
<path d="M573.69 393.072C573.69 393.212 540.94 393.332 500.54 393.332C460.14 393.332 427.39 393.212 427.39 393.072C427.39 392.932 460.13 392.812 500.54 392.812C540.95 392.812 573.69 392.922 573.69 393.072Z" fill="#455A64"/>
<path d="M452.5 341.872C452.103 340.711 451.769 339.529 451.5 338.332C450.89 336.142 450 333.122 449.1 329.752C448.288 326.889 447.66 323.976 447.22 321.032C447.105 320.134 447.052 319.228 447.06 318.322C447.052 317.984 447.096 317.647 447.19 317.322C447.27 317.322 447.19 318.732 447.58 320.962C447.97 323.192 448.7 326.262 449.58 329.612C450.46 332.962 451.32 336.002 451.84 338.232C452.1 339.342 452.3 340.232 452.4 340.872C452.482 341.199 452.515 341.536 452.5 341.872Z" fill="#DB324D"/>
<path d="M567.43 387.832C567.051 387.65 566.698 387.418 566.38 387.142C565.492 386.428 564.705 385.598 564.04 384.672C563.04 383.294 562.298 381.746 561.85 380.102C561.267 378.088 561.171 375.964 561.571 373.905C561.971 371.846 562.855 369.912 564.15 368.262C565.183 366.911 566.45 365.756 567.89 364.852C568.858 364.244 569.905 363.77 571 363.442C571.394 363.307 571.804 363.223 572.22 363.192C570.773 363.702 569.387 364.373 568.09 365.192C566.722 366.115 565.518 367.261 564.53 368.582C563.303 370.187 562.464 372.054 562.079 374.037C561.694 376.02 561.773 378.065 562.31 380.012C562.712 381.607 563.389 383.12 564.31 384.482C565.215 385.718 566.262 386.842 567.43 387.832Z" fill="#FAFAFA"/>
<path d="M488.37 302.322C485.866 304.453 483.256 306.455 480.55 308.322C477.945 310.316 475.234 312.169 472.43 313.872C474.934 311.742 477.544 309.739 480.25 307.872C482.855 305.878 485.566 304.025 488.37 302.322Z" fill="white"/>
<path d="M489.57 298.072C487.404 299.901 485.13 301.598 482.76 303.152C480.487 304.846 478.113 306.399 475.65 307.802C477.819 305.977 480.092 304.281 482.46 302.722C484.734 301.03 487.108 299.477 489.57 298.072Z" fill="white"/>
<path d="M460.21 304.632C459.175 305.676 458.017 306.59 456.76 307.352C455.601 308.263 454.339 309.035 453 309.652C454.046 308.616 455.206 307.704 456.46 306.932C457.615 306.02 458.874 305.248 460.21 304.632Z" fill="white"/>
<path d="M462.26 300.652C459.74 303.041 456.99 305.175 454.05 307.022C456.565 304.627 459.315 302.493 462.26 300.652Z" fill="white"/>
<path d="M493.66 324.982C489.941 325.329 486.199 325.329 482.48 324.982C486.199 324.636 489.941 324.636 493.66 324.982Z" fill="#DB324D"/>
<path d="M424.61 391.392C424.193 391.366 423.782 391.279 423.39 391.132C422.294 390.784 421.257 390.275 420.31 389.622C418.903 388.649 417.698 387.413 416.76 385.982C415.575 384.234 414.872 382.204 414.723 380.097C414.573 377.99 414.983 375.88 415.91 373.982C416.632 372.433 417.651 371.04 418.91 369.882C419.754 369.1 420.712 368.45 421.75 367.952C422.12 367.761 422.514 367.616 422.92 367.522C421.561 368.233 420.3 369.117 419.17 370.152C417.986 371.298 417.026 372.655 416.34 374.152C415.47 375.985 415.088 378.01 415.229 380.034C415.371 382.057 416.033 384.01 417.15 385.702C418.038 387.103 419.181 388.324 420.52 389.302C421.785 390.177 423.16 390.88 424.61 391.392Z" fill="#FAFAFA"/>
<path d="M445.95 335.882C445.95 336.022 440.53 336.142 433.84 336.142C427.15 336.142 421.72 336.022 421.72 335.882C421.72 335.742 427.14 335.622 433.84 335.622C440.54 335.622 445.95 335.742 445.95 335.882Z" fill="white"/>
<path d="M336.73 39.5824L327.61 19.9924C326.939 18.5516 325.991 17.2571 324.82 16.1828C323.648 15.1086 322.277 14.2756 320.784 13.7314C319.291 13.1872 317.705 12.9425 316.117 13.0113C314.529 13.0801 312.971 13.4611 311.53 14.1324C310.089 14.8032 308.795 15.7514 307.72 16.9226C306.646 18.0938 305.813 19.4652 305.269 20.9585C304.725 22.4517 304.48 24.0375 304.549 25.6253C304.618 27.2131 304.999 28.7718 305.67 30.2124L314.8 49.7924C314.84 49.8837 314.898 49.9659 314.97 50.034C315.043 50.1021 315.129 50.1546 315.222 50.1883C315.316 50.222 315.415 50.2362 315.515 50.23C315.614 50.2239 315.711 50.1974 315.8 50.1524L336.4 40.5524C336.571 40.4664 336.702 40.3165 336.764 40.135C336.825 39.9535 336.813 39.755 336.73 39.5824Z" fill="#FFA400"/>
<path fill-rule="evenodd" clip-rule="evenodd" d="M109.909 418H25L57.0648 396L25 374.001H109.909V418Z" fill="#2CA097"/>
<path fill-rule="evenodd" clip-rule="evenodd" d="M432.675 418H517.581L485.516 396L517.581 374.001H432.675V418Z" fill="#2CA097"/>
<path fill-rule="evenodd" clip-rule="evenodd" d="M90 396H452.409V352H90V396Z" fill="#4ECDC4"/>
<path fill-rule="evenodd" clip-rule="evenodd" d="M90.0859 396L109.908 418V396H90.0859Z" fill="#154441"/>
<path fill-rule="evenodd" clip-rule="evenodd" d="M452.495 396L432.675 418V396H452.495Z" fill="#154441"/>
<path d="M371.288 380.351H368.581L363.29 371.148V380.351H360.768V367.396H363.607L368.766 376.439V367.396H371.288V380.351Z" fill="white"/>
<path d="M353.252 380.711C351.401 380.711 349.986 380.207 349.007 379.199C347.695 377.963 347.038 376.182 347.038 373.855C347.038 371.482 347.695 369.701 349.007 368.512C349.986 367.504 351.401 367 353.252 367C355.104 367 356.519 367.504 357.497 368.512C358.804 369.701 359.457 371.482 359.457 373.855C359.457 376.182 358.804 377.963 357.497 379.199C356.519 380.207 355.104 380.711 353.252 380.711ZM355.81 377.23C356.437 376.439 356.75 375.314 356.75 373.855C356.75 372.402 356.434 371.28 355.801 370.489C355.174 369.692 354.325 369.294 353.252 369.294C352.18 369.294 351.325 369.689 350.686 370.48C350.047 371.271 349.728 372.396 349.728 373.855C349.728 375.314 350.047 376.439 350.686 377.23C351.325 378.021 352.18 378.417 353.252 378.417C354.325 378.417 355.177 378.021 355.81 377.23Z" fill="white"/>
<path d="M343.021 367.396H345.711V380.351H343.021V367.396Z" fill="white"/>
<path d="M342.361 367.396V369.689H338.485V380.351H335.761V369.689H331.867V367.396H342.361Z" fill="white"/>
<path d="M329.801 379.384C328.834 380.269 327.598 380.711 326.092 380.711C324.229 380.711 322.764 380.113 321.698 378.918C320.631 377.717 320.098 376.07 320.098 373.979C320.098 371.717 320.704 369.974 321.917 368.749C322.972 367.683 324.314 367.149 325.943 367.149C328.122 367.149 329.716 367.864 330.724 369.294C331.281 370.097 331.579 370.902 331.62 371.711H328.913C328.738 371.09 328.512 370.621 328.237 370.305C327.744 369.742 327.015 369.461 326.048 369.461C325.064 369.461 324.287 369.859 323.719 370.656C323.151 371.447 322.866 372.569 322.866 374.022C322.866 375.476 323.165 376.565 323.763 377.292C324.366 378.013 325.131 378.373 326.057 378.373C327.006 378.373 327.73 378.062 328.228 377.441C328.503 377.107 328.732 376.606 328.913 375.938H331.594C331.36 377.351 330.762 378.499 329.801 379.384Z" fill="white"/>
<path d="M316.037 375.358V367.396H318.788V375.358C318.788 376.735 318.574 377.808 318.146 378.575C317.349 379.981 315.829 380.685 313.584 380.685C311.34 380.685 309.817 379.981 309.014 378.575C308.586 377.808 308.373 376.735 308.373 375.358V367.396H311.124V375.358C311.124 376.249 311.229 376.899 311.44 377.31C311.768 378.036 312.483 378.399 313.584 378.399C314.68 378.399 315.392 378.036 315.72 377.31C315.931 376.899 316.037 376.249 316.037 375.358Z" fill="white"/>
<path d="M301.587 375.271H298.792V380.351H296.146V367.396H302.501C303.409 367.413 304.106 367.524 304.593 367.729C305.085 367.935 305.501 368.236 305.841 368.635C306.122 368.963 306.344 369.326 306.509 369.725C306.673 370.123 306.755 370.577 306.755 371.087C306.755 371.702 306.599 372.309 306.289 372.906C305.978 373.498 305.466 373.917 304.751 374.163C305.348 374.403 305.77 374.746 306.016 375.191C306.268 375.631 306.394 376.305 306.394 377.213V378.083C306.394 378.675 306.418 379.076 306.465 379.287C306.535 379.621 306.699 379.867 306.957 380.025V380.351H303.977C303.895 380.063 303.837 379.832 303.802 379.656C303.731 379.293 303.693 378.921 303.687 378.54L303.67 377.336C303.658 376.51 303.506 375.959 303.213 375.684C302.926 375.408 302.384 375.271 301.587 375.271ZM303.23 372.915C303.769 372.669 304.039 372.183 304.039 371.456C304.039 370.671 303.778 370.144 303.257 369.874C302.964 369.722 302.524 369.646 301.938 369.646H298.792V373.126H301.859C302.469 373.126 302.926 373.056 303.23 372.915Z" fill="white"/>
<path d="M295.214 367.396V369.689H291.338V380.351H288.613V369.689H284.72V367.396H295.214Z" fill="white"/>
<path d="M279.217 378.479C279.856 378.479 280.374 378.408 280.773 378.268C281.529 377.998 281.907 377.497 281.907 376.765C281.907 376.337 281.719 376.006 281.344 375.771C280.969 375.543 280.38 375.341 279.578 375.165L278.206 374.857C276.859 374.553 275.927 374.222 275.411 373.864C274.538 373.267 274.102 372.332 274.102 371.061C274.102 369.9 274.524 368.937 275.368 368.169C276.211 367.401 277.451 367.018 279.085 367.018C280.451 367.018 281.614 367.381 282.575 368.107C283.541 368.828 284.048 369.877 284.095 371.254H281.494C281.447 370.475 281.107 369.921 280.474 369.593C280.052 369.376 279.528 369.268 278.901 369.268C278.203 369.268 277.647 369.408 277.231 369.689C276.815 369.971 276.607 370.363 276.607 370.867C276.607 371.33 276.812 371.676 277.222 371.904C277.486 372.057 278.048 372.235 278.91 372.44L281.142 372.977C282.12 373.211 282.859 373.524 283.357 373.917C284.13 374.526 284.517 375.408 284.517 376.562C284.517 377.746 284.063 378.73 283.155 379.516C282.252 380.295 280.975 380.685 279.323 380.685C277.635 380.685 276.308 380.301 275.341 379.533C274.374 378.76 273.891 377.699 273.891 376.352H276.475C276.557 376.943 276.718 377.386 276.958 377.679C277.398 378.212 278.151 378.479 279.217 378.479Z" fill="white"/>
<path d="M272.704 380.351H269.997L264.706 371.148V380.351H262.183V367.396H265.022L270.181 376.439V367.396H272.704V380.351Z" fill="white"/>
<path d="M254.668 380.711C252.816 380.711 251.401 380.207 250.423 379.199C249.11 377.963 248.454 376.182 248.454 373.855C248.454 371.482 249.11 369.701 250.423 368.512C251.401 367.504 252.816 367 254.668 367C256.519 367 257.934 367.504 258.913 368.512C260.22 369.701 260.873 371.482 260.873 373.855C260.873 376.182 260.22 377.963 258.913 379.199C257.934 380.207 256.519 380.711 254.668 380.711ZM257.225 377.23C257.852 376.439 258.166 375.314 258.166 373.855C258.166 372.402 257.849 371.28 257.217 370.489C256.59 369.692 255.74 369.294 254.668 369.294C253.596 369.294 252.74 369.689 252.101 370.48C251.463 371.271 251.143 372.396 251.143 373.855C251.143 375.314 251.463 376.439 252.101 377.23C252.74 378.021 253.596 378.417 254.668 378.417C255.74 378.417 256.593 378.021 257.225 377.23Z" fill="white"/>
<path d="M245.79 379.384C244.823 380.269 243.587 380.711 242.081 380.711C240.218 380.711 238.753 380.113 237.687 378.918C236.62 377.717 236.087 376.07 236.087 373.979C236.087 371.717 236.694 369.974 237.906 368.749C238.961 367.683 240.303 367.149 241.932 367.149C244.112 367.149 245.705 367.864 246.713 369.294C247.27 370.097 247.569 370.902 247.61 371.711H244.903C244.727 371.09 244.501 370.621 244.226 370.305C243.734 369.742 243.004 369.461 242.037 369.461C241.053 369.461 240.277 369.859 239.708 370.656C239.14 371.447 238.856 372.569 238.856 374.022C238.856 375.476 239.155 376.565 239.752 377.292C240.356 378.013 241.12 378.373 242.046 378.373C242.995 378.373 243.719 378.062 244.217 377.441C244.492 377.107 244.721 376.606 244.903 375.938H247.583C247.349 377.351 246.751 378.499 245.79 379.384Z" fill="white"/>
<path d="M225.574 375.271H222.779V380.351H220.134V367.396H226.488C227.396 367.413 228.094 367.524 228.58 367.729C229.072 367.935 229.488 368.236 229.828 368.635C230.109 368.963 230.332 369.326 230.496 369.725C230.66 370.123 230.742 370.577 230.742 371.087C230.742 371.702 230.587 372.309 230.276 372.906C229.966 373.498 229.453 373.917 228.738 374.163C229.336 374.403 229.758 374.746 230.004 375.191C230.256 375.631 230.382 376.305 230.382 377.213V378.083C230.382 378.675 230.405 379.076 230.452 379.287C230.522 379.621 230.686 379.867 230.944 380.025V380.351H227.965C227.883 380.063 227.824 379.832 227.789 379.656C227.719 379.293 227.68 378.921 227.675 378.54L227.657 377.336C227.645 376.51 227.493 375.959 227.2 375.684C226.913 375.408 226.371 375.271 225.574 375.271ZM227.218 372.915C227.757 372.669 228.026 372.183 228.026 371.456C228.026 370.671 227.765 370.144 227.244 369.874C226.951 369.722 226.511 369.646 225.926 369.646H222.779V373.126H225.846C226.456 373.126 226.913 373.056 227.218 372.915Z" fill="white"/>
<path d="M217.804 374.69H211.511V378.021H218.683V380.351H208.865V367.396H218.366V369.689H211.511V372.44H217.804V374.69Z" fill="white"/>
<path d="M202.079 380.351H196.498V367.396H202.079C202.882 367.407 203.55 367.501 204.083 367.677C204.992 367.976 205.727 368.523 206.289 369.32C206.741 369.965 207.048 370.662 207.212 371.412C207.376 372.162 207.458 372.877 207.458 373.557C207.458 375.279 207.113 376.738 206.421 377.934C205.484 379.545 204.036 380.351 202.079 380.351ZM204.092 370.7C203.676 369.997 202.853 369.646 201.622 369.646H199.126V378.101H201.622C202.9 378.101 203.79 377.471 204.294 376.211C204.57 375.52 204.707 374.696 204.707 373.741C204.707 372.423 204.502 371.409 204.092 370.7Z" fill="white"/>
<path d="M194.687 380.351H191.98L186.689 371.148V380.351H184.167V367.396H187.005L192.165 376.439V367.396H194.687V380.351Z" fill="white"/>
<path d="M179.587 375.358V367.396H182.338V375.358C182.338 376.735 182.124 377.808 181.696 378.575C180.899 379.981 179.379 380.685 177.135 380.685C174.891 380.685 173.367 379.981 172.564 378.575C172.137 377.808 171.923 376.735 171.923 375.358V367.396H174.674V375.358C174.674 376.249 174.779 376.899 174.99 377.31C175.318 378.036 176.033 378.399 177.135 378.399C178.23 378.399 178.942 378.036 179.27 377.31C179.481 376.899 179.587 376.249 179.587 375.358Z" fill="white"/>
</svg>
