<svg width="24" height="24" fill="none" xmlns="http://www.w3.org/2000/svg"><path fill-rule="evenodd" clip-rule="evenodd" d="M.563 2.695C0 3.78 0 5.203 0 8.05v7.9c0 2.848 0 4.271.563 5.355a5 5 0 0 0 2.132 2.132C3.78 24 5.203 24 8.05 24h7.9c2.848 0 4.271 0 5.355-.563a5 5 0 0 0 2.132-2.132C24 20.22 24 18.797 24 15.95v-7.9c0-2.847 0-4.271-.563-5.355A5 5 0 0 0 21.305.563C20.22 0 18.797 0 15.95 0h-7.9C5.203 0 3.779 0 2.695.563A5 5 0 0 0 .563 2.695Zm7.825.63c.931-.042 1.229-.052 3.599-.052h-.003c2.37 0 2.667.01 3.598.052.93.043 1.564.19 2.12.406.574.223 1.06.52 1.545 1.006.486.485.784.972 1.008 1.546.214.555.361 1.19.405 2.118.042.931.053 1.229.053 3.599s-.011 2.667-.053 3.598c-.044.929-.19 1.563-.405 2.118a4.284 4.284 0 0 1-1.008 1.546 4.27 4.27 0 0 1-1.544 1.007c-.556.216-1.19.363-2.12.406-.93.042-1.227.052-3.597.052s-2.668-.01-3.599-.052c-.928-.043-1.563-.19-2.118-.406a4.273 4.273 0 0 1-1.545-1.007 4.277 4.277 0 0 1-1.007-1.546c-.216-.555-.363-1.19-.405-2.118-.043-.931-.053-1.228-.053-3.598s.01-2.668.052-3.599c.042-.928.19-1.563.406-2.118a4.284 4.284 0 0 1 1.007-1.546A4.273 4.273 0 0 1 6.27 3.731c.555-.216 1.19-.363 2.118-.406Zm3.308 1.52h-.492v-.002c-1.627.002-1.939.013-2.744.05-.85.038-1.313.18-1.62.3a2.709 2.709 0 0 0-1.004.653 2.704 2.704 0 0 0-.653 1.004c-.12.308-.262.77-.3 1.62-.042.92-.05 1.195-.05 3.526 0 2.33.008 2.607.05 3.527.038.85.18 1.313.3 1.62.159.407.348.697.653 1.003.306.305.596.494 1.004.653.308.119.77.261 1.62.3.92.042 1.196.051 3.527.051 2.33 0 2.606-.009 3.526-.05.851-.04 1.313-.181 1.62-.301a2.697 2.697 0 0 0 1.003-.653 2.7 2.7 0 0 0 .653-1.003c.12-.307.262-.769.3-1.62.043-.92.052-1.196.052-3.525 0-2.33-.01-2.605-.051-3.525-.039-.851-.181-1.313-.3-1.62a2.71 2.71 0 0 0-.654-1.004 2.699 2.699 0 0 0-1.003-.653c-.307-.12-.769-.261-1.62-.3-.92-.042-1.196-.05-3.526-.05h-.291Zm3.902 2.496a1.048 1.048 0 1 1 0 0ZM7.505 12a4.482 4.482 0 1 1 8.964 0 4.482 4.482 0 0 1-8.964 0Zm7.39 0a2.91 2.91 0 1 0-5.817 0 2.91 2.91 0 0 0 5.818 0Z" fill="#D9D9D9"/></svg>