<svg width="28" height="24" viewBox="0 0 28 24" fill="none" xmlns="http://www.w3.org/2000/svg">
<path fill-rule="evenodd" clip-rule="evenodd" d="M0.643352 2.69513C0 3.77882 0 5.20255 0 8.05V15.95C0 18.7975 0 20.2212 0.643352 21.3049C1.1855 22.2181 2.03647 22.9627 3.08015 23.4371C4.31865 24 5.94577 24 9.2 24H18.2286C21.4828 24 23.1099 24 24.3484 23.4371C25.3921 22.9627 26.2431 22.2181 26.7852 21.3049C27.4286 20.2212 27.4286 18.7975 27.4286 15.95V8.05C27.4286 5.20255 27.4286 3.77882 26.7852 2.69513C26.2431 1.78191 25.3921 1.03731 24.3484 0.562933C23.1099 0 21.4828 0 18.2286 0H9.2C5.94577 0 4.31865 0 3.08015 0.562933C2.03647 1.03731 1.1855 1.78191 0.643352 2.69513ZM6.15646 7.4533C7.47058 7.4533 8.53588 6.52116 8.53588 5.3713C8.53588 4.22145 7.47058 3.28931 6.15646 3.28931C4.84234 3.28931 3.77704 4.22145 3.77704 5.3713C3.77704 6.52116 4.84234 7.4533 6.15646 7.4533ZM10.715 8.99195H14.6585V10.5727C14.6585 10.5727 15.7286 8.69996 18.6402 8.69996C21.2375 8.69996 23.3891 9.81952 23.3891 13.232V20.428H19.3026V14.104C19.3026 12.0909 18.0743 11.8695 17.1384 11.8695C15.196 11.8695 14.8634 13.3355 14.8634 14.3666V20.428H10.715V8.99195ZM8.23067 8.99196H4.08226V20.428H8.23067V8.99196Z" fill="#D9D9D9"/>
</svg>
