<svg width="22" height="18" viewBox="0 0 22 18" fill="none" xmlns="http://www.w3.org/2000/svg">
<g id="envelope.fill 1" clip-path="url(#clip0_22_281)">
<g id="Group">
<path id="Vector" d="M10.8008 10.1377C11.2012 10.1377 11.5723 9.95215 12.002 9.52246L20.498 1.11426C20.1367 0.762696 19.4629 0.59668 18.4961 0.59668H2.77344C1.95312 0.59668 1.37695 0.752929 1.05469 1.0752L9.59961 9.52246C10.0195 9.94238 10.3906 10.1377 10.8008 10.1377ZM0.244141 15.8505L7.14844 9.02442L0.224609 2.19824C0.078125 2.47168 0 2.94043 0 3.61426V14.3955C0 15.0888 0.078125 15.5771 0.244141 15.8505ZM3.06641 17.4228H18.7891C19.6094 17.4228 20.1758 17.2666 20.498 16.9541L13.457 9.98145L12.8125 10.6357C12.1387 11.2802 11.5039 11.5732 10.8008 11.5732C10.0879 11.5732 9.45312 11.2802 8.78906 10.6357L8.13477 9.98145L1.11328 16.9443C1.48438 17.2666 2.12891 17.4228 3.06641 17.4228ZM21.3281 15.8408C21.4844 15.5576 21.5625 15.0791 21.5625 14.3955V3.61426C21.5625 2.95996 21.4844 2.49121 21.3477 2.22754L14.4434 9.02442L21.3281 15.8408Z" fill="#1E1E24"/>
</g>
</g>
<defs>
<clipPath id="clip0_22_281">
<rect width="21.5625" height="16.8457" fill="white" transform="translate(0 0.577148)"/>
</clipPath>
</defs>
</svg>
