<svg width="28" height="24" viewBox="0 0 28 24" fill="none" xmlns="http://www.w3.org/2000/svg">
<path fill-rule="evenodd" clip-rule="evenodd" d="M0.643352 2.69513C0 3.77882 0 5.20255 0 8.05V15.95C0 18.7975 0 20.2212 0.643352 21.3049C1.1855 22.2181 2.03647 22.9627 3.08015 23.4371C4.31865 24 5.94577 24 9.2 24H18.2286C21.4828 24 23.1099 24 24.3484 23.4371C25.3921 22.9627 26.2431 22.2181 26.7852 21.3049C27.4286 20.2212 27.4286 18.7975 27.4286 15.95V8.05C27.4286 5.20255 27.4286 3.77882 26.7852 2.69513C26.2431 1.78191 25.3921 1.03731 24.3484 0.562933C23.1099 0 21.4828 0 18.2286 0H9.2C5.94577 0 4.31865 0 3.08015 0.562933C2.03647 1.03731 1.1855 1.78191 0.643352 2.69513ZM21.3362 9.52575C21.3362 9.37585 21.334 9.22601 21.3274 9.07611C22.0369 8.59233 22.6511 7.98601 23.1391 7.29782C22.4887 7.57037 21.7873 7.7542 21.052 7.83596C21.8036 7.41351 22.3787 6.7391 22.6511 5.93508C21.9483 6.33027 21.1716 6.61643 20.3425 6.76633C19.6803 6.09859 18.7368 5.68289 17.6921 5.68289C15.6855 5.68289 14.0591 7.22282 14.0591 9.12385C14.0591 9.38958 14.0908 9.65525 14.1528 9.90736C11.134 9.76427 8.45628 8.39469 6.66522 6.3097C6.35071 6.82073 6.17205 7.41355 6.17205 8.04041C6.17205 9.23281 6.81362 10.2889 7.78962 10.909C7.19383 10.8885 6.63275 10.7319 6.14254 10.4798V10.5207C6.14254 12.1901 7.39538 13.58 9.05871 13.8934C8.75159 13.9752 8.43118 14.016 8.10117 14.016C7.86714 14.016 7.63829 13.9955 7.41607 13.9547C7.87897 15.3174 9.22114 16.319 10.8107 16.3395C9.5674 17.2661 8.00004 17.8181 6.29831 17.8181C6.00522 17.8181 5.71655 17.7977 5.43231 17.7704C7.04028 18.7448 8.94872 19.3171 11.0011 19.3171C17.6825 19.3171 21.3362 14.0705 21.3362 9.52575Z" fill="#D9D9D9"/>
</svg>
