<svg width="33" height="40" viewBox="0 0 33 40" fill="none" xmlns="http://www.w3.org/2000/svg">
<path d="M31.5882 15.7708L3.81816 0.122559L0.438569 2.0574L24.5241 15.6373L12.3561 22.0333L0.18811 28.4291L3.53164 30.2907L31.5882 15.7708Z" fill="white"/>
<path d="M0.186401 28.4304L3.53104 30.2907L19.3319 22.1148L15.8892 20.175L0.186401 28.4304Z" fill="url(#paint0_linear_36_1897)"/>
<path d="M31.4994 25.1262L3.7293 9.47803L0.349701 11.4129L24.4352 24.9928L0.0992432 37.7845L3.44278 39.6462L31.4994 25.1262Z" fill="white"/>
<path d="M0.349731 11.4134L3.72825 9.47803L19.4221 18.3179L15.8909 20.1761L0.349731 11.4134Z" fill="url(#paint1_linear_36_1897)"/>
<defs>
<linearGradient id="paint0_linear_36_1897" x1="17.2751" y1="20.5195" x2="7.39626" y2="26.4383" gradientUnits="userSpaceOnUse">
<stop stop-color="#7F7F8B"/>
<stop offset="1" stop-color="#7F7F8B" stop-opacity="0"/>
</linearGradient>
<linearGradient id="paint1_linear_36_1897" x1="17.2273" y1="19.8645" x2="7.40209" y2="13.5596" gradientUnits="userSpaceOnUse">
<stop stop-color="#7F7F8B"/>
<stop offset="1" stop-color="#7F7F8B" stop-opacity="0"/>
</linearGradient>
</defs>
</svg>
