<svg width="606" height="284" viewBox="0 0 606 284" fill="none" xmlns="http://www.w3.org/2000/svg">
<g filter="url(#filter0_f_76_5217)">
<ellipse cx="314.302" cy="236.322" rx="260.499" ry="16.3451" fill="url(#paint0_linear_76_5217)" fill-opacity="0.6"/>
</g>
<rect y="99.4325" width="600" height="126.674" fill="white"/>
<path opacity="0.1" d="M562.543 245.613C562.543 247.117 525.418 248.581 479.455 248.581C433.492 248.581 396.368 247.117 396.368 245.613C396.368 244.109 433.492 243.133 479.455 243.133C525.418 243.133 562.543 244.109 562.543 245.613Z" fill="black"/>
<g clip-path="url(#clip0_76_5217)">
<path d="M71.9214 208.345H81.9942C84.8409 208.345 86.9212 206.649 87.5232 203.858L90.3704 191.82C92.5051 191.109 94.5854 190.288 96.3922 189.412L106.957 195.869C109.312 197.347 111.994 197.128 113.965 195.158L121.027 188.154C122.998 186.184 123.271 183.339 121.684 180.986L115.224 170.535C116.155 168.62 116.976 166.65 117.578 164.68L129.731 161.78C132.523 161.178 134.166 159.099 134.166 156.253V146.349C134.166 143.559 132.523 141.479 129.731 140.878L117.687 137.977C116.976 135.734 116.1 133.709 115.334 132.013L121.793 121.398C123.326 119.045 123.162 116.364 121.136 114.394L113.965 107.335C111.939 105.475 109.53 105.147 107.122 106.515L96.3922 113.135C94.6404 112.205 92.6144 111.384 90.3704 110.673L87.5232 98.471C86.9212 95.6804 84.8409 93.9841 81.9942 93.9841H71.9214C69.0747 93.9841 66.9944 95.6804 66.3375 98.471L63.4908 110.564C61.3558 111.275 59.2755 112.096 57.4142 113.081L46.7939 106.515C44.3851 105.147 41.9216 105.42 39.8961 107.335L32.7794 114.394C30.7538 116.364 30.5349 119.045 32.1224 121.398L38.5275 132.013C37.8159 133.709 36.9399 135.734 36.2282 137.977L24.1845 140.878C21.3926 141.479 19.7503 143.559 19.7503 146.349V156.253C19.7503 159.099 21.3926 161.178 24.1845 161.78L36.3377 164.68C36.9399 166.65 37.7611 168.62 38.637 170.535L32.2319 180.986C30.5896 183.339 30.9181 186.184 32.8889 188.154L39.8961 195.158C41.8669 197.128 44.6041 197.347 46.9581 195.869L57.469 189.412C59.3303 190.288 61.3558 191.109 63.4908 191.82L66.3375 203.858C66.9944 206.649 69.0747 208.345 71.9214 208.345ZM76.958 170.48C66.3375 170.48 57.6332 161.725 57.6332 151.11C57.6332 140.549 66.3375 131.849 76.958 131.849C87.5782 131.849 96.2823 140.549 96.2823 151.11C96.2823 161.725 87.5782 170.48 76.958 170.48Z" fill="#FFA400"/>
</g>
<g clip-path="url(#clip1_76_5217)">
<path d="M497.476 173.604H509.107C512.395 173.604 514.797 171.644 515.492 168.422L518.78 154.521C521.245 153.7 523.647 152.752 525.734 151.74L537.934 159.197C540.653 160.903 543.75 160.65 546.026 158.375L554.181 150.287C556.457 148.013 556.773 144.727 554.939 142.01L547.48 129.941C548.555 127.73 549.503 125.456 550.198 123.181L564.232 119.832C567.456 119.137 569.353 116.736 569.353 113.45V102.013C569.353 98.7906 567.456 96.3895 564.232 95.6944L550.325 92.3455C549.503 89.7549 548.491 87.417 547.606 85.4582L555.066 73.2001C556.836 70.4831 556.646 67.3869 554.307 65.1122L546.026 56.9612C543.687 54.8128 540.905 54.4337 538.124 56.0134L525.734 63.6589C523.711 62.5847 521.371 61.637 518.78 60.8156L515.492 46.725C514.797 43.5025 512.395 41.5437 509.107 41.5437H497.476C494.188 41.5437 491.786 43.5025 491.028 46.725L487.74 60.6891C485.275 61.5106 482.873 62.4584 480.723 63.5957L468.459 56.0134C465.678 54.4337 462.833 54.7497 460.494 56.9612L452.276 65.1122C449.937 67.3869 449.684 70.4831 451.517 73.2001L458.914 85.4582C458.092 87.417 457.08 89.7549 456.259 92.3455L442.351 95.6944C439.127 96.3895 437.23 98.7906 437.23 102.013V113.45C437.23 116.736 439.127 119.137 442.351 119.832L456.385 123.181C457.08 125.456 458.029 127.73 459.04 129.941L451.644 142.01C449.747 144.727 450.127 148.013 452.402 150.287L460.494 158.375C462.77 160.65 465.931 160.903 468.649 159.197L480.787 151.74C482.936 152.752 485.275 153.7 487.74 154.521L491.028 168.422C491.786 171.644 494.188 173.604 497.476 173.604ZM503.292 129.878C491.028 129.878 480.976 119.768 480.976 107.51C480.976 95.3153 491.028 85.2687 503.292 85.2687C515.555 85.2687 525.607 95.3153 525.607 107.51C525.607 119.768 515.555 129.878 503.292 129.878Z" fill="#DB324D"/>
</g>
<g clip-path="url(#clip2_76_5217)">
<path d="M191.654 114.049H55.7143C54.5394 114.049 53.5869 115.005 53.5869 116.184V120.453C53.5869 121.632 54.5394 122.588 55.7143 122.588H191.654C192.829 122.588 193.781 121.632 193.781 120.453V116.184C193.781 115.005 192.829 114.049 191.654 114.049Z" fill="#62626C"/>
<path d="M196.653 11.5778H51.2468C48.897 11.5778 46.9921 13.4893 46.9921 15.8474V113.515C46.9921 115.873 48.897 117.785 51.2468 117.785H196.653C199.003 117.785 200.908 115.873 200.908 113.515V15.8474C200.908 13.4893 199.003 11.5778 196.653 11.5778Z" fill="#1E1E24"/>
<path d="M55.2888 20.2237C56.2288 20.2237 56.9908 19.4591 56.9908 18.5159C56.9908 17.5727 56.2288 16.808 55.2888 16.808C54.3489 16.808 53.5869 17.5727 53.5869 18.5159C53.5869 19.4591 54.3489 20.2237 55.2888 20.2237Z" fill="#DB324D"/>
<path d="M60.0755 20.2237C61.0154 20.2237 61.7774 19.4591 61.7774 18.5159C61.7774 17.5727 61.0154 16.808 60.0755 16.808C59.1355 16.808 58.3736 17.5727 58.3736 18.5159C58.3736 19.4591 59.1355 20.2237 60.0755 20.2237Z" fill="#FFA400"/>
<path d="M64.8621 20.2237C65.802 20.2237 66.564 19.4591 66.564 18.5159C66.564 17.5727 65.802 16.808 64.8621 16.808C63.9221 16.808 63.1602 17.5727 63.1602 18.5159C63.1602 19.4591 63.9221 20.2237 64.8621 20.2237Z" fill="#287F78"/>
<path d="M58.6927 26.7349H55.608V29.2967H58.6927V26.7349Z" fill="#D9D9D9"/>
<path d="M58.6927 31.8585H55.608V34.4202H58.6927V31.8585Z" fill="#D9D9D9"/>
<path d="M58.6927 36.982H55.608V39.5438H58.6927V36.982Z" fill="#D9D9D9"/>
<path d="M58.6927 42.1056H55.608V44.6673H58.6927V42.1056Z" fill="#D9D9D9"/>
<path d="M58.6927 47.2291H55.608V49.7909H58.6927V47.2291Z" fill="#D9D9D9"/>
<path d="M58.6927 52.3527H55.608V54.9144H58.6927V52.3527Z" fill="#D9D9D9"/>
<path d="M58.6927 57.4762H55.608V60.038H58.6927V57.4762Z" fill="#D9D9D9"/>
<path d="M58.6927 62.5998H55.608V65.1615H58.6927V62.5998Z" fill="#D9D9D9"/>
<path d="M58.6927 67.7233H55.608V70.2851H58.6927V67.7233Z" fill="#D9D9D9"/>
<path d="M58.6927 72.8469H55.608V75.4086H58.6927V72.8469Z" fill="#D9D9D9"/>
<path d="M58.6927 77.9704H55.608V80.5322H58.6927V77.9704Z" fill="#D9D9D9"/>
<path d="M58.6927 83.094H55.608V85.6557H58.6927V83.094Z" fill="#D9D9D9"/>
<path d="M58.6927 88.2175H55.608V90.7793H58.6927V88.2175Z" fill="#D9D9D9"/>
<path d="M58.6927 93.3411H55.608V95.9028H58.6927V93.3411Z" fill="#D9D9D9"/>
<path d="M58.6927 98.4646H55.608V101.026H58.6927V98.4646Z" fill="#D9D9D9"/>
<path d="M58.6927 103.588H55.608V106.15H58.6927V103.588Z" fill="#D9D9D9"/>
<path d="M58.6927 108.712H55.608V111.273H58.6927V108.712Z" fill="#D9D9D9"/>
<path d="M62.4422 22.8923V114.049" stroke="url(#paint1_linear_76_5217)" stroke-width="2.5"/>
<path d="M77.3072 26.7349H66.2449C66.0686 26.7349 65.9258 26.8783 65.9258 27.0551V28.9765C65.9258 29.1533 66.0686 29.2967 66.2449 29.2967H77.3072C77.4835 29.2967 77.6263 29.1533 77.6263 28.9765V27.0551C77.6263 26.8783 77.4835 26.7349 77.3072 26.7349Z" fill="white"/>
<path d="M81.8811 26.7349H79.0091C78.8329 26.7349 78.69 26.8783 78.69 27.0551V28.9765C78.69 29.1533 78.8329 29.2967 79.0091 29.2967H81.8811C82.0573 29.2967 82.2002 29.1533 82.2002 28.9765V27.0551C82.2002 26.8783 82.0573 26.7349 81.8811 26.7349Z" fill="white"/>
<path d="M84.434 31.8585H66.2449C66.0686 31.8585 65.9258 32.0018 65.9258 32.1787V34.1C65.9258 34.2769 66.0686 34.4202 66.2449 34.4202H84.434C84.6102 34.4202 84.7531 34.2769 84.7531 34.1V32.1787C84.7531 32.0018 84.6102 31.8585 84.434 31.8585Z" fill="#D9D9D9"/>
<path d="M110.92 31.8585H86.1359C85.9596 31.8585 85.8168 32.0018 85.8168 32.1787V34.1C85.8168 34.2769 85.9596 34.4202 86.1359 34.4202H110.92C111.096 34.4202 111.239 34.2769 111.239 34.1V32.1787C111.239 32.0018 111.096 31.8585 110.92 31.8585Z" fill="#34343F"/>
<path d="M128.364 31.8585H112.622C112.446 31.8585 112.303 32.0018 112.303 32.1787V34.1C112.303 34.2769 112.446 34.4202 112.622 34.4202H128.364C128.541 34.4202 128.684 34.2769 128.684 34.1V32.1787C128.684 32.0018 128.541 31.8585 128.364 31.8585Z" fill="#D9D9D9"/>
<path d="M71.776 36.982H66.2449C66.0686 36.982 65.9258 37.1254 65.9258 37.3022V39.2236C65.9258 39.4004 66.0686 39.5438 66.2449 39.5438H71.776C71.9523 39.5438 72.0952 39.4004 72.0952 39.2236V37.3022C72.0952 37.1254 71.9523 36.982 71.776 36.982Z" fill="#DB324D"/>
<path d="M79.0091 36.982H73.478C73.3017 36.982 73.1588 37.1254 73.1588 37.3022V39.2236C73.1588 39.4004 73.3017 39.5438 73.478 39.5438H79.0091C79.1854 39.5438 79.3282 39.4004 79.3282 39.2236V37.3022C79.3282 37.1254 79.1854 36.982 79.0091 36.982Z" fill="#FFA400"/>
<path d="M69.1168 42.1056H66.2449C66.0686 42.1056 65.9258 42.2489 65.9258 42.4258V44.3471C65.9258 44.524 66.0686 44.6673 66.2449 44.6673H69.1168C69.2931 44.6673 69.4359 44.524 69.4359 44.3471V42.4258C69.4359 42.2489 69.2931 42.1056 69.1168 42.1056Z" fill="#1E1E24"/>
<path d="M77.9455 42.1056H70.8187C70.6425 42.1056 70.4996 42.2489 70.4996 42.4258V44.3471C70.4996 44.524 70.6425 44.6673 70.8187 44.6673H77.9455C78.1217 44.6673 78.2646 44.524 78.2646 44.3471V42.4258C78.2646 42.2489 78.1217 42.1056 77.9455 42.1056Z" fill="#D9D9D9"/>
<path d="M92.6244 42.1056H79.6474C79.4711 42.1056 79.3282 42.2489 79.3282 42.4258V44.3471C79.3282 44.524 79.4711 44.6673 79.6474 44.6673H92.6244C92.8006 44.6673 92.9435 44.524 92.9435 44.3471V42.4258C92.9435 42.2489 92.8006 42.1056 92.6244 42.1056Z" fill="#34343F"/>
<path d="M101.028 42.1056H94.3263C94.15 42.1056 94.0072 42.2489 94.0072 42.4258V44.3471C94.0072 44.524 94.15 44.6673 94.3263 44.6673H101.028C101.204 44.6673 101.347 44.524 101.347 44.3471V42.4258C101.347 42.2489 101.204 42.1056 101.028 42.1056Z" fill="#34343F"/>
<path d="M107.729 42.1056H102.729C102.553 42.1056 102.41 42.2489 102.41 42.4258V44.3471C102.41 44.524 102.553 44.6673 102.729 44.6673H107.729C107.905 44.6673 108.048 44.524 108.048 44.3471V42.4258C108.048 42.2489 107.905 42.1056 107.729 42.1056Z" fill="white"/>
<path d="M134.215 42.1056H109.431C109.254 42.1056 109.112 42.2489 109.112 42.4258V44.3471C109.112 44.524 109.254 44.6673 109.431 44.6673H134.215C134.391 44.6673 134.534 44.524 134.534 44.3471V42.4258C134.534 42.2489 134.391 42.1056 134.215 42.1056Z" fill="#D9D9D9"/>
<path d="M140.916 42.1056H135.917C135.74 42.1056 135.597 42.2489 135.597 42.4258V44.3471C135.597 44.524 135.74 44.6673 135.917 44.6673H140.916C141.092 44.6673 141.235 44.524 141.235 44.3471V42.4258C141.235 42.2489 141.092 42.1056 140.916 42.1056Z" fill="white"/>
<path d="M160.807 42.1056H142.618C142.442 42.1056 142.299 42.2489 142.299 42.4258V44.3471C142.299 44.524 142.442 44.6673 142.618 44.6673H160.807C160.983 44.6673 161.126 44.524 161.126 44.3471V42.4258C161.126 42.2489 160.983 42.1056 160.807 42.1056Z" fill="white"/>
<path d="M69.1168 47.2291H66.2449C66.0686 47.2291 65.9258 47.3725 65.9258 47.5493V49.4707C65.9258 49.6475 66.0686 49.7909 66.2449 49.7909H69.1168C69.2931 49.7909 69.4359 49.6475 69.4359 49.4707V47.5493C69.4359 47.3725 69.2931 47.2291 69.1168 47.2291Z" fill="#1E1E24"/>
<path d="M77.9455 47.2291H70.8187C70.6425 47.2291 70.4996 47.3725 70.4996 47.5493V49.4707C70.4996 49.6475 70.6425 49.7909 70.8187 49.7909H77.9455C78.1217 49.7909 78.2646 49.6475 78.2646 49.4707V47.5493C78.2646 47.3725 78.1217 47.2291 77.9455 47.2291Z" fill="#D9D9D9"/>
<path d="M81.0302 47.2291H79.6474C79.4711 47.2291 79.3282 47.3725 79.3282 47.5493V49.4707C79.3282 49.6475 79.4711 49.7909 79.6474 49.7909H81.0302C81.2064 49.7909 81.3493 49.6475 81.3493 49.4707V47.5493C81.3493 47.3725 81.2064 47.2291 81.0302 47.2291Z" fill="#34343F"/>
<path d="M126.237 47.2291H82.7321C82.5558 47.2291 82.413 47.3725 82.413 47.5493V49.4707C82.413 49.6475 82.5558 49.7909 82.7321 49.7909H126.237C126.413 49.7909 126.556 49.6475 126.556 49.4707V47.5493C126.556 47.3725 126.413 47.2291 126.237 47.2291Z" fill="#D9D9D9"/>
<path d="M75.0735 52.3527H66.2449C66.0686 52.3527 65.9258 52.496 65.9258 52.6729V54.5942C65.9258 54.7711 66.0686 54.9144 66.2449 54.9144H75.0735C75.2497 54.9144 75.3926 54.7711 75.3926 54.5942V52.6729C75.3926 52.496 75.2497 52.3527 75.0735 52.3527Z" fill="#FFA400"/>
<path d="M80.4983 52.3527H77.0945C76.9183 52.3527 76.7754 52.496 76.7754 52.6729V54.5942C76.7754 54.7711 76.9183 54.9144 77.0945 54.9144H80.4983C80.6745 54.9144 80.8174 54.7711 80.8174 54.5942V52.6729C80.8174 52.496 80.6745 52.3527 80.4983 52.3527Z" fill="#DB324D"/>
<path d="M69.1168 57.4762H66.2449C66.0686 57.4762 65.9258 57.6196 65.9258 57.7964V59.7178C65.9258 59.8946 66.0686 60.038 66.2449 60.038H69.1168C69.2931 60.038 69.4359 59.8946 69.4359 59.7178V57.7964C69.4359 57.6196 69.2931 57.4762 69.1168 57.4762Z" fill="#1E1E24"/>
<path d="M77.0945 57.4762H70.8187C70.6425 57.4762 70.4996 57.6196 70.4996 57.7964V59.7178C70.4996 59.8946 70.6425 60.038 70.8187 60.038H77.0945C77.2708 60.038 77.4136 59.8946 77.4136 59.7178V57.7964C77.4136 57.6196 77.2708 57.4762 77.0945 57.4762Z" fill="white"/>
<path d="M88.3696 57.4762H78.7964C78.6202 57.4762 78.4773 57.6196 78.4773 57.7964V59.7178C78.4773 59.8946 78.6202 60.038 78.7964 60.038H88.3696C88.5459 60.038 88.6887 59.8946 88.6887 59.7178V57.7964C88.6887 57.6196 88.5459 57.4762 88.3696 57.4762Z" fill="#34343F"/>
<path d="M102.304 57.4762H90.0715C89.8953 57.4762 89.7524 57.6196 89.7524 57.7964V59.7178C89.7524 59.8946 89.8953 60.038 90.0715 60.038H102.304C102.48 60.038 102.623 59.8946 102.623 59.7178V57.7964C102.623 57.6196 102.48 57.4762 102.304 57.4762Z" fill="#D9D9D9"/>
<path d="M108.686 57.4762H104.006C103.83 57.4762 103.687 57.6196 103.687 57.7964V59.7178C103.687 59.8946 103.83 60.038 104.006 60.038H108.686C108.862 60.038 109.005 59.8946 109.005 59.7178V57.7964C109.005 57.6196 108.862 57.4762 108.686 57.4762Z" fill="#34343F"/>
<path d="M69.1168 62.5998H66.2449C66.0686 62.5998 65.9258 62.7431 65.9258 62.92V64.8413C65.9258 65.0182 66.0686 65.1615 66.2449 65.1615H69.1168C69.2931 65.1615 69.4359 65.0182 69.4359 64.8413V62.92C69.4359 62.7431 69.2931 62.5998 69.1168 62.5998Z" fill="#1E1E24"/>
<path d="M88.476 62.5998H70.8187C70.6425 62.5998 70.4996 62.7431 70.4996 62.92V64.8413C70.4996 65.0182 70.6425 65.1615 70.8187 65.1615H88.476C88.6522 65.1615 88.7951 65.0182 88.7951 64.8413V62.92C88.7951 62.7431 88.6522 62.5998 88.476 62.5998Z" fill="white"/>
<path d="M101.985 62.5998H90.1779C90.0017 62.5998 89.8588 62.7431 89.8588 62.92V64.8413C89.8588 65.0182 90.0017 65.1615 90.1779 65.1615H101.985C102.161 65.1615 102.304 65.0182 102.304 64.8413V62.92C102.304 62.7431 102.161 62.5998 101.985 62.5998Z" fill="#34343F"/>
<path d="M108.048 62.5998H103.687C103.511 62.5998 103.368 62.7431 103.368 62.92V64.8413C103.368 65.0182 103.511 65.1615 103.687 65.1615H108.048C108.224 65.1615 108.367 65.0182 108.367 64.8413V62.92C108.367 62.7431 108.224 62.5998 108.048 62.5998Z" fill="white"/>
<path d="M131.236 62.5998H109.75C109.574 62.5998 109.431 62.7431 109.431 62.92V64.8413C109.431 65.0182 109.574 65.1615 109.75 65.1615H131.236C131.413 65.1615 131.555 65.0182 131.555 64.8413V62.92C131.555 62.7431 131.413 62.5998 131.236 62.5998Z" fill="white"/>
<path d="M69.1168 67.7233H66.2449C66.0686 67.7233 65.9258 67.8667 65.9258 68.0435V69.9649C65.9258 70.1417 66.0686 70.2851 66.2449 70.2851H69.1168C69.2931 70.2851 69.4359 70.1417 69.4359 69.9649V68.0435C69.4359 67.8667 69.2931 67.7233 69.1168 67.7233Z" fill="#1E1E24"/>
<path d="M73.2652 67.7233H70.8187C70.6425 67.7233 70.4996 67.8667 70.4996 68.0435V69.9649C70.4996 70.1417 70.6425 70.2851 70.8187 70.2851H73.2652C73.4415 70.2851 73.5843 70.1417 73.5843 69.9649V68.0435C73.5843 67.8667 73.4415 67.7233 73.2652 67.7233Z" fill="#D9D9D9"/>
<path d="M82.8384 67.7233H74.9671C74.7909 67.7233 74.648 67.8667 74.648 68.0435V69.9649C74.648 70.1417 74.7909 70.2851 74.9671 70.2851H82.8384C83.0147 70.2851 83.1575 70.1417 83.1575 69.9649V68.0435C83.1575 67.8667 83.0147 67.7233 82.8384 67.7233Z" fill="#34343F"/>
<path d="M92.4116 67.7233H84.5403C84.3641 67.7233 84.2212 67.8667 84.2212 68.0435V69.9649C84.2212 70.1417 84.3641 70.2851 84.5403 70.2851H92.4116C92.5879 70.2851 92.7307 70.1417 92.7307 69.9649V68.0435C92.7307 67.8667 92.5879 67.7233 92.4116 67.7233Z" fill="#34343F"/>
<path d="M120.068 67.7233H94.1135C93.9373 67.7233 93.7944 67.8667 93.7944 68.0435V69.9649C93.7944 70.1417 93.9373 70.2851 94.1135 70.2851H120.068C120.244 70.2851 120.387 70.1417 120.387 69.9649V68.0435C120.387 67.8667 120.244 67.7233 120.068 67.7233Z" fill="#34343F"/>
<path d="M129.109 67.7233H121.769C121.593 67.7233 121.45 67.8667 121.45 68.0435V69.9649C121.45 70.1417 121.593 70.2851 121.769 70.2851H129.109C129.285 70.2851 129.428 70.1417 129.428 69.9649V68.0435C129.428 67.8667 129.285 67.7233 129.109 67.7233Z" fill="#D9D9D9"/>
<path d="M148.362 67.7233H130.811C130.635 67.7233 130.492 67.8667 130.492 68.0435V69.9649C130.492 70.1417 130.635 70.2851 130.811 70.2851H148.362C148.538 70.2851 148.681 70.1417 148.681 69.9649V68.0435C148.681 67.8667 148.538 67.7233 148.362 67.7233Z" fill="white"/>
<path d="M69.1168 72.8469H66.2449C66.0686 72.8469 65.9258 72.9902 65.9258 73.1671V75.0884C65.9258 75.2653 66.0686 75.4086 66.2449 75.4086H69.1168C69.2931 75.4086 69.4359 75.2653 69.4359 75.0884V73.1671C69.4359 72.9902 69.2931 72.8469 69.1168 72.8469Z" fill="#1E1E24"/>
<path d="M89.6461 72.8469H70.8187C70.6425 72.8469 70.4996 72.9902 70.4996 73.1671V75.0884C70.4996 75.2653 70.6425 75.4086 70.8187 75.4086H89.6461C89.8223 75.4086 89.9652 75.2653 89.9652 75.0884V73.1671C89.9652 72.9902 89.8223 72.8469 89.6461 72.8469Z" fill="white"/>
<path d="M99.6447 72.8469H91.3479C91.1717 72.8469 91.0288 72.9902 91.0288 73.1671V75.0884C91.0288 75.2653 91.1717 75.4086 91.3479 75.4086H99.6447C99.821 75.4086 99.9638 75.2653 99.9638 75.0884V73.1671C99.9638 72.9902 99.821 72.8469 99.6447 72.8469Z" fill="#34343F"/>
<path d="M120.174 72.8469H101.347C101.17 72.8469 101.028 72.9902 101.028 73.1671V75.0884C101.028 75.2653 101.17 75.4086 101.347 75.4086H120.174C120.35 75.4086 120.493 75.2653 120.493 75.0884V73.1671C120.493 72.9902 120.35 72.8469 120.174 72.8469Z" fill="#34343F"/>
<path d="M79.4346 77.9704H66.2449C66.0686 77.9704 65.9258 78.1138 65.9258 78.2906V80.212C65.9258 80.3888 66.0686 80.5322 66.2449 80.5322H79.4346C79.6109 80.5322 79.7537 80.3888 79.7537 80.212V78.2906C79.7537 78.1138 79.6109 77.9704 79.4346 77.9704Z" fill="#1E1E24"/>
<path d="M83.583 77.9704H81.1365C80.9603 77.9704 80.8174 78.1138 80.8174 78.2906V80.212C80.8174 80.3888 80.9603 80.5322 81.1365 80.5322H83.583C83.7592 80.5322 83.9021 80.3888 83.9021 80.212V78.2906C83.9021 78.1138 83.7592 77.9704 83.583 77.9704Z" fill="#D9D9D9"/>
<path d="M87.7314 77.9704H85.2849C85.1087 77.9704 84.9658 78.1138 84.9658 78.2906V80.212C84.9658 80.3888 85.1087 80.5322 85.2849 80.5322H87.7314C87.9077 80.5322 88.0505 80.3888 88.0505 80.212V78.2906C88.0505 78.1138 87.9077 77.9704 87.7314 77.9704Z" fill="#34343F"/>
<path d="M111.984 77.9704H89.4333C89.2571 77.9704 89.1142 78.1138 89.1142 78.2906V80.212C89.1142 80.3888 89.2571 80.5322 89.4333 80.5322H111.984C112.16 80.5322 112.303 80.3888 112.303 80.212V78.2906C112.303 78.1138 112.16 77.9704 111.984 77.9704Z" fill="#34343F"/>
<path d="M116.132 77.9704H113.685C113.509 77.9704 113.366 78.1138 113.366 78.2906V80.212C113.366 80.3888 113.509 80.5322 113.685 80.5322H116.132C116.308 80.5322 116.451 80.3888 116.451 80.212V78.2906C116.451 78.1138 116.308 77.9704 116.132 77.9704Z" fill="white"/>
<path d="M79.4346 83.094H66.2449C66.0686 83.094 65.9258 83.2373 65.9258 83.4142V85.3355C65.9258 85.5124 66.0686 85.6557 66.2449 85.6557H79.4346C79.6109 85.6557 79.7537 85.5124 79.7537 85.3355V83.4142C79.7537 83.2373 79.6109 83.094 79.4346 83.094Z" fill="#1E1E24"/>
<path d="M83.583 83.094H81.1365C80.9603 83.094 80.8174 83.2373 80.8174 83.4142V85.3355C80.8174 85.5124 80.9603 85.6557 81.1365 85.6557H83.583C83.7592 85.6557 83.9021 85.5124 83.9021 85.3355V83.4142C83.9021 83.2373 83.7592 83.094 83.583 83.094Z" fill="#D9D9D9"/>
<path d="M96.6664 83.094H85.2849C85.1087 83.094 84.9658 83.2373 84.9658 83.4142V85.3355C84.9658 85.5124 85.1087 85.6557 85.2849 85.6557H96.6664C96.8427 85.6557 96.9855 85.5124 96.9855 85.3355V83.4142C96.9855 83.2373 96.8427 83.094 96.6664 83.094Z" fill="#D9D9D9"/>
<path d="M117.302 83.094H98.3683C98.1921 83.094 98.0492 83.2373 98.0492 83.4142V85.3355C98.0492 85.5124 98.1921 85.6557 98.3683 85.6557H117.302C117.478 85.6557 117.621 85.5124 117.621 85.3355V83.4142C117.621 83.2373 117.478 83.094 117.302 83.094Z" fill="#34343F"/>
<path d="M127.513 83.094H119.004C118.828 83.094 118.685 83.2373 118.685 83.4142V85.3355C118.685 85.5124 118.828 85.6557 119.004 85.6557H127.513C127.69 85.6557 127.833 85.5124 127.833 85.3355V83.4142C127.833 83.2373 127.69 83.094 127.513 83.094Z" fill="white"/>
<path d="M134.534 83.094H129.215C129.039 83.094 128.896 83.2373 128.896 83.4142V85.3355C128.896 85.5124 129.039 85.6557 129.215 85.6557H134.534C134.71 85.6557 134.853 85.5124 134.853 85.3355V83.4142C134.853 83.2373 134.71 83.094 134.534 83.094Z" fill="#34343F"/>
<path d="M144.745 83.094H136.236C136.059 83.094 135.917 83.2373 135.917 83.4142V85.3355C135.917 85.5124 136.059 85.6557 136.236 85.6557H144.745C144.921 85.6557 145.064 85.5124 145.064 85.3355V83.4142C145.064 83.2373 144.921 83.094 144.745 83.094Z" fill="#D9D9D9"/>
<path d="M79.4346 88.2175H66.2449C66.0686 88.2175 65.9258 88.3609 65.9258 88.5377V90.4591C65.9258 90.6359 66.0686 90.7793 66.2449 90.7793H79.4346C79.6109 90.7793 79.7537 90.6359 79.7537 90.4591V88.5377C79.7537 88.3609 79.6109 88.2175 79.4346 88.2175Z" fill="#1E1E24"/>
<path d="M86.3486 88.2175H81.1365C80.9603 88.2175 80.8174 88.3609 80.8174 88.5377V90.4591C80.8174 90.6359 80.9603 90.7793 81.1365 90.7793H86.3486C86.5248 90.7793 86.6677 90.6359 86.6677 90.4591V88.5377C86.6677 88.3609 86.5248 88.2175 86.3486 88.2175Z" fill="#D9D9D9"/>
<path d="M89.7524 88.2175H88.0505C87.8743 88.2175 87.7314 88.3609 87.7314 88.5377V90.4591C87.7314 90.6359 87.8743 90.7793 88.0505 90.7793H89.7524C89.9287 90.7793 90.0715 90.6359 90.0715 90.4591V88.5377C90.0715 88.3609 89.9287 88.2175 89.7524 88.2175Z" fill="#34343F"/>
<path d="M107.41 88.2175H91.4543C91.2781 88.2175 91.1352 88.3609 91.1352 88.5377V90.4591C91.1352 90.6359 91.2781 90.7793 91.4543 90.7793H107.41C107.586 90.7793 107.729 90.6359 107.729 90.4591V88.5377C107.729 88.3609 107.586 88.2175 107.41 88.2175Z" fill="#34343F"/>
<path d="M120.706 88.2175H109.112C108.935 88.2175 108.792 88.3609 108.792 88.5377V90.4591C108.792 90.6359 108.935 90.7793 109.112 90.7793H120.706C120.882 90.7793 121.025 90.6359 121.025 90.4591V88.5377C121.025 88.3609 120.882 88.2175 120.706 88.2175Z" fill="#D9D9D9"/>
<path d="M125.28 88.2175H122.408C122.231 88.2175 122.089 88.3609 122.089 88.5377V90.4591C122.089 90.6359 122.231 90.7793 122.408 90.7793H125.28C125.456 90.7793 125.599 90.6359 125.599 90.4591V88.5377C125.599 88.3609 125.456 88.2175 125.28 88.2175Z" fill="white"/>
<path d="M69.1168 93.3411H66.2449C66.0686 93.3411 65.9258 93.4844 65.9258 93.6613V95.5826C65.9258 95.7595 66.0686 95.9028 66.2449 95.9028H69.1168C69.2931 95.9028 69.4359 95.7595 69.4359 95.5826V93.6613C69.4359 93.4844 69.2931 93.3411 69.1168 93.3411Z" fill="#1E1E24"/>
<path d="M88.5824 93.3411H70.8187C70.6425 93.3411 70.4996 93.4844 70.4996 93.6613V95.5826C70.4996 95.7595 70.6425 95.9028 70.8187 95.9028H88.5824C88.7586 95.9028 88.9015 95.7595 88.9015 95.5826V93.6613C88.9015 93.4844 88.7586 93.3411 88.5824 93.3411Z" fill="#D9D9D9"/>
<path d="M91.9862 93.3411H90.2843C90.108 93.3411 89.9651 93.4844 89.9651 93.6613V95.5826C89.9651 95.7595 90.108 95.9028 90.2843 95.9028H91.9862C92.1624 95.9028 92.3053 95.7595 92.3053 95.5826V93.6613C92.3053 93.4844 92.1624 93.3411 91.9862 93.3411Z" fill="#34343F"/>
<path d="M99.9638 93.3411H93.6881C93.5118 93.3411 93.369 93.4844 93.369 93.6613V95.5826C93.369 95.7595 93.5118 95.9028 93.6881 95.9028H99.9638C100.14 95.9028 100.283 95.7595 100.283 95.5826V93.6613C100.283 93.4844 100.14 93.3411 99.9638 93.3411Z" fill="#D9D9D9"/>
<path d="M109.963 93.3411H101.666C101.49 93.3411 101.347 93.4844 101.347 93.6613V95.5826C101.347 95.7595 101.49 95.9028 101.666 95.9028H109.963C110.139 95.9028 110.282 95.7595 110.282 95.5826V93.6613C110.282 93.4844 110.139 93.3411 109.963 93.3411Z" fill="white"/>
<path d="M123.259 93.3411H111.664C111.488 93.3411 111.345 93.4844 111.345 93.6613V95.5826C111.345 95.7595 111.488 95.9028 111.664 95.9028H123.259C123.435 95.9028 123.578 95.7595 123.578 95.5826V93.6613C123.578 93.4844 123.435 93.3411 123.259 93.3411Z" fill="#34343F"/>
<path d="M127.833 93.3411H124.961C124.784 93.3411 124.641 93.4844 124.641 93.6613V95.5826C124.641 95.7595 124.784 95.9028 124.961 95.9028H127.833C128.009 95.9028 128.152 95.7595 128.152 95.5826V93.6613C128.152 93.4844 128.009 93.3411 127.833 93.3411Z" fill="#D9D9D9"/>
<path d="M69.1168 98.4646H66.2449C66.0686 98.4646 65.9258 98.608 65.9258 98.7848V100.706C65.9258 100.883 66.0686 101.026 66.2449 101.026H69.1168C69.2931 101.026 69.4359 100.883 69.4359 100.706V98.7848C69.4359 98.608 69.2931 98.4646 69.1168 98.4646Z" fill="#1E1E24"/>
<path d="M88.5824 98.4646H70.8187C70.6425 98.4646 70.4996 98.608 70.4996 98.7848V100.706C70.4996 100.883 70.6425 101.026 70.8187 101.026H88.5824C88.7586 101.026 88.9015 100.883 88.9015 100.706V98.7848C88.9015 98.608 88.7586 98.4646 88.5824 98.4646Z" fill="#34343F"/>
<path d="M117.94 98.4646H90.2843C90.108 98.4646 89.9651 98.608 89.9651 98.7848V100.706C89.9651 100.883 90.108 101.026 90.2843 101.026H117.94C118.116 101.026 118.259 100.883 118.259 100.706V98.7848C118.259 98.608 118.116 98.4646 117.94 98.4646Z" fill="white"/>
<path d="M122.408 98.4646H119.642C119.466 98.4646 119.323 98.608 119.323 98.7848V100.706C119.323 100.883 119.466 101.026 119.642 101.026H122.408C122.584 101.026 122.727 100.883 122.727 100.706V98.7848C122.727 98.608 122.584 98.4646 122.408 98.4646Z" fill="#34343F"/>
<path d="M146.766 98.4646H124.11C123.933 98.4646 123.791 98.608 123.791 98.7848V100.706C123.791 100.883 123.933 101.026 124.11 101.026H146.766C146.942 101.026 147.085 100.883 147.085 100.706V98.7848C147.085 98.608 146.942 98.4646 146.766 98.4646Z" fill="#D9D9D9"/>
<path d="M165.806 98.4646H148.468C148.292 98.4646 148.149 98.608 148.149 98.7848V100.706C148.149 100.883 148.292 101.026 148.468 101.026H165.806C165.983 101.026 166.125 100.883 166.125 100.706V98.7848C166.125 98.608 165.983 98.4646 165.806 98.4646Z" fill="white"/>
<path d="M76.9881 103.588H66.2449C66.0686 103.588 65.9258 103.732 65.9258 103.908V105.83C65.9258 106.007 66.0686 106.15 66.2449 106.15H76.9881C77.1644 106.15 77.3072 106.007 77.3072 105.83V103.908C77.3072 103.732 77.1644 103.588 76.9881 103.588Z" fill="#FFA400"/>
<path d="M83.7958 103.588H78.69C78.5138 103.588 78.3709 103.732 78.3709 103.908V105.83C78.3709 106.007 78.5138 106.15 78.69 106.15H83.7958C83.972 106.15 84.1149 106.007 84.1149 105.83V103.908C84.1149 103.732 83.972 103.588 83.7958 103.588Z" fill="#DB324D"/>
<path d="M69.1168 108.712H66.2449C66.0686 108.712 65.9258 108.855 65.9258 109.032V110.953C65.9258 111.13 66.0686 111.273 66.2449 111.273H69.1168C69.2931 111.273 69.4359 111.13 69.4359 110.953V109.032C69.4359 108.855 69.2931 108.712 69.1168 108.712Z" fill="#1E1E24"/>
<path d="M73.9034 108.712H70.8187C70.6425 108.712 70.4996 108.855 70.4996 109.032V110.953C70.4996 111.13 70.6425 111.273 70.8187 111.273H73.9034C74.0797 111.273 74.2225 111.13 74.2225 110.953V109.032C74.2225 108.855 74.0797 108.712 73.9034 108.712Z" fill="#D9D9D9"/>
<path d="M88.5824 108.712H75.6053C75.4291 108.712 75.2862 108.855 75.2862 109.032V110.953C75.2862 111.13 75.4291 111.273 75.6053 111.273H88.5824C88.7586 111.273 88.9015 111.13 88.9015 110.953V109.032C88.9015 108.855 88.7586 108.712 88.5824 108.712Z" fill="#34343F"/>
<path d="M95.2836 108.712H90.2843C90.108 108.712 89.9651 108.855 89.9651 109.032V110.953C89.9651 111.13 90.108 111.273 90.2843 111.273H95.2836C95.4598 111.273 95.6027 111.13 95.6027 110.953V109.032C95.6027 108.855 95.4598 108.712 95.2836 108.712Z" fill="white"/>
<path d="M107.303 108.712H96.9855C96.8093 108.712 96.6664 108.855 96.6664 109.032V110.953C96.6664 111.13 96.8093 111.273 96.9855 111.273H107.303C107.48 111.273 107.622 111.13 107.622 110.953V109.032C107.622 108.855 107.48 108.712 107.303 108.712Z" fill="white"/>
<path d="M111.133 108.712H109.005C108.829 108.712 108.686 108.855 108.686 109.032V110.953C108.686 111.13 108.829 111.273 109.005 111.273H111.133C111.309 111.273 111.452 111.13 111.452 110.953V109.032C111.452 108.855 111.309 108.712 111.133 108.712Z" fill="white"/>
<path d="M125.386 108.712H112.834C112.658 108.712 112.515 108.855 112.515 109.032V110.953C112.515 111.13 112.658 111.273 112.834 111.273H125.386C125.562 111.273 125.705 111.13 125.705 110.953V109.032C125.705 108.855 125.562 108.712 125.386 108.712Z" fill="#D9D9D9"/>
</g>
<path opacity="0.1" d="M418.161 255.148C418.161 256.652 407.359 258.116 393.984 258.116C380.61 258.116 369.807 256.652 369.807 255.148C369.807 253.643 380.61 252.667 393.984 252.667C407.359 252.667 418.161 253.643 418.161 255.148Z" fill="black"/>
<path opacity="0.1" d="M205.675 258.675C205.675 259.427 200.502 260.159 194.098 260.159C187.693 260.159 182.52 259.427 182.52 258.675C182.52 257.923 187.693 257.435 194.098 257.435C200.502 257.435 205.675 257.923 205.675 258.675Z" fill="black"/>
<path opacity="0.1" d="M212.486 249.699C212.486 251.204 188.903 252.667 159.705 252.667C130.507 252.667 106.924 251.204 106.924 249.699C106.924 248.195 130.507 247.219 159.705 247.219C188.903 247.219 212.486 248.195 212.486 249.699Z" fill="black"/>
<path opacity="0.1" d="M420.885 231.311C420.885 232.815 389.391 234.279 350.397 234.279C311.404 234.279 279.909 232.815 279.909 231.311C279.909 229.807 311.404 228.831 350.397 228.831C389.391 228.831 420.885 229.807 420.885 231.311Z" fill="black"/>
<path d="M374.549 229.04H282.769C288.075 220.513 292.181 216.723 294.771 205.29C295.844 200.552 296.603 194.488 297.108 186.214C297.487 179.96 297.676 172.506 297.74 163.347H360.021C360.021 174.591 360.337 183.371 360.906 190.319C361.664 200.173 362.927 206.49 364.632 211.354C367.033 218.491 370.444 222.281 374.549 229.04Z" fill="#C1C5D5"/>
<path opacity="0.1" fill-rule="evenodd" clip-rule="evenodd" d="M364.569 211.417L294.707 205.29C295.781 200.552 296.539 194.488 297.045 186.213C313.657 187.287 347.388 189.435 360.842 190.382C361.6 200.173 362.864 206.553 364.569 211.417Z" fill="#1C1E2E"/>
<path d="M378.276 229.04H278.411V230.872H378.276V229.04Z" fill="#7F7F8B"/>
<path d="M472.773 6.56924C472.773 2.96877 469.804 -3.05176e-05 466.203 -3.05176e-05H192.568C187.767 -3.05176e-05 183.914 3.85309 183.914 8.65371V192.593C183.914 196.194 186.883 199.163 190.483 199.163H466.203C469.804 199.163 472.773 196.194 472.773 192.593V6.56924V6.56924Z" fill="#F2F8FC"/>
<path d="M472.773 8.02205V167.58H183.914V8.02205C183.914 3.60042 187.641 -3.05176e-05 192.252 -3.05176e-05H464.371C468.983 -3.05176e-05 472.773 3.60042 472.773 8.02205Z" fill="#43434F"/>
<path d="M461.213 11.433L461.276 155.957L195.474 156.083L195.853 11.5593L461.213 11.433Z" fill="#1C1E2E"/>
<path d="M461.213 11.4962V156.02H195.474L195.916 11.4962H461.213Z" fill="#F1F3F9"/>
<path fill-rule="evenodd" clip-rule="evenodd" d="M260.977 11.4962V156.02H195.474L195.916 11.4962H260.977Z" fill="#4ECDC4"/>
<path opacity="0.3" d="M227.562 65.2504C236.388 65.2504 243.543 58.3217 243.543 49.7747C243.543 41.2277 236.388 34.299 227.562 34.299C218.736 34.299 211.581 41.2277 211.581 49.7747C211.581 58.3217 218.736 65.2504 227.562 65.2504Z" fill="white"/>
<path opacity="0.2" d="M247.143 78.768H207.98C206.275 78.768 204.885 77.1888 204.885 75.2939C204.885 73.3989 206.275 71.8197 207.98 71.8197H247.143C248.849 71.8197 250.238 73.3989 250.238 75.2939C250.238 77.252 248.849 78.768 247.143 78.768Z" fill="white"/>
<path opacity="0.1" d="M243.417 87.8639H211.707C210.633 87.8639 209.749 86.8532 209.749 85.6531C209.749 84.4529 210.633 83.4423 211.707 83.4423H243.417C244.49 83.4423 245.375 84.4529 245.375 85.6531C245.375 86.9164 244.49 87.8639 243.417 87.8639Z" fill="white"/>
<path d="M388.762 118.689L275.947 118.31C275.126 118.31 274.494 117.552 274.494 116.668V26.5296C274.494 25.6453 275.126 24.8873 275.947 24.8873L388.762 25.2663C389.583 25.2663 390.214 26.0243 390.214 26.9086V117.047C390.214 117.931 389.583 118.689 388.762 118.689Z" fill="#FBFBFB"/>
<path d="M370.065 46.8691L292.307 46.427C291.612 46.427 291.044 45.7953 291.044 45.0373C291.044 44.2793 291.612 43.6477 292.307 43.6477L370.065 44.0898C370.759 44.0898 371.328 44.7215 371.328 45.4795C371.265 46.2375 370.759 46.8691 370.065 46.8691Z" fill="#B9B9BE"/>
<path d="M341.766 57.8601L292.623 57.4179C292.054 57.4179 291.612 56.9126 291.612 56.2809C291.612 55.6493 292.054 55.1439 292.623 55.1439L341.766 55.5861C342.335 55.5861 342.777 56.0914 342.777 56.7231C342.84 57.3547 342.335 57.8601 341.766 57.8601Z" fill="#9E9DA7"/>
<path d="M314.542 63.7976L292.686 63.3554C292.118 63.3554 291.675 62.8501 291.675 62.2185C291.675 61.5868 292.118 61.0815 292.686 61.0815L314.542 61.5236C315.11 61.5236 315.552 62.0289 315.552 62.6606C315.552 63.2923 315.11 63.7976 314.542 63.7976Z" fill="#9E9DA7"/>
<path d="M341.766 69.7984L292.623 69.3562C292.054 69.3562 291.612 68.8509 291.612 68.2192C291.612 67.5876 292.054 67.0822 292.623 67.0822L341.766 67.5244C342.335 67.5244 342.777 68.0297 342.777 68.6614C342.84 69.2931 342.335 69.7984 341.766 69.7984Z" fill="#9E9DA7"/>
<path d="M314.542 75.7992L292.686 75.357C292.118 75.357 291.675 74.8517 291.675 74.2201C291.675 73.5884 292.118 73.0831 292.686 73.0831L314.542 73.5252C315.11 73.5252 315.552 74.0305 315.552 74.6622C315.552 75.2307 315.11 75.7992 314.542 75.7992Z" fill="#9E9DA7"/>
<path d="M341.766 82.2421L292.623 81.8C292.054 81.8 291.612 81.2946 291.612 80.663C291.612 80.0313 292.054 79.526 292.623 79.526L341.766 79.9682C342.335 79.9682 342.777 80.4735 342.777 81.1052C342.84 81.7368 342.335 82.2421 341.766 82.2421Z" fill="#9E9DA7"/>
<path d="M341.766 81.8631L292.623 81.421C292.054 81.421 291.612 80.9156 291.612 80.284C291.612 79.6523 292.054 79.147 292.623 79.147L341.766 79.5892C342.335 79.5892 342.777 80.0945 342.777 80.7261C342.84 81.3578 342.335 81.8631 341.766 81.8631Z" fill="#9E9DA7"/>
<path d="M341.766 88.0534L292.623 87.6112C292.054 87.6112 291.612 87.1059 291.612 86.4742C291.612 85.8426 292.054 85.3372 292.623 85.3372L341.766 85.7794C342.335 85.7794 342.777 86.2847 342.777 86.9164C342.84 87.548 342.335 88.0534 341.766 88.0534Z" fill="#9E9DA7"/>
<path d="M341.766 93.9278L292.623 93.4857C292.054 93.4857 291.612 92.9803 291.612 92.3487C291.612 91.717 292.054 91.2117 292.623 91.2117L341.766 91.6539C342.335 91.6539 342.777 92.1592 342.777 92.7909C342.84 93.4225 342.335 93.9278 341.766 93.9278Z" fill="#9E9DA7"/>
<path d="M440.305 145.913L324.016 145.534C323.195 145.534 322.501 144.776 322.501 143.829V50.9749C322.501 50.0274 323.195 49.2694 324.016 49.2694L440.305 49.6484C441.126 49.6484 441.821 50.4064 441.821 51.3539V144.208C441.821 145.156 441.19 145.913 440.305 145.913Z" fill="white"/>
<path d="M428.24 61.3341C428.24 62.5343 427.293 63.4818 426.156 63.4818L340.755 63.1028C339.555 63.1028 338.545 62.1553 338.545 60.9551C338.545 59.755 339.555 58.8075 340.755 58.8075L426.03 59.1865C427.293 59.1865 428.24 60.134 428.24 61.3341Z" fill="#B9B9BE"/>
<path d="M414.849 70.4301L339.808 70.0511C339.176 70.0511 338.608 69.4194 338.608 68.7246C338.608 67.9666 339.113 67.3981 339.808 67.3981L414.849 67.7771C415.481 67.7771 416.049 68.4088 416.049 69.1036C416.049 69.8616 415.481 70.4301 414.849 70.4301Z" fill="#B9B9BE"/>
<path d="M405.564 83.0001L358.126 82.6211C357.558 82.6211 357.116 82.1158 357.116 81.4841C357.116 80.8524 357.558 80.3471 358.126 80.3471L405.564 80.7261C406.132 80.7261 406.575 81.2314 406.575 81.8631C406.575 82.4948 406.132 83.0001 405.564 83.0001Z" fill="#D5D5DD"/>
<path d="M379.224 88.7482L358.126 88.3692C357.558 88.3692 357.116 87.8639 357.116 87.2322C357.116 86.6005 357.558 86.0952 358.126 86.0952L379.224 86.4742C379.792 86.4742 380.234 86.9795 380.234 87.6112C380.234 88.2428 379.792 88.7482 379.224 88.7482Z" fill="#D5D5DD"/>
<path d="M349.22 90.1379H339.934C339.176 90.1379 338.608 89.4431 338.608 88.6219V80.0945C338.608 79.2733 339.176 78.5785 339.934 78.5785H349.22C349.978 78.5785 350.546 79.2733 350.546 80.0945V88.6219C350.546 89.5062 349.978 90.1379 349.22 90.1379Z" fill="#D5D5DD"/>
<path d="M405.564 103.529L358.126 103.15C357.558 103.15 357.116 102.645 357.116 102.013C357.116 101.381 357.558 100.876 358.126 100.876L405.564 101.255C406.132 101.255 406.575 101.76 406.575 102.392C406.575 103.024 406.132 103.529 405.564 103.529Z" fill="#D5D5DD"/>
<path d="M379.224 109.277L358.126 108.898C357.558 108.898 357.116 108.393 357.116 107.761C357.116 107.13 357.558 106.624 358.126 106.624L379.224 107.003C379.792 107.003 380.234 107.509 380.234 108.14C380.234 108.772 379.792 109.277 379.224 109.277Z" fill="#D5D5DD"/>
<path d="M349.22 110.667H339.934C339.176 110.667 338.608 109.972 338.608 109.151V100.623C338.608 99.8023 339.176 99.1074 339.934 99.1074H349.22C349.978 99.1074 350.546 99.8023 350.546 100.623V109.214C350.546 110.035 349.978 110.667 349.22 110.667Z" fill="#D5D5DD"/>
<path d="M405.564 124.437L358.126 124.058C357.558 124.058 357.116 123.553 357.116 122.921C357.116 122.289 357.558 121.784 358.126 121.784L405.564 122.163C406.132 122.163 406.575 122.668 406.575 123.3C406.575 123.932 406.132 124.437 405.564 124.437Z" fill="#D5D5DD"/>
<path d="M379.224 130.185L358.126 129.806C357.558 129.806 357.116 129.301 357.116 128.669C357.116 128.037 357.558 127.532 358.126 127.532L379.224 127.911C379.792 127.911 380.234 128.417 380.234 129.048C380.234 129.68 379.792 130.185 379.224 130.185Z" fill="#D5D5DD"/>
<path d="M349.22 131.575H339.934C339.176 131.575 338.608 130.88 338.608 130.059V121.531C338.608 120.71 339.176 120.015 339.934 120.015H349.22C349.978 120.015 350.546 120.71 350.546 121.531V130.059C350.546 130.943 349.978 131.575 349.22 131.575Z" fill="#D5D5DD"/>
<path d="M328.312 7.20084C329.184 7.20084 329.891 6.49383 329.891 5.62169C329.891 4.74955 329.184 4.04254 328.312 4.04254C327.44 4.04254 326.733 4.74955 326.733 5.62169C326.733 6.49383 327.44 7.20084 328.312 7.20084Z" fill="#1C1E2E"/>
<path fill-rule="evenodd" clip-rule="evenodd" d="M397.753 132.051H544.74C547.772 132.051 550.173 134.514 550.173 137.483V239.37C550.173 242.402 547.709 244.802 544.74 244.802H397.753C394.721 244.802 392.321 242.339 392.321 239.37V137.546C392.257 134.514 394.721 132.051 397.753 132.051Z" fill="#4A4B55"/>
<path d="M495.092 239.307H447.275V242.402H495.092V239.307Z" fill="#7F7F8B"/>
<path d="M558.447 239.307V240.57C558.447 243.223 556.616 245.371 554.342 245.371H388.467C386.194 245.371 384.362 243.223 384.362 240.57V239.307H450.37C450.939 240.444 451.949 241.202 453.15 241.202H489.66C490.544 241.202 491.365 240.76 491.934 240.128C492.123 239.875 492.313 239.623 492.439 239.37H558.447V239.307Z" fill="#C1C5D5"/>
<path fill-rule="evenodd" clip-rule="evenodd" d="M545.183 138.304V234.633C545.183 235.264 544.677 235.706 544.109 235.706H398.385C397.753 235.706 397.311 235.201 397.311 234.633V138.304C397.311 137.673 397.816 137.23 398.385 137.23H544.109C544.677 137.23 545.183 137.673 545.183 138.304Z" fill="#171924"/>
<path d="M471.215 135.651C471.773 135.651 472.226 135.199 472.226 134.641C472.226 134.082 471.773 133.63 471.215 133.63C470.657 133.63 470.204 134.082 470.204 134.641C470.204 135.199 470.657 135.651 471.215 135.651Z" fill="#171924"/>
<path d="M545.183 138.304V234.633C545.183 235.264 544.677 235.706 544.109 235.706H398.385C397.753 235.706 397.311 235.201 397.311 234.633V138.304C397.311 137.673 397.816 137.23 398.385 137.23H544.109C544.677 137.23 545.183 137.673 545.183 138.304Z" fill="#F1F3F9"/>
<path fill-rule="evenodd" clip-rule="evenodd" d="M439.19 137.23V235.706H398.321C397.69 235.706 397.248 235.201 397.248 234.633V138.304C397.248 137.673 397.753 137.23 398.321 137.23H439.19Z" fill="#4ECDC4"/>
<path opacity="0.3" d="M417.777 171.656C423.428 171.656 428.009 167.216 428.009 161.739C428.009 156.262 423.428 151.822 417.777 151.822C412.125 151.822 407.544 156.262 407.544 161.739C407.544 167.216 412.125 171.656 417.777 171.656Z" fill="white"/>
<path opacity="0.2" d="M430.347 180.373H405.206C404.133 180.373 403.248 179.362 403.248 178.162C403.248 176.962 404.133 175.951 405.206 175.951H430.347C431.42 175.951 432.305 176.962 432.305 178.162C432.305 179.362 431.42 180.373 430.347 180.373Z" fill="white"/>
<path opacity="0.1" d="M427.946 186.184H407.607C406.912 186.184 406.343 185.552 406.343 184.794C406.343 184.036 406.912 183.405 407.607 183.405H427.946C428.641 183.405 429.21 184.036 429.21 184.794C429.21 185.552 428.641 186.184 427.946 186.184Z" fill="white"/>
<path d="M536.087 223.705L449.044 223.389C448.412 223.389 447.907 222.82 447.907 222.126V156.307C447.907 155.612 448.412 155.043 449.044 155.043L536.087 155.359C536.718 155.359 537.224 155.928 537.224 156.622V222.378C537.224 223.136 536.718 223.705 536.087 223.705Z" fill="white"/>
<path d="M527.054 164.139C527.054 165.023 526.359 165.781 525.475 165.781L461.551 165.466C460.666 165.466 459.908 164.708 459.908 163.823C459.908 162.939 460.666 162.181 461.551 162.181L525.412 162.497C526.296 162.497 527.054 163.192 527.054 164.139Z" fill="#B9B9BE"/>
<path d="M517.01 170.898L460.793 170.582C460.287 170.582 459.908 170.14 459.908 169.571C459.908 169.003 460.287 168.561 460.793 168.561L517.01 168.877C517.516 168.877 517.895 169.319 517.895 169.887C517.895 170.456 517.516 170.898 517.01 170.898Z" fill="#B9B9BE"/>
<path d="M510.062 180.31L474.563 179.994C474.121 179.994 473.805 179.615 473.805 179.173C473.805 178.731 474.121 178.351 474.563 178.351L510.062 178.667C510.504 178.667 510.82 179.046 510.82 179.489C510.757 179.931 510.441 180.31 510.062 180.31Z" fill="#D5D5DD"/>
<path d="M490.354 184.605L474.563 184.289C474.121 184.289 473.805 183.91 473.805 183.468C473.805 183.026 474.121 182.647 474.563 182.647L490.354 182.963C490.796 182.963 491.112 183.342 491.112 183.784C491.112 184.226 490.733 184.605 490.354 184.605Z" fill="#D5D5DD"/>
<path d="M467.867 185.679H460.919C460.351 185.679 459.908 185.173 459.908 184.542V178.162C459.908 177.53 460.351 177.025 460.919 177.025H467.867C468.436 177.025 468.878 177.53 468.878 178.162V184.542C468.878 185.173 468.436 185.679 467.867 185.679Z" fill="#D5D5DD"/>
<path d="M510.062 195.722L474.563 195.406C474.121 195.406 473.805 195.027 473.805 194.585C473.805 194.143 474.121 193.764 474.563 193.764L510.062 194.08C510.504 194.08 510.82 194.459 510.82 194.901C510.757 195.343 510.441 195.722 510.062 195.722Z" fill="#D5D5DD"/>
<path d="M490.354 200.017L474.563 199.702C474.121 199.702 473.805 199.323 473.805 198.88C473.805 198.438 474.121 198.059 474.563 198.059L490.354 198.375C490.796 198.375 491.112 198.754 491.112 199.196C491.112 199.638 490.733 200.017 490.354 200.017Z" fill="#D5D5DD"/>
<path d="M467.867 201.091H460.919C460.351 201.091 459.908 200.586 459.908 199.954V193.575C459.908 192.943 460.351 192.438 460.919 192.438H467.867C468.436 192.438 468.878 192.943 468.878 193.575V199.954C468.878 200.586 468.436 201.091 467.867 201.091Z" fill="#D5D5DD"/>
<path d="M510.062 211.387L474.563 211.072C474.121 211.072 473.805 210.693 473.805 210.25C473.805 209.808 474.121 209.429 474.563 209.429L510.062 209.745C510.504 209.745 510.82 210.124 510.82 210.566C510.757 211.008 510.441 211.387 510.062 211.387Z" fill="#D5D5DD"/>
<path d="M490.354 215.683L474.563 215.367C474.121 215.367 473.805 214.988 473.805 214.546C473.805 214.104 474.121 213.725 474.563 213.725L490.354 214.04C490.796 214.04 491.112 214.419 491.112 214.862C491.112 215.304 490.733 215.683 490.354 215.683Z" fill="#D5D5DD"/>
<path d="M467.867 216.693H460.919C460.351 216.693 459.908 216.188 459.908 215.556V209.177C459.908 208.545 460.351 208.04 460.919 208.04H467.867C468.436 208.04 468.878 208.545 468.878 209.177V215.556C468.878 216.188 468.436 216.693 467.867 216.693Z" fill="#D5D5DD"/>
<path fill-rule="evenodd" clip-rule="evenodd" d="M201.412 248.655H111.78C107.611 248.655 104.2 245.244 104.2 241.075V115.185C104.2 111.016 107.611 107.605 111.78 107.605H201.412C205.581 107.605 208.992 111.016 208.992 115.185V241.012C208.992 245.244 205.581 248.655 201.412 248.655Z" fill="#50515C"/>
<path fill-rule="evenodd" clip-rule="evenodd" d="M107.674 233.242V117.585C107.674 117.08 108.116 116.638 108.621 116.638H204.571C205.076 116.638 205.518 117.08 205.518 117.585V233.242C205.518 233.748 205.076 234.19 204.571 234.19H108.621C108.116 234.19 107.674 233.748 107.674 233.242Z" fill="#171924"/>
<path fill-rule="evenodd" clip-rule="evenodd" d="M163.639 112.848H149.553C149.237 112.848 148.985 112.595 148.985 112.279V111.963C148.985 111.648 149.237 111.395 149.553 111.395H163.639C163.955 111.395 164.208 111.648 164.208 111.963V112.279C164.208 112.595 163.955 112.848 163.639 112.848Z" fill="#1F2131"/>
<path d="M156.565 245.054C158.797 245.054 160.607 243.244 160.607 241.012C160.607 238.779 158.797 236.969 156.565 236.969C154.332 236.969 152.522 238.779 152.522 241.012C152.522 243.244 154.332 245.054 156.565 245.054Z" fill="#1F2131"/>
<path fill-rule="evenodd" clip-rule="evenodd" d="M107.611 233.242V117.585C107.611 117.08 108.053 116.638 108.558 116.638H204.697C205.202 116.638 205.645 117.08 205.645 117.585V233.242C205.645 233.748 205.202 234.19 204.697 234.19H108.558C107.99 234.19 107.611 233.748 107.611 233.242Z" fill="#F1F3F9"/>
<path d="M201.665 123.333V227.81C201.665 228.947 201.16 229.831 200.528 229.831L113.359 229.642C112.727 229.642 112.222 228.757 112.222 227.62V123.144C112.222 122.007 112.727 121.122 113.359 121.122L200.528 121.312C201.16 121.312 201.665 122.196 201.665 123.333Z" fill="white"/>
<path d="M196.928 155.232C196.928 156.116 196.17 156.874 195.222 156.874L125.992 156.559C124.981 156.559 124.223 155.801 124.223 154.916C124.223 154.032 125.045 153.274 125.992 153.274L195.096 153.59C196.106 153.59 196.928 154.348 196.928 155.232Z" fill="#B9B9BE"/>
<path d="M186.063 162.054L125.234 161.738C124.729 161.738 124.287 161.296 124.287 160.728C124.287 160.159 124.729 159.717 125.234 159.717L186.063 160.033C186.568 160.033 187.011 160.475 187.011 161.043C187.011 161.612 186.568 162.054 186.063 162.054Z" fill="#B9B9BE"/>
<path d="M178.546 171.466L140.078 171.15C139.636 171.15 139.257 170.771 139.257 170.329C139.257 169.887 139.636 169.508 140.078 169.508L178.546 169.823C178.988 169.823 179.367 170.202 179.367 170.645C179.304 171.087 178.988 171.466 178.546 171.466Z" fill="#D5D5DD"/>
<path d="M157.196 175.761L140.078 175.445C139.636 175.445 139.257 175.066 139.257 174.624C139.257 174.182 139.636 173.803 140.078 173.803L157.196 174.119C157.638 174.119 158.017 174.498 158.017 174.94C158.017 175.382 157.638 175.761 157.196 175.761Z" fill="#D5D5DD"/>
<path d="M132.182 176.772H125.234C124.666 176.772 124.223 176.266 124.223 175.635V169.255C124.223 168.623 124.666 168.118 125.234 168.118H132.182C132.751 168.118 133.193 168.623 133.193 169.255V175.635C133.193 176.266 132.751 176.772 132.182 176.772Z" fill="#D5D5DD"/>
<path d="M178.546 185.931L140.078 185.615C139.636 185.615 139.257 185.236 139.257 184.794C139.257 184.352 139.636 183.973 140.078 183.973L178.546 184.289C178.988 184.289 179.367 184.668 179.367 185.11C179.304 185.552 178.988 185.931 178.546 185.931Z" fill="#D5D5DD"/>
<path d="M157.196 190.226L140.078 189.91C139.636 189.91 139.257 189.531 139.257 189.089C139.257 188.647 139.636 188.268 140.078 188.268L157.196 188.584C157.638 188.584 158.017 188.963 158.017 189.405C158.017 189.847 157.638 190.226 157.196 190.226Z" fill="#D5D5DD"/>
<path d="M132.182 191.3H125.234C124.666 191.3 124.223 190.795 124.223 190.163V183.783C124.223 183.152 124.666 182.646 125.234 182.646H132.182C132.751 182.646 133.193 183.152 133.193 183.783V190.163C133.193 190.795 132.751 191.3 132.182 191.3Z" fill="#D5D5DD"/>
<path d="M178.546 200.775L140.078 200.459C139.636 200.459 139.257 200.08 139.257 199.638C139.257 199.196 139.636 198.817 140.078 198.817L178.546 199.133C178.988 199.133 179.367 199.512 179.367 199.954C179.304 200.396 178.988 200.775 178.546 200.775Z" fill="#D5D5DD"/>
<path d="M157.196 205.07L140.078 204.754C139.636 204.754 139.257 204.375 139.257 203.933C139.257 203.491 139.636 203.112 140.078 203.112L157.196 203.428C157.638 203.428 158.017 203.807 158.017 204.249C158.017 204.691 157.638 205.07 157.196 205.07Z" fill="#D5D5DD"/>
<path d="M132.182 206.081H125.234C124.666 206.081 124.223 205.575 124.223 204.944V198.564C124.223 197.932 124.666 197.427 125.234 197.427H132.182C132.751 197.427 133.193 197.932 133.193 198.564V204.944C133.193 205.575 132.751 206.081 132.182 206.081Z" fill="#D5D5DD"/>
<path d="M178.546 215.429L140.078 215.114C139.636 215.114 139.257 214.735 139.257 214.292C139.257 213.85 139.636 213.471 140.078 213.471L178.546 213.787C178.988 213.787 179.367 214.166 179.367 214.608C179.304 215.05 178.988 215.429 178.546 215.429Z" fill="#D5D5DD"/>
<path d="M157.196 219.725L140.078 219.409C139.636 219.409 139.257 219.03 139.257 218.588C139.257 218.146 139.636 217.767 140.078 217.767L157.196 218.082C157.638 218.082 158.017 218.461 158.017 218.904C158.017 219.409 157.638 219.725 157.196 219.725Z" fill="#D5D5DD"/>
<path d="M132.182 220.799H125.234C124.666 220.799 124.223 220.293 124.223 219.662V213.282C124.223 212.65 124.666 212.145 125.234 212.145H132.182C132.751 212.145 133.193 212.65 133.193 213.282V219.662C133.193 220.293 132.751 220.799 132.182 220.799Z" fill="#D5D5DD"/>
<path d="M201.665 123.207V145.884L112.222 146.199V123.017C112.222 121.817 112.727 120.807 113.359 120.807L200.528 120.996C201.16 120.996 201.665 122.007 201.665 123.207Z" fill="#4ECDC4"/>
<path opacity="0.3" d="M156.628 135.145C159.279 135.145 161.428 133.081 161.428 130.534C161.428 127.988 159.279 125.923 156.628 125.923C153.976 125.923 151.827 127.988 151.827 130.534C151.827 133.081 153.976 135.145 156.628 135.145Z" fill="white"/>
<path opacity="0.2" d="M162.439 139.188H150.753C150.248 139.188 149.806 138.746 149.806 138.177C149.806 137.609 150.248 137.167 150.753 137.167H162.439C162.944 137.167 163.386 137.609 163.386 138.177C163.386 138.683 162.944 139.188 162.439 139.188Z" fill="white"/>
<path opacity="0.1" d="M161.365 141.904H151.89C151.574 141.904 151.322 141.588 151.322 141.272C151.322 140.893 151.574 140.641 151.89 140.641H161.365C161.681 140.641 161.934 140.957 161.934 141.272C161.934 141.588 161.681 141.904 161.365 141.904Z" fill="white"/>
<path fill-rule="evenodd" clip-rule="evenodd" d="M410.371 255.083H371.587C368.934 255.083 366.723 252.935 366.723 250.219V166.271C366.723 163.618 368.871 161.407 371.587 161.407H410.371C413.024 161.407 415.235 163.555 415.235 166.271V250.219C415.235 252.872 413.087 255.083 410.371 255.083Z" fill="#50515C"/>
<path fill-rule="evenodd" clip-rule="evenodd" d="M370.261 241.502V169.745C370.261 168.798 371.019 168.04 371.966 168.04H410.055C411.003 168.04 411.761 168.798 411.761 169.745V241.502C411.761 242.449 411.003 243.207 410.055 243.207H371.966C371.019 243.207 370.261 242.449 370.261 241.502Z" fill="#171924"/>
<path fill-rule="evenodd" clip-rule="evenodd" d="M395.59 165.766H386.431C386.179 165.766 385.989 165.576 385.989 165.324V165.071C385.989 164.818 386.179 164.629 386.431 164.629H395.59C395.843 164.629 396.032 164.818 396.032 165.071V165.324C396.032 165.576 395.843 165.766 395.59 165.766Z" fill="#1F2131"/>
<path d="M390.979 252.24C392.898 252.24 394.453 250.685 394.453 248.766C394.453 246.847 392.898 245.292 390.979 245.292C389.06 245.292 387.505 246.847 387.505 248.766C387.505 250.685 389.06 252.24 390.979 252.24Z" fill="#1F2131"/>
<path fill-rule="evenodd" clip-rule="evenodd" d="M411.761 169.493V241.692C411.761 242.45 411.192 243.144 410.434 243.271C410.371 243.271 371.84 243.271 371.84 243.271C370.829 243.144 370.261 242.576 370.261 241.692V169.493C370.261 168.608 370.956 167.914 371.84 167.914H410.182C411.066 167.914 411.761 168.608 411.761 169.493Z" fill="#F1F3F9"/>
<path d="M410.435 180.989V243.208C410.371 243.208 372.093 243.208 372.093 243.208V181.368L410.435 180.989Z" fill="white"/>
<path d="M404.37 198.297H391.295C390.853 198.297 390.474 197.918 390.474 197.412C390.474 196.907 390.853 196.528 391.295 196.528H404.37C404.813 196.528 405.192 196.907 405.192 197.412C405.192 197.918 404.813 198.297 404.37 198.297Z" fill="#D5D5DD"/>
<path d="M400.202 202.844H391.358C390.916 202.844 390.537 202.465 390.537 201.96C390.537 201.455 390.916 201.076 391.358 201.076H400.202C400.644 201.076 401.023 201.455 401.023 201.96C401.023 202.402 400.644 202.844 400.202 202.844Z" fill="#D5D5DD"/>
<path d="M383.083 204.234H375.819C375.251 204.234 374.746 203.729 374.746 203.034V196.338C374.746 195.707 375.188 195.138 375.819 195.138H383.083C383.652 195.138 384.157 195.643 384.157 196.338V203.034C384.157 203.666 383.652 204.234 383.083 204.234Z" fill="#D5D5DD"/>
<path d="M404.37 213.456H391.295C390.853 213.456 390.474 213.077 390.474 212.572C390.474 212.067 390.853 211.688 391.295 211.688H404.37C404.813 211.688 405.192 212.067 405.192 212.572C405.192 213.077 404.813 213.456 404.37 213.456Z" fill="#D5D5DD"/>
<path d="M400.202 218.004H391.358C390.916 218.004 390.537 217.625 390.537 217.12C390.537 216.615 390.916 216.236 391.358 216.236H400.202C400.644 216.236 401.023 216.615 401.023 217.12C401.023 217.562 400.644 218.004 400.202 218.004Z" fill="#D5D5DD"/>
<path d="M383.083 219.394H375.819C375.251 219.394 374.746 218.889 374.746 218.194V211.498C374.746 210.866 375.188 210.298 375.819 210.298H383.083C383.652 210.298 384.157 210.803 384.157 211.498V218.194C384.157 218.889 383.652 219.394 383.083 219.394Z" fill="#D5D5DD"/>
<path d="M404.37 228.995H391.295C390.853 228.995 390.474 228.616 390.474 228.111C390.474 227.605 390.853 227.227 391.295 227.227H404.37C404.813 227.227 405.192 227.605 405.192 228.111C405.192 228.553 404.813 228.995 404.37 228.995Z" fill="#D5D5DD"/>
<path d="M400.202 233.48H391.358C390.916 233.48 390.537 233.101 390.537 232.596C390.537 232.09 390.916 231.711 391.358 231.711H400.202C400.644 231.711 401.023 232.09 401.023 232.596C401.023 233.101 400.644 233.48 400.202 233.48Z" fill="#D5D5DD"/>
<path d="M401.023 242.955C401.023 243.081 401.023 243.144 400.959 243.271H390.474C390.411 243.144 390.411 243.081 390.411 242.955C390.411 242.702 390.537 242.513 390.663 242.323C390.79 242.134 391.042 242.071 391.232 242.071H400.075C400.644 242.071 401.023 242.45 401.023 242.955Z" fill="#D5D5DD"/>
<path d="M383.083 234.87H375.819C375.251 234.87 374.746 234.364 374.746 233.669V226.974C374.746 226.342 375.188 225.774 375.819 225.774H383.083C383.652 225.774 384.157 226.279 384.157 226.974V233.669C384.157 234.364 383.652 234.87 383.083 234.87Z" fill="#D5D5DD"/>
<path d="M384.157 242.829V243.271H374.809V242.829C374.809 242.197 375.251 241.628 375.883 241.628H383.147C383.652 241.628 384.157 242.134 384.157 242.829Z" fill="#D5D5DD"/>
<path d="M410.434 171.388V181.747H372.093V171.261C372.093 170.44 372.598 169.809 373.293 169.809L409.297 169.935C409.929 169.935 410.434 170.567 410.434 171.388Z" fill="#4ECDC4"/>
<path opacity="0.3" d="M386.115 179.22C388.034 179.22 389.59 177.721 389.59 175.873C389.59 174.024 388.034 172.525 386.115 172.525C384.197 172.525 382.641 174.024 382.641 175.873C382.641 177.721 384.197 179.22 386.115 179.22Z" fill="white"/>
<path opacity="0.2" d="M400.391 176.125H391.864C391.485 176.125 391.169 175.809 391.169 175.367C391.169 174.925 391.485 174.609 391.864 174.609H400.391C400.77 174.609 401.086 174.925 401.086 175.367C401.086 175.746 400.77 176.125 400.391 176.125Z" fill="white"/>
<path opacity="0.1" d="M398.559 178.083H391.674C391.421 178.083 391.232 177.894 391.232 177.578C391.232 177.325 391.421 177.073 391.674 177.073H398.559C398.812 177.073 399.001 177.262 399.001 177.578C399.001 177.894 398.812 178.083 398.559 178.083Z" fill="white"/>
<path d="M406.581 187.937H376.009C375.44 187.937 374.998 187.369 374.998 186.737C374.998 186.042 375.44 185.537 376.009 185.537H406.581C407.15 185.537 407.592 186.105 407.592 186.737C407.592 187.369 407.15 187.937 406.581 187.937Z" fill="#B9B9BE"/>
<path d="M394.896 191.222H375.63C375.251 191.222 374.998 190.906 374.998 190.464C374.998 190.022 375.314 189.706 375.63 189.706H394.896C395.275 189.706 395.527 190.022 395.527 190.464C395.527 190.906 395.211 191.222 394.896 191.222Z" fill="#B9B9BE"/>
<path d="M168.493 213.029L160.582 220.84C160.088 221.328 160.038 222.087 160.481 222.626C162.476 225.095 165.666 229.135 165.333 232.304L179.986 217.836C177.214 218.265 172.991 215.067 170.37 212.862C169.791 212.546 168.987 212.541 168.493 213.029Z" fill="#7F7F8B"/>
<path d="M205.651 248.774C203.524 246.081 200.38 241.817 200.8 239.095L186.147 253.564C189.32 253.271 193.319 256.512 195.763 258.538C196.296 258.988 197.056 258.948 197.55 258.46L205.461 250.649C206.045 250.072 206.095 249.313 205.651 248.774Z" fill="#7F7F8B"/>
<path d="M199.893 234.221C201.579 235.929 201.562 238.609 199.854 240.295L187.448 252.544C185.74 254.231 183.061 254.214 181.374 252.506L166.196 237.134C164.509 235.426 164.526 232.746 166.234 231.06L178.64 218.81C180.348 217.124 183.028 217.141 184.714 218.849L199.893 234.221Z" fill="#C1C5D5"/>
<path d="M188.389 223.92C188.966 224.504 189.949 224.51 190.533 223.933C190.758 223.711 190.715 223.398 190.538 223.219L187.697 220.342C187.475 220.117 187.162 220.16 186.983 220.337C186.398 220.914 186.392 221.897 186.969 222.481L188.389 223.92Z" fill="#7F7F8B"/>
<path d="M198.25 232.647L198.475 232.425C198.52 232.381 198.52 232.292 198.476 232.247L193.194 226.898C193.15 226.853 193.061 226.853 193.016 226.897L192.791 227.119C192.746 227.163 192.745 227.252 192.79 227.297L198.071 232.646C198.16 232.736 198.16 232.736 198.25 232.647Z" fill="#7F7F8B"/>
<path d="M198.772 234.795C200.192 236.233 200.178 238.555 198.739 239.976L187.143 251.426C185.705 252.846 183.382 252.831 181.962 251.393L167.272 236.515C165.852 235.077 165.866 232.754 167.305 231.334L178.901 219.884C180.34 218.464 182.662 218.479 184.082 219.917L198.772 234.795Z" fill="#1E1E24"/>
<path opacity="0.1" d="M261.93 249.605C261.93 252.125 251.918 254.576 239.523 254.576C227.128 254.576 217.117 252.125 217.117 249.605C217.117 247.085 227.128 245.45 239.523 245.45C251.918 245.45 261.93 247.085 261.93 249.605Z" fill="black"/>
<path d="M256.345 211.194V248.992C256.345 251.035 250.488 252.738 242.384 253.282C240.545 253.419 238.57 253.487 236.527 253.487C225.562 253.487 216.64 251.58 216.64 249.06V211.262H256.345V211.194Z" fill="#E6DBD0"/>
<path d="M256.345 211.194C256.345 213.714 247.423 216.165 236.459 216.165C225.494 216.165 216.572 213.714 216.572 211.194C216.572 208.674 225.494 207.039 236.459 207.039C247.491 206.971 256.345 208.606 256.345 211.194Z" fill="white"/>
<path d="M255.255 211.194C255.255 211.398 254.37 212.556 250.216 213.577C250.079 213.646 249.943 213.646 249.807 213.714C246.129 214.599 241.362 215.144 236.459 215.144C231.487 215.144 226.788 214.667 223.11 213.714C222.974 213.646 222.838 213.646 222.701 213.577C218.615 212.488 217.662 211.398 217.662 211.194C217.662 211.194 218.07 210.104 222.77 209.151C226.311 208.47 231.146 208.061 236.459 208.061C241.703 208.061 246.606 208.47 250.148 209.151C254.915 210.104 255.255 211.126 255.255 211.194Z" fill="#E6D6C4"/>
<path d="M249.875 213.646C246.198 214.531 241.43 215.076 236.527 215.076C231.555 215.076 226.856 214.599 223.178 213.646C226.72 212.965 231.419 212.624 236.527 212.624C241.634 212.624 246.334 213.033 249.875 213.646Z" fill="#BD8979"/>
<path d="M264.381 224.815V236.665C264.381 239.934 261.862 242.658 258.729 242.658H253.348V237.278H258.729C259.001 237.278 259.274 237.005 259.274 236.733V224.883C259.274 224.542 259.069 224.338 258.729 224.338H253.348V218.958H258.729C261.862 218.89 264.381 221.546 264.381 224.815Z" fill="#CFC2B5"/>
<path d="M256.345 211.194V248.992C256.345 251.035 250.488 252.738 242.384 253.282V218.89C242.384 217.255 243.61 215.825 245.244 215.621C251.85 214.735 256.345 212.965 256.345 211.194Z" fill="#CFC2B5"/>
<g clip-path="url(#clip3_76_5217)">
<path d="M501.788 43.0945H450.993C447.53 43.0945 444.722 45.8865 444.722 49.3306V53.6958C444.722 57.1399 447.53 59.9319 450.993 59.9319H501.788C505.251 59.9319 508.059 57.1399 508.059 53.6958V49.3306C508.059 45.8865 505.251 43.0945 501.788 43.0945Z" fill="#BF822D"/>
<path d="M501.748 21.1124H451.031C447.568 21.1124 444.76 23.9043 444.76 27.3484V50.4749C444.76 53.919 447.568 56.711 451.031 56.711H501.748C505.212 56.711 508.019 53.919 508.019 50.4749V27.3484C508.019 23.9043 505.212 21.1124 501.748 21.1124Z" fill="#FFA400"/>
<path d="M469.941 50.4749L478.683 27.3484H482.311L473.539 50.4749H469.941Z" fill="white"/>
<path d="M498.172 38.9241L485.281 34.4024V30.1547L503.316 37.0058V40.8729L485.281 47.6936V43.4612L498.172 38.9241Z" fill="white"/>
<path d="M467.499 30.1547V34.4024L454.623 38.9241L467.499 43.4612V47.6936L449.464 40.8729V36.9754L467.499 30.1547Z" fill="white"/>
</g>
<g clip-path="url(#clip4_76_5217)">
<path d="M116.681 212.151H75.8436C71.1932 212.151 67.4234 215.933 67.4234 220.599V226.512C67.4234 231.178 71.1932 234.96 75.8436 234.96H116.681C121.332 234.96 125.102 231.178 125.102 226.512V220.599C125.102 215.933 121.332 212.151 116.681 212.151Z" fill="#932F3A"/>
<path d="M116.722 174.497H75.8436C71.1932 174.497 67.4234 178.28 67.4234 182.945V222.359C67.4234 227.024 71.1932 230.806 75.8436 230.806H116.722C121.373 230.806 125.143 227.024 125.143 222.359V182.945C125.143 178.28 121.373 174.497 116.722 174.497Z" fill="#DB324D"/>
<path d="M108.981 190.535C108.981 189.009 108.734 187.971 108.241 187.421C107.761 186.871 106.925 186.472 105.733 186.225V182.945C107.103 182.959 108.159 183.042 108.898 183.193C110.118 183.427 111.187 183.901 112.105 184.616C113.024 185.331 113.661 186.211 114.017 187.256C114.373 188.301 114.552 189.215 114.552 189.999V195.526C114.552 197.492 114.997 198.936 115.888 199.857C116.436 200.407 117.416 200.916 118.828 201.384V203.879C117.663 204.209 116.779 204.635 116.176 205.158C115.093 206.093 114.552 207.44 114.552 209.2V215.656C114.552 217.746 113.832 219.361 112.393 220.502C110.954 221.658 109.221 222.262 107.192 222.317L105.733 222.359V219.079C106.761 218.777 107.48 218.419 107.891 218.007C108.59 217.319 108.953 216.226 108.981 214.728V209.51C108.981 207.557 109.358 206.107 110.111 205.158C110.865 204.223 112.064 203.405 113.709 202.704C111.914 201.824 110.673 200.827 109.988 199.713C109.317 198.586 108.981 197.121 108.981 195.32V190.535Z" fill="white"/>
<path d="M80.2345 220.564C78.7544 219.437 78.0144 217.801 78.0144 215.656V209.2C78.0144 207.468 77.4936 206.141 76.452 205.22C75.8216 204.656 74.9171 204.209 73.7385 203.879V201.384C75.0679 200.93 76.0066 200.428 76.5548 199.878C77.5279 198.929 78.0144 197.479 78.0144 195.526V189.999C78.0144 189.298 78.1309 188.562 78.3638 187.792C78.775 186.458 79.4739 185.4 80.4607 184.616C81.3652 183.901 82.4273 183.427 83.647 183.193C84.3871 183.042 85.4492 182.959 86.8334 182.945V186.225C85.6959 186.472 84.9216 186.802 84.5104 187.215C83.88 187.847 83.5648 188.954 83.5648 190.535V195.32C83.5648 196.86 83.3592 198.084 82.9481 198.991C82.2491 200.517 80.8787 201.755 78.8367 202.704C80.6868 203.46 81.9271 204.34 82.5575 205.344C83.2016 206.347 83.5374 207.736 83.5648 209.51V214.728C83.5648 216.254 83.9348 217.354 84.6749 218.027C85.086 218.426 85.8055 218.777 86.8334 219.079V222.359L85.3738 222.317C83.414 222.262 81.7009 221.678 80.2345 220.564Z" fill="white"/>
</g>
<defs>
<filter id="filter0_f_76_5217" x="22.8025" y="188.977" width="582.999" height="94.6901" filterUnits="userSpaceOnUse" color-interpolation-filters="sRGB">
<feFlood flood-opacity="0" result="BackgroundImageFix"/>
<feBlend mode="normal" in="SourceGraphic" in2="BackgroundImageFix" result="shape"/>
<feGaussianBlur stdDeviation="15.5" result="effect1_foregroundBlur_76_5217"/>
</filter>
<linearGradient id="paint0_linear_76_5217" x1="314.302" y1="219.977" x2="314.302" y2="252.667" gradientUnits="userSpaceOnUse">
<stop stop-color="#3F3F4B"/>
<stop offset="1" stop-color="#3F3F4B" stop-opacity="0"/>
</linearGradient>
<linearGradient id="paint1_linear_76_5217" x1="-nan" y1="-nan" x2="-nan" y2="-nan" gradientUnits="userSpaceOnUse">
<stop stop-color="#3F3F4B" stop-opacity="0"/>
<stop offset="0.5" stop-color="#3F3F4B"/>
<stop offset="1" stop-color="#3F3F4B" stop-opacity="0"/>
</linearGradient>
<clipPath id="clip0_76_5217">
<rect width="114.415" height="114.415" fill="white" transform="translate(19.7503 93.9841)"/>
</clipPath>
<clipPath id="clip1_76_5217">
<rect width="132.123" height="132.123" fill="white" transform="translate(437.23 41.5437)"/>
</clipPath>
<clipPath id="clip2_76_5217">
<rect width="153.916" height="111.01" fill="white" transform="translate(46.9921 11.5778)"/>
</clipPath>
<clipPath id="clip3_76_5217">
<rect width="63.3371" height="38.8195" fill="white" transform="translate(444.722 21.1124)"/>
</clipPath>
<clipPath id="clip4_76_5217">
<rect width="57.8888" height="60.6129" fill="white" transform="translate(67.4234 174.347)"/>
</clipPath>
</defs>
</svg>
