<svg width="95" height="25" viewBox="0 0 95 25" fill="none" xmlns="http://www.w3.org/2000/svg">
<path fill-rule="evenodd" clip-rule="evenodd" d="M0.643352 3.62506C0 4.70875 0 6.13248 0 8.97993V16.8799C0 19.7274 0 21.1511 0.643352 22.2348C1.1855 23.148 2.03647 23.8926 3.08015 24.367C4.31865 24.9299 5.94577 24.9299 9.2 24.9299H10.2815C10.2835 24.7381 10.3035 22.7286 10.2965 21.6974C6.48185 22.4223 5.67699 20.0885 5.67699 20.0885C5.05313 18.7028 4.15397 18.3338 4.15397 18.3338C2.90879 17.589 4.24827 17.6037 4.24827 17.6037C5.62479 17.6892 6.34883 18.8406 6.34883 18.8406C7.57213 20.6742 9.55903 20.1445 10.3403 19.838C10.4649 19.0623 10.8185 18.5334 11.2109 18.2336C8.16567 17.9308 4.96389 16.9009 4.96389 12.3026C4.96389 10.9928 5.4985 9.92172 6.37577 9.08265C6.23433 8.77915 5.7637 7.55922 6.50964 5.90687C6.50964 5.90687 7.66137 5.5842 10.2814 7.13711C11.375 6.87117 12.5487 6.73783 13.7147 6.73341C14.8791 6.73783 16.0527 6.87117 17.148 7.13711C19.7663 5.5842 20.9156 5.90687 20.9156 5.90687C21.664 7.55922 21.1934 8.77915 21.0519 9.08265C21.9309 9.92172 22.4621 10.9928 22.4621 12.3026C22.4621 16.9127 19.2553 17.9271 16.2 18.224C16.6925 18.5945 17.1312 19.3268 17.1312 20.4465C17.1312 21.8847 17.1467 24.7015 17.1479 24.9299H18.2286C21.4828 24.9299 23.1099 24.9299 24.3484 24.367C25.3921 23.8926 26.2431 23.148 26.7852 22.2348C27.4286 21.1511 27.4286 19.7274 27.4286 16.8799V8.97993C27.4286 6.13248 27.4286 4.70875 26.7852 3.62506C26.2431 2.71184 25.3921 1.96724 24.3484 1.49286C23.1099 0.929932 21.4828 0.929932 18.2286 0.929932H9.2C5.94577 0.929932 4.31865 0.929932 3.08015 1.49286C2.03647 1.96724 1.1855 2.71184 0.643352 3.62506Z" fill="#D9D9D9"/>
<path d="M85.9769 18.7255V7.08911H90.0451C90.8557 7.08911 91.5242 7.22926 92.0507 7.50957C92.5773 7.78608 92.9693 8.15919 93.2269 8.62888C93.4845 9.09479 93.6132 9.61184 93.6132 10.18C93.6132 10.68 93.5242 11.0929 93.3462 11.4187C93.172 11.7444 92.9409 12.002 92.653 12.1914C92.3689 12.3808 92.0602 12.5209 91.7269 12.6118V12.7255C92.0829 12.7482 92.4409 12.8732 92.8007 13.1005C93.1606 13.3277 93.4617 13.6535 93.7042 14.0777C93.9466 14.502 94.0678 15.0209 94.0678 15.6346C94.0678 16.2179 93.9352 16.7425 93.6701 17.2084C93.4049 17.6743 92.9864 18.0437 92.4144 18.3164C91.8424 18.5891 91.0981 18.7255 90.1814 18.7255H85.9769ZM87.386 17.4755H90.1814C91.1019 17.4755 91.7553 17.2974 92.1417 16.9414C92.5318 16.5815 92.7269 16.1459 92.7269 15.6346C92.7269 15.2406 92.6265 14.877 92.4257 14.5437C92.225 14.2065 91.939 13.9376 91.5678 13.7368C91.1966 13.5323 90.7572 13.43 90.2496 13.43H87.386V17.4755ZM87.386 12.2027H89.9996C90.4239 12.2027 90.8064 12.1194 91.1473 11.9527C91.492 11.7861 91.7648 11.5512 91.9655 11.2482C92.1701 10.9452 92.2723 10.5891 92.2723 10.18C92.2723 9.66866 92.0943 9.23495 91.7382 8.87888C91.3822 8.51904 90.8178 8.33911 90.0451 8.33911H87.386V12.2027Z" fill="#D9D9D9"/>
<path d="M81.7539 7.08911H83.163V14.7937C83.163 15.5891 82.9755 16.2993 82.6005 16.9243C82.2292 17.5456 81.7046 18.0361 81.0266 18.3959C80.3486 18.752 79.5531 18.93 78.6402 18.93C77.7274 18.93 76.9319 18.752 76.2539 18.3959C75.5758 18.0361 75.0493 17.5456 74.6743 16.9243C74.3031 16.2993 74.1175 15.5891 74.1175 14.7937V7.08911H75.5266V14.68C75.5266 15.2482 75.6516 15.7539 75.9016 16.1971C76.1516 16.6365 76.5077 16.9831 76.9698 17.2368C77.4357 17.4868 77.9925 17.6118 78.6402 17.6118C79.288 17.6118 79.8448 17.4868 80.3107 17.2368C80.7766 16.9831 81.1327 16.6365 81.3789 16.1971C81.6289 15.7539 81.7539 15.2482 81.7539 14.68V7.08911Z" fill="#D9D9D9"/>
<path d="M62.2738 18.7255V7.08911H63.6829V12.2709H69.8874V7.08911H71.2965V18.7255H69.8874V13.5209H63.6829V18.7255H62.2738Z" fill="#D9D9D9"/>
<path d="M51.3718 8.33911V7.08911H60.099V8.33911H56.44V18.7255H55.0309V8.33911H51.3718Z" fill="#D9D9D9"/>
<path d="M49.1829 7.08911V18.7255H47.7738V7.08911H49.1829Z" fill="#D9D9D9"/>
<path d="M43.8377 10.7254C43.7127 10.3428 43.5479 10 43.3434 9.69698C43.1426 9.39016 42.9021 9.1288 42.6218 8.91289C42.3453 8.69698 42.0309 8.5322 41.6786 8.41857C41.3263 8.30493 40.94 8.24811 40.5195 8.24811C39.8301 8.24811 39.2032 8.42614 38.6388 8.7822C38.0744 9.13827 37.6256 9.66289 37.2922 10.3561C36.9589 11.0493 36.7922 11.8996 36.7922 12.9072C36.7922 13.9148 36.9608 14.7652 37.2979 15.4583C37.635 16.1515 38.0915 16.6761 38.6672 17.0322C39.243 17.3883 39.8907 17.5663 40.6104 17.5663C41.2771 17.5663 41.8642 17.4243 42.3718 17.1402C42.8831 16.8523 43.2809 16.447 43.565 15.9243C43.8528 15.3977 43.9968 14.7784 43.9968 14.0663L44.4286 14.1572H40.9286V12.9072H45.3604V14.1572C45.3604 15.1155 45.1559 15.9489 44.7468 16.6572C44.3415 17.3655 43.7809 17.9148 43.065 18.3049C42.3528 18.6913 41.5346 18.8845 40.6104 18.8845C39.5801 18.8845 38.6748 18.6421 37.8945 18.1572C37.118 17.6724 36.5119 16.983 36.0763 16.089C35.6445 15.1951 35.4286 14.1345 35.4286 12.9072C35.4286 11.9868 35.5517 11.1591 35.7979 10.4242C36.0479 9.68561 36.4002 9.05683 36.8547 8.53789C37.3093 8.01895 37.8471 7.62122 38.4684 7.3447C39.0896 7.06819 39.7733 6.92993 40.5195 6.92993C41.1331 6.92993 41.7051 7.02273 42.2354 7.20834C42.7695 7.39016 43.2449 7.64963 43.6615 7.98675C44.082 8.32008 44.4324 8.7197 44.7127 9.18561C44.993 9.64773 45.1862 10.161 45.2922 10.7254H43.8377Z" fill="#D9D9D9"/>
</svg>
