<svg width="122" height="24" viewBox="0 0 122 24" fill="none" xmlns="http://www.w3.org/2000/svg">
<g clip-path="url(#clip0_23_431)">
<path fill-rule="evenodd" clip-rule="evenodd" d="M0.576635 2.69513C0.0137024 3.77882 0.0137024 5.20255 0.0137024 8.05V15.95C0.0137024 18.7975 0.0137024 20.2212 0.576635 21.3049C1.05101 22.2181 1.79561 22.9627 2.70883 23.4371C3.79252 24 5.21625 24 8.0637 24H15.9637C18.8112 24 20.2349 24 21.3186 23.4371C22.2318 22.9627 22.9764 22.2181 23.4508 21.3049C24.0137 20.2212 24.0137 18.7975 24.0137 15.95V8.05C24.0137 5.20255 24.0137 3.77882 23.4508 2.69513C22.9764 1.78191 22.2318 1.03731 21.3186 0.562933C20.2349 0 18.8112 0 15.9637 0H8.0637C5.21625 0 3.79252 0 2.70883 0.562933C1.79561 1.03731 1.05101 1.78191 0.576635 2.69513ZM8.40193 3.32546C9.33281 3.2831 9.63025 3.27274 12.0004 3.27274H11.9976C14.3685 3.27274 14.6648 3.2831 15.5957 3.32546C16.5248 3.36801 17.1593 3.5151 17.7156 3.73092C18.2902 3.95364 18.7756 4.25183 19.2611 4.73728C19.7465 5.22237 20.0447 5.70928 20.2683 6.28328C20.4828 6.83819 20.6301 7.47237 20.6737 8.40146C20.7156 9.33237 20.7265 9.62983 20.7265 12C20.7265 14.3702 20.7156 14.6669 20.6737 15.5978C20.6301 16.5266 20.4828 17.1609 20.2683 17.716C20.0447 18.2898 19.7465 18.7767 19.2611 19.2618C18.7762 19.7473 18.29 20.0462 17.7162 20.2691C17.1609 20.4849 16.526 20.632 15.597 20.6746C14.6661 20.7169 14.3696 20.7273 11.9993 20.7273C9.62935 20.7273 9.33208 20.7169 8.4012 20.6746C7.47232 20.632 6.83798 20.4849 6.28272 20.2691C5.7091 20.0462 5.22221 19.7473 4.73731 19.2618C4.25205 18.7767 3.95388 18.2898 3.7308 17.7158C3.51517 17.1609 3.36808 16.5267 3.32535 15.5976C3.28317 14.6667 3.27263 14.3702 3.27263 12C3.27263 9.62983 3.28354 9.33219 3.32517 8.40128C3.36699 7.47255 3.51426 6.83819 3.73061 6.2831C3.95424 5.70928 4.25242 5.22237 4.73786 4.73728C5.22293 4.25201 5.70983 3.95383 6.28381 3.73092C6.8387 3.5151 7.47287 3.36801 8.40193 3.32546ZM11.7095 4.84538C11.533 4.8453 11.3695 4.84522 11.2175 4.84546V4.84328C9.59098 4.8451 9.27899 4.85601 8.47393 4.89237C7.62304 4.93146 7.16106 5.07328 6.85343 5.19328C6.44617 5.35183 6.15527 5.54092 5.84982 5.84637C5.54438 6.15183 5.35493 6.44274 5.19675 6.85001C5.0773 7.15764 4.93512 7.61946 4.89622 8.47037C4.8544 9.39037 4.84604 9.66528 4.84604 11.9958C4.84604 14.3264 4.8544 14.6027 4.89622 15.5227C4.93494 16.3736 5.0773 16.8355 5.19675 17.1427C5.35529 17.5502 5.54438 17.8404 5.84982 18.1458C6.15527 18.4513 6.44617 18.6404 6.85343 18.7986C7.16124 18.918 7.62304 19.0602 8.47393 19.0995C9.3939 19.1413 9.67007 19.1504 12.0004 19.1504C14.3305 19.1504 14.6068 19.1413 15.5268 19.0995C16.3777 19.0606 16.8399 18.9187 17.1471 18.7987C17.5546 18.6406 17.8446 18.4515 18.15 18.146C18.4554 17.8407 18.6449 17.5507 18.8031 17.1435C18.9225 16.8362 19.0647 16.3744 19.1036 15.5235C19.1454 14.6035 19.1545 14.3271 19.1545 11.998C19.1545 9.66892 19.1454 9.39255 19.1036 8.47255C19.0649 7.62164 18.9225 7.15983 18.8031 6.85255C18.6445 6.44528 18.4554 6.15437 18.15 5.84892C17.8447 5.54346 17.5544 5.35437 17.1471 5.19619C16.8395 5.07674 16.3777 4.93455 15.5268 4.89564C14.6066 4.85383 14.3305 4.84546 12.0004 4.84546C11.8997 4.84546 11.8028 4.84542 11.7095 4.84538ZM15.6115 7.34146C15.6115 6.7631 16.0806 6.29455 16.6588 6.29455V6.29419C17.2369 6.29419 17.706 6.76328 17.706 7.34146C17.706 7.91964 17.2369 8.38874 16.6588 8.38874C16.0806 8.38874 15.6115 7.91964 15.6115 7.34146ZM7.51868 12C7.51868 9.52498 9.52525 7.51829 12.0002 7.51819C14.4752 7.51819 16.4813 9.52492 16.4813 12C16.4813 14.4751 14.4754 16.4809 12.0004 16.4809C9.52535 16.4809 7.51868 14.4751 7.51868 12ZM14.9094 12C14.9094 10.3933 13.6069 9.09092 12.0004 9.09092C10.3937 9.09092 9.09136 10.3933 9.09136 12C9.09136 13.6066 10.3937 14.9091 12.0004 14.9091C13.6069 14.9091 14.9094 13.6066 14.9094 12Z" fill="#D9D9D9"/>
</g>
<path d="M110.594 6.15918H112.276L116.23 15.8183H116.366L120.321 6.15918H122.003V17.7955H120.685V8.95463H120.571L116.935 17.7955H115.662L112.026 8.95463H111.912V17.7955H110.594V6.15918Z" fill="#D9D9D9"/>
<path d="M100.259 17.7955H98.7812L103.054 6.15918H104.509L108.781 17.7955H107.304L103.827 8.00009H103.736L100.259 17.7955ZM100.804 13.2501H106.759V14.5001H100.804V13.2501Z" fill="#D9D9D9"/>
<path d="M89.5469 17.7955V6.15918H93.4787C94.3878 6.15918 95.134 6.31448 95.7173 6.62509C96.3007 6.93191 96.7325 7.35426 97.0128 7.89213C97.2931 8.43001 97.4332 9.04176 97.4332 9.72736C97.4332 10.413 97.2931 11.0209 97.0128 11.5512C96.7325 12.0815 96.3026 12.4982 95.723 12.8012C95.1435 13.1005 94.4029 13.2501 93.5014 13.2501H90.3196V11.9774H93.456C94.0772 11.9774 94.5772 11.8865 94.956 11.7046C95.3385 11.5228 95.6151 11.2652 95.7855 10.9319C95.9598 10.5948 96.0469 10.1933 96.0469 9.72736C96.0469 9.26145 95.9598 8.85426 95.7855 8.50577C95.6113 8.15729 95.3329 7.88835 94.9503 7.69895C94.5677 7.50577 94.062 7.40918 93.4332 7.40918H90.956V17.7955H89.5469ZM95.0242 12.5683L97.8878 17.7955H96.2514L93.4332 12.5683H95.0242Z" fill="#D9D9D9"/>
<path d="M85.6108 9.79545C85.4858 9.41288 85.321 9.07008 85.1165 8.76705C84.9157 8.46023 84.6752 8.19886 84.3949 7.98295C84.1184 7.76705 83.804 7.60227 83.4517 7.48864C83.0994 7.375 82.7131 7.31818 82.2926 7.31818C81.6032 7.31818 80.9763 7.49621 80.4119 7.85227C79.8475 8.20833 79.3987 8.73295 79.0653 9.42614C78.732 10.1193 78.5653 10.9697 78.5653 11.9773C78.5653 12.9848 78.7339 13.8352 79.071 14.5284C79.4081 15.2216 79.8646 15.7462 80.4403 16.1023C81.0161 16.4583 81.6638 16.6364 82.3835 16.6364C83.0502 16.6364 83.6373 16.4943 84.1449 16.2102C84.6563 15.9223 85.054 15.517 85.3381 14.9943C85.6259 14.4678 85.7699 13.8485 85.7699 13.1364L86.2017 13.2273H82.7017V11.9773H87.1335V13.2273C87.1335 14.1856 86.929 15.0189 86.5199 15.7273C86.1146 16.4356 85.554 16.9848 84.8381 17.375C84.1259 17.7614 83.3078 17.9545 82.3835 17.9545C81.3532 17.9545 80.4479 17.7121 79.6676 17.2273C78.8911 16.7424 78.285 16.053 77.8494 15.1591C77.4176 14.2652 77.2017 13.2045 77.2017 11.9773C77.2017 11.0568 77.3248 10.2292 77.571 9.49432C77.821 8.75568 78.1733 8.12689 78.6278 7.60795C79.0824 7.08902 79.6203 6.69129 80.2415 6.41477C80.8627 6.13826 81.5464 6 82.2926 6C82.9063 6 83.4782 6.0928 84.0085 6.27841C84.5426 6.46023 85.018 6.7197 85.4347 7.05682C85.8551 7.39015 86.2055 7.78977 86.4858 8.25568C86.7661 8.7178 86.9593 9.23106 87.0653 9.79545H85.6108Z" fill="#D9D9D9"/>
<path d="M67.8679 17.7955H66.3906L70.6634 6.15918H72.1179L76.3906 17.7955H74.9133L71.4361 8.00009H71.3452L67.8679 17.7955ZM68.4134 13.2501H74.3679V14.5001H68.4134V13.2501Z" fill="#D9D9D9"/>
<path d="M57.848 7.40918V6.15918H66.5753V7.40918H62.9162V17.7955H61.5071V7.40918H57.848Z" fill="#D9D9D9"/>
<path d="M54.6449 9.06818C54.5767 8.49242 54.3002 8.04545 53.8153 7.72727C53.3305 7.40909 52.7358 7.25 52.0313 7.25C51.5161 7.25 51.0653 7.33333 50.679 7.5C50.2964 7.66667 49.9972 7.89583 49.7813 8.1875C49.5691 8.47917 49.4631 8.81061 49.4631 9.18182C49.4631 9.49242 49.5369 9.75947 49.6847 9.98295C49.8362 10.2027 50.0294 10.3864 50.2642 10.5341C50.4991 10.678 50.7453 10.7973 51.0028 10.892C51.2604 10.983 51.4972 11.0568 51.7131 11.1136L52.8949 11.4318C53.1979 11.5114 53.535 11.6212 53.9063 11.7614C54.2813 11.9015 54.6392 12.0928 54.9801 12.3352C55.3248 12.5739 55.6089 12.8807 55.8324 13.2557C56.0559 13.6307 56.1676 14.0909 56.1676 14.6364C56.1676 15.2652 56.0028 15.8333 55.6733 16.3409C55.3475 16.8485 54.8703 17.2519 54.2415 17.5511C53.6165 17.8504 52.857 18 51.9631 18C51.1297 18 50.4081 17.8655 49.7983 17.5966C49.1922 17.3277 48.715 16.9527 48.3665 16.4716C48.0218 15.9905 47.8267 15.4318 47.7812 14.7955H49.2358C49.2737 15.2348 49.4214 15.5985 49.679 15.8864C49.9403 16.1705 50.2699 16.3826 50.6676 16.5227C51.0691 16.6591 51.5009 16.7273 51.9631 16.7273C52.5009 16.7273 52.9839 16.6402 53.4119 16.4659C53.84 16.2879 54.179 16.0417 54.429 15.7273C54.679 15.4091 54.804 15.0379 54.804 14.6136C54.804 14.2273 54.696 13.9129 54.4801 13.6705C54.2642 13.428 53.9801 13.2311 53.6278 13.0795C53.2756 12.928 52.8949 12.7955 52.4858 12.6818L51.054 12.2727C50.1449 12.0114 49.4252 11.6383 48.8949 11.1534C48.3646 10.6686 48.0994 10.0341 48.0994 9.25C48.0994 8.59848 48.2756 8.0303 48.6278 7.54545C48.9839 7.05682 49.4612 6.67803 50.0597 6.40909C50.6619 6.13636 51.3343 6 52.0767 6C52.8267 6 53.4934 6.13447 54.0767 6.40341C54.66 6.66856 55.1222 7.0322 55.4631 7.49432C55.8078 7.95644 55.9896 8.48106 56.0085 9.06818H54.6449Z" fill="#D9D9D9"/>
<path d="M45.4616 6.15918V17.7955H44.098L37.7571 8.65918H37.6435V17.7955H36.2344V6.15918H37.598L43.9616 15.3183H44.0753V6.15918H45.4616Z" fill="#D9D9D9"/>
<path d="M33.4091 6.15918V17.7955H32V6.15918H33.4091Z" fill="#D9D9D9"/>
<defs>
<clipPath id="clip0_23_431">
<rect width="24" height="24" fill="white"/>
</clipPath>
</defs>
</svg>
