<svg width="106" height="25" viewBox="0 0 106 25" fill="none" xmlns="http://www.w3.org/2000/svg">
<path fill-rule="evenodd" clip-rule="evenodd" d="M0.643352 3.62506C0 4.70875 0 6.13248 0 8.97993V16.8799C0 19.7274 0 21.1511 0.643352 22.2348C1.1855 23.148 2.03647 23.8926 3.08015 24.367C4.31865 24.9299 5.94577 24.9299 9.2 24.9299H18.2286C21.4828 24.9299 23.1099 24.9299 24.3484 24.367C25.3921 23.8926 26.2431 23.148 26.7852 22.2348C27.4286 21.1511 27.4286 19.7274 27.4286 16.8799V8.97993C27.4286 6.13248 27.4286 4.70875 26.7852 3.62506C26.2431 2.71184 25.3921 1.96724 24.3484 1.49286C23.1099 0.929932 21.4828 0.929932 18.2286 0.929932H9.2C5.94577 0.929932 4.31865 0.929932 3.08015 1.49286C2.03647 1.96724 1.1855 2.71184 0.643352 3.62506ZM6.15646 8.38323C7.47058 8.38323 8.53588 7.45109 8.53588 6.30123C8.53588 5.15138 7.47058 4.21924 6.15646 4.21924C4.84234 4.21924 3.77704 5.15138 3.77704 6.30123C3.77704 7.45109 4.84234 8.38323 6.15646 8.38323ZM10.715 9.92188H14.6585V11.5026C14.6585 11.5026 15.7286 9.62989 18.6402 9.62989C21.2375 9.62989 23.3891 10.7494 23.3891 14.1619V21.3579H19.3026V15.0339C19.3026 13.0209 18.0743 12.7994 17.1384 12.7994C15.196 12.7994 14.8634 14.2655 14.8634 15.2965V21.3579H10.715V9.92188ZM8.23067 9.92189H4.08226V21.3579H8.23067V9.92189Z" fill="#D9D9D9"/>
<path d="M105.671 7.11182V18.7482H104.308L97.9669 9.61182H97.8533V18.7482H96.4442V7.11182H97.8078L104.171 16.2709H104.285V7.11182H105.671Z" fill="#D9D9D9"/>
<path d="M93.6189 7.11182V18.7482H92.2098V7.11182H93.6189Z" fill="#D9D9D9"/>
<path d="M84.3007 18.7482H80.7098V7.11182H84.4598C85.5886 7.11182 86.5545 7.34477 87.3575 7.81068C88.1606 8.2728 88.7761 8.93757 89.2041 9.805C89.6322 10.6686 89.8462 11.7027 89.8462 12.9073C89.8462 14.1194 89.6303 15.163 89.1985 16.038C88.7666 16.9092 88.1378 17.5796 87.3121 18.0493C86.4863 18.5152 85.4825 18.7482 84.3007 18.7482ZM82.1189 17.4982H84.2098C85.1719 17.4982 85.9693 17.3126 86.6019 16.9414C87.2344 16.5702 87.706 16.0417 88.0166 15.3561C88.3272 14.6705 88.4825 13.8542 88.4825 12.9073C88.4825 11.9679 88.3291 11.1592 88.0223 10.4811C87.7155 9.79932 87.2572 9.27659 86.6473 8.91295C86.0375 8.54553 85.278 8.36182 84.3689 8.36182H82.1189V17.4982Z" fill="#D9D9D9"/>
<path d="M71.1473 18.7482V7.11182H78.17V8.36182H72.5564V12.2936H77.8064V13.5436H72.5564V17.4982H78.261V18.7482H71.1473Z" fill="#D9D9D9"/>
<path d="M60.7098 18.7482V7.11182H62.1189V12.8845H62.2553L67.4825 7.11182H69.3235L64.4371 12.3618L69.3235 18.7482H67.6189L63.5735 13.3391L62.1189 14.9755V18.7482H60.7098Z" fill="#D9D9D9"/>
<path d="M57.8902 7.11182V18.7482H56.5266L50.1857 9.61182H50.072V18.7482H48.6629V7.11182H50.0266L56.3902 16.2709H56.5039V7.11182H57.8902Z" fill="#D9D9D9"/>
<path d="M45.8377 7.11182V18.7482H44.4286V7.11182H45.8377Z" fill="#D9D9D9"/>
<path d="M35.4286 18.7482V7.11182H36.8377V17.4982H42.2468V18.7482H35.4286Z" fill="#D9D9D9"/>
</svg>
