<svg width="100" height="23" viewBox="0 0 100 23" fill="none" xmlns="http://www.w3.org/2000/svg">
<rect width="24.9227" height="22.93" rx="3" fill="#D9D9D9"/>
<g clip-path="url(#clip0_23_388)">
<path d="M12.4614 18.93C16.5432 18.93 19.9227 15.5505 19.9227 11.4687C19.9227 7.3942 16.5358 4.00732 12.454 4.00732C8.37956 4.00732 5 7.3942 5 11.4687C5 15.5505 8.38687 18.93 12.4614 18.93ZM9.13301 15.2725C8.12353 14.2703 8.12353 12.7269 9.16227 11.6882L13.3465 7.50392C14.1438 6.70658 15.2338 6.69927 15.9945 7.43808C16.7406 8.19153 16.7187 9.27417 15.9141 10.0715L11.8323 14.1533C11.3568 14.6288 10.6618 14.658 10.223 14.1972C9.79136 13.751 9.80599 13.0268 10.2668 12.5732L13.0977 9.7277C13.2733 9.55946 13.5147 9.54482 13.6903 9.72038C13.8732 9.88863 13.8512 10.13 13.6756 10.3056L10.8374 13.1365C10.6984 13.2755 10.6911 13.4584 10.8301 13.5828C10.9691 13.7071 11.1227 13.7071 11.269 13.5608L15.3289 9.50825C15.7824 9.0474 15.819 8.44025 15.4093 8.03792C15.0143 7.64291 14.3852 7.66485 13.939 8.11839L9.78405 12.2733C9.0818 12.9829 9.05985 13.9704 9.7621 14.658C10.4424 15.3383 11.4372 15.3311 12.1395 14.6288L15.1826 11.5858C15.3435 11.4248 15.6288 11.4175 15.797 11.5784C15.9579 11.7247 15.9433 12.0246 15.7897 12.1783L12.7028 15.2579C11.6713 16.282 10.2083 16.3186 9.13301 15.2725Z" fill="#1E1E24"/>
</g>
<path d="M90.6805 5.70337H99.0477V7.10962H92.1962V10.594H98.5321V11.9221H92.1962V15.8127H99.1649V17.1799H90.6805V5.70337Z" fill="#D9D9D9"/>
<path d="M77.1649 5.70337H79.3915L82.6884 15.4065L85.9618 5.70337H88.1649V17.1799H86.6884V10.4065C86.6884 10.1721 86.6936 9.7841 86.704 9.24243C86.7144 8.70076 86.7196 8.12004 86.7196 7.50024L83.4462 17.1799H81.9071L78.6102 7.50024V7.85181C78.6102 8.13306 78.6154 8.56274 78.6259 9.14087C78.6415 9.71379 78.6493 10.1357 78.6493 10.4065V17.1799H77.1649V5.70337Z" fill="#D9D9D9"/>
<path d="M67.329 5.70337V12.7971C67.329 13.6305 67.4852 14.3232 67.7977 14.8752C68.2613 15.7086 69.0425 16.1252 70.1415 16.1252C71.4592 16.1252 72.355 15.6747 72.829 14.7737C73.0842 14.2841 73.2118 13.6252 73.2118 12.7971V5.70337H74.7899V12.1487C74.7899 13.5601 74.5998 14.6461 74.2196 15.4065C73.5217 16.7919 72.204 17.4846 70.2665 17.4846C68.329 17.4846 67.0139 16.7919 66.3212 15.4065C65.941 14.6461 65.7509 13.5601 65.7509 12.1487V5.70337H67.329Z" fill="#D9D9D9"/>
<path d="M55.9852 13.4768C56.0216 14.1278 56.1753 14.6565 56.4461 15.0627C56.9617 15.8232 57.8706 16.2034 59.1727 16.2034C59.756 16.2034 60.2873 16.12 60.7664 15.9534C61.6935 15.6305 62.1571 15.0523 62.1571 14.219C62.1571 13.594 61.9617 13.1487 61.5711 12.8831C61.1753 12.6226 60.5555 12.3961 59.7117 12.2034L58.1571 11.8518C57.1414 11.6226 56.4227 11.37 56.0008 11.094C55.2716 10.6148 54.9071 9.89868 54.9071 8.94556C54.9071 7.91431 55.2638 7.06795 55.9774 6.40649C56.6909 5.74504 57.7013 5.41431 59.0086 5.41431C60.2117 5.41431 61.2326 5.70597 62.0711 6.28931C62.9149 6.86743 63.3367 7.79452 63.3367 9.07056H61.8758C61.7977 8.45597 61.631 7.98462 61.3758 7.65649C60.9019 7.05754 60.0972 6.75806 58.9617 6.75806C58.0451 6.75806 57.3862 6.95077 56.9852 7.33618C56.5841 7.7216 56.3836 8.16951 56.3836 8.67993C56.3836 9.24243 56.618 9.65389 57.0867 9.91431C57.394 10.081 58.0894 10.2893 59.1727 10.5393L60.7821 10.9065C61.5581 11.0836 62.1571 11.3258 62.5789 11.6331C63.3081 12.1695 63.6727 12.9482 63.6727 13.969C63.6727 15.2398 63.2091 16.1487 62.2821 16.6956C61.3602 17.2424 60.2873 17.5159 59.0633 17.5159C57.6362 17.5159 56.519 17.1513 55.7117 16.4221C54.9045 15.6982 54.5086 14.7164 54.5242 13.4768H55.9852Z" fill="#D9D9D9"/>
<path d="M44.4462 5.70337H52.8134V7.10962H45.9618V10.594H52.2977V11.9221H45.9618V15.8127H52.9305V17.1799H44.4462V5.70337Z" fill="#D9D9D9"/>
<path d="M38.0712 10.9612C38.8003 10.9612 39.3759 10.8153 39.7977 10.5237C40.2248 10.232 40.4384 9.70597 40.4384 8.94556C40.4384 8.12785 40.1415 7.57056 39.5477 7.27368C39.23 7.11743 38.8055 7.03931 38.2743 7.03931H34.4774V10.9612H38.0712ZM32.9227 5.70337H38.2352C39.1102 5.70337 39.8316 5.83097 40.3993 6.08618C41.4774 6.57577 42.0165 7.47941 42.0165 8.79712C42.0165 9.48462 41.8733 10.0471 41.5868 10.4846C41.3055 10.9221 40.9097 11.2737 40.3993 11.5393C40.8472 11.7216 41.1831 11.9612 41.4071 12.2581C41.6363 12.5549 41.7639 13.0367 41.7899 13.7034L41.8446 15.2424C41.8602 15.6799 41.8967 16.0055 41.954 16.219C42.0477 16.5836 42.2144 16.818 42.454 16.9221V17.1799H40.5477C40.4956 17.081 40.454 16.9534 40.4227 16.7971C40.3915 16.6409 40.3654 16.3388 40.3446 15.8909L40.2509 13.9768C40.2144 13.2268 39.9358 12.7242 39.4149 12.469C39.118 12.3284 38.6519 12.2581 38.0165 12.2581H34.4774V17.1799H32.9227V5.70337Z" fill="#D9D9D9"/>
<defs>
<clipPath id="clip0_23_388">
<rect width="14.9227" height="14.93" fill="white" transform="translate(5 4)"/>
</clipPath>
</defs>
</svg>
