<svg width="254" height="31" viewBox="0 0 254 31" fill="none" xmlns="http://www.w3.org/2000/svg">
<g style="mix-blend-mode:multiply" opacity="0.55">
<path fill-rule="evenodd" clip-rule="evenodd" d="M52.9288 24.0553C38.4652 24.083 23.9902 24.1108 9.49637 24.1108H2.9508C0.828248 24.1108 -0.569624 21.6678 0.226218 19.5667C1.13067 17.1777 2.00609 14.2997 2.00609 12.1107C2.00609 4.72773 5.68194 1.57273 7.32044 0.532728C7.81386 0.219727 8.38687 0.110728 8.96081 0.110728H9.49637C23.9025 0.110728 38.3297 0.083092 52.7691 0.0554336C84.9055 -0.00612334 117.102 -0.0677956 149.259 0.174816C153.205 0.204588 157.334 0.182431 161.582 0.159639C176.198 0.0812124 192.213 -0.00472426 206.982 1.9918C209.128 2.28182 211.103 2.86877 212.125 3.17237C212.277 3.21768 212.408 3.25668 212.516 3.28744C213.483 3.56435 213.644 3.55666 213.67 3.55545L213.673 3.55535C219.379 3.55535 225.14 4.51604 229.988 5.32436C230.182 5.35676 230.375 5.38892 230.566 5.42076C235.866 6.30279 240.277 6.99997 244.504 6.99997H251.049C253.172 6.99997 254.57 9.44297 253.774 11.544C252.869 13.933 251.994 16.811 251.994 19C251.994 26.383 248.318 29.538 246.68 30.578C246.186 30.891 245.613 31 245.039 31H244.504C238.313 31 232.259 29.9923 227.236 29.1561L227.106 29.1346C221.722 28.2384 217.536 27.5554 213.673 27.5554C210.649 27.5554 208.226 26.9068 206.696 26.4684C206.36 26.3723 206.079 26.291 205.84 26.2219C204.858 25.9379 204.587 25.8594 204.161 25.8019C191 24.0228 177.052 24.0923 162.716 24.1637C158.212 24.1861 153.669 24.2087 149.1 24.1742C117.045 23.9324 85.0148 23.9938 52.9288 24.0553Z" fill="#F0DCCA"/>
</g>
</svg>
