<svg width="265" height="33" viewBox="0 0 265 33" fill="none" xmlns="http://www.w3.org/2000/svg">
<g style="mix-blend-mode:multiply" opacity="0.55">
<path fill-rule="evenodd" clip-rule="evenodd" d="M8.89009 0H9.42142C37.7906 0 66.4789 1.20526 94.9014 2.39936C111.701 3.10513 128.407 3.807 144.899 4.2538C151.431 4.43076 158.105 4.30578 165.113 4.17452C168.55 4.11015 172.067 4.04428 175.688 4.01177C186.354 3.916 197.547 4.12702 208.081 5.81886C222.97 8.21025 238.897 9 255.579 9H262.072C264.178 9 265.565 11.443 264.776 13.544C263.878 15.933 263.01 18.811 263.01 21C263.01 28.383 259.363 31.538 257.737 32.578C257.248 32.891 256.679 33 256.11 33H255.579C238.322 33 221.189 32.1898 204.791 29.5561C196.067 28.1548 186.319 27.9171 175.874 28.0109C172.709 28.0394 169.433 28.1002 166.113 28.1618C158.834 28.2969 151.343 28.436 144.338 28.2462C127.161 27.7808 110.179 27.065 93.2861 26.353C65.2539 25.1714 37.4641 24 9.42142 24H2.92752C0.821712 24 -0.565128 21.557 0.224433 19.456C1.12174 17.067 1.99026 14.189 1.99026 12C1.99026 4.617 5.6371 1.462 7.26267 0.422C7.7522 0.109 8.32068 0 8.89009 0Z" fill="#4ECDC4"/>
</g>
</svg>
