<svg width="336" height="29" viewBox="0 0 336 29" fill="none" xmlns="http://www.w3.org/2000/svg">
<g style="mix-blend-mode:multiply" opacity="0.55">
<path fill-rule="evenodd" clip-rule="evenodd" d="M273.022 24.285C257.008 24.4985 240.798 24.7146 224.524 24.7146C211.964 24.7146 199.566 25.8266 185.672 27.1659C169.171 28.7565 153.476 29 137.868 29H4.6429C1.3032 29 -0.896267 26.5715 0.35594 24.483C1.77903 22.1082 3.15646 19.2473 3.15646 17.0713C3.15646 9.73211 8.94018 6.59585 11.5182 5.56202C12.2946 5.25088 13.1962 5.14253 14.0993 5.14253H137.868C153.038 5.14253 166.715 4.89359 180.672 3.54824C194.42 2.22296 209.132 0.857089 224.524 0.857089C240.425 0.857089 256.321 0.645529 272.425 0.430871L272.494 0.429958C288.518 0.216362 304.75 0 321.058 0H331.357C334.697 0 336.896 2.42849 335.644 4.51701C334.221 6.89183 332.844 9.75274 332.844 11.9287C332.844 19.2679 327.06 22.4042 324.482 23.438C323.705 23.7491 322.804 23.8575 321.901 23.8575H321.058C305.134 23.8575 289.227 24.069 273.123 24.2837L273.022 24.285Z" fill="#4ECDC4"/>
</g>
</svg>
