<svg width="233" height="34" viewBox="0 0 233 34" fill="none" xmlns="http://www.w3.org/2000/svg">
<g style="mix-blend-mode:multiply" opacity="0.55">
<path fill-rule="evenodd" clip-rule="evenodd" d="M23.6523 24.0376C18.718 24.0552 13.7585 24.0728 8.76966 24.0728H2.72499C0.764867 24.0728 -0.526033 21.6299 0.208907 19.5291C1.04414 17.1402 1.85258 14.2624 1.85258 12.0735C1.85258 4.69101 5.24713 1.5362 6.76025 0.496269C7.21591 0.183289 7.74506 0.0742953 8.27509 0.0742953H8.76966C13.6436 0.0742953 18.533 0.0558229 23.4357 0.0372998C54.9388 -0.0817227 86.9926 -0.202825 119.03 4.56151C126.254 5.6358 133.809 6.15182 141.693 6.59181C143.019 6.66577 144.357 6.7377 145.704 6.81014C152.243 7.16159 159 7.52481 165.561 8.18834C185.353 10.1897 205.967 11.3264 223.79 7.27112L229.721 5.92166C231.644 5.48406 233.319 7.59277 232.948 9.8182C232.527 12.3486 232.215 15.3528 232.58 17.5004C233.812 24.7441 231.008 28.5974 229.697 29.9556C229.302 30.3644 228.801 30.5895 228.281 30.7078L227.796 30.8182C206.832 35.588 183.633 34.1058 163.754 32.0956C157.654 31.4787 151.404 31.1421 144.876 30.7904C143.494 30.716 142.101 30.641 140.693 30.5624C132.762 30.1198 124.493 29.57 116.384 28.364C85.8048 23.8166 55.2462 23.9253 23.6523 24.0376Z" fill="#DB324D"/>
</g>
</svg>
