<svg width="145" height="143" viewBox="0 0 145 143" fill="none" xmlns="http://www.w3.org/2000/svg">
<rect x="0.5" width="144" height="143" rx="71.5" fill="#333333"/>
<path d="M30.9375 68.5H25.9766V56.9844H30.9375C31.651 56.9948 32.2448 57.0781 32.7188 57.2344C33.526 57.5 34.1797 57.987 34.6797 58.6953C35.0807 59.2682 35.3542 59.888 35.5 60.5547C35.6458 61.2214 35.7188 61.8568 35.7188 62.4609C35.7188 63.9922 35.4115 65.2891 34.7969 66.3516C33.9635 67.7839 32.6771 68.5 30.9375 68.5ZM32.7266 59.9219C32.3568 59.2969 31.625 58.9844 30.5312 58.9844H28.3125V66.5H30.5312C31.6667 66.5 32.4583 65.9401 32.9062 64.8203C33.151 64.2057 33.2734 63.474 33.2734 62.625C33.2734 61.4531 33.0911 60.5521 32.7266 59.9219ZM44.2812 66.1328H40.0391L39.2422 68.5H36.7266L40.8359 56.9844H43.5547L47.6328 68.5H45.0234L44.2812 66.1328ZM43.6094 64.1484L42.1719 59.6172L40.6875 64.1484H43.6094ZM53.9922 63.9844H51.5078V68.5H49.1562V56.9844H54.8047C55.612 57 56.2318 57.099 56.6641 57.2812C57.1016 57.4635 57.4714 57.7318 57.7734 58.0859C58.0234 58.3776 58.2214 58.7005 58.3672 59.0547C58.513 59.4089 58.5859 59.8125 58.5859 60.2656C58.5859 60.8125 58.4479 61.3516 58.1719 61.8828C57.8958 62.4089 57.4401 62.7812 56.8047 63C57.3359 63.2135 57.7109 63.5182 57.9297 63.9141C58.1536 64.3047 58.2656 64.9036 58.2656 65.7109V66.4844C58.2656 67.0104 58.2865 67.3672 58.3281 67.5547C58.3906 67.8516 58.5365 68.0703 58.7656 68.2109V68.5H56.1172C56.0443 68.2448 55.9922 68.0391 55.9609 67.8828C55.8984 67.5599 55.8646 67.2292 55.8594 66.8906L55.8438 65.8203C55.8333 65.0859 55.6979 64.5964 55.4375 64.3516C55.1823 64.1068 54.7005 63.9844 53.9922 63.9844ZM55.4531 61.8906C55.9323 61.6719 56.1719 61.2396 56.1719 60.5938C56.1719 59.8958 55.9401 59.4271 55.4766 59.1875C55.2161 59.0521 54.8255 58.9844 54.3047 58.9844H51.5078V62.0781H54.2344C54.776 62.0781 55.1823 62.0156 55.4531 61.8906ZM70.8672 68.5H67.7734L64.2188 63.4688L63.0703 64.6484V68.5H60.7031V56.9844H63.0703V61.7266L67.5156 56.9844H70.625L65.9062 61.7266L70.8672 68.5ZM83.7422 68.2188C83.1068 68.6094 82.3255 68.8047 81.3984 68.8047C79.8724 68.8047 78.6224 68.276 77.6484 67.2188C76.6328 66.1562 76.125 64.7031 76.125 62.8594C76.125 60.9948 76.638 59.5 77.6641 58.375C78.6901 57.25 80.0469 56.6875 81.7344 56.6875C83.1979 56.6875 84.3724 57.0599 85.2578 57.8047C86.1484 58.5443 86.6589 59.4688 86.7891 60.5781H84.4219C84.2396 59.7917 83.7943 59.2422 83.0859 58.9297C82.6901 58.7578 82.25 58.6719 81.7656 58.6719C80.8385 58.6719 80.0755 59.0234 79.4766 59.7266C78.8828 60.4245 78.5859 61.4766 78.5859 62.8828C78.5859 64.2995 78.9089 65.3021 79.5547 65.8906C80.2005 66.4792 80.9349 66.7734 81.7578 66.7734C82.5651 66.7734 83.2266 66.5417 83.7422 66.0781C84.2578 65.6094 84.5755 64.9974 84.6953 64.2422H82.0312V62.3203H86.8281V68.5H85.2344L84.9922 67.0625C84.5286 67.6094 84.112 67.9948 83.7422 68.2188ZM94.0234 63.9844H91.5391V68.5H89.1875V56.9844H94.8359C95.6432 57 96.263 57.099 96.6953 57.2812C97.1328 57.4635 97.5026 57.7318 97.8047 58.0859C98.0547 58.3776 98.2526 58.7005 98.3984 59.0547C98.5443 59.4089 98.6172 59.8125 98.6172 60.2656C98.6172 60.8125 98.4792 61.3516 98.2031 61.8828C97.9271 62.4089 97.4714 62.7812 96.8359 63C97.3672 63.2135 97.7422 63.5182 97.9609 63.9141C98.1849 64.3047 98.2969 64.9036 98.2969 65.7109V66.4844C98.2969 67.0104 98.3177 67.3672 98.3594 67.5547C98.4219 67.8516 98.5677 68.0703 98.7969 68.2109V68.5H96.1484C96.0755 68.2448 96.0234 68.0391 95.9922 67.8828C95.9297 67.5599 95.8958 67.2292 95.8906 66.8906L95.875 65.8203C95.8646 65.0859 95.7292 64.5964 95.4688 64.3516C95.2135 64.1068 94.7318 63.9844 94.0234 63.9844ZM95.4844 61.8906C95.9635 61.6719 96.2031 61.2396 96.2031 60.5938C96.2031 59.8958 95.9714 59.4271 95.5078 59.1875C95.2474 59.0521 94.8568 58.9844 94.3359 58.9844H91.5391V62.0781H94.2656C94.8073 62.0781 95.2135 62.0156 95.4844 61.8906ZM107.438 66.1328H103.195L102.398 68.5H99.8828L103.992 56.9844H106.711L110.789 68.5H108.18L107.438 66.1328ZM106.766 64.1484L105.328 59.6172L103.844 64.1484H106.766ZM120.086 56.9844L116.234 64.1719V68.5H113.828V64.1719L109.844 56.9844H112.68L115.07 62L117.359 56.9844H120.086ZM49.4468 82.852H47.6708L47.1588 86.5H46.2148L46.7108 82.852H44.5188L43.9748 86.5H43.0308L43.5748 82.852H41.8148V81.908H43.7188L44.0548 79.668H42.2628V78.724H44.1828L44.6948 75.332H45.6548L45.1428 78.724H47.3188L47.8148 75.332H48.7588L48.2628 78.724H49.8628V79.668H48.1348L47.8148 81.908H49.4468V82.852ZM45.0148 79.668L44.6628 81.908H46.8708L47.1908 79.668H45.0148ZM53.8094 80.228C54.2894 80.228 54.7268 80.2013 55.1214 80.148C55.5161 80.084 55.8521 79.972 56.1294 79.812C56.4174 79.6413 56.6414 79.4173 56.8014 79.14C56.9614 78.8627 57.0414 78.5053 57.0414 78.068C57.0414 77.716 56.9774 77.4173 56.8494 77.172C56.7214 76.916 56.5454 76.708 56.3214 76.548C56.1081 76.388 55.8521 76.2707 55.5534 76.196C55.2654 76.1213 54.9614 76.084 54.6414 76.084C54.2788 76.084 53.9481 76.1427 53.6494 76.26C53.3614 76.3773 53.1108 76.548 52.8974 76.772C52.6841 76.9853 52.5188 77.2413 52.4014 77.54C52.2841 77.828 52.2254 78.148 52.2254 78.5H51.2014C51.2014 77.988 51.2868 77.5293 51.4574 77.124C51.6388 76.708 51.9161 76.324 52.2894 75.972C52.6414 75.652 53.0361 75.4493 53.4734 75.364C53.9214 75.268 54.3801 75.22 54.8494 75.22C55.2974 75.22 55.7134 75.2787 56.0974 75.396C56.4921 75.5027 56.8334 75.6733 57.1214 75.908C57.4094 76.132 57.6388 76.42 57.8094 76.772C57.9801 77.124 58.0654 77.5347 58.0654 78.004C58.0654 78.5907 57.9321 79.0973 57.6654 79.524C57.4094 79.9507 57.0094 80.2813 56.4654 80.516C56.8708 80.644 57.2014 80.8147 57.4574 81.028C57.7241 81.2307 57.9321 81.46 58.0814 81.716C58.2308 81.9613 58.3321 82.2227 58.3854 82.5C58.4388 82.7773 58.4654 83.044 58.4654 83.3C58.4654 83.7693 58.3854 84.2067 58.2254 84.612C58.0654 85.0173 57.8308 85.3747 57.5214 85.684C57.2121 85.9933 56.8281 86.244 56.3694 86.436C55.9214 86.6173 55.4094 86.7133 54.8334 86.724C54.1828 86.724 53.6174 86.6653 53.1374 86.548C52.6574 86.4307 52.2574 86.2387 51.9374 85.972C51.6174 85.6947 51.3668 85.3373 51.1854 84.9C51.0041 84.452 50.8814 83.8973 50.8174 83.236H51.8414C51.8414 84.1 52.0974 84.756 52.6094 85.204C53.1321 85.6413 53.8094 85.86 54.6414 85.86C55.0468 85.86 55.4254 85.7907 55.7774 85.652C56.1294 85.5133 56.4281 85.3267 56.6734 85.092C56.9294 84.8573 57.1214 84.5853 57.2494 84.276C57.3881 83.9667 57.4521 83.6467 57.4414 83.316C57.4201 82.8573 57.3134 82.4787 57.1214 82.18C56.9294 81.8707 56.6681 81.6307 56.3374 81.46C56.0174 81.2787 55.6388 81.1613 55.2014 81.108C54.7641 81.044 54.3001 81.028 53.8094 81.06V80.228ZM62.7001 80.228C63.1801 80.228 63.6174 80.2013 64.0121 80.148C64.4067 80.084 64.7427 79.972 65.0201 79.812C65.3081 79.6413 65.5321 79.4173 65.6921 79.14C65.8521 78.8627 65.9321 78.5053 65.9321 78.068C65.9321 77.716 65.8681 77.4173 65.7401 77.172C65.6121 76.916 65.4361 76.708 65.2121 76.548C64.9987 76.388 64.7427 76.2707 64.4441 76.196C64.1561 76.1213 63.8521 76.084 63.5321 76.084C63.1694 76.084 62.8387 76.1427 62.5401 76.26C62.2521 76.3773 62.0014 76.548 61.7881 76.772C61.5747 76.9853 61.4094 77.2413 61.2921 77.54C61.1747 77.828 61.1161 78.148 61.1161 78.5H60.0921C60.0921 77.988 60.1774 77.5293 60.3481 77.124C60.5294 76.708 60.8067 76.324 61.1801 75.972C61.5321 75.652 61.9267 75.4493 62.3641 75.364C62.8121 75.268 63.2707 75.22 63.7401 75.22C64.1881 75.22 64.6041 75.2787 64.9881 75.396C65.3827 75.5027 65.7241 75.6733 66.0121 75.908C66.3001 76.132 66.5294 76.42 66.7001 76.772C66.8707 77.124 66.9561 77.5347 66.9561 78.004C66.9561 78.5907 66.8227 79.0973 66.5561 79.524C66.3001 79.9507 65.9001 80.2813 65.3561 80.516C65.7614 80.644 66.0921 80.8147 66.3481 81.028C66.6147 81.2307 66.8227 81.46 66.9721 81.716C67.1214 81.9613 67.2227 82.2227 67.2761 82.5C67.3294 82.7773 67.3561 83.044 67.3561 83.3C67.3561 83.7693 67.2761 84.2067 67.1161 84.612C66.9561 85.0173 66.7214 85.3747 66.4121 85.684C66.1027 85.9933 65.7187 86.244 65.2601 86.436C64.8121 86.6173 64.3001 86.7133 63.7241 86.724C63.0734 86.724 62.5081 86.6653 62.0281 86.548C61.5481 86.4307 61.1481 86.2387 60.8281 85.972C60.5081 85.6947 60.2574 85.3373 60.0761 84.9C59.8947 84.452 59.7721 83.8973 59.7081 83.236H60.7321C60.7321 84.1 60.9881 84.756 61.5001 85.204C62.0227 85.6413 62.7001 85.86 63.5321 85.86C63.9374 85.86 64.3161 85.7907 64.6681 85.652C65.0201 85.5133 65.3187 85.3267 65.5641 85.092C65.8201 84.8573 66.0121 84.5853 66.1401 84.276C66.2787 83.9667 66.3427 83.6467 66.3321 83.316C66.3107 82.8573 66.2041 82.4787 66.0121 82.18C65.8201 81.8707 65.5587 81.6307 65.2281 81.46C64.9081 81.2787 64.5294 81.1613 64.0921 81.108C63.6547 81.044 63.1907 81.028 62.7001 81.06V80.228ZM71.5907 80.228C72.0707 80.228 72.508 80.2013 72.9027 80.148C73.2974 80.084 73.6334 79.972 73.9107 79.812C74.1987 79.6413 74.4227 79.4173 74.5827 79.14C74.7427 78.8627 74.8227 78.5053 74.8227 78.068C74.8227 77.716 74.7587 77.4173 74.6307 77.172C74.5027 76.916 74.3267 76.708 74.1027 76.548C73.8894 76.388 73.6334 76.2707 73.3347 76.196C73.0467 76.1213 72.7427 76.084 72.4227 76.084C72.06 76.084 71.7294 76.1427 71.4307 76.26C71.1427 76.3773 70.892 76.548 70.6787 76.772C70.4654 76.9853 70.3 77.2413 70.1827 77.54C70.0654 77.828 70.0067 78.148 70.0067 78.5H68.9827C68.9827 77.988 69.068 77.5293 69.2387 77.124C69.42 76.708 69.6974 76.324 70.0707 75.972C70.4227 75.652 70.8174 75.4493 71.2547 75.364C71.7027 75.268 72.1614 75.22 72.6307 75.22C73.0787 75.22 73.4947 75.2787 73.8787 75.396C74.2734 75.5027 74.6147 75.6733 74.9027 75.908C75.1907 76.132 75.42 76.42 75.5907 76.772C75.7614 77.124 75.8467 77.5347 75.8467 78.004C75.8467 78.5907 75.7134 79.0973 75.4467 79.524C75.1907 79.9507 74.7907 80.2813 74.2467 80.516C74.652 80.644 74.9827 80.8147 75.2387 81.028C75.5054 81.2307 75.7134 81.46 75.8627 81.716C76.012 81.9613 76.1134 82.2227 76.1667 82.5C76.22 82.7773 76.2467 83.044 76.2467 83.3C76.2467 83.7693 76.1667 84.2067 76.0067 84.612C75.8467 85.0173 75.612 85.3747 75.3027 85.684C74.9934 85.9933 74.6094 86.244 74.1507 86.436C73.7027 86.6173 73.1907 86.7133 72.6147 86.724C71.964 86.724 71.3987 86.6653 70.9187 86.548C70.4387 86.4307 70.0387 86.2387 69.7187 85.972C69.3987 85.6947 69.148 85.3373 68.9667 84.9C68.7854 84.452 68.6627 83.8973 68.5987 83.236H69.6227C69.6227 84.1 69.8787 84.756 70.3907 85.204C70.9134 85.6413 71.5907 85.86 72.4227 85.86C72.828 85.86 73.2067 85.7907 73.5587 85.652C73.9107 85.5133 74.2094 85.3267 74.4547 85.092C74.7107 84.8573 74.9027 84.5853 75.0307 84.276C75.1694 83.9667 75.2334 83.6467 75.2227 83.316C75.2014 82.8573 75.0947 82.4787 74.9027 82.18C74.7107 81.8707 74.4494 81.6307 74.1187 81.46C73.7987 81.2787 73.42 81.1613 72.9827 81.108C72.5454 81.044 72.0814 81.028 71.5907 81.06V80.228ZM80.4813 80.228C80.9613 80.228 81.3986 80.2013 81.7933 80.148C82.188 80.084 82.524 79.972 82.8013 79.812C83.0893 79.6413 83.3133 79.4173 83.4733 79.14C83.6333 78.8627 83.7133 78.5053 83.7133 78.068C83.7133 77.716 83.6493 77.4173 83.5213 77.172C83.3933 76.916 83.2173 76.708 82.9933 76.548C82.78 76.388 82.524 76.2707 82.2253 76.196C81.9373 76.1213 81.6333 76.084 81.3133 76.084C80.9506 76.084 80.62 76.1427 80.3213 76.26C80.0333 76.3773 79.7826 76.548 79.5693 76.772C79.356 76.9853 79.1906 77.2413 79.0733 77.54C78.956 77.828 78.8973 78.148 78.8973 78.5H77.8733C77.8733 77.988 77.9586 77.5293 78.1293 77.124C78.3106 76.708 78.588 76.324 78.9613 75.972C79.3133 75.652 79.708 75.4493 80.1453 75.364C80.5933 75.268 81.052 75.22 81.5213 75.22C81.9693 75.22 82.3853 75.2787 82.7693 75.396C83.164 75.5027 83.5053 75.6733 83.7933 75.908C84.0813 76.132 84.3106 76.42 84.4813 76.772C84.652 77.124 84.7373 77.5347 84.7373 78.004C84.7373 78.5907 84.604 79.0973 84.3373 79.524C84.0813 79.9507 83.6813 80.2813 83.1373 80.516C83.5426 80.644 83.8733 80.8147 84.1293 81.028C84.396 81.2307 84.604 81.46 84.7533 81.716C84.9026 81.9613 85.004 82.2227 85.0573 82.5C85.1106 82.7773 85.1373 83.044 85.1373 83.3C85.1373 83.7693 85.0573 84.2067 84.8973 84.612C84.7373 85.0173 84.5026 85.3747 84.1933 85.684C83.884 85.9933 83.5 86.244 83.0413 86.436C82.5933 86.6173 82.0813 86.7133 81.5053 86.724C80.8546 86.724 80.2893 86.6653 79.8093 86.548C79.3293 86.4307 78.9293 86.2387 78.6093 85.972C78.2893 85.6947 78.0386 85.3373 77.8573 84.9C77.676 84.452 77.5533 83.8973 77.4893 83.236H78.5133C78.5133 84.1 78.7693 84.756 79.2813 85.204C79.804 85.6413 80.4813 85.86 81.3133 85.86C81.7186 85.86 82.0973 85.7907 82.4493 85.652C82.8013 85.5133 83.1 85.3267 83.3453 85.092C83.6013 84.8573 83.7933 84.5853 83.9213 84.276C84.06 83.9667 84.124 83.6467 84.1133 83.316C84.092 82.8573 83.9853 82.4787 83.7933 82.18C83.6013 81.8707 83.34 81.6307 83.0093 81.46C82.6893 81.2787 82.3106 81.1613 81.8733 81.108C81.436 81.044 80.972 81.028 80.4813 81.06V80.228ZM89.3719 80.228C89.8519 80.228 90.2893 80.2013 90.6839 80.148C91.0786 80.084 91.4146 79.972 91.6919 79.812C91.9799 79.6413 92.2039 79.4173 92.3639 79.14C92.5239 78.8627 92.6039 78.5053 92.6039 78.068C92.6039 77.716 92.5399 77.4173 92.4119 77.172C92.2839 76.916 92.1079 76.708 91.8839 76.548C91.6706 76.388 91.4146 76.2707 91.1159 76.196C90.8279 76.1213 90.5239 76.084 90.2039 76.084C89.8413 76.084 89.5106 76.1427 89.2119 76.26C88.9239 76.3773 88.6733 76.548 88.4599 76.772C88.2466 76.9853 88.0813 77.2413 87.9639 77.54C87.8466 77.828 87.7879 78.148 87.7879 78.5H86.7639C86.7639 77.988 86.8493 77.5293 87.0199 77.124C87.2013 76.708 87.4786 76.324 87.8519 75.972C88.2039 75.652 88.5986 75.4493 89.0359 75.364C89.4839 75.268 89.9426 75.22 90.4119 75.22C90.8599 75.22 91.2759 75.2787 91.6599 75.396C92.0546 75.5027 92.3959 75.6733 92.6839 75.908C92.9719 76.132 93.2013 76.42 93.3719 76.772C93.5426 77.124 93.6279 77.5347 93.6279 78.004C93.6279 78.5907 93.4946 79.0973 93.2279 79.524C92.9719 79.9507 92.5719 80.2813 92.0279 80.516C92.4333 80.644 92.7639 80.8147 93.0199 81.028C93.2866 81.2307 93.4946 81.46 93.6439 81.716C93.7933 81.9613 93.8946 82.2227 93.9479 82.5C94.0013 82.7773 94.0279 83.044 94.0279 83.3C94.0279 83.7693 93.9479 84.2067 93.7879 84.612C93.6279 85.0173 93.3933 85.3747 93.0839 85.684C92.7746 85.9933 92.3906 86.244 91.9319 86.436C91.4839 86.6173 90.9719 86.7133 90.3959 86.724C89.7453 86.724 89.1799 86.6653 88.6999 86.548C88.2199 86.4307 87.8199 86.2387 87.4999 85.972C87.1799 85.6947 86.9293 85.3373 86.7479 84.9C86.5666 84.452 86.4439 83.8973 86.3799 83.236H87.4039C87.4039 84.1 87.6599 84.756 88.1719 85.204C88.6946 85.6413 89.3719 85.86 90.2039 85.86C90.6093 85.86 90.9879 85.7907 91.3399 85.652C91.6919 85.5133 91.9906 85.3267 92.2359 85.092C92.4919 84.8573 92.6839 84.5853 92.8119 84.276C92.9506 83.9667 93.0146 83.6467 93.0039 83.316C92.9826 82.8573 92.8759 82.4787 92.6839 82.18C92.4919 81.8707 92.2306 81.6307 91.8999 81.46C91.5799 81.2787 91.2013 81.1613 90.7639 81.108C90.3266 81.044 89.8626 81.028 89.3719 81.06V80.228ZM98.2626 80.228C98.7426 80.228 99.1799 80.2013 99.5746 80.148C99.9692 80.084 100.305 79.972 100.583 79.812C100.871 79.6413 101.095 79.4173 101.255 79.14C101.415 78.8627 101.495 78.5053 101.495 78.068C101.495 77.716 101.431 77.4173 101.303 77.172C101.175 76.916 100.999 76.708 100.775 76.548C100.561 76.388 100.305 76.2707 100.007 76.196C99.7186 76.1213 99.4146 76.084 99.0946 76.084C98.7319 76.084 98.4012 76.1427 98.1026 76.26C97.8146 76.3773 97.5639 76.548 97.3506 76.772C97.1372 76.9853 96.9719 77.2413 96.8546 77.54C96.7372 77.828 96.6786 78.148 96.6786 78.5H95.6546C95.6546 77.988 95.7399 77.5293 95.9106 77.124C96.0919 76.708 96.3692 76.324 96.7426 75.972C97.0946 75.652 97.4892 75.4493 97.9266 75.364C98.3746 75.268 98.8332 75.22 99.3026 75.22C99.7506 75.22 100.167 75.2787 100.551 75.396C100.945 75.5027 101.287 75.6733 101.575 75.908C101.863 76.132 102.092 76.42 102.263 76.772C102.433 77.124 102.519 77.5347 102.519 78.004C102.519 78.5907 102.385 79.0973 102.119 79.524C101.863 79.9507 101.463 80.2813 100.919 80.516C101.324 80.644 101.655 80.8147 101.911 81.028C102.177 81.2307 102.385 81.46 102.535 81.716C102.684 81.9613 102.785 82.2227 102.839 82.5C102.892 82.7773 102.919 83.044 102.919 83.3C102.919 83.7693 102.839 84.2067 102.679 84.612C102.519 85.0173 102.284 85.3747 101.975 85.684C101.665 85.9933 101.281 86.244 100.823 86.436C100.375 86.6173 99.8626 86.7133 99.2866 86.724C98.6359 86.724 98.0706 86.6653 97.5906 86.548C97.1106 86.4307 96.7106 86.2387 96.3906 85.972C96.0706 85.6947 95.8199 85.3373 95.6386 84.9C95.4572 84.452 95.3346 83.8973 95.2706 83.236H96.2946C96.2946 84.1 96.5506 84.756 97.0626 85.204C97.5852 85.6413 98.2626 85.86 99.0946 85.86C99.4999 85.86 99.8786 85.7907 100.231 85.652C100.583 85.5133 100.881 85.3267 101.127 85.092C101.383 84.8573 101.575 84.5853 101.703 84.276C101.841 83.9667 101.905 83.6467 101.895 83.316C101.873 82.8573 101.767 82.4787 101.575 82.18C101.383 81.8707 101.121 81.6307 100.791 81.46C100.471 81.2787 100.092 81.1613 99.6546 81.108C99.2172 81.044 98.7532 81.028 98.2626 81.06V80.228Z" fill="white"/>
</svg>
