<svg width="145" height="143" viewBox="0 0 145 143" fill="none" xmlns="http://www.w3.org/2000/svg">
<rect x="0.5" width="144" height="143" rx="71.5" fill="#D4D4D4"/>
<path d="M25.0859 56.9844H27.4922V66.4297H33.1953V68.5H25.0859V56.9844ZM34.6797 56.9844H37.0703V68.5H34.6797V56.9844ZM46.3828 68.2188C45.7474 68.6094 44.9661 68.8047 44.0391 68.8047C42.513 68.8047 41.263 68.276 40.2891 67.2188C39.2734 66.1562 38.7656 64.7031 38.7656 62.8594C38.7656 60.9948 39.2786 59.5 40.3047 58.375C41.3307 57.25 42.6875 56.6875 44.375 56.6875C45.8385 56.6875 47.013 57.0599 47.8984 57.8047C48.7891 58.5443 49.2995 59.4688 49.4297 60.5781H47.0625C46.8802 59.7917 46.4349 59.2422 45.7266 58.9297C45.3307 58.7578 44.8906 58.6719 44.4062 58.6719C43.4792 58.6719 42.7161 59.0234 42.1172 59.7266C41.5234 60.4245 41.2266 61.4766 41.2266 62.8828C41.2266 64.2995 41.5495 65.3021 42.1953 65.8906C42.8411 66.4792 43.5755 66.7734 44.3984 66.7734C45.2057 66.7734 45.8672 66.5417 46.3828 66.0781C46.8984 65.6094 47.2161 64.9974 47.3359 64.2422H44.6719V62.3203H49.4688V68.5H47.875L47.6328 67.0625C47.1693 67.6094 46.7526 67.9948 46.3828 68.2188ZM58.6406 68.5V63.3594H54.1406V68.5H51.7578V56.9844H54.1406V61.375H58.6406V56.9844H61.0312V68.5H58.6406ZM71.7031 56.9844V59.0234H68.2578V68.5H65.8359V59.0234H62.375V56.9844H71.7031ZM84.6328 68.2188C83.9974 68.6094 83.2161 68.8047 82.2891 68.8047C80.763 68.8047 79.513 68.276 78.5391 67.2188C77.5234 66.1562 77.0156 64.7031 77.0156 62.8594C77.0156 60.9948 77.5286 59.5 78.5547 58.375C79.5807 57.25 80.9375 56.6875 82.625 56.6875C84.0885 56.6875 85.263 57.0599 86.1484 57.8047C87.0391 58.5443 87.5495 59.4688 87.6797 60.5781H85.3125C85.1302 59.7917 84.6849 59.2422 83.9766 58.9297C83.5807 58.7578 83.1406 58.6719 82.6562 58.6719C81.7292 58.6719 80.9661 59.0234 80.3672 59.7266C79.7734 60.4245 79.4766 61.4766 79.4766 62.8828C79.4766 64.2995 79.7995 65.3021 80.4453 65.8906C81.0911 66.4792 81.8255 66.7734 82.6484 66.7734C83.4557 66.7734 84.1172 66.5417 84.6328 66.0781C85.1484 65.6094 85.4661 64.9974 85.5859 64.2422H82.9219V62.3203H87.7188V68.5H86.125L85.8828 67.0625C85.4193 67.6094 85.0026 67.9948 84.6328 68.2188ZM94.9141 63.9844H92.4297V68.5H90.0781V56.9844H95.7266C96.5339 57 97.1536 57.099 97.5859 57.2812C98.0234 57.4635 98.3932 57.7318 98.6953 58.0859C98.9453 58.3776 99.1432 58.7005 99.2891 59.0547C99.4349 59.4089 99.5078 59.8125 99.5078 60.2656C99.5078 60.8125 99.3698 61.3516 99.0938 61.8828C98.8177 62.4089 98.362 62.7812 97.7266 63C98.2578 63.2135 98.6328 63.5182 98.8516 63.9141C99.0755 64.3047 99.1875 64.9036 99.1875 65.7109V66.4844C99.1875 67.0104 99.2083 67.3672 99.25 67.5547C99.3125 67.8516 99.4583 68.0703 99.6875 68.2109V68.5H97.0391C96.9661 68.2448 96.9141 68.0391 96.8828 67.8828C96.8203 67.5599 96.7865 67.2292 96.7812 66.8906L96.7656 65.8203C96.7552 65.0859 96.6198 64.5964 96.3594 64.3516C96.1042 64.1068 95.6224 63.9844 94.9141 63.9844ZM96.375 61.8906C96.8542 61.6719 97.0938 61.2396 97.0938 60.5938C97.0938 59.8958 96.862 59.4271 96.3984 59.1875C96.138 59.0521 95.7474 58.9844 95.2266 58.9844H92.4297V62.0781H95.1562C95.6979 62.0781 96.1042 62.0156 96.375 61.8906ZM108.328 66.1328H104.086L103.289 68.5H100.773L104.883 56.9844H107.602L111.68 68.5H109.07L108.328 66.1328ZM107.656 64.1484L106.219 59.6172L104.734 64.1484H107.656ZM120.977 56.9844L117.125 64.1719V68.5H114.719V64.1719L110.734 56.9844H113.57L115.961 62L118.25 56.9844H120.977ZM45.4624 82.852H43.6864L43.1744 86.5H42.2304L42.7264 82.852H40.5344L39.9904 86.5H39.0464L39.5904 82.852H37.8304V81.908H39.7344L40.0704 79.668H38.2784V78.724H40.1984L40.7104 75.332H41.6704L41.1584 78.724H43.3344L43.8304 75.332H44.7744L44.2784 78.724H45.8784V79.668H44.1504L43.8304 81.908H45.4624V82.852ZM41.0304 79.668L40.6784 81.908H42.8864L43.2064 79.668H41.0304ZM47.5851 86.5V74.98H51.5211C51.8411 74.98 52.1557 74.9907 52.4651 75.012C52.7744 75.0227 53.0784 75.06 53.3771 75.124C53.6757 75.1773 53.9637 75.2627 54.2411 75.38C54.5291 75.4973 54.8064 75.652 55.0731 75.844C55.4571 76.1213 55.7717 76.4627 56.0171 76.868C56.2624 77.2627 56.4544 77.684 56.5931 78.132C56.7424 78.5693 56.8437 79.0173 56.8971 79.476C56.9611 79.924 56.9931 80.34 56.9931 80.724C56.9931 81.108 56.9664 81.4973 56.9131 81.892C56.8704 82.2867 56.7957 82.676 56.6891 83.06C56.5824 83.4333 56.4384 83.796 56.2571 84.148C56.0864 84.4893 55.8677 84.804 55.6011 85.092C55.3344 85.3907 55.0411 85.6307 54.7211 85.812C54.4117 85.9933 54.0811 86.1373 53.7291 86.244C53.3877 86.34 53.0304 86.4093 52.6571 86.452C52.2837 86.484 51.9051 86.5 51.5211 86.5H47.5851ZM48.6731 85.572H51.2811C51.7717 85.572 52.2304 85.5453 52.6571 85.492C53.0944 85.428 53.5371 85.2787 53.9851 85.044C54.3691 84.852 54.6837 84.5907 54.9291 84.26C55.1744 83.9293 55.3664 83.572 55.5051 83.188C55.6544 82.7933 55.7557 82.3827 55.8091 81.956C55.8731 81.5293 55.9051 81.1187 55.9051 80.724C55.9051 80.308 55.8784 79.8867 55.8251 79.46C55.7717 79.0227 55.6704 78.612 55.5211 78.228C55.3717 77.8333 55.1691 77.476 54.9131 77.156C54.6571 76.8253 54.3264 76.5533 53.9211 76.34C53.5797 76.1587 53.1744 76.0413 52.7051 75.988C52.2357 75.9347 51.7611 75.908 51.2811 75.908H48.6731V85.572ZM63.5639 83.716H58.4119V82.836L63.6599 75.332H64.5879V82.852H66.1559V83.716H64.5879V86.5H63.5639V83.716ZM59.4199 82.852H63.5639V76.868L59.4199 82.852ZM68.0226 86.5V74.98H71.9586C72.2786 74.98 72.5932 74.9907 72.9026 75.012C73.2119 75.0227 73.5159 75.06 73.8146 75.124C74.1132 75.1773 74.4012 75.2627 74.6786 75.38C74.9666 75.4973 75.2439 75.652 75.5106 75.844C75.8946 76.1213 76.2092 76.4627 76.4546 76.868C76.6999 77.2627 76.8919 77.684 77.0306 78.132C77.1799 78.5693 77.2812 79.0173 77.3346 79.476C77.3986 79.924 77.4306 80.34 77.4306 80.724C77.4306 81.108 77.4039 81.4973 77.3506 81.892C77.3079 82.2867 77.2332 82.676 77.1266 83.06C77.0199 83.4333 76.8759 83.796 76.6946 84.148C76.5239 84.4893 76.3052 84.804 76.0386 85.092C75.7719 85.3907 75.4786 85.6307 75.1586 85.812C74.8492 85.9933 74.5186 86.1373 74.1666 86.244C73.8252 86.34 73.4679 86.4093 73.0946 86.452C72.7212 86.484 72.3426 86.5 71.9586 86.5H68.0226ZM69.1106 85.572H71.7186C72.2092 85.572 72.6679 85.5453 73.0946 85.492C73.5319 85.428 73.9746 85.2787 74.4226 85.044C74.8066 84.852 75.1212 84.5907 75.3666 84.26C75.6119 83.9293 75.8039 83.572 75.9426 83.188C76.0919 82.7933 76.1932 82.3827 76.2466 81.956C76.3106 81.5293 76.3426 81.1187 76.3426 80.724C76.3426 80.308 76.3159 79.8867 76.2626 79.46C76.2092 79.0227 76.1079 78.612 75.9586 78.228C75.8092 77.8333 75.6066 77.476 75.3506 77.156C75.0946 76.8253 74.7639 76.5533 74.3586 76.34C74.0172 76.1587 73.6119 76.0413 73.1426 75.988C72.6732 75.9347 72.1986 75.908 71.7186 75.908H69.1106V85.572ZM84.0014 83.716H78.8494V82.836L84.0974 75.332H85.0254V82.852H86.5934V83.716H85.0254V86.5H84.0014V83.716ZM79.8574 82.852H84.0014V76.868L79.8574 82.852ZM88.4601 86.5V74.98H92.3961C92.7161 74.98 93.0307 74.9907 93.3401 75.012C93.6494 75.0227 93.9534 75.06 94.2521 75.124C94.5507 75.1773 94.8387 75.2627 95.1161 75.38C95.4041 75.4973 95.6814 75.652 95.9481 75.844C96.3321 76.1213 96.6467 76.4627 96.8921 76.868C97.1374 77.2627 97.3294 77.684 97.4681 78.132C97.6174 78.5693 97.7187 79.0173 97.7721 79.476C97.8361 79.924 97.8681 80.34 97.8681 80.724C97.8681 81.108 97.8414 81.4973 97.7881 81.892C97.7454 82.2867 97.6707 82.676 97.5641 83.06C97.4574 83.4333 97.3134 83.796 97.1321 84.148C96.9614 84.4893 96.7427 84.804 96.4761 85.092C96.2094 85.3907 95.9161 85.6307 95.5961 85.812C95.2867 85.9933 94.9561 86.1373 94.6041 86.244C94.2627 86.34 93.9054 86.4093 93.5321 86.452C93.1587 86.484 92.7801 86.5 92.3961 86.5H88.4601ZM89.5481 85.572H92.1561C92.6467 85.572 93.1054 85.5453 93.5321 85.492C93.9694 85.428 94.4121 85.2787 94.8601 85.044C95.2441 84.852 95.5587 84.5907 95.8041 84.26C96.0494 83.9293 96.2414 83.572 96.3801 83.188C96.5294 82.7933 96.6307 82.3827 96.6841 81.956C96.7481 81.5293 96.7801 81.1187 96.7801 80.724C96.7801 80.308 96.7534 79.8867 96.7001 79.46C96.6467 79.0227 96.5454 78.612 96.3961 78.228C96.2467 77.8333 96.0441 77.476 95.7881 77.156C95.5321 76.8253 95.2014 76.5533 94.7961 76.34C94.4547 76.1587 94.0494 76.0413 93.5801 75.988C93.1107 75.9347 92.6361 75.908 92.1561 75.908H89.5481V85.572ZM104.439 83.716H99.2869V82.836L104.535 75.332H105.463V82.852H107.031V83.716H105.463V86.5H104.439V83.716ZM100.295 82.852H104.439V76.868L100.295 82.852Z" fill="#1E1E24"/>
</svg>
