<svg width="145" height="143" viewBox="0 0 145 143" fill="none" xmlns="http://www.w3.org/2000/svg">
<rect x="0.5" width="144" height="143" rx="71.5" fill="#7C7B79"/>
<path d="M36.6328 68.5H34.3906V56.9844H37.8906L39.9844 66.0391L42.0625 56.9844H45.5234V68.5H43.2812V60.7109C43.2812 60.487 43.2839 60.1745 43.2891 59.7734C43.2943 59.3672 43.2969 59.0547 43.2969 58.8359L41.1172 68.5H38.7812L36.6172 58.8359C36.6172 59.0547 36.6198 59.3672 36.625 59.7734C36.6302 60.1745 36.6328 60.487 36.6328 60.7109V68.5ZM47.5703 56.9844H49.9609V68.5H47.5703V56.9844ZM57.1719 68.5H52.2109V56.9844H57.1719C57.8854 56.9948 58.4792 57.0781 58.9531 57.2344C59.7604 57.5 60.4141 57.987 60.9141 58.6953C61.3151 59.2682 61.5885 59.888 61.7344 60.5547C61.8802 61.2214 61.9531 61.8568 61.9531 62.4609C61.9531 63.9922 61.6458 65.2891 61.0312 66.3516C60.1979 67.7839 58.9115 68.5 57.1719 68.5ZM58.9609 59.9219C58.5911 59.2969 57.8594 58.9844 56.7656 58.9844H54.5469V66.5H56.7656C57.901 66.5 58.6927 65.9401 59.1406 64.8203C59.3854 64.2057 59.5078 63.474 59.5078 62.625C59.5078 61.4531 59.3255 60.5521 58.9609 59.9219ZM75.2891 68.2188C74.6536 68.6094 73.8724 68.8047 72.9453 68.8047C71.4193 68.8047 70.1693 68.276 69.1953 67.2188C68.1797 66.1562 67.6719 64.7031 67.6719 62.8594C67.6719 60.9948 68.1849 59.5 69.2109 58.375C70.237 57.25 71.5938 56.6875 73.2812 56.6875C74.7448 56.6875 75.9193 57.0599 76.8047 57.8047C77.6953 58.5443 78.2057 59.4688 78.3359 60.5781H75.9688C75.7865 59.7917 75.3411 59.2422 74.6328 58.9297C74.237 58.7578 73.7969 58.6719 73.3125 58.6719C72.3854 58.6719 71.6224 59.0234 71.0234 59.7266C70.4297 60.4245 70.1328 61.4766 70.1328 62.8828C70.1328 64.2995 70.4557 65.3021 71.1016 65.8906C71.7474 66.4792 72.4818 66.7734 73.3047 66.7734C74.112 66.7734 74.7734 66.5417 75.2891 66.0781C75.8047 65.6094 76.1224 64.9974 76.2422 64.2422H73.5781V62.3203H78.375V68.5H76.7812L76.5391 67.0625C76.0755 67.6094 75.6589 67.9948 75.2891 68.2188ZM85.5703 63.9844H83.0859V68.5H80.7344V56.9844H86.3828C87.1901 57 87.8099 57.099 88.2422 57.2812C88.6797 57.4635 89.0495 57.7318 89.3516 58.0859C89.6016 58.3776 89.7995 58.7005 89.9453 59.0547C90.0911 59.4089 90.1641 59.8125 90.1641 60.2656C90.1641 60.8125 90.026 61.3516 89.75 61.8828C89.474 62.4089 89.0182 62.7812 88.3828 63C88.9141 63.2135 89.2891 63.5182 89.5078 63.9141C89.7318 64.3047 89.8438 64.9036 89.8438 65.7109V66.4844C89.8438 67.0104 89.8646 67.3672 89.9062 67.5547C89.9688 67.8516 90.1146 68.0703 90.3438 68.2109V68.5H87.6953C87.6224 68.2448 87.5703 68.0391 87.5391 67.8828C87.4766 67.5599 87.4427 67.2292 87.4375 66.8906L87.4219 65.8203C87.4115 65.0859 87.276 64.5964 87.0156 64.3516C86.7604 64.1068 86.2786 63.9844 85.5703 63.9844ZM87.0312 61.8906C87.5104 61.6719 87.75 61.2396 87.75 60.5938C87.75 59.8958 87.5182 59.4271 87.0547 59.1875C86.7943 59.0521 86.4036 58.9844 85.8828 58.9844H83.0859V62.0781H85.8125C86.3542 62.0781 86.7604 62.0156 87.0312 61.8906ZM98.9844 66.1328H94.7422L93.9453 68.5H91.4297L95.5391 56.9844H98.2578L102.336 68.5H99.7266L98.9844 66.1328ZM98.3125 64.1484L96.875 59.6172L95.3906 64.1484H98.3125ZM111.633 56.9844L107.781 64.1719V68.5H105.375V64.1719L101.391 56.9844H104.227L106.617 62L108.906 56.9844H111.633ZM47.2281 82.852H45.4521L44.9401 86.5H43.9961L44.4921 82.852H42.3001L41.7561 86.5H40.8121L41.3561 82.852H39.5961V81.908H41.5001L41.8361 79.668H40.0441V78.724H41.9641L42.4761 75.332H43.4361L42.9241 78.724H45.1001L45.5961 75.332H46.5401L46.0441 78.724H47.6441V79.668H45.9161L45.5961 81.908H47.2281V82.852ZM42.7961 79.668L42.4441 81.908H44.6521L44.9721 79.668H42.7961ZM48.9987 75.332H56.1827V76.292C55.372 77.2093 54.684 78.1533 54.1187 79.124C53.5534 80.084 53.0894 81.0227 52.7267 81.94C52.364 82.8467 52.092 83.6947 51.9107 84.484C51.74 85.2733 51.6387 85.9453 51.6067 86.5H50.4867C50.54 85.6893 50.7 84.8307 50.9667 83.924C51.244 83.0067 51.5854 82.1 51.9907 81.204C52.396 80.308 52.8547 79.444 53.3667 78.612C53.8787 77.7693 54.4067 77.0173 54.9507 76.356H48.9987V75.332ZM66.4173 78.324C66.1933 77.3427 65.7773 76.644 65.1693 76.228C64.5613 75.812 63.7666 75.604 62.7853 75.604C62.092 75.604 61.4946 75.7427 60.9933 76.02C60.492 76.2973 60.076 76.6707 59.7453 77.14C59.4253 77.6093 59.1853 78.1533 59.0253 78.772C58.876 79.38 58.8013 80.0253 58.8013 80.708C58.8013 81.348 58.8653 81.9773 58.9933 82.596C59.132 83.2147 59.356 83.7693 59.6653 84.26C59.9746 84.74 60.3906 85.1293 60.9133 85.428C61.436 85.7267 62.092 85.876 62.8813 85.876C63.372 85.876 63.82 85.796 64.2253 85.636C64.6306 85.476 64.9826 85.2573 65.2813 84.98C65.5906 84.692 65.8466 84.356 66.0493 83.972C66.2626 83.588 66.4226 83.1667 66.5293 82.708H67.6653C67.5373 83.2627 67.3506 83.7907 67.1053 84.292C66.86 84.7827 66.5346 85.2147 66.1293 85.588C65.7346 85.9613 65.2493 86.26 64.6733 86.484C64.108 86.6973 63.4413 86.804 62.6733 86.804C61.788 86.804 61.0306 86.644 60.4013 86.324C59.772 85.9933 59.2546 85.5507 58.8493 84.996C58.4546 84.4413 58.1666 83.8013 57.9853 83.076C57.804 82.34 57.7133 81.5613 57.7133 80.74C57.7133 79.6413 57.8466 78.708 58.1133 77.94C58.3906 77.172 58.7693 76.548 59.2493 76.068C59.7293 75.5773 60.2946 75.2253 60.9453 75.012C61.596 74.788 62.3053 74.676 63.0733 74.676C63.66 74.676 64.204 74.756 64.7053 74.916C65.2173 75.0653 65.6653 75.2947 66.0493 75.604C66.444 75.9133 66.764 76.2973 67.0093 76.756C67.2653 77.204 67.4413 77.7267 67.5373 78.324H66.4173ZM69.4362 75.332H76.6202V76.292C75.8095 77.2093 75.1215 78.1533 74.5562 79.124C73.9909 80.084 73.5269 81.0227 73.1642 81.94C72.8015 82.8467 72.5295 83.6947 72.3482 84.484C72.1775 85.2733 72.0762 85.9453 72.0442 86.5H70.9242C70.9775 85.6893 71.1375 84.8307 71.4042 83.924C71.6815 83.0067 72.0229 82.1 72.4282 81.204C72.8335 80.308 73.2922 79.444 73.8042 78.612C74.3162 77.7693 74.8442 77.0173 75.3882 76.356H69.4362V75.332ZM79.7668 85.572H82.5348C83.1321 85.572 83.6495 85.5453 84.0868 85.492C84.5348 85.4387 84.9028 85.332 85.1908 85.172C85.4788 85.0013 85.6921 84.7667 85.8308 84.468C85.9801 84.1587 86.0548 83.7533 86.0548 83.252C86.0548 82.772 85.9748 82.388 85.8148 82.1C85.6548 81.8013 85.4255 81.572 85.1268 81.412C84.8281 81.252 84.4708 81.1453 84.0548 81.092C83.6388 81.028 83.1748 80.996 82.6628 80.996H79.7668V85.572ZM79.7668 80.068H82.5188C83.0841 80.068 83.5588 80.02 83.9428 79.924C84.3268 79.828 84.6361 79.6893 84.8708 79.508C85.1055 79.316 85.2708 79.0867 85.3668 78.82C85.4735 78.5427 85.5268 78.228 85.5268 77.876C85.5268 77.5133 85.4681 77.2093 85.3508 76.964C85.2335 76.708 85.0468 76.5053 84.7908 76.356C84.5348 76.196 84.1988 76.084 83.7828 76.02C83.3775 75.9453 82.8761 75.908 82.2788 75.908H79.7668V80.068ZM78.6788 86.5V74.98H82.8388C83.5108 74.98 84.0868 75.0493 84.5668 75.188C85.0468 75.3267 85.4361 75.524 85.7348 75.78C86.0441 76.036 86.2681 76.3453 86.4068 76.708C86.5455 77.06 86.6148 77.4493 86.6148 77.876C86.6148 78.2813 86.5615 78.6333 86.4548 78.932C86.3481 79.22 86.2095 79.4653 86.0388 79.668C85.8681 79.86 85.6708 80.0147 85.4468 80.132C85.2335 80.2387 85.0095 80.3133 84.7748 80.356V80.388C85.5748 80.5053 86.1668 80.82 86.5508 81.332C86.9455 81.844 87.1428 82.484 87.1428 83.252C87.1428 83.8493 87.0468 84.356 86.8548 84.772C86.6735 85.188 86.4175 85.524 86.0868 85.78C85.7561 86.036 85.3561 86.2227 84.8868 86.34C84.4281 86.4467 83.9268 86.5 83.3828 86.5H78.6788ZM88.9987 75.332H96.1827V76.292C95.372 77.2093 94.684 78.1533 94.1187 79.124C93.5534 80.084 93.0894 81.0227 92.7267 81.94C92.364 82.8467 92.092 83.6947 91.9107 84.484C91.74 85.2733 91.6387 85.9453 91.6067 86.5H90.4867C90.54 85.6893 90.7 84.8307 90.9667 83.924C91.244 83.0067 91.5854 82.1 91.9907 81.204C92.396 80.308 92.8547 79.444 93.3667 78.612C93.8787 77.7693 94.4067 77.0173 94.9507 76.356H88.9987V75.332ZM98.8333 84.02C98.9506 84.628 99.1853 85.0867 99.5373 85.396C99.9 85.7053 100.396 85.86 101.025 85.86C101.697 85.86 102.231 85.6947 102.625 85.364C103.031 85.0333 103.34 84.6173 103.553 84.116C103.777 83.6147 103.927 83.076 104.001 82.5C104.087 81.9133 104.14 81.364 104.161 80.852L104.129 80.82C103.788 81.396 103.361 81.8333 102.849 82.132C102.348 82.4307 101.761 82.58 101.089 82.58C100.556 82.58 100.076 82.4947 99.6493 82.324C99.2226 82.1533 98.8546 81.908 98.5453 81.588C98.2466 81.268 98.012 80.884 97.8413 80.436C97.6813 79.988 97.6013 79.492 97.6013 78.948C97.6013 78.4147 97.676 77.924 97.8253 77.476C97.9746 77.0173 98.1986 76.6227 98.4973 76.292C98.796 75.9507 99.1693 75.6893 99.6173 75.508C100.076 75.316 100.615 75.22 101.233 75.22C101.991 75.22 102.62 75.3693 103.121 75.668C103.633 75.9667 104.039 76.372 104.337 76.884C104.647 77.396 104.865 77.9987 104.993 78.692C105.121 79.3853 105.185 80.1267 105.185 80.916C105.185 81.876 105.084 82.7187 104.881 83.444C104.679 84.1587 104.391 84.7613 104.017 85.252C103.655 85.7427 103.223 86.1107 102.721 86.356C102.22 86.6013 101.671 86.724 101.073 86.724C100.636 86.724 100.225 86.6707 99.8413 86.564C99.4573 86.4573 99.1213 86.292 98.8333 86.068C98.5453 85.844 98.3106 85.5613 98.1293 85.22C97.948 84.8787 97.836 84.4787 97.7933 84.02H98.8333ZM101.233 76.084C100.369 76.1053 99.7186 76.372 99.2813 76.884C98.844 77.396 98.6253 78.0947 98.6253 78.98C98.6253 79.844 98.8493 80.516 99.2973 80.996C99.756 81.476 100.401 81.716 101.233 81.716C101.628 81.716 101.98 81.6413 102.289 81.492C102.609 81.3427 102.876 81.14 103.089 80.884C103.313 80.628 103.479 80.3347 103.585 80.004C103.703 79.6627 103.761 79.3 103.761 78.916C103.761 78.084 103.537 77.412 103.089 76.9C102.641 76.3773 102.023 76.1053 101.233 76.084Z" fill="#1E1E24"/>
</svg>
