<svg width="145" height="143" viewBox="0 0 145 143" fill="none" xmlns="http://www.w3.org/2000/svg">
<rect x="0.5" width="144" height="143" rx="71.5" fill="#00212C"/>
<path d="M42.0703 55.3594H39.625V59.5H37.2344V47.9844H42.25C43.4062 47.9844 44.3281 48.2812 45.0156 48.875C45.7031 49.4688 46.0469 50.388 46.0469 51.6328C46.0469 52.9922 45.7031 53.9531 45.0156 54.5156C44.3281 55.0781 43.3464 55.3594 42.0703 55.3594ZM43.1953 52.9609C43.5078 52.6849 43.6641 52.2474 43.6641 51.6484C43.6641 51.0495 43.5052 50.6224 43.1875 50.3672C42.875 50.112 42.4349 49.9844 41.8672 49.9844H39.625V53.375H41.8672C42.4349 53.375 42.8776 53.237 43.1953 52.9609ZM52.7422 54.9844H50.2578V59.5H47.9062V47.9844H53.5547C54.362 48 54.9818 48.099 55.4141 48.2812C55.8516 48.4635 56.2214 48.7318 56.5234 49.0859C56.7734 49.3776 56.9714 49.7005 57.1172 50.0547C57.263 50.4089 57.3359 50.8125 57.3359 51.2656C57.3359 51.8125 57.1979 52.3516 56.9219 52.8828C56.6458 53.4089 56.1901 53.7812 55.5547 54C56.0859 54.2135 56.4609 54.5182 56.6797 54.9141C56.9036 55.3047 57.0156 55.9036 57.0156 56.7109V57.4844C57.0156 58.0104 57.0365 58.3672 57.0781 58.5547C57.1406 58.8516 57.2865 59.0703 57.5156 59.2109V59.5H54.8672C54.7943 59.2448 54.7422 59.0391 54.7109 58.8828C54.6484 58.5599 54.6146 58.2292 54.6094 57.8906L54.5938 56.8203C54.5833 56.0859 54.4479 55.5964 54.1875 55.3516C53.9323 55.1068 53.4505 54.9844 52.7422 54.9844ZM54.2031 52.8906C54.6823 52.6719 54.9219 52.2396 54.9219 51.5938C54.9219 50.8958 54.6901 50.4271 54.2266 50.1875C53.9661 50.0521 53.5755 49.9844 53.0547 49.9844H50.2578V53.0781H52.9844C53.526 53.0781 53.9323 53.0156 54.2031 52.8906ZM59.2266 47.9844H61.6172V59.5H59.2266V47.9844ZM66.0703 59.5H63.8281V47.9844H67.3281L69.4219 57.0391L71.5 47.9844H74.9609V59.5H72.7188V51.7109C72.7188 51.487 72.7214 51.1745 72.7266 50.7734C72.7318 50.3672 72.7344 50.0547 72.7344 49.8359L70.5547 59.5H68.2188L66.0547 49.8359C66.0547 50.0547 66.0573 50.3672 66.0625 50.7734C66.0677 51.1745 66.0703 51.487 66.0703 51.7109V59.5ZM83.9375 57.1328H79.6953L78.8984 59.5H76.3828L80.4922 47.9844H83.2109L87.2891 59.5H84.6797L83.9375 57.1328ZM83.2656 55.1484L81.8281 50.6172L80.3438 55.1484H83.2656ZM93.6484 54.9844H91.1641V59.5H88.8125V47.9844H94.4609C95.2682 48 95.888 48.099 96.3203 48.2812C96.7578 48.4635 97.1276 48.7318 97.4297 49.0859C97.6797 49.3776 97.8776 49.7005 98.0234 50.0547C98.1693 50.4089 98.2422 50.8125 98.2422 51.2656C98.2422 51.8125 98.1042 52.3516 97.8281 52.8828C97.5521 53.4089 97.0964 53.7812 96.4609 54C96.9922 54.2135 97.3672 54.5182 97.5859 54.9141C97.8099 55.3047 97.9219 55.9036 97.9219 56.7109V57.4844C97.9219 58.0104 97.9427 58.3672 97.9844 58.5547C98.0469 58.8516 98.1927 59.0703 98.4219 59.2109V59.5H95.7734C95.7005 59.2448 95.6484 59.0391 95.6172 58.8828C95.5547 58.5599 95.5208 58.2292 95.5156 57.8906L95.5 56.8203C95.4896 56.0859 95.3542 55.5964 95.0938 55.3516C94.8385 55.1068 94.3568 54.9844 93.6484 54.9844ZM95.1094 52.8906C95.5885 52.6719 95.8281 52.2396 95.8281 51.5938C95.8281 50.8958 95.5964 50.4271 95.1328 50.1875C94.8724 50.0521 94.4818 49.9844 93.9609 49.9844H91.1641V53.0781H93.8906C94.4323 53.0781 94.8385 53.0156 95.1094 52.8906ZM109.023 47.9844L105.172 55.1719V59.5H102.766V55.1719L98.7812 47.9844H101.617L104.008 53L106.297 47.9844H109.023ZM55.5547 77.5H50.5938V65.9844H55.5547C56.2682 65.9948 56.862 66.0781 57.3359 66.2344C58.1432 66.5 58.7969 66.987 59.2969 67.6953C59.6979 68.2682 59.9714 68.888 60.1172 69.5547C60.263 70.2214 60.3359 70.8568 60.3359 71.4609C60.3359 72.9922 60.0286 74.2891 59.4141 75.3516C58.5807 76.7839 57.2943 77.5 55.5547 77.5ZM57.3438 68.9219C56.974 68.2969 56.2422 67.9844 55.1484 67.9844H52.9297V75.5H55.1484C56.2839 75.5 57.0755 74.9401 57.5234 73.8203C57.7682 73.2057 57.8906 72.474 57.8906 71.625C57.8906 70.4531 57.7083 69.5521 57.3438 68.9219ZM68.8984 75.1328H64.6562L63.8594 77.5H61.3438L65.4531 65.9844H68.1719L72.25 77.5H69.6406L68.8984 75.1328ZM68.2266 73.1484L66.7891 68.6172L65.3047 73.1484H68.2266ZM78.6094 72.9844H76.125V77.5H73.7734V65.9844H79.4219C80.2292 66 80.849 66.099 81.2812 66.2812C81.7188 66.4635 82.0885 66.7318 82.3906 67.0859C82.6406 67.3776 82.8385 67.7005 82.9844 68.0547C83.1302 68.4089 83.2031 68.8125 83.2031 69.2656C83.2031 69.8125 83.0651 70.3516 82.7891 70.8828C82.513 71.4089 82.0573 71.7812 81.4219 72C81.9531 72.2135 82.3281 72.5182 82.5469 72.9141C82.7708 73.3047 82.8828 73.9036 82.8828 74.7109V75.4844C82.8828 76.0104 82.9036 76.3672 82.9453 76.5547C83.0078 76.8516 83.1536 77.0703 83.3828 77.2109V77.5H80.7344C80.6615 77.2448 80.6094 77.0391 80.5781 76.8828C80.5156 76.5599 80.4818 76.2292 80.4766 75.8906L80.4609 74.8203C80.4505 74.0859 80.3151 73.5964 80.0547 73.3516C79.7995 73.1068 79.3177 72.9844 78.6094 72.9844ZM80.0703 70.8906C80.5495 70.6719 80.7891 70.2396 80.7891 69.5938C80.7891 68.8958 80.5573 68.4271 80.0938 68.1875C79.8333 68.0521 79.4427 67.9844 78.9219 67.9844H76.125V71.0781H78.8516C79.3932 71.0781 79.7995 71.0156 80.0703 70.8906ZM95.4844 77.5H92.3906L88.8359 72.4688L87.6875 73.6484V77.5H85.3203V65.9844H87.6875V70.7266L92.1328 65.9844H95.2422L90.5234 70.7266L95.4844 77.5ZM40.2344 91.1172H42.0547L42.7891 88.4297H40.9766L41.2188 87.5234H43.0312L43.9609 84.0234H45.125L44.1797 87.5234H45.9062L46.8672 84.0234H48.0156L47.0703 87.5234H48.8828L48.6406 88.4297H46.8281L46.0859 91.1172H47.9062L47.6641 92.0234H45.8672L44.9062 95.5H43.7578L44.7031 92.0234H42.9609L42.0312 95.5H40.8672L41.8125 92.0234H40L40.2344 91.1172ZM44.9219 91.1172L45.6641 88.4297H43.9375L43.2188 91.1172H44.9219ZM53.2344 84.3125C54.6823 84.3125 55.7292 84.9089 56.375 86.1016C56.875 87.0234 57.125 88.2865 57.125 89.8906C57.125 91.4115 56.8984 92.6693 56.4453 93.6641C55.7891 95.0911 54.7161 95.8047 53.2266 95.8047C51.8828 95.8047 50.8828 95.2214 50.2266 94.0547C49.6797 93.0807 49.4062 91.7734 49.4062 90.1328C49.4062 88.862 49.5703 87.7708 49.8984 86.8594C50.513 85.1615 51.625 84.3125 53.2344 84.3125ZM53.2188 94.5234C53.9479 94.5234 54.5286 94.2005 54.9609 93.5547C55.3932 92.9089 55.6094 91.7057 55.6094 89.9453C55.6094 88.6745 55.4531 87.6302 55.1406 86.8125C54.8281 85.9896 54.2214 85.5781 53.3203 85.5781C52.4922 85.5781 51.8854 85.9688 51.5 86.75C51.1198 87.526 50.9297 88.6719 50.9297 90.1875C50.9297 91.3281 51.0521 92.2448 51.2969 92.9375C51.6719 93.9948 52.3125 94.5234 53.2188 94.5234ZM62.1406 84.3125C63.5885 84.3125 64.6354 84.9089 65.2812 86.1016C65.7812 87.0234 66.0312 88.2865 66.0312 89.8906C66.0312 91.4115 65.8047 92.6693 65.3516 93.6641C64.6953 95.0911 63.6224 95.8047 62.1328 95.8047C60.7891 95.8047 59.7891 95.2214 59.1328 94.0547C58.5859 93.0807 58.3125 91.7734 58.3125 90.1328C58.3125 88.862 58.4766 87.7708 58.8047 86.8594C59.4193 85.1615 60.5312 84.3125 62.1406 84.3125ZM62.125 94.5234C62.8542 94.5234 63.4349 94.2005 63.8672 93.5547C64.2995 92.9089 64.5156 91.7057 64.5156 89.9453C64.5156 88.6745 64.3594 87.6302 64.0469 86.8125C63.7344 85.9896 63.1276 85.5781 62.2266 85.5781C61.3984 85.5781 60.7917 85.9688 60.4062 86.75C60.026 87.526 59.8359 88.6719 59.8359 90.1875C59.8359 91.3281 59.9583 92.2448 60.2031 92.9375C60.5781 93.9948 61.2188 94.5234 62.125 94.5234ZM67.2188 95.5C67.2708 94.5365 67.4688 93.6979 67.8125 92.9844C68.1615 92.2708 68.8385 91.6224 69.8438 91.0391L71.3438 90.1719C72.0156 89.7812 72.487 89.4479 72.7578 89.1719C73.1849 88.7396 73.3984 88.2448 73.3984 87.6875C73.3984 87.0365 73.2031 86.5208 72.8125 86.1406C72.4219 85.7552 71.901 85.5625 71.25 85.5625C70.2865 85.5625 69.6198 85.9271 69.25 86.6562C69.0521 87.0469 68.9427 87.5885 68.9219 88.2812H67.4922C67.5078 87.3073 67.6875 86.513 68.0312 85.8984C68.6406 84.8151 69.7161 84.2734 71.2578 84.2734C72.5391 84.2734 73.474 84.6198 74.0625 85.3125C74.6562 86.0052 74.9531 86.776 74.9531 87.625C74.9531 88.5208 74.638 89.2865 74.0078 89.9219C73.6432 90.2917 72.9896 90.7396 72.0469 91.2656L70.9766 91.8594C70.4661 92.1406 70.0651 92.4089 69.7734 92.6641C69.2526 93.1172 68.9245 93.6198 68.7891 94.1719H74.8984V95.5H67.2188ZM77.1562 87.5781V86.5C78.1719 86.401 78.8802 86.237 79.2812 86.0078C79.6823 85.7734 79.9818 85.224 80.1797 84.3594H81.2891V95.5H79.7891V87.5781H77.1562ZM85.0312 95.5C85.0833 94.5365 85.2812 93.6979 85.625 92.9844C85.974 92.2708 86.651 91.6224 87.6562 91.0391L89.1562 90.1719C89.8281 89.7812 90.2995 89.4479 90.5703 89.1719C90.9974 88.7396 91.2109 88.2448 91.2109 87.6875C91.2109 87.0365 91.0156 86.5208 90.625 86.1406C90.2344 85.7552 89.7135 85.5625 89.0625 85.5625C88.099 85.5625 87.4323 85.9271 87.0625 86.6562C86.8646 87.0469 86.7552 87.5885 86.7344 88.2812H85.3047C85.3203 87.3073 85.5 86.513 85.8438 85.8984C86.4531 84.8151 87.5286 84.2734 89.0703 84.2734C90.3516 84.2734 91.2865 84.6198 91.875 85.3125C92.4688 86.0052 92.7656 86.776 92.7656 87.625C92.7656 88.5208 92.4505 89.2865 91.8203 89.9219C91.4557 90.2917 90.8021 90.7396 89.8594 91.2656L88.7891 91.8594C88.2786 92.1406 87.8776 92.4089 87.5859 92.6641C87.0651 93.1172 86.737 93.6198 86.6016 94.1719H92.7109V95.5H85.0312ZM99.4922 83.7109C100.945 83.7109 102.073 84.0938 102.875 84.8594C103.677 85.625 104.122 86.4948 104.211 87.4688H102.695C102.523 86.7292 102.18 86.1432 101.664 85.7109C101.154 85.2786 100.435 85.0625 99.5078 85.0625C98.3776 85.0625 97.4635 85.4609 96.7656 86.2578C96.0729 87.0495 95.7266 88.2656 95.7266 89.9062C95.7266 91.25 96.0391 92.3411 96.6641 93.1797C97.2943 94.013 98.2318 94.4297 99.4766 94.4297C100.622 94.4297 101.495 93.9896 102.094 93.1094C102.411 92.6458 102.648 92.0365 102.805 91.2812H104.32C104.185 92.4896 103.737 93.5026 102.977 94.3203C102.065 95.3047 100.836 95.7969 99.2891 95.7969C97.9557 95.7969 96.8359 95.3932 95.9297 94.5859C94.737 93.5182 94.1406 91.8698 94.1406 89.6406C94.1406 87.9479 94.5885 86.5599 95.4844 85.4766C96.4531 84.2995 97.7891 83.7109 99.4922 83.7109Z" fill="#D9D9D9"/>
</svg>
