<svg width="145" height="143" viewBox="0 0 145 143" fill="none" xmlns="http://www.w3.org/2000/svg">
<rect x="0.5" width="144" height="143" rx="71.5" fill="#326273"/>
<path d="M42.0703 55.3594H39.625V59.5H37.2344V47.9844H42.25C43.4062 47.9844 44.3281 48.2812 45.0156 48.875C45.7031 49.4688 46.0469 50.388 46.0469 51.6328C46.0469 52.9922 45.7031 53.9531 45.0156 54.5156C44.3281 55.0781 43.3464 55.3594 42.0703 55.3594ZM43.1953 52.9609C43.5078 52.6849 43.6641 52.2474 43.6641 51.6484C43.6641 51.0495 43.5052 50.6224 43.1875 50.3672C42.875 50.112 42.4349 49.9844 41.8672 49.9844H39.625V53.375H41.8672C42.4349 53.375 42.8776 53.237 43.1953 52.9609ZM52.7422 54.9844H50.2578V59.5H47.9062V47.9844H53.5547C54.362 48 54.9818 48.099 55.4141 48.2812C55.8516 48.4635 56.2214 48.7318 56.5234 49.0859C56.7734 49.3776 56.9714 49.7005 57.1172 50.0547C57.263 50.4089 57.3359 50.8125 57.3359 51.2656C57.3359 51.8125 57.1979 52.3516 56.9219 52.8828C56.6458 53.4089 56.1901 53.7812 55.5547 54C56.0859 54.2135 56.4609 54.5182 56.6797 54.9141C56.9036 55.3047 57.0156 55.9036 57.0156 56.7109V57.4844C57.0156 58.0104 57.0365 58.3672 57.0781 58.5547C57.1406 58.8516 57.2865 59.0703 57.5156 59.2109V59.5H54.8672C54.7943 59.2448 54.7422 59.0391 54.7109 58.8828C54.6484 58.5599 54.6146 58.2292 54.6094 57.8906L54.5938 56.8203C54.5833 56.0859 54.4479 55.5964 54.1875 55.3516C53.9323 55.1068 53.4505 54.9844 52.7422 54.9844ZM54.2031 52.8906C54.6823 52.6719 54.9219 52.2396 54.9219 51.5938C54.9219 50.8958 54.6901 50.4271 54.2266 50.1875C53.9661 50.0521 53.5755 49.9844 53.0547 49.9844H50.2578V53.0781H52.9844C53.526 53.0781 53.9323 53.0156 54.2031 52.8906ZM59.2266 47.9844H61.6172V59.5H59.2266V47.9844ZM66.0703 59.5H63.8281V47.9844H67.3281L69.4219 57.0391L71.5 47.9844H74.9609V59.5H72.7188V51.7109C72.7188 51.487 72.7214 51.1745 72.7266 50.7734C72.7318 50.3672 72.7344 50.0547 72.7344 49.8359L70.5547 59.5H68.2188L66.0547 49.8359C66.0547 50.0547 66.0573 50.3672 66.0625 50.7734C66.0677 51.1745 66.0703 51.487 66.0703 51.7109V59.5ZM83.9375 57.1328H79.6953L78.8984 59.5H76.3828L80.4922 47.9844H83.2109L87.2891 59.5H84.6797L83.9375 57.1328ZM83.2656 55.1484L81.8281 50.6172L80.3438 55.1484H83.2656ZM93.6484 54.9844H91.1641V59.5H88.8125V47.9844H94.4609C95.2682 48 95.888 48.099 96.3203 48.2812C96.7578 48.4635 97.1276 48.7318 97.4297 49.0859C97.6797 49.3776 97.8776 49.7005 98.0234 50.0547C98.1693 50.4089 98.2422 50.8125 98.2422 51.2656C98.2422 51.8125 98.1042 52.3516 97.8281 52.8828C97.5521 53.4089 97.0964 53.7812 96.4609 54C96.9922 54.2135 97.3672 54.5182 97.5859 54.9141C97.8099 55.3047 97.9219 55.9036 97.9219 56.7109V57.4844C97.9219 58.0104 97.9427 58.3672 97.9844 58.5547C98.0469 58.8516 98.1927 59.0703 98.4219 59.2109V59.5H95.7734C95.7005 59.2448 95.6484 59.0391 95.6172 58.8828C95.5547 58.5599 95.5208 58.2292 95.5156 57.8906L95.5 56.8203C95.4896 56.0859 95.3542 55.5964 95.0938 55.3516C94.8385 55.1068 94.3568 54.9844 93.6484 54.9844ZM95.1094 52.8906C95.5885 52.6719 95.8281 52.2396 95.8281 51.5938C95.8281 50.8958 95.5964 50.4271 95.1328 50.1875C94.8724 50.0521 94.4818 49.9844 93.9609 49.9844H91.1641V53.0781H93.8906C94.4323 53.0781 94.8385 53.0156 95.1094 52.8906ZM109.023 47.9844L105.172 55.1719V59.5H102.766V55.1719L98.7812 47.9844H101.617L104.008 53L106.297 47.9844H109.023ZM49.7031 65.9844H52.1094V75.4297H57.8125V77.5H49.7031V65.9844ZM59.2969 65.9844H61.6875V77.5H59.2969V65.9844ZM71 77.2188C70.3646 77.6094 69.5833 77.8047 68.6562 77.8047C67.1302 77.8047 65.8802 77.276 64.9062 76.2188C63.8906 75.1562 63.3828 73.7031 63.3828 71.8594C63.3828 69.9948 63.8958 68.5 64.9219 67.375C65.9479 66.25 67.3047 65.6875 68.9922 65.6875C70.4557 65.6875 71.6302 66.0599 72.5156 66.8047C73.4062 67.5443 73.9167 68.4688 74.0469 69.5781H71.6797C71.4974 68.7917 71.0521 68.2422 70.3438 67.9297C69.9479 67.7578 69.5078 67.6719 69.0234 67.6719C68.0964 67.6719 67.3333 68.0234 66.7344 68.7266C66.1406 69.4245 65.8438 70.4766 65.8438 71.8828C65.8438 73.2995 66.1667 74.3021 66.8125 74.8906C67.4583 75.4792 68.1927 75.7734 69.0156 75.7734C69.8229 75.7734 70.4844 75.5417 71 75.0781C71.5156 74.6094 71.8333 73.9974 71.9531 73.2422H69.2891V71.3203H74.0859V77.5H72.4922L72.25 76.0625C71.7865 76.6094 71.3698 76.9948 71 77.2188ZM83.2578 77.5V72.3594H78.7578V77.5H76.375V65.9844H78.7578V70.375H83.2578V65.9844H85.6484V77.5H83.2578ZM96.3203 65.9844V68.0234H92.875V77.5H90.4531V68.0234H86.9922V65.9844H96.3203ZM41.5625 91.1172H43.3828L44.1172 88.4297H42.3047L42.5469 87.5234H44.3594L45.2891 84.0234H46.4531L45.5078 87.5234H47.2344L48.1953 84.0234H49.3438L48.3984 87.5234H50.2109L49.9688 88.4297H48.1562L47.4141 91.1172H49.2344L48.9922 92.0234H47.1953L46.2344 95.5H45.0859L46.0312 92.0234H44.2891L43.3594 95.5H42.1953L43.1406 92.0234H41.3281L41.5625 91.1172ZM46.25 91.1172L46.9922 88.4297H45.2656L44.5469 91.1172H46.25ZM54.3906 95.8047C53.0677 95.8047 52.1068 95.4427 51.5078 94.7188C50.9141 93.9896 50.6172 93.1042 50.6172 92.0625H52.0859C52.1484 92.7865 52.2839 93.3125 52.4922 93.6406C52.8568 94.2292 53.5156 94.5234 54.4688 94.5234C55.2083 94.5234 55.8021 94.3255 56.25 93.9297C56.6979 93.5339 56.9219 93.0234 56.9219 92.3984C56.9219 91.6276 56.6849 91.0885 56.2109 90.7812C55.7422 90.474 55.0885 90.3203 54.25 90.3203C54.1562 90.3203 54.0599 90.3229 53.9609 90.3281C53.8672 90.3281 53.7708 90.3307 53.6719 90.3359V89.0938C53.8177 89.1094 53.9401 89.1198 54.0391 89.125C54.138 89.1302 54.2448 89.1328 54.3594 89.1328C54.8854 89.1328 55.3177 89.0495 55.6562 88.8828C56.25 88.5911 56.5469 88.0703 56.5469 87.3203C56.5469 86.763 56.349 86.3333 55.9531 86.0312C55.5573 85.7292 55.0964 85.5781 54.5703 85.5781C53.6328 85.5781 52.9844 85.8906 52.625 86.5156C52.4271 86.8594 52.3151 87.349 52.2891 87.9844H50.8984C50.8984 87.151 51.0651 86.4427 51.3984 85.8594C51.9714 84.8177 52.9792 84.2969 54.4219 84.2969C55.5625 84.2969 56.4453 84.5521 57.0703 85.0625C57.6953 85.5677 58.0078 86.3021 58.0078 87.2656C58.0078 87.9531 57.8229 88.5104 57.4531 88.9375C57.224 89.2031 56.9271 89.4115 56.5625 89.5625C57.151 89.724 57.6094 90.0365 57.9375 90.5C58.2708 90.9583 58.4375 91.5208 58.4375 92.1875C58.4375 93.2552 58.0859 94.125 57.3828 94.7969C56.6797 95.4688 55.6823 95.8047 54.3906 95.8047ZM59.6406 95.5C59.6927 94.5365 59.8906 93.6979 60.2344 92.9844C60.5833 92.2708 61.2604 91.6224 62.2656 91.0391L63.7656 90.1719C64.4375 89.7812 64.9089 89.4479 65.1797 89.1719C65.6068 88.7396 65.8203 88.2448 65.8203 87.6875C65.8203 87.0365 65.625 86.5208 65.2344 86.1406C64.8438 85.7552 64.3229 85.5625 63.6719 85.5625C62.7083 85.5625 62.0417 85.9271 61.6719 86.6562C61.474 87.0469 61.3646 87.5885 61.3438 88.2812H59.9141C59.9297 87.3073 60.1094 86.513 60.4531 85.8984C61.0625 84.8151 62.138 84.2734 63.6797 84.2734C64.9609 84.2734 65.8958 84.6198 66.4844 85.3125C67.0781 86.0052 67.375 86.776 67.375 87.625C67.375 88.5208 67.0599 89.2865 66.4297 89.9219C66.0651 90.2917 65.4115 90.7396 64.4688 91.2656L63.3984 91.8594C62.888 92.1406 62.487 92.4089 62.1953 92.6641C61.6745 93.1172 61.3464 93.6198 61.2109 94.1719H67.3203V95.5H59.6406ZM72.7266 84.2656C73.9766 84.2656 74.8464 84.5911 75.3359 85.2422C75.8307 85.888 76.0781 86.5547 76.0781 87.2422H74.6875C74.6042 86.7995 74.4714 86.4531 74.2891 86.2031C73.9505 85.7344 73.4375 85.5 72.75 85.5C71.9635 85.5 71.3385 85.8646 70.875 86.5938C70.4115 87.3177 70.1536 88.3568 70.1016 89.7109C70.4245 89.237 70.8307 88.8828 71.3203 88.6484C71.7682 88.4401 72.2682 88.3359 72.8203 88.3359C73.7578 88.3359 74.5755 88.6354 75.2734 89.2344C75.9714 89.8333 76.3203 90.7266 76.3203 91.9141C76.3203 92.9297 75.9896 93.8307 75.3281 94.6172C74.6667 95.3984 73.724 95.7891 72.5 95.7891C71.4531 95.7891 70.5495 95.3932 69.7891 94.6016C69.0286 93.8047 68.6484 92.4661 68.6484 90.5859C68.6484 89.1953 68.8177 88.0156 69.1562 87.0469C69.8073 85.1927 70.9974 84.2656 72.7266 84.2656ZM72.625 94.5391C73.3646 94.5391 73.9167 94.2917 74.2812 93.7969C74.651 93.2969 74.8359 92.7083 74.8359 92.0312C74.8359 91.4583 74.6719 90.9141 74.3438 90.3984C74.0156 89.8776 73.4193 89.6172 72.5547 89.6172C71.9505 89.6172 71.4193 89.8177 70.9609 90.2188C70.5078 90.6198 70.2812 91.224 70.2812 92.0312C70.2812 92.7396 70.487 93.3359 70.8984 93.8203C71.3151 94.2995 71.8906 94.5391 72.625 94.5391ZM77.4531 95.5C77.5052 94.5365 77.7031 93.6979 78.0469 92.9844C78.3958 92.2708 79.0729 91.6224 80.0781 91.0391L81.5781 90.1719C82.25 89.7812 82.7214 89.4479 82.9922 89.1719C83.4193 88.7396 83.6328 88.2448 83.6328 87.6875C83.6328 87.0365 83.4375 86.5208 83.0469 86.1406C82.6562 85.7552 82.1354 85.5625 81.4844 85.5625C80.5208 85.5625 79.8542 85.9271 79.4844 86.6562C79.2865 87.0469 79.1771 87.5885 79.1562 88.2812H77.7266C77.7422 87.3073 77.9219 86.513 78.2656 85.8984C78.875 84.8151 79.9505 84.2734 81.4922 84.2734C82.7734 84.2734 83.7083 84.6198 84.2969 85.3125C84.8906 86.0052 85.1875 86.776 85.1875 87.625C85.1875 88.5208 84.8724 89.2865 84.2422 89.9219C83.8776 90.2917 83.224 90.7396 82.2812 91.2656L81.2109 91.8594C80.7005 92.1406 80.2995 92.4089 80.0078 92.6641C79.487 93.1172 79.1589 93.6198 79.0234 94.1719H85.1328V95.5H77.4531ZM94.2266 84.5V85.7266C93.8672 86.0755 93.388 86.6823 92.7891 87.5469C92.1953 88.4115 91.6693 89.3438 91.2109 90.3438C90.7578 91.3177 90.4141 92.2057 90.1797 93.0078C90.0286 93.5234 89.8333 94.3542 89.5938 95.5H88.0391C88.3932 93.3646 89.1745 91.2396 90.3828 89.125C91.0964 87.8854 91.8464 86.8151 92.6328 85.9141H86.4453V84.5H94.2266ZM98.9219 95.8047C97.599 95.8047 96.638 95.4427 96.0391 94.7188C95.4453 93.9896 95.1484 93.1042 95.1484 92.0625H96.6172C96.6797 92.7865 96.8151 93.3125 97.0234 93.6406C97.388 94.2292 98.0469 94.5234 99 94.5234C99.7396 94.5234 100.333 94.3255 100.781 93.9297C101.229 93.5339 101.453 93.0234 101.453 92.3984C101.453 91.6276 101.216 91.0885 100.742 90.7812C100.273 90.474 99.6198 90.3203 98.7812 90.3203C98.6875 90.3203 98.5911 90.3229 98.4922 90.3281C98.3984 90.3281 98.3021 90.3307 98.2031 90.3359V89.0938C98.349 89.1094 98.4714 89.1198 98.5703 89.125C98.6693 89.1302 98.776 89.1328 98.8906 89.1328C99.4167 89.1328 99.849 89.0495 100.188 88.8828C100.781 88.5911 101.078 88.0703 101.078 87.3203C101.078 86.763 100.88 86.3333 100.484 86.0312C100.089 85.7292 99.6276 85.5781 99.1016 85.5781C98.1641 85.5781 97.5156 85.8906 97.1562 86.5156C96.9583 86.8594 96.8464 87.349 96.8203 87.9844H95.4297C95.4297 87.151 95.5964 86.4427 95.9297 85.8594C96.5026 84.8177 97.5104 84.2969 98.9531 84.2969C100.094 84.2969 100.977 84.5521 101.602 85.0625C102.227 85.5677 102.539 86.3021 102.539 87.2656C102.539 87.9531 102.354 88.5104 101.984 88.9375C101.755 89.2031 101.458 89.4115 101.094 89.5625C101.682 89.724 102.141 90.0365 102.469 90.5C102.802 90.9583 102.969 91.5208 102.969 92.1875C102.969 93.2552 102.617 94.125 101.914 94.7969C101.211 95.4688 100.214 95.8047 98.9219 95.8047Z" fill="#D9D9D9"/>
</svg>
