<svg width="145" height="143" viewBox="0 0 145 143" fill="none" xmlns="http://www.w3.org/2000/svg">
<rect x="0.5" width="144" height="143" rx="71.5" fill="#862200"/>
<path d="M27.125 57.8359C27.6927 57.8359 28.1536 57.7734 28.5078 57.6484C29.1797 57.4089 29.5156 56.9635 29.5156 56.3125C29.5156 55.9323 29.349 55.638 29.0156 55.4297C28.6823 55.2266 28.1589 55.0469 27.4453 54.8906L26.2266 54.6172C25.0286 54.3464 24.2005 54.0521 23.7422 53.7344C22.9661 53.2031 22.5781 52.3724 22.5781 51.2422C22.5781 50.2109 22.9531 49.3542 23.7031 48.6719C24.4531 47.9896 25.5547 47.6484 27.0078 47.6484C28.2214 47.6484 29.2552 47.9714 30.1094 48.6172C30.9688 49.2578 31.4193 50.1901 31.4609 51.4141H29.1484C29.1068 50.7214 28.8047 50.2292 28.2422 49.9375C27.8672 49.7448 27.401 49.6484 26.8438 49.6484C26.224 49.6484 25.7292 49.7734 25.3594 50.0234C24.9896 50.2734 24.8047 50.6224 24.8047 51.0703C24.8047 51.4818 24.987 51.7891 25.3516 51.9922C25.5859 52.1276 26.0859 52.2865 26.8516 52.4688L28.8359 52.9453C29.7057 53.1536 30.362 53.4323 30.8047 53.7812C31.4922 54.3229 31.8359 55.1068 31.8359 56.1328C31.8359 57.1849 31.4323 58.0599 30.625 58.7578C29.8229 59.4505 28.6875 59.7969 27.2188 59.7969C25.7188 59.7969 24.5391 59.4557 23.6797 58.7734C22.8203 58.0859 22.3906 57.1432 22.3906 55.9453H24.6875C24.7604 56.4714 24.9036 56.8646 25.1172 57.125C25.5078 57.599 26.1771 57.8359 27.125 57.8359ZM41.6328 54.4688H36.0391V57.4297H42.4141V59.5H33.6875V47.9844H42.1328V50.0234H36.0391V52.4688H41.6328V54.4688ZM52.4141 58.6406C51.5547 59.4271 50.4557 59.8203 49.1172 59.8203C47.4609 59.8203 46.1589 59.2891 45.2109 58.2266C44.263 57.1589 43.7891 55.6953 43.7891 53.8359C43.7891 51.8255 44.3281 50.276 45.4062 49.1875C46.3438 48.2396 47.5365 47.7656 48.9844 47.7656C50.9219 47.7656 52.3385 48.401 53.2344 49.6719C53.7292 50.3854 53.9948 51.1016 54.0312 51.8203H51.625C51.4688 51.2682 51.2682 50.8516 51.0234 50.5703C50.5859 50.0703 49.9375 49.8203 49.0781 49.8203C48.2031 49.8203 47.513 50.1745 47.0078 50.8828C46.5026 51.5859 46.25 52.5833 46.25 53.875C46.25 55.1667 46.5156 56.1354 47.0469 56.7812C47.5833 57.4219 48.263 57.7422 49.0859 57.7422C49.9297 57.7422 50.5729 57.4661 51.0156 56.9141C51.2604 56.6172 51.4635 56.1719 51.625 55.5781H54.0078C53.7995 56.8333 53.2682 57.8542 52.4141 58.6406ZM60.9453 59.8203C59.2995 59.8203 58.0417 59.3724 57.1719 58.4766C56.0052 57.3776 55.4219 55.7943 55.4219 53.7266C55.4219 51.6172 56.0052 50.0339 57.1719 48.9766C58.0417 48.0807 59.2995 47.6328 60.9453 47.6328C62.5911 47.6328 63.849 48.0807 64.7188 48.9766C65.8802 50.0339 66.4609 51.6172 66.4609 53.7266C66.4609 55.7943 65.8802 57.3776 64.7188 58.4766C63.849 59.3724 62.5911 59.8203 60.9453 59.8203ZM63.2188 56.7266C63.776 56.0234 64.0547 55.0234 64.0547 53.7266C64.0547 52.4349 63.7734 51.4375 63.2109 50.7344C62.6536 50.026 61.8984 49.6719 60.9453 49.6719C59.9922 49.6719 59.2318 50.0234 58.6641 50.7266C58.0964 51.4297 57.8125 52.4297 57.8125 53.7266C57.8125 55.0234 58.0964 56.0234 58.6641 56.7266C59.2318 57.4297 59.9922 57.7812 60.9453 57.7812C61.8984 57.7812 62.6562 57.4297 63.2188 56.7266ZM77.6172 59.5H75.2109L70.5078 51.3203V59.5H68.2656V47.9844H70.7891L75.375 56.0234V47.9844H77.6172V59.5ZM84.8281 59.5H79.8672V47.9844H84.8281C85.5417 47.9948 86.1354 48.0781 86.6094 48.2344C87.4167 48.5 88.0703 48.987 88.5703 49.6953C88.9714 50.2682 89.2448 50.888 89.3906 51.5547C89.5365 52.2214 89.6094 52.8568 89.6094 53.4609C89.6094 54.9922 89.3021 56.2891 88.6875 57.3516C87.8542 58.7839 86.5677 59.5 84.8281 59.5ZM86.6172 50.9219C86.2474 50.2969 85.5156 49.9844 84.4219 49.9844H82.2031V57.5H84.4219C85.5573 57.5 86.349 56.9401 86.7969 55.8203C87.0417 55.2057 87.1641 54.474 87.1641 53.625C87.1641 52.4531 86.9818 51.5521 86.6172 50.9219ZM98.1719 57.1328H93.9297L93.1328 59.5H90.6172L94.7266 47.9844H97.4453L101.523 59.5H98.9141L98.1719 57.1328ZM97.5 55.1484L96.0625 50.6172L94.5781 55.1484H97.5ZM107.883 54.9844H105.398V59.5H103.047V47.9844H108.695C109.503 48 110.122 48.099 110.555 48.2812C110.992 48.4635 111.362 48.7318 111.664 49.0859C111.914 49.3776 112.112 49.7005 112.258 50.0547C112.404 50.4089 112.477 50.8125 112.477 51.2656C112.477 51.8125 112.339 52.3516 112.062 52.8828C111.786 53.4089 111.331 53.7812 110.695 54C111.227 54.2135 111.602 54.5182 111.82 54.9141C112.044 55.3047 112.156 55.9036 112.156 56.7109V57.4844C112.156 58.0104 112.177 58.3672 112.219 58.5547C112.281 58.8516 112.427 59.0703 112.656 59.2109V59.5H110.008C109.935 59.2448 109.883 59.0391 109.852 58.8828C109.789 58.5599 109.755 58.2292 109.75 57.8906L109.734 56.8203C109.724 56.0859 109.589 55.5964 109.328 55.3516C109.073 55.1068 108.591 54.9844 107.883 54.9844ZM109.344 52.8906C109.823 52.6719 110.062 52.2396 110.062 51.5938C110.062 50.8958 109.831 50.4271 109.367 50.1875C109.107 50.0521 108.716 49.9844 108.195 49.9844H105.398V53.0781H108.125C108.667 53.0781 109.073 53.0156 109.344 52.8906ZM123.258 47.9844L119.406 55.1719V59.5H117V55.1719L113.016 47.9844H115.852L118.242 53L120.531 47.9844H123.258ZM55.5547 77.5H50.5938V65.9844H55.5547C56.2682 65.9948 56.862 66.0781 57.3359 66.2344C58.1432 66.5 58.7969 66.987 59.2969 67.6953C59.6979 68.2682 59.9714 68.888 60.1172 69.5547C60.263 70.2214 60.3359 70.8568 60.3359 71.4609C60.3359 72.9922 60.0286 74.2891 59.4141 75.3516C58.5807 76.7839 57.2943 77.5 55.5547 77.5ZM57.3438 68.9219C56.974 68.2969 56.2422 67.9844 55.1484 67.9844H52.9297V75.5H55.1484C56.2839 75.5 57.0755 74.9401 57.5234 73.8203C57.7682 73.2057 57.8906 72.474 57.8906 71.625C57.8906 70.4531 57.7083 69.5521 57.3438 68.9219ZM68.8984 75.1328H64.6562L63.8594 77.5H61.3438L65.4531 65.9844H68.1719L72.25 77.5H69.6406L68.8984 75.1328ZM68.2266 73.1484L66.7891 68.6172L65.3047 73.1484H68.2266ZM78.6094 72.9844H76.125V77.5H73.7734V65.9844H79.4219C80.2292 66 80.849 66.099 81.2812 66.2812C81.7188 66.4635 82.0885 66.7318 82.3906 67.0859C82.6406 67.3776 82.8385 67.7005 82.9844 68.0547C83.1302 68.4089 83.2031 68.8125 83.2031 69.2656C83.2031 69.8125 83.0651 70.3516 82.7891 70.8828C82.513 71.4089 82.0573 71.7812 81.4219 72C81.9531 72.2135 82.3281 72.5182 82.5469 72.9141C82.7708 73.3047 82.8828 73.9036 82.8828 74.7109V75.4844C82.8828 76.0104 82.9036 76.3672 82.9453 76.5547C83.0078 76.8516 83.1536 77.0703 83.3828 77.2109V77.5H80.7344C80.6615 77.2448 80.6094 77.0391 80.5781 76.8828C80.5156 76.5599 80.4818 76.2292 80.4766 75.8906L80.4609 74.8203C80.4505 74.0859 80.3151 73.5964 80.0547 73.3516C79.7995 73.1068 79.3177 72.9844 78.6094 72.9844ZM80.0703 70.8906C80.5495 70.6719 80.7891 70.2396 80.7891 69.5938C80.7891 68.8958 80.5573 68.4271 80.0938 68.1875C79.8333 68.0521 79.4427 67.9844 78.9219 67.9844H76.125V71.0781H78.8516C79.3932 71.0781 79.7995 71.0156 80.0703 70.8906ZM95.4844 77.5H92.3906L88.8359 72.4688L87.6875 73.6484V77.5H85.3203V65.9844H87.6875V70.7266L92.1328 65.9844H95.2422L90.5234 70.7266L95.4844 77.5ZM49.4468 91.852H47.6708L47.1588 95.5H46.2148L46.7108 91.852H44.5188L43.9748 95.5H43.0308L43.5748 91.852H41.8148V90.908H43.7188L44.0548 88.668H42.2628V87.724H44.1828L44.6948 84.332H45.6548L45.1428 87.724H47.3188L47.8148 84.332H48.7588L48.2628 87.724H49.8628V88.668H48.1348L47.8148 90.908H49.4468V91.852ZM45.0148 88.668L44.6628 90.908H46.8708L47.1908 88.668H45.0148ZM54.7374 89.98C54.3428 89.98 53.9801 90.028 53.6494 90.124C53.3188 90.22 53.0308 90.3693 52.7854 90.572C52.5401 90.764 52.3481 91.0147 52.2094 91.324C52.0708 91.6227 52.0014 91.98 52.0014 92.396C52.0014 92.748 52.0654 93.0733 52.1934 93.372C52.3321 93.6707 52.5188 93.932 52.7534 94.156C52.9988 94.3693 53.2921 94.54 53.6334 94.668C53.9854 94.796 54.3748 94.86 54.8014 94.86C55.1748 94.86 55.5214 94.8013 55.8414 94.684C56.1614 94.556 56.4388 94.38 56.6734 94.156C56.9188 93.932 57.1054 93.6653 57.2334 93.356C57.3721 93.0467 57.4414 92.7053 57.4414 92.332C57.4414 91.9373 57.3721 91.596 57.2334 91.308C57.0948 91.0093 56.9028 90.764 56.6574 90.572C56.4121 90.3693 56.1241 90.22 55.7934 90.124C55.4628 90.028 55.1108 89.98 54.7374 89.98ZM54.6894 85.084C54.3694 85.084 54.0708 85.1267 53.7934 85.212C53.5161 85.2973 53.2708 85.4253 53.0574 85.596C52.8548 85.7667 52.6948 85.98 52.5774 86.236C52.4601 86.492 52.4014 86.7853 52.4014 87.116C52.4014 87.468 52.4654 87.772 52.5934 88.028C52.7321 88.2733 52.9134 88.476 53.1374 88.636C53.3614 88.796 53.6174 88.9187 53.9054 89.004C54.1934 89.0787 54.4921 89.116 54.8014 89.116C55.1108 89.116 55.3988 89.0787 55.6654 89.004C55.9321 88.9187 56.1614 88.7853 56.3534 88.604C56.5454 88.4227 56.6948 88.1933 56.8014 87.916C56.9188 87.6387 56.9774 87.2973 56.9774 86.892C56.9774 86.316 56.7908 85.8733 56.4174 85.564C56.0441 85.244 55.4681 85.084 54.6894 85.084ZM52.9454 89.436C52.6681 89.2653 52.4281 89.1053 52.2254 88.956C52.0334 88.796 51.8734 88.6253 51.7454 88.444C51.6174 88.2627 51.5214 88.06 51.4574 87.836C51.4041 87.6013 51.3774 87.3133 51.3774 86.972C51.3774 86.588 51.4628 86.2253 51.6334 85.884C51.8041 85.5427 52.0334 85.2493 52.3214 85.004C52.6094 84.748 52.9454 84.5507 53.3294 84.412C53.7241 84.2733 54.1454 84.2093 54.5934 84.22C55.0201 84.22 55.4361 84.2733 55.8414 84.38C56.2574 84.4867 56.6254 84.652 56.9454 84.876C57.2654 85.1 57.5214 85.388 57.7134 85.74C57.9054 86.0813 58.0014 86.492 58.0014 86.972C58.0014 87.5587 57.8788 88.06 57.6334 88.476C57.3988 88.892 57.0094 89.2333 56.4654 89.5C57.0841 89.724 57.5694 90.0813 57.9214 90.572C58.2841 91.0627 58.4654 91.6387 58.4654 92.3C58.4654 92.8547 58.3694 93.3453 58.1774 93.772C57.9961 94.1987 57.7294 94.556 57.3774 94.844C57.0361 95.132 56.6201 95.3507 56.1294 95.5C55.6388 95.6493 55.0948 95.724 54.4974 95.724C54.0921 95.724 53.6761 95.6547 53.2494 95.516C52.8334 95.3773 52.4548 95.1693 52.1134 94.892C51.7828 94.6147 51.5108 94.268 51.2974 93.852C51.0841 93.436 50.9774 92.9507 50.9774 92.396C50.9774 91.724 51.1428 91.1267 51.4734 90.604C51.8148 90.0707 52.3054 89.6813 52.9454 89.436ZM66.1561 86.988C66.0387 86.412 65.8041 85.9533 65.4521 85.612C65.1001 85.26 64.6201 85.084 64.0121 85.084C63.3187 85.084 62.7694 85.2493 62.3641 85.58C61.9694 85.9107 61.6654 86.332 61.4521 86.844C61.2387 87.3453 61.0947 87.8947 61.0201 88.492C60.9454 89.0893 60.8867 89.6547 60.8441 90.188C61.0041 89.9747 61.1694 89.7613 61.3401 89.548C61.5214 89.3347 61.7241 89.148 61.9481 88.988C62.1721 88.8173 62.4334 88.684 62.7321 88.588C63.0307 88.4813 63.3881 88.428 63.8041 88.428C64.9454 88.428 65.8254 88.7533 66.4441 89.404C67.0734 90.044 67.3881 90.9293 67.3881 92.06C67.3881 93.2013 67.0734 94.0973 66.4441 94.748C65.8147 95.3987 64.9241 95.724 63.7721 95.724C63.2067 95.724 62.6841 95.6333 62.2041 95.452C61.7241 95.26 61.3081 94.9507 60.9561 94.524C60.6041 94.0973 60.3267 93.5427 60.1241 92.86C59.9214 92.1667 59.8201 91.324 59.8201 90.332C59.8201 89.66 59.8787 88.9667 59.9961 88.252C60.1134 87.5267 60.3214 86.8653 60.6201 86.268C60.9294 85.6707 61.3454 85.18 61.8681 84.796C62.4014 84.412 63.0841 84.22 63.9161 84.22C64.8121 84.22 65.5587 84.4547 66.1561 84.924C66.7534 85.3933 67.1054 86.0813 67.2121 86.988H66.1561ZM63.7721 89.292C63.3774 89.292 63.0201 89.3667 62.7001 89.516C62.3907 89.6653 62.1241 89.868 61.9001 90.124C61.6867 90.38 61.5214 90.6787 61.4041 91.02C61.2867 91.3507 61.2281 91.708 61.2281 92.092C61.2281 92.412 61.2707 92.7373 61.3561 93.068C61.4521 93.388 61.6014 93.6813 61.8041 93.948C62.0174 94.2147 62.2841 94.4333 62.6041 94.604C62.9241 94.7747 63.3187 94.86 63.7881 94.86C64.2681 94.86 64.6681 94.78 64.9881 94.62C65.3187 94.4493 65.5854 94.2307 65.7881 93.964C65.9907 93.6867 66.1347 93.3827 66.2201 93.052C66.3161 92.7107 66.3641 92.3693 66.3641 92.028C66.3641 91.1533 66.1507 90.4813 65.7241 90.012C65.3081 89.532 64.6574 89.292 63.7721 89.292ZM69.1587 87.916C69.1587 87.3613 69.244 86.86 69.4147 86.412C69.5854 85.9533 69.8307 85.564 70.1507 85.244C70.4707 84.9133 70.8547 84.6627 71.3027 84.492C71.7614 84.3107 72.268 84.22 72.8227 84.22C73.388 84.22 73.884 84.3053 74.3107 84.476C74.748 84.636 75.1107 84.8547 75.3987 85.132C75.6974 85.4093 75.9214 85.74 76.0707 86.124C76.22 86.508 76.2947 86.9133 76.2947 87.34C76.2947 87.8413 76.2094 88.284 76.0387 88.668C75.8787 89.052 75.66 89.3933 75.3827 89.692C75.116 89.9907 74.8067 90.2573 74.4547 90.492C74.1134 90.7267 73.7614 90.9507 73.3987 91.164C73.036 91.3667 72.6787 91.564 72.3267 91.756C71.9747 91.948 71.66 92.1507 71.3827 92.364C71.2014 92.5027 71.0254 92.652 70.8547 92.812C70.684 92.9613 70.5294 93.1267 70.3907 93.308C70.252 93.4893 70.14 93.692 70.0547 93.916C69.9694 94.1293 69.9214 94.3693 69.9107 94.636H76.1987V95.5H68.8227C68.8334 94.956 68.892 94.4653 68.9987 94.028C69.1054 93.5907 69.34 93.164 69.7027 92.748C70.0974 92.3 70.5027 91.916 70.9187 91.596C71.3454 91.276 71.7614 90.9933 72.1667 90.748C72.572 90.492 72.956 90.2627 73.3187 90.06C73.6814 89.8467 74.0014 89.6173 74.2787 89.372C74.556 89.1267 74.7747 88.8493 74.9347 88.54C75.0947 88.2307 75.1747 87.852 75.1747 87.404C75.1747 87.0413 75.1107 86.716 74.9827 86.428C74.8547 86.14 74.6787 85.8947 74.4547 85.692C74.2307 85.4893 73.9694 85.34 73.6707 85.244C73.372 85.1373 73.0467 85.084 72.6947 85.084C72.3214 85.084 71.98 85.164 71.6707 85.324C71.372 85.4733 71.1107 85.676 70.8867 85.932C70.6734 86.188 70.508 86.4867 70.3907 86.828C70.2734 87.1693 70.2254 87.532 70.2467 87.916H69.1587ZM78.0493 87.916C78.0493 87.3613 78.1346 86.86 78.3053 86.412C78.476 85.9533 78.7213 85.564 79.0413 85.244C79.3613 84.9133 79.7453 84.6627 80.1933 84.492C80.652 84.3107 81.1586 84.22 81.7133 84.22C82.2786 84.22 82.7746 84.3053 83.2013 84.476C83.6386 84.636 84.0013 84.8547 84.2893 85.132C84.588 85.4093 84.812 85.74 84.9613 86.124C85.1106 86.508 85.1853 86.9133 85.1853 87.34C85.1853 87.8413 85.1 88.284 84.9293 88.668C84.7693 89.052 84.5506 89.3933 84.2733 89.692C84.0066 89.9907 83.6973 90.2573 83.3453 90.492C83.004 90.7267 82.652 90.9507 82.2893 91.164C81.9266 91.3667 81.5693 91.564 81.2173 91.756C80.8653 91.948 80.5506 92.1507 80.2733 92.364C80.092 92.5027 79.916 92.652 79.7453 92.812C79.5746 92.9613 79.42 93.1267 79.2813 93.308C79.1426 93.4893 79.0306 93.692 78.9453 93.916C78.86 94.1293 78.812 94.3693 78.8013 94.636H85.0893V95.5H77.7133C77.724 94.956 77.7826 94.4653 77.8893 94.028C77.996 93.5907 78.2306 93.164 78.5933 92.748C78.988 92.3 79.3933 91.916 79.8093 91.596C80.236 91.276 80.652 90.9933 81.0573 90.748C81.4626 90.492 81.8466 90.2627 82.2093 90.06C82.572 89.8467 82.892 89.6173 83.1693 89.372C83.4466 89.1267 83.6653 88.8493 83.8253 88.54C83.9853 88.2307 84.0653 87.852 84.0653 87.404C84.0653 87.0413 84.0013 86.716 83.8733 86.428C83.7453 86.14 83.5693 85.8947 83.3453 85.692C83.1213 85.4893 82.86 85.34 82.5613 85.244C82.2626 85.1373 81.9373 85.084 81.5853 85.084C81.212 85.084 80.8706 85.164 80.5613 85.324C80.2626 85.4733 80.0013 85.676 79.7773 85.932C79.564 86.188 79.3986 86.4867 79.2813 86.828C79.164 87.1693 79.116 87.532 79.1373 87.916H78.0493ZM93.0679 89.948C93.0679 89.34 93.0306 88.748 92.9559 88.172C92.8919 87.5853 92.7586 87.0627 92.5559 86.604C92.3533 86.1453 92.0653 85.7773 91.6919 85.5C91.3293 85.2227 90.8493 85.084 90.2519 85.084C89.6866 85.084 89.2226 85.228 88.8599 85.516C88.5079 85.7933 88.2306 86.1667 88.0279 86.636C87.8253 87.1053 87.6813 87.6387 87.5959 88.236C87.5213 88.8333 87.4839 89.4413 87.4839 90.06C87.4839 90.7853 87.5266 91.4467 87.6119 92.044C87.7079 92.6307 87.8626 93.132 88.0759 93.548C88.2893 93.964 88.5719 94.2893 88.9239 94.524C89.2866 94.748 89.7399 94.86 90.2839 94.86C90.8919 94.86 91.3773 94.7107 91.7399 94.412C92.1133 94.1133 92.3959 93.7293 92.5879 93.26C92.7799 92.7907 92.9079 92.2627 92.9719 91.676C93.0359 91.0893 93.0679 90.5133 93.0679 89.948ZM90.2839 84.22C90.8386 84.22 91.3186 84.3053 91.7239 84.476C92.1293 84.636 92.4706 84.86 92.7479 85.148C93.0359 85.436 93.2653 85.772 93.4359 86.156C93.6173 86.54 93.7559 86.9507 93.8519 87.388C93.9479 87.8147 94.0119 88.2573 94.0439 88.716C94.0759 89.1747 94.0919 89.6227 94.0919 90.06C94.0919 90.8067 94.0386 91.5213 93.9319 92.204C93.8253 92.8867 93.6279 93.4893 93.3399 94.012C93.0626 94.5347 92.6786 94.9507 92.1879 95.26C91.6973 95.5693 91.0626 95.724 90.2839 95.724C89.5053 95.724 88.8653 95.5693 88.3639 95.26C87.8733 94.9507 87.4839 94.5347 87.1959 94.012C86.9186 93.4787 86.7266 92.8653 86.6199 92.172C86.5133 91.468 86.4599 90.7267 86.4599 89.948C86.4599 89.2333 86.5079 88.5347 86.6039 87.852C86.6999 87.1693 86.8813 86.5613 87.1479 86.028C87.4253 85.484 87.8146 85.0467 88.3159 84.716C88.8173 84.3853 89.4733 84.22 90.2839 84.22ZM101.959 89.948C101.959 89.34 101.921 88.748 101.847 88.172C101.783 87.5853 101.649 87.0627 101.447 86.604C101.244 86.1453 100.956 85.7773 100.583 85.5C100.22 85.2227 99.7399 85.084 99.1426 85.084C98.5772 85.084 98.1132 85.228 97.7506 85.516C97.3986 85.7933 97.1212 86.1667 96.9186 86.636C96.7159 87.1053 96.5719 87.6387 96.4866 88.236C96.4119 88.8333 96.3746 89.4413 96.3746 90.06C96.3746 90.7853 96.4172 91.4467 96.5026 92.044C96.5986 92.6307 96.7532 93.132 96.9666 93.548C97.1799 93.964 97.4626 94.2893 97.8146 94.524C98.1772 94.748 98.6306 94.86 99.1746 94.86C99.7826 94.86 100.268 94.7107 100.631 94.412C101.004 94.1133 101.287 93.7293 101.479 93.26C101.671 92.7907 101.799 92.2627 101.863 91.676C101.927 91.0893 101.959 90.5133 101.959 89.948ZM99.1746 84.22C99.7292 84.22 100.209 84.3053 100.615 84.476C101.02 84.636 101.361 84.86 101.639 85.148C101.927 85.436 102.156 85.772 102.327 86.156C102.508 86.54 102.647 86.9507 102.743 87.388C102.839 87.8147 102.903 88.2573 102.935 88.716C102.967 89.1747 102.983 89.6227 102.983 90.06C102.983 90.8067 102.929 91.5213 102.823 92.204C102.716 92.8867 102.519 93.4893 102.231 94.012C101.953 94.5347 101.569 94.9507 101.079 95.26C100.588 95.5693 99.9532 95.724 99.1746 95.724C98.3959 95.724 97.7559 95.5693 97.2546 95.26C96.7639 94.9507 96.3746 94.5347 96.0866 94.012C95.8092 93.4787 95.6172 92.8653 95.5106 92.172C95.4039 91.468 95.3506 90.7267 95.3506 89.948C95.3506 89.2333 95.3986 88.5347 95.4946 87.852C95.5906 87.1693 95.7719 86.5613 96.0386 86.028C96.3159 85.484 96.7052 85.0467 97.2066 84.716C97.7079 84.3853 98.3639 84.22 99.1746 84.22Z" fill="#D9D9D9"/>
</svg>
