<svg width="145" height="143" viewBox="0 0 145 143" fill="none" xmlns="http://www.w3.org/2000/svg">
<rect x="0.5" width="144" height="143" rx="71.5" fill="#E39774"/>
<path d="M27.0547 66.8359C27.6224 66.8359 28.0833 66.7734 28.4375 66.6484C29.1094 66.4089 29.4453 65.9635 29.4453 65.3125C29.4453 64.9323 29.2786 64.638 28.9453 64.4297C28.612 64.2266 28.0885 64.0469 27.375 63.8906L26.1562 63.6172C24.9583 63.3464 24.1302 63.0521 23.6719 62.7344C22.8958 62.2031 22.5078 61.3724 22.5078 60.2422C22.5078 59.2109 22.8828 58.3542 23.6328 57.6719C24.3828 56.9896 25.4844 56.6484 26.9375 56.6484C28.151 56.6484 29.1849 56.9714 30.0391 57.6172C30.8984 58.2578 31.349 59.1901 31.3906 60.4141H29.0781C29.0365 59.7214 28.7344 59.2292 28.1719 58.9375C27.7969 58.7448 27.3307 58.6484 26.7734 58.6484C26.1536 58.6484 25.6589 58.7734 25.2891 59.0234C24.9193 59.2734 24.7344 59.6224 24.7344 60.0703C24.7344 60.4818 24.9167 60.7891 25.2812 60.9922C25.5156 61.1276 26.0156 61.2865 26.7812 61.4688L28.7656 61.9453C29.6354 62.1536 30.2917 62.4323 30.7344 62.7812C31.4219 63.3229 31.7656 64.1068 31.7656 65.1328C31.7656 66.1849 31.362 67.0599 30.5547 67.7578C29.7526 68.4505 28.6172 68.7969 27.1484 68.7969C25.6484 68.7969 24.4688 68.4557 23.6094 67.7734C22.75 67.0859 22.3203 66.1432 22.3203 64.9453H24.6172C24.6901 65.4714 24.8333 65.8646 25.0469 66.125C25.4375 66.599 26.1068 66.8359 27.0547 66.8359ZM41.5625 63.4688H35.9688V66.4297H42.3438V68.5H33.6172V56.9844H42.0625V59.0234H35.9688V61.4688H41.5625V63.4688ZM52.3438 67.6406C51.4844 68.4271 50.3854 68.8203 49.0469 68.8203C47.3906 68.8203 46.0885 68.2891 45.1406 67.2266C44.1927 66.1589 43.7188 64.6953 43.7188 62.8359C43.7188 60.8255 44.2578 59.276 45.3359 58.1875C46.2734 57.2396 47.4661 56.7656 48.9141 56.7656C50.8516 56.7656 52.2682 57.401 53.1641 58.6719C53.6589 59.3854 53.9245 60.1016 53.9609 60.8203H51.5547C51.3984 60.2682 51.1979 59.8516 50.9531 59.5703C50.5156 59.0703 49.8672 58.8203 49.0078 58.8203C48.1328 58.8203 47.4427 59.1745 46.9375 59.8828C46.4323 60.5859 46.1797 61.5833 46.1797 62.875C46.1797 64.1667 46.4453 65.1354 46.9766 65.7812C47.513 66.4219 48.1927 66.7422 49.0156 66.7422C49.8594 66.7422 50.5026 66.4661 50.9453 65.9141C51.1901 65.6172 51.3932 65.1719 51.5547 64.5781H53.9375C53.7292 65.8333 53.1979 66.8542 52.3438 67.6406ZM60.875 68.8203C59.2292 68.8203 57.9714 68.3724 57.1016 67.4766C55.9349 66.3776 55.3516 64.7943 55.3516 62.7266C55.3516 60.6172 55.9349 59.0339 57.1016 57.9766C57.9714 57.0807 59.2292 56.6328 60.875 56.6328C62.5208 56.6328 63.7786 57.0807 64.6484 57.9766C65.8099 59.0339 66.3906 60.6172 66.3906 62.7266C66.3906 64.7943 65.8099 66.3776 64.6484 67.4766C63.7786 68.3724 62.5208 68.8203 60.875 68.8203ZM63.1484 65.7266C63.7057 65.0234 63.9844 64.0234 63.9844 62.7266C63.9844 61.4349 63.7031 60.4375 63.1406 59.7344C62.5833 59.026 61.8281 58.6719 60.875 58.6719C59.9219 58.6719 59.1615 59.0234 58.5938 59.7266C58.026 60.4297 57.7422 61.4297 57.7422 62.7266C57.7422 64.0234 58.026 65.0234 58.5938 65.7266C59.1615 66.4297 59.9219 66.7812 60.875 66.7812C61.8281 66.7812 62.5859 66.4297 63.1484 65.7266ZM77.5469 68.5H75.1406L70.4375 60.3203V68.5H68.1953V56.9844H70.7188L75.3047 65.0234V56.9844H77.5469V68.5ZM84.7578 68.5H79.7969V56.9844H84.7578C85.4714 56.9948 86.0651 57.0781 86.5391 57.2344C87.3464 57.5 88 57.987 88.5 58.6953C88.901 59.2682 89.1745 59.888 89.3203 60.5547C89.4661 61.2214 89.5391 61.8568 89.5391 62.4609C89.5391 63.9922 89.2318 65.2891 88.6172 66.3516C87.7839 67.7839 86.4974 68.5 84.7578 68.5ZM86.5469 59.9219C86.1771 59.2969 85.4453 58.9844 84.3516 58.9844H82.1328V66.5H84.3516C85.487 66.5 86.2786 65.9401 86.7266 64.8203C86.9714 64.2057 87.0938 63.474 87.0938 62.625C87.0938 61.4531 86.9115 60.5521 86.5469 59.9219ZM98.1016 66.1328H93.8594L93.0625 68.5H90.5469L94.6562 56.9844H97.375L101.453 68.5H98.8438L98.1016 66.1328ZM97.4297 64.1484L95.9922 59.6172L94.5078 64.1484H97.4297ZM107.812 63.9844H105.328V68.5H102.977V56.9844H108.625C109.432 57 110.052 57.099 110.484 57.2812C110.922 57.4635 111.292 57.7318 111.594 58.0859C111.844 58.3776 112.042 58.7005 112.188 59.0547C112.333 59.4089 112.406 59.8125 112.406 60.2656C112.406 60.8125 112.268 61.3516 111.992 61.8828C111.716 62.4089 111.26 62.7812 110.625 63C111.156 63.2135 111.531 63.5182 111.75 63.9141C111.974 64.3047 112.086 64.9036 112.086 65.7109V66.4844C112.086 67.0104 112.107 67.3672 112.148 67.5547C112.211 67.8516 112.357 68.0703 112.586 68.2109V68.5H109.938C109.865 68.2448 109.812 68.0391 109.781 67.8828C109.719 67.5599 109.685 67.2292 109.68 66.8906L109.664 65.8203C109.654 65.0859 109.518 64.5964 109.258 64.3516C109.003 64.1068 108.521 63.9844 107.812 63.9844ZM109.273 61.8906C109.753 61.6719 109.992 61.2396 109.992 60.5938C109.992 59.8958 109.76 59.4271 109.297 59.1875C109.036 59.0521 108.646 58.9844 108.125 58.9844H105.328V62.0781H108.055C108.596 62.0781 109.003 62.0156 109.273 61.8906ZM123.188 56.9844L119.336 64.1719V68.5H116.93V64.1719L112.945 56.9844H115.781L118.172 62L120.461 56.9844H123.188ZM49.0015 82.852H47.2255L46.7135 86.5H45.7695L46.2655 82.852H44.0735L43.5295 86.5H42.5855L43.1295 82.852H41.3695V81.908H43.2735L43.6095 79.668H41.8175V78.724H43.7375L44.2495 75.332H45.2095L44.6975 78.724H46.8735L47.3695 75.332H48.3135L47.8175 78.724H49.4175V79.668H47.6895L47.3695 81.908H49.0015V82.852ZM44.5695 79.668L44.2175 81.908H46.4255L46.7455 79.668H44.5695ZM51.1241 86.5V74.98H58.7881V75.908H52.2121V80.068H58.1481V80.996H52.2121V85.572H58.9481V86.5H51.1241ZM63.1454 80.228C63.6254 80.228 64.0627 80.2013 64.4574 80.148C64.852 80.084 65.188 79.972 65.4654 79.812C65.7534 79.6413 65.9774 79.4173 66.1374 79.14C66.2974 78.8627 66.3774 78.5053 66.3774 78.068C66.3774 77.716 66.3134 77.4173 66.1854 77.172C66.0574 76.916 65.8814 76.708 65.6574 76.548C65.444 76.388 65.188 76.2707 64.8894 76.196C64.6014 76.1213 64.2974 76.084 63.9774 76.084C63.6147 76.084 63.284 76.1427 62.9854 76.26C62.6974 76.3773 62.4467 76.548 62.2334 76.772C62.02 76.9853 61.8547 77.2413 61.7374 77.54C61.62 77.828 61.5614 78.148 61.5614 78.5H60.5374C60.5374 77.988 60.6227 77.5293 60.7934 77.124C60.9747 76.708 61.252 76.324 61.6254 75.972C61.9774 75.652 62.372 75.4493 62.8094 75.364C63.2574 75.268 63.716 75.22 64.1854 75.22C64.6334 75.22 65.0494 75.2787 65.4334 75.396C65.828 75.5027 66.1694 75.6733 66.4574 75.908C66.7454 76.132 66.9747 76.42 67.1454 76.772C67.316 77.124 67.4014 77.5347 67.4014 78.004C67.4014 78.5907 67.268 79.0973 67.0014 79.524C66.7454 79.9507 66.3454 80.2813 65.8014 80.516C66.2067 80.644 66.5374 80.8147 66.7934 81.028C67.06 81.2307 67.268 81.46 67.4174 81.716C67.5667 81.9613 67.668 82.2227 67.7214 82.5C67.7747 82.7773 67.8014 83.044 67.8014 83.3C67.8014 83.7693 67.7214 84.2067 67.5614 84.612C67.4014 85.0173 67.1667 85.3747 66.8574 85.684C66.548 85.9933 66.164 86.244 65.7054 86.436C65.2574 86.6173 64.7454 86.7133 64.1694 86.724C63.5187 86.724 62.9534 86.6653 62.4734 86.548C61.9934 86.4307 61.5934 86.2387 61.2734 85.972C60.9534 85.6947 60.7027 85.3373 60.5214 84.9C60.34 84.452 60.2174 83.8973 60.1534 83.236H61.1774C61.1774 84.1 61.4334 84.756 61.9454 85.204C62.468 85.6413 63.1454 85.86 63.9774 85.86C64.3827 85.86 64.7614 85.7907 65.1134 85.652C65.4654 85.5133 65.764 85.3267 66.0094 85.092C66.2654 84.8573 66.4574 84.5853 66.5854 84.276C66.724 83.9667 66.788 83.6467 66.7774 83.316C66.756 82.8573 66.6494 82.4787 66.4574 82.18C66.2654 81.8707 66.004 81.6307 65.6734 81.46C65.3534 81.2787 64.9747 81.1613 64.5374 81.108C64.1 81.044 63.636 81.028 63.1454 81.06V80.228ZM70.388 84.02C70.5053 84.628 70.74 85.0867 71.092 85.396C71.4547 85.7053 71.9507 85.86 72.58 85.86C73.252 85.86 73.7853 85.6947 74.18 85.364C74.5853 85.0333 74.8947 84.6173 75.108 84.116C75.332 83.6147 75.4813 83.076 75.556 82.5C75.6413 81.9133 75.6947 81.364 75.716 80.852L75.684 80.82C75.3427 81.396 74.916 81.8333 74.404 82.132C73.9027 82.4307 73.316 82.58 72.644 82.58C72.1107 82.58 71.6307 82.4947 71.204 82.324C70.7773 82.1533 70.4093 81.908 70.1 81.588C69.8013 81.268 69.5667 80.884 69.396 80.436C69.236 79.988 69.156 79.492 69.156 78.948C69.156 78.4147 69.2307 77.924 69.38 77.476C69.5293 77.0173 69.7533 76.6227 70.052 76.292C70.3507 75.9507 70.724 75.6893 71.172 75.508C71.6307 75.316 72.1693 75.22 72.788 75.22C73.5453 75.22 74.1747 75.3693 74.676 75.668C75.188 75.9667 75.5933 76.372 75.892 76.884C76.2013 77.396 76.42 77.9987 76.548 78.692C76.676 79.3853 76.74 80.1267 76.74 80.916C76.74 81.876 76.6387 82.7187 76.436 83.444C76.2333 84.1587 75.9453 84.7613 75.572 85.252C75.2093 85.7427 74.7773 86.1107 74.276 86.356C73.7747 86.6013 73.2253 86.724 72.628 86.724C72.1907 86.724 71.78 86.6707 71.396 86.564C71.012 86.4573 70.676 86.292 70.388 86.068C70.1 85.844 69.8653 85.5613 69.684 85.22C69.5027 84.8787 69.3907 84.4787 69.348 84.02H70.388ZM72.788 76.084C71.924 76.1053 71.2733 76.372 70.836 76.884C70.3987 77.396 70.18 78.0947 70.18 78.98C70.18 79.844 70.404 80.516 70.852 80.996C71.3107 81.476 71.956 81.716 72.788 81.716C73.1827 81.716 73.5347 81.6413 73.844 81.492C74.164 81.3427 74.4307 81.14 74.644 80.884C74.868 80.628 75.0333 80.3347 75.14 80.004C75.2573 79.6627 75.316 79.3 75.316 78.916C75.316 78.084 75.092 77.412 74.644 76.9C74.196 76.3773 73.5773 76.1053 72.788 76.084ZM78.3346 75.332H85.5186V76.292C84.708 77.2093 84.02 78.1533 83.4546 79.124C82.8893 80.084 82.4253 81.0227 82.0626 81.94C81.7 82.8467 81.428 83.6947 81.2466 84.484C81.076 85.2733 80.9746 85.9453 80.9426 86.5H79.8226C79.876 85.6893 80.036 84.8307 80.3026 83.924C80.58 83.0067 80.9213 82.1 81.3266 81.204C81.732 80.308 82.1906 79.444 82.7026 78.612C83.2146 77.7693 83.7426 77.0173 84.2866 76.356H78.3346V75.332ZM87.2253 75.332H94.4093V76.292C93.5986 77.2093 92.9106 78.1533 92.3453 79.124C91.7799 80.084 91.3159 81.0227 90.9533 81.94C90.5906 82.8467 90.3186 83.6947 90.1373 84.484C89.9666 85.2733 89.8653 85.9453 89.8333 86.5H88.7133C88.7666 85.6893 88.9266 84.8307 89.1933 83.924C89.4706 83.0067 89.8119 82.1 90.2173 81.204C90.6226 80.308 91.0813 79.444 91.5933 78.612C92.1053 77.7693 92.6333 77.0173 93.1773 76.356H87.2253V75.332ZM100.9 83.716H95.7479V82.836L100.996 75.332H101.924V82.852H103.492V83.716H101.924V86.5H100.9V83.716ZM96.7559 82.852H100.9V76.868L96.7559 82.852Z" fill="#1E1E24"/>
</svg>
