<svg width="145" height="143" viewBox="0 0 145 143" fill="none" xmlns="http://www.w3.org/2000/svg">
<rect x="0.5" width="144" height="143" rx="71.5" fill="#F6C516"/>
<path d="M56.1094 66.8359C56.6771 66.8359 57.138 66.7734 57.4922 66.6484C58.1641 66.4089 58.5 65.9635 58.5 65.3125C58.5 64.9323 58.3333 64.638 58 64.4297C57.6667 64.2266 57.1432 64.0469 56.4297 63.8906L55.2109 63.6172C54.013 63.3464 53.1849 63.0521 52.7266 62.7344C51.9505 62.2031 51.5625 61.3724 51.5625 60.2422C51.5625 59.2109 51.9375 58.3542 52.6875 57.6719C53.4375 56.9896 54.5391 56.6484 55.9922 56.6484C57.2057 56.6484 58.2396 56.9714 59.0938 57.6172C59.9531 58.2578 60.4036 59.1901 60.4453 60.4141H58.1328C58.0911 59.7214 57.7891 59.2292 57.2266 58.9375C56.8516 58.7448 56.3854 58.6484 55.8281 58.6484C55.2083 58.6484 54.7135 58.7734 54.3438 59.0234C53.974 59.2734 53.7891 59.6224 53.7891 60.0703C53.7891 60.4818 53.9714 60.7891 54.3359 60.9922C54.5703 61.1276 55.0703 61.2865 55.8359 61.4688L57.8203 61.9453C58.6901 62.1536 59.3464 62.4323 59.7891 62.7812C60.4766 63.3229 60.8203 64.1068 60.8203 65.1328C60.8203 66.1849 60.4167 67.0599 59.6094 67.7578C58.8073 68.4505 57.6719 68.7969 56.2031 68.7969C54.7031 68.7969 53.5234 68.4557 52.6641 67.7734C51.8047 67.0859 51.375 66.1432 51.375 64.9453H53.6719C53.7448 65.4714 53.888 65.8646 54.1016 66.125C54.4922 66.599 55.1615 66.8359 56.1094 66.8359ZM67.4922 64.3594H65.0469V68.5H62.6562V56.9844H67.6719C68.8281 56.9844 69.75 57.2812 70.4375 57.875C71.125 58.4688 71.4688 59.388 71.4688 60.6328C71.4688 61.9922 71.125 62.9531 70.4375 63.5156C69.75 64.0781 68.7682 64.3594 67.4922 64.3594ZM68.6172 61.9609C68.9297 61.6849 69.0859 61.2474 69.0859 60.6484C69.0859 60.0495 68.9271 59.6224 68.6094 59.3672C68.2969 59.112 67.8568 58.9844 67.2891 58.9844H65.0469V62.375H67.2891C67.8568 62.375 68.2995 62.237 68.6172 61.9609ZM78.3672 68.8203C76.7214 68.8203 75.4635 68.3724 74.5938 67.4766C73.4271 66.3776 72.8438 64.7943 72.8438 62.7266C72.8438 60.6172 73.4271 59.0339 74.5938 57.9766C75.4635 57.0807 76.7214 56.6328 78.3672 56.6328C80.013 56.6328 81.2708 57.0807 82.1406 57.9766C83.3021 59.0339 83.8828 60.6172 83.8828 62.7266C83.8828 64.7943 83.3021 66.3776 82.1406 67.4766C81.2708 68.3724 80.013 68.8203 78.3672 68.8203ZM80.6406 65.7266C81.1979 65.0234 81.4766 64.0234 81.4766 62.7266C81.4766 61.4349 81.1953 60.4375 80.6328 59.7344C80.0755 59.026 79.3203 58.6719 78.3672 58.6719C77.4141 58.6719 76.6536 59.0234 76.0859 59.7266C75.5182 60.4297 75.2344 61.4297 75.2344 62.7266C75.2344 64.0234 75.5182 65.0234 76.0859 65.7266C76.6536 66.4297 77.4141 66.7812 78.3672 66.7812C79.3203 66.7812 80.0781 66.4297 80.6406 65.7266ZM94.0938 56.9844V59.0234H90.6484V68.5H88.2266V59.0234H84.7656V56.9844H94.0938ZM39.7969 82.1172H41.6172L42.3516 79.4297H40.5391L40.7812 78.5234H42.5938L43.5234 75.0234H44.6875L43.7422 78.5234H45.4688L46.4297 75.0234H47.5781L46.6328 78.5234H48.4453L48.2031 79.4297H46.3906L45.6484 82.1172H47.4688L47.2266 83.0234H45.4297L44.4688 86.5H43.3203L44.2656 83.0234H42.5234L41.5938 86.5H40.4297L41.375 83.0234H39.5625L39.7969 82.1172ZM44.4844 82.1172L45.2266 79.4297H43.5L42.7812 82.1172H44.4844ZM49.8359 75.0234H57.7969V76.4297H51.3906V79.9141H57.0234V81.2812H51.3906V86.5H49.8359V75.0234ZM62.9297 75.2656C64.1797 75.2656 65.0495 75.5911 65.5391 76.2422C66.0339 76.888 66.2812 77.5547 66.2812 78.2422H64.8906C64.8073 77.7995 64.6745 77.4531 64.4922 77.2031C64.1536 76.7344 63.6406 76.5 62.9531 76.5C62.1667 76.5 61.5417 76.8646 61.0781 77.5938C60.6146 78.3177 60.3568 79.3568 60.3047 80.7109C60.6276 80.237 61.0339 79.8828 61.5234 79.6484C61.9714 79.4401 62.4714 79.3359 63.0234 79.3359C63.9609 79.3359 64.7786 79.6354 65.4766 80.2344C66.1745 80.8333 66.5234 81.7266 66.5234 82.9141C66.5234 83.9297 66.1927 84.8307 65.5312 85.6172C64.8698 86.3984 63.9271 86.7891 62.7031 86.7891C61.6562 86.7891 60.7526 86.3932 59.9922 85.6016C59.2318 84.8047 58.8516 83.4661 58.8516 81.5859C58.8516 80.1953 59.0208 79.0156 59.3594 78.0469C60.0104 76.1927 61.2005 75.2656 62.9297 75.2656ZM62.8281 85.5391C63.5677 85.5391 64.1198 85.2917 64.4844 84.7969C64.8542 84.2969 65.0391 83.7083 65.0391 83.0312C65.0391 82.4583 64.875 81.9141 64.5469 81.3984C64.2188 80.8776 63.6224 80.6172 62.7578 80.6172C62.1536 80.6172 61.6224 80.8177 61.1641 81.2188C60.7109 81.6198 60.4844 82.224 60.4844 83.0312C60.4844 83.7396 60.6901 84.3359 61.1016 84.8203C61.5182 85.2995 62.0938 85.5391 62.8281 85.5391ZM73.2109 74.7109C74.6641 74.7109 75.7917 75.0938 76.5938 75.8594C77.3958 76.625 77.8411 77.4948 77.9297 78.4688H76.4141C76.2422 77.7292 75.8984 77.1432 75.3828 76.7109C74.8724 76.2786 74.1536 76.0625 73.2266 76.0625C72.0964 76.0625 71.1823 76.4609 70.4844 77.2578C69.7917 78.0495 69.4453 79.2656 69.4453 80.9062C69.4453 82.25 69.7578 83.3411 70.3828 84.1797C71.013 85.013 71.9505 85.4297 73.1953 85.4297C74.3411 85.4297 75.2135 84.9896 75.8125 84.1094C76.1302 83.6458 76.3672 83.0365 76.5234 82.2812H78.0391C77.9036 83.4896 77.4557 84.5026 76.6953 85.3203C75.7839 86.3047 74.5547 86.7969 73.0078 86.7969C71.6745 86.7969 70.5547 86.3932 69.6484 85.5859C68.4557 84.5182 67.8594 82.8698 67.8594 80.6406C67.8594 78.9479 68.3073 77.5599 69.2031 76.4766C70.1719 75.2995 71.5078 74.7109 73.2109 74.7109ZM80.6953 83.6484C80.7891 84.4505 81.1615 85.0052 81.8125 85.3125C82.1458 85.4688 82.5312 85.5469 82.9688 85.5469C83.8021 85.5469 84.4193 85.2812 84.8203 84.75C85.2214 84.2188 85.4219 83.6302 85.4219 82.9844C85.4219 82.2031 85.1823 81.599 84.7031 81.1719C84.2292 80.7448 83.6589 80.5312 82.9922 80.5312C82.5078 80.5312 82.0911 80.625 81.7422 80.8125C81.3984 81 81.1042 81.2604 80.8594 81.5938L79.6406 81.5234L80.4922 75.5H86.3047V76.8594H81.5469L81.0703 79.9688C81.3307 79.7708 81.5781 79.6224 81.8125 79.5234C82.2292 79.3516 82.7109 79.2656 83.2578 79.2656C84.2839 79.2656 85.1536 79.5964 85.8672 80.2578C86.5807 80.9193 86.9375 81.7578 86.9375 82.7734C86.9375 83.8307 86.6094 84.763 85.9531 85.5703C85.3021 86.3776 84.2604 86.7812 82.8281 86.7812C81.9167 86.7812 81.1094 86.526 80.4062 86.0156C79.7083 85.5 79.3177 84.7109 79.2344 83.6484H80.6953ZM89.1562 78.5781V77.5C90.1719 77.401 90.8802 77.237 91.2812 77.0078C91.6823 76.7734 91.9818 76.224 92.1797 75.3594H93.2891V86.5H91.7891V78.5781H89.1562ZM101.211 75.2656C102.461 75.2656 103.331 75.5911 103.82 76.2422C104.315 76.888 104.562 77.5547 104.562 78.2422H103.172C103.089 77.7995 102.956 77.4531 102.773 77.2031C102.435 76.7344 101.922 76.5 101.234 76.5C100.448 76.5 99.8229 76.8646 99.3594 77.5938C98.8958 78.3177 98.638 79.3568 98.5859 80.7109C98.9089 80.237 99.3151 79.8828 99.8047 79.6484C100.253 79.4401 100.753 79.3359 101.305 79.3359C102.242 79.3359 103.06 79.6354 103.758 80.2344C104.456 80.8333 104.805 81.7266 104.805 82.9141C104.805 83.9297 104.474 84.8307 103.812 85.6172C103.151 86.3984 102.208 86.7891 100.984 86.7891C99.9375 86.7891 99.0339 86.3932 98.2734 85.6016C97.513 84.8047 97.1328 83.4661 97.1328 81.5859C97.1328 80.1953 97.3021 79.0156 97.6406 78.0469C98.2917 76.1927 99.4818 75.2656 101.211 75.2656ZM101.109 85.5391C101.849 85.5391 102.401 85.2917 102.766 84.7969C103.135 84.2969 103.32 83.7083 103.32 83.0312C103.32 82.4583 103.156 81.9141 102.828 81.3984C102.5 80.8776 101.904 80.6172 101.039 80.6172C100.435 80.6172 99.9036 80.8177 99.4453 81.2188C98.9922 81.6198 98.7656 82.224 98.7656 83.0312C98.7656 83.7396 98.9714 84.3359 99.3828 84.8203C99.7995 85.2995 100.375 85.5391 101.109 85.5391Z" fill="#1E1E24"/>
</svg>
