<svg width="441" height="405" viewBox="0 0 441 405" fill="none" xmlns="http://www.w3.org/2000/svg">
<circle cx="212" cy="192" r="192" fill="#4ECDC4"/>
<path d="M244.45 165.326H158V174.272H244.45V165.326Z" fill="#EFEFEF"/>
<path d="M340.956 165.326H254.506V174.272H340.956V165.326Z" fill="#EFEFEF"/>
<path d="M244.45 180.653H193.7V189.6H244.45V180.653Z" fill="#F3A63B"/>
<path d="M331.298 180.653H254.506V189.6H331.298V180.653Z" fill="#EFEFEF"/>
<path d="M244.45 195.998H180.488V204.944H244.45V195.998Z" fill="#EFEFEF"/>
<path d="M290.57 195.998H254.506V204.944H290.57V195.998Z" fill="#EFEFEF"/>
<path d="M244.467 211.325H207.155V220.271H244.467V211.325Z" fill="#EFEFEF"/>
<path d="M341 211H255V220H341V211Z" fill="#F3A63B"/>
<path d="M244 227H213V236H244V227Z" fill="#F3A63B"/>
<path d="M301.961 226.669H254.506V235.616H301.961V226.669Z" fill="#EFEFEF"/>
<path d="M242.958 289.712H163.514V299.959H242.958V289.712Z" fill="#F3A63B"/>
<path d="M242.958 34H163.514V44.247H242.958V34Z" fill="#EFEFEF"/>
<path d="M243 17H213V27H243V17Z" fill="#EFEFEF"/>
<path d="M304.51 289.712H255.72V299.959H304.51V289.712Z" fill="#EFEFEF"/>
<path d="M321 34H256V44H321V34Z" fill="#EFEFEF"/>
<path d="M242.941 307.259H178.442V317.506H242.941V307.259Z" fill="#EFEFEF"/>
<path d="M243 52H178V62H243V52Z" fill="#F3A63B"/>
<path d="M355 307H256V318H355V307Z" fill="#EFEFEF"/>
<path d="M366 51H256V62H366V51Z" fill="#EFEFEF"/>
<path d="M243 325H171V335H243V325Z" fill="#EFEFEF"/>
<path d="M243 69H228V79H243V69Z" fill="#EFEFEF"/>
<path d="M388 325H256V335H388V325Z" fill="#EFEFEF"/>
<path d="M328 69H256V79H328V69Z" fill="#F3A63B"/>
<path d="M242.941 342.387H230.856V352.634H242.941V342.387Z" fill="#EFEFEF"/>
<path d="M243 87H190V97H243V87Z" fill="#EFEFEF"/>
<path d="M371 342H256V353H371V342Z" fill="#F3A63B"/>
<path d="M355 86H256V97H355V86Z" fill="#EFEFEF"/>
<path d="M349 360H256V370H349V360Z" fill="#EFEFEF"/>
<path d="M305 104H256V114H305V104Z" fill="#EFEFEF"/>
<path d="M286.287 267.484L279.768 264.883V261.416L286.287 258.815L292.807 256.214V260.341C291.628 260.843 290.466 261.312 289.339 261.762C288.212 262.213 287.016 262.681 285.871 263.184L289.339 264.502L292.807 265.82V270.016L286.287 267.484Z" fill="#EFEFEF"/>
<path d="M286.287 146.194L279.768 143.593V140.126L286.287 137.525L292.807 134.924V139.051C291.628 139.553 290.466 140.022 289.339 140.472C288.212 140.923 287.016 141.391 285.871 141.894L289.339 143.212L292.807 144.53V148.726L286.287 146.194Z" fill="#EFEFEF"/>
<path d="M294.731 271.177L302.464 251.29L306.521 252.504L298.736 272.478L294.731 271.177Z" fill="#EFEFEF"/>
<path d="M294.731 149.887L302.464 130L306.521 131.214L298.736 151.188L294.731 149.887Z" fill="#EFEFEF"/>
<path d="M314.948 258.867C317.115 259.734 319.3 260.601 321.467 261.468V264.935L314.948 267.536L308.429 270.137V265.889L311.896 264.571L315.364 263.254C314.185 262.751 313.023 262.283 311.896 261.832C310.769 261.381 309.573 260.913 308.429 260.41V256.266L314.948 258.867Z" fill="#EFEFEF"/>
<path d="M314.948 137.577C317.115 138.444 319.3 139.311 321.467 140.178V143.645L314.948 146.246L308.429 148.847V144.599L311.896 143.281L315.364 141.964C314.185 141.461 313.023 140.993 311.896 140.542C310.769 140.091 309.573 139.623 308.429 139.12V134.976L314.948 137.577Z" fill="#EFEFEF"/>
<mask id="mask0_83_5517" style="mask-type:alpha" maskUnits="userSpaceOnUse" x="0" y="0" width="405" height="405">
<circle cx="202.038" cy="202.038" r="202.038" fill="#4ECDC4"/>
</mask>
<g mask="url(#mask0_83_5517)">
<path d="M134.692 304.155C156.838 320.261 178.986 333.147 201.132 333.147C223.278 333.147 245.426 320.261 267.572 304.155C249.318 298.598 240.056 290.303 239.788 279.27C239.788 277.304 239.803 274.511 239.816 269.267C239.816 268.434 239.818 267.581 239.822 266.708C239.858 252.647 239.917 234.092 240.001 215.248C257.314 192.807 250.954 166.497 245.528 167.153C238.877 167.963 181.252 113.279 170.199 110.475C159.146 107.672 131.068 116.723 126.236 141.94C121.404 167.157 119.384 230.72 137.712 256.096C142.927 263.317 151.142 266.142 162.355 264.57C162.371 269.848 162.402 272.81 162.476 278.787C162.332 290.322 153.072 298.604 134.692 304.155Z" fill="url(#paint0_linear_83_5517)"/>
<path d="M162.476 264.552C189.052 261.532 205.964 250.056 205.964 250.056C205.964 250.056 186.636 274.216 162.476 279.048V264.552Z" fill="#FC9F6A"/>
<path d="M248.848 215.628C257.171 195.611 290.524 154.845 261.774 129.477C252.11 82.3651 198.716 87.58 163.08 98.452C139.129 105.759 121.042 120.196 117.176 109.324C93.0161 129.477 105.115 149.188 121.042 154.845C135.497 159.979 159.939 165.113 201.502 160.281C208.926 159.417 207.371 182.156 211.338 184.614C217.29 188.302 221.91 165.113 238.227 172.076C254.545 179.039 244.862 211.324 227.346 211.324C221.306 211.324 218.286 227.93 234.594 235.782C246.432 241.6 243.44 228.635 248.848 215.628Z" fill="url(#paint1_linear_83_5517)"/>
<path d="M327.972 336.138C335.639 351.726 341.679 377.497 346.092 413.45H56.172C60.5868 377.493 66.6268 351.722 74.292 336.138C81.9314 320.603 152.812 290.706 152.812 290.706C152.812 290.706 153.317 296.409 156.738 294.45C160.362 299.886 235.56 301.698 243.714 294.45C247.789 296.408 249.452 290.699 249.452 290.699C249.452 290.699 320.347 320.635 327.972 336.138Z" fill="#DB324D"/>
</g>
<circle cx="62.5" cy="345.5" r="42.5" fill="#FFA400"/>
<circle cx="374" cy="125" r="67" fill="#F0DCCA"/>
<defs>
<linearGradient id="paint0_linear_83_5517" x1="195.239" y1="109.985" x2="195.239" y2="333.147" gradientUnits="userSpaceOnUse">
<stop stop-color="#F7B186"/>
<stop offset="1" stop-color="#FFC299"/>
</linearGradient>
<linearGradient id="paint1_linear_83_5517" x1="188.376" y1="91.0686" x2="188.376" y2="237.213" gradientUnits="userSpaceOnUse">
<stop stop-color="#352929"/>
<stop offset="1" stop-color="#645050"/>
</linearGradient>
</defs>
</svg>
