<svg width="87" height="54" viewBox="0 0 87 54" fill="none" xmlns="http://www.w3.org/2000/svg">
<g clip-path="url(#clip0_30_1844)">
<path d="M19.7641 21.0281C19.7641 19.5389 20.6874 18.6155 22.2362 18.6155H27.5975V13.4032C27.5975 11.8841 28.4613 10.9608 29.9505 10.9608C31.4101 10.9608 32.3034 11.8841 32.3034 13.4032V18.6155H37.3371C39.0051 18.6155 39.9881 19.5389 39.9881 21.0281C39.9881 22.5769 39.0051 23.53 37.3371 23.53H32.3034V28.7424C32.3034 30.2614 31.4101 31.2146 29.9505 31.2146C28.4613 31.2146 27.5975 30.2614 27.5975 28.7424V23.53H22.2362C20.6874 23.53 19.7641 22.5769 19.7641 21.0281ZM49.0426 25.198C49.0426 22.7556 50.9488 20.8792 53.3317 20.8792C55.7443 20.8792 57.6206 22.7556 57.6206 25.198C57.6206 27.6105 55.7443 29.487 53.3317 29.487C50.9488 29.487 49.0426 27.6105 49.0426 25.198ZM57.8292 16.3817C57.8292 13.9393 59.7055 12.0629 62.0885 12.0629C64.5306 12.0629 66.3774 13.9393 66.3774 16.3817C66.3774 18.7942 64.5306 20.6409 62.0885 20.6409C59.7055 20.6409 57.8292 18.7942 57.8292 16.3817ZM12.2285 54C16.309 54 19.1088 52.5107 21.6108 49.4132L27.0018 42.8902C27.7762 41.967 28.6698 41.5201 29.5633 41.5201H58.1867C59.08 41.5201 59.9736 41.967 60.748 42.8902L66.1392 49.4132C68.641 52.5107 71.4409 54 75.5215 54C82.3421 54 86.8695 49.4726 86.8695 42.5028C86.8695 39.5245 86.1845 36.0991 85.0227 32.2571C83.2059 26.1511 80.019 17.8411 76.9809 11.4076C74.4192 6.04632 73.1086 3.60397 66.7943 2.1743C61.1948 0.893547 53.4211 0.0297852 43.8899 0.0297852C34.3588 0.0297852 26.555 0.893547 20.9555 2.1743C14.6411 3.60397 13.3306 6.04632 10.7691 11.4076C7.731 17.8411 4.54402 26.1511 2.72715 32.2571C1.56554 36.0991 0.880493 39.5245 0.880493 42.5028C0.880493 49.4726 5.40781 54 12.2285 54Z" fill="#FFA400"/>
</g>
<defs>
<clipPath id="clip0_30_1844">
<rect width="85.989" height="54" fill="white" transform="translate(0.880493)"/>
</clipPath>
</defs>
</svg>
