<svg width="11" height="12" viewBox="0 0 11 12" fill="none" xmlns="http://www.w3.org/2000/svg">
<g id="mug.fill 1" clip-path="url(#clip0_23_464)">
<g id="Group">
<path id="Vector" d="M3.89787 11.9943H4.98723C7.38721 11.9943 8.88512 10.7348 8.88512 8.71489V1.57163C8.88512 0.556028 6.99004 0 4.44255 0C1.89504 0 0 0.556028 0 1.57163V8.71489C0 10.7348 1.50355 11.9943 3.89787 11.9943ZM4.44255 1.88369C2.45674 1.88369 1.08369 1.66808 1.08369 1.34468C1.08369 1.02127 2.45674 0.799998 4.44255 0.799998C6.4284 0.799998 7.8014 1.02127 7.8014 1.34468C7.8014 1.66808 6.4284 1.88369 4.44255 1.88369ZM8.28368 8.61275H9.22553C10.2355 8.61275 10.8823 7.93189 10.8823 6.91631V4.64681C10.8823 3.62553 10.2355 2.95035 9.22553 2.95035H8.28368V3.80709H9.22553C9.79856 3.80709 10.0256 4.03971 10.0256 4.64681V6.91631C10.0256 7.51776 9.79856 7.75602 9.22553 7.75602H8.28368V8.61275Z" fill="white" fill-opacity="0.85"/>
</g>
</g>
<defs>
<clipPath id="clip0_23_464">
<rect width="10.8823" height="12" fill="white"/>
</clipPath>
</defs>
</svg>
