<svg width="56" height="54" viewBox="0 0 56 54" fill="none" xmlns="http://www.w3.org/2000/svg">
<g clip-path="url(#clip0_30_1837)">
<path d="M0.400269 24.4304C0.400269 29.6485 3.1411 33.6544 6.69893 33.6544C10.2568 33.6544 13.024 29.6485 13.024 24.4304C13.024 19.2386 10.2568 15.2064 6.69893 15.2064C3.1411 15.2064 0.400269 19.2386 0.400269 24.4304ZM13.1821 9.224C13.1821 14.4158 15.9756 18.4216 19.5071 18.4216C23.0913 18.4216 25.8585 14.3894 25.8585 9.224C25.8585 4.00586 23.0913 0 19.5071 0C15.9756 0 13.1821 4.00586 13.1821 9.224ZM30.4177 9.224C30.4177 14.3894 33.1587 18.4216 36.7428 18.4216C40.2743 18.4216 43.0677 14.4158 43.0677 9.224C43.0677 4.00586 40.2743 0 36.7428 0C33.1587 0 30.4177 4.00586 30.4177 9.224ZM43.2259 24.4304C43.2259 29.6485 45.9931 33.6544 49.551 33.6544C53.1087 33.6544 55.8497 29.6485 55.8497 24.4304C55.8497 19.2386 53.1087 15.2064 49.551 15.2064C45.9931 15.2064 43.2259 19.2386 43.2259 24.4304ZM8.30656 44.8285C8.30656 50.1522 11.8907 53.9471 17.1616 53.9471C19.7706 53.9471 21.6682 53.2093 23.4866 52.5767C24.9624 52.0497 26.3856 51.5752 28.1249 51.5752C29.838 51.5752 31.261 52.0497 32.7633 52.5767C34.5817 53.2093 36.453 53.9471 39.0621 53.9471C44.3593 53.9471 47.9434 50.1522 47.9434 44.8285C47.9434 40.2956 45.2288 38.0028 42.6197 35.8681C41.1703 34.7085 39.7734 33.6018 38.8248 32.1259C38.0341 30.9398 37.3754 29.6485 36.8219 28.4362C34.9244 24.3777 33.4221 20.5563 28.1249 20.5563C22.8014 20.5563 21.3256 24.3777 19.428 28.4098C18.8483 29.6485 18.2157 30.9136 17.4515 32.0732C16.4764 33.5489 15.0533 34.7085 13.6301 35.8681C11.021 38.0028 8.30656 40.322 8.30656 44.8285Z" fill="#DB324D"/>
</g>
<defs>
<clipPath id="clip0_30_1837">
<rect width="55.4495" height="54" fill="white" transform="translate(0.400269)"/>
</clipPath>
</defs>
</svg>
