<svg width="53" height="54" viewBox="0 0 53 54" fill="none" xmlns="http://www.w3.org/2000/svg">
<g clip-path="url(#clip0_30_1851)">
<path d="M31.251 10.9435H27.1248V2.07594C27.1248 0.948266 28.0731 0 29.2007 0C30.3284 0 31.251 0.948266 31.251 2.07594V10.9435ZM47.4485 32.6768L14.0027 32.6511C11.6707 32.6511 10.6199 31.959 9.31268 30.7033L2.46984 24.168C-0.298103 21.5282 -0.374996 18.9397 2.49556 16.1718L9.31268 9.6877C10.6199 8.40624 11.6707 7.71427 13.9773 7.71427H47.4485C50.934 7.71427 52.8818 9.61081 52.8818 13.0451V27.3204C52.8818 30.7547 50.934 32.6768 47.4485 32.6768ZM31.251 31.2158V53.8205H27.1248V31.2158H31.251ZM41.1182 51.8984C41.1182 53.0261 40.1699 53.9486 39.0422 53.9486H19.3079C18.1802 53.9486 17.232 53.0261 17.232 51.8984C17.232 50.7707 18.1802 49.8225 19.3079 49.8225H39.0422C40.1699 49.8225 41.1182 50.7707 41.1182 51.8984Z" fill="#4ECDC4"/>
</g>
<defs>
<clipPath id="clip0_30_1851">
<rect width="52.5135" height="54" fill="white" transform="matrix(-1 0 0 1 52.8818 0)"/>
</clipPath>
</defs>
</svg>
