<svg width="47" height="54" viewBox="0 0 47 54" fill="none" xmlns="http://www.w3.org/2000/svg">
<g clip-path="url(#clip0_30_1830)">
<path d="M23.353 30.5817C31.5242 30.5817 38.162 23.9439 38.162 15.7728C38.162 15.4661 38.162 15.1813 38.14 14.8746C41.7985 14.5022 44.6463 11.4134 44.6463 7.64542C44.6463 3.65842 41.4042 0.416229 37.3953 0.416229C34.9856 0.416229 32.8386 1.59919 31.5242 3.43934C29.1803 1.86207 26.3762 0.963897 23.353 0.963897C20.3299 0.963897 17.5259 1.86207 15.1819 3.43934C13.8675 1.59919 11.7206 0.416229 9.31088 0.416229C5.30196 0.416229 2.05977 3.65842 2.05977 7.64542C2.05977 11.4134 4.90764 14.5022 8.56605 14.8746C8.54414 15.1813 8.54414 15.4661 8.54414 15.7728C8.54414 23.9439 15.1819 30.5817 23.353 30.5817ZM17.6354 14.787C16.6277 14.787 15.7514 13.9326 15.7514 12.8811C15.7514 11.8296 16.6277 10.9752 17.6354 10.9752C18.6869 10.9752 19.5413 11.8296 19.5413 12.8811C19.5413 13.9326 18.6869 14.787 17.6354 14.787ZM29.0926 14.787C28.0412 14.787 27.1867 13.9326 27.1867 12.8811C27.1867 11.8296 28.0412 10.9752 29.0926 10.9752C30.1002 10.9752 30.9767 11.8296 30.9767 12.8811C30.9767 13.9326 30.1002 14.787 29.0926 14.787ZM9.31088 3.54888C10.7567 3.54888 12.0273 4.2937 12.7502 5.45476C11.0634 7.16348 9.77092 9.33225 9.11372 11.7201C8.96037 11.7201 8.82894 11.6982 8.7194 11.6763C6.7259 11.3915 5.21433 9.70465 5.21433 7.64542C5.21433 5.38903 7.05449 3.54888 9.31088 3.54888ZM37.3953 3.54888C39.6515 3.54888 41.4919 5.38903 41.4919 7.64542C41.4919 9.68275 39.9801 11.4134 37.9868 11.6763C37.8554 11.6982 37.6799 11.7201 37.5924 11.7201C36.9352 9.33225 35.6426 7.16348 33.9559 5.45476C34.6787 4.2937 35.9493 3.54888 37.3953 3.54888ZM23.3968 28.7415C19.6289 28.7415 16.6277 25.7183 16.6277 21.9724C16.6277 18.2483 19.6508 15.2032 23.3968 15.2032C27.121 15.2032 30.166 18.2263 30.166 21.9724C30.166 25.6966 27.099 28.7415 23.3968 28.7415ZM23.353 22.8268C24.6676 22.8268 26.7706 20.8552 26.7706 20.3075C26.7706 19.4093 25.3246 18.1606 23.353 18.1606C21.3814 18.1606 19.8699 19.4093 19.8699 20.3075C19.8699 20.8552 22.0605 22.8268 23.353 22.8268ZM42.2584 27.493L34.2188 23.8564L25.4561 29.7055H21.2938L12.5312 23.8564L4.49141 27.493C0.657744 29.2234 -0.963348 33.8021 0.789185 37.5918C1.68736 39.4759 3.24273 40.834 5.12671 41.4692C6.28775 37.2414 9.48612 34.2402 13.3636 34.2402C18.2707 34.2402 22.1044 39.0596 22.1044 45.084C22.1044 47.7566 21.3376 50.1881 20.089 52.0941C22.1482 52.3788 24.5798 52.3568 26.6609 52.0941C25.4123 50.1881 24.6456 47.7566 24.6456 45.084C24.6456 39.0596 28.4793 34.2402 33.3864 34.2402C37.2638 34.2402 40.4622 37.2414 41.6231 41.4692C43.5072 40.834 45.0624 39.4759 45.9606 37.5918C47.7133 33.8021 46.0921 29.2234 42.2584 27.493ZM13.3636 54C17.1535 54 20.1109 50.0129 20.1109 45.084C20.1109 40.2207 17.1535 36.2335 13.3636 36.2335C9.57376 36.2335 6.61636 40.2207 6.61636 45.084C6.61636 50.0129 9.57376 54 13.3636 54ZM33.3864 54C37.1761 54 40.1336 50.0129 40.1336 45.084C40.1336 40.2207 37.1761 36.2335 33.3864 36.2335C29.5964 36.2335 26.6391 40.2207 26.6391 45.084C26.6391 50.0129 29.5964 54 33.3864 54Z" fill="#4ECDC4"/>
</g>
<defs>
<clipPath id="clip0_30_1830">
<rect width="46.5809" height="54" fill="white" transform="translate(0.0845337)"/>
</clipPath>
</defs>
</svg>
