<svg width="239" height="40" viewBox="0 0 239 40" fill="none" xmlns="http://www.w3.org/2000/svg">
<g style="mix-blend-mode:multiply" opacity="0.55">
<path fill-rule="evenodd" clip-rule="evenodd" d="M195.937 26.0234C195.562 26.0587 195.186 26.094 194.809 26.1293C181.35 27.3924 167.414 28.2503 153.732 29.0926C146.294 29.5505 138.931 30.0038 131.76 30.5151C111.621 31.9509 91.7362 33.6208 71.7564 35.2986C59.4873 36.329 47.1823 37.3623 34.7605 38.3464C33.0567 38.4813 31.1637 38.6601 29.1508 38.8503C23.5322 39.381 16.9794 40 11 40H4.00903C1.74203 40 0.249034 37.557 1.09903 35.456C2.06503 33.067 3.00003 30.189 3.00003 28C3.00003 20.617 6.92603 17.462 8.67603 16.422C9.20303 16.109 9.81503 16 10.428 16H11C15.7743 16 20.5193 15.551 25.7113 15.0597C27.9959 14.8436 30.367 14.6192 32.8652 14.4213C45.0361 13.4572 57.2452 12.4322 69.484 11.4046C89.6058 9.7153 109.808 8.01922 130.053 6.57584C137.736 6.0281 145.331 5.56153 152.863 5.09882C166.25 4.27644 179.439 3.46626 192.567 2.23431C193.062 2.18783 193.56 2.14105 194.059 2.09409C204.748 1.0886 216.32 0 228 0H234.991C237.258 0 238.751 2.443 237.901 4.544C236.935 6.933 236 9.811 236 12C236 19.383 232.074 22.538 230.324 23.578C229.797 23.891 229.185 24 228.572 24H228C217.475 24 206.911 24.9924 195.937 26.0234Z" fill="#FFA400"/>
</g>
</svg>
