<svg width="223" height="32" viewBox="0 0 223 32" fill="none" xmlns="http://www.w3.org/2000/svg">
<g style="mix-blend-mode:multiply" opacity="0.55">
<path fill-rule="evenodd" clip-rule="evenodd" d="M194.765 25.3029C192.975 25.5074 191.105 25.7211 189.117 25.932C174.627 27.4694 159.721 27.7028 145.603 27.9238C143.028 27.9641 140.478 28.004 137.963 28.0514C126.764 28.2621 115.514 28.932 104.007 29.6521C103.139 29.7064 102.268 29.7611 101.396 29.8158C90.7962 30.4816 79.964 31.1618 69.1031 31.4907C51.7951 32.0148 34.4931 32.0063 17.3932 31.998C15.2589 31.997 13.1277 31.9959 11 31.9959H4.00903C1.74203 31.9959 0.249034 29.5529 1.09903 27.4519C2.06503 25.0629 3.00003 22.1849 3.00003 19.9959C3.00003 12.6129 6.92603 9.45794 8.67603 8.41794C9.20303 8.10494 9.81503 7.99594 10.428 7.99594H11C13.1375 7.99594 15.2711 7.99693 17.4011 7.99792C34.5461 8.00592 51.4629 8.01381 68.3767 7.50169C78.8298 7.18518 89.2854 6.52882 99.9625 5.85855C100.81 5.80537 101.658 5.75211 102.508 5.69891C113.994 4.98017 125.725 4.27743 137.511 4.05562C140.181 4.00538 142.833 3.96319 145.468 3.92127C159.61 3.69628 173.267 3.47903 186.585 2.06596C188.127 1.90234 189.709 1.72029 191.329 1.53399C197.708 0.80005 204.661 0 212 0H218.991C221.258 0 222.751 2.443 221.901 4.544C220.935 6.933 220 9.811 220 12C220 19.383 216.074 22.538 214.324 23.578C213.797 23.891 213.185 24 212.572 24H212C206.166 24 200.939 24.5973 194.765 25.3029Z" fill="#F0DCCA"/>
</g>
</svg>
