<svg width="223" height="44" viewBox="0 0 223 44" fill="none" xmlns="http://www.w3.org/2000/svg">
<rect x="11" width="36" height="23" fill="white"/>
<g style="mix-blend-mode:multiply" opacity="0.55">
<path fill-rule="evenodd" clip-rule="evenodd" d="M194.765 37.3029C192.975 37.5074 191.105 37.7211 189.117 37.932C174.627 39.4694 159.721 39.7028 145.603 39.9238C143.028 39.9641 140.478 40.004 137.963 40.0514C126.764 40.2621 115.514 40.932 104.007 41.6521C103.139 41.7064 102.268 41.7611 101.396 41.8158C90.7962 42.4816 79.964 43.1618 69.1031 43.4907C51.7951 44.0148 34.4931 44.0063 17.3932 43.998C15.2589 43.997 13.1277 43.9959 11 43.9959H4.00903C1.74203 43.9959 0.249034 41.5529 1.09903 39.4519C2.06503 37.0629 3.00003 34.1849 3.00003 31.9959C3.00003 24.6129 6.92603 21.4579 8.67603 20.4179C9.20303 20.1049 9.81503 19.9959 10.428 19.9959H11C13.1375 19.9959 15.2711 19.9969 17.4011 19.9979C34.5461 20.0059 51.4629 20.0138 68.3767 19.5017C78.8298 19.1852 89.2854 18.5288 99.9625 17.8586C100.81 17.8054 101.658 17.7521 102.508 17.6989C113.994 16.9802 125.725 16.2774 137.511 16.0556C140.181 16.0054 142.833 15.9632 145.468 15.9213C159.61 15.6963 173.267 15.479 186.585 14.066C188.127 13.9023 189.709 13.7203 191.329 13.534C197.708 12.8 204.661 12 212 12H218.991C221.258 12 222.751 14.443 221.901 16.544C220.935 18.933 220 21.811 220 24C220 31.383 216.074 34.538 214.324 35.578C213.797 35.891 213.185 36 212.572 36H212C206.166 36 200.939 36.5973 194.765 37.3029Z" fill="#F0DCCA"/>
</g>
</svg>
